<?xml version="1.0" encoding="utf-8"?>
<!-- Generator: Adobe Illustrator 27.3.1, SVG Export Plug-In . SVG Version: 6.00 Build 0)  -->
<svg version="1.1" id="Layer_1" xmlns="http://www.w3.org/2000/svg" xmlns:xlink="http://www.w3.org/1999/xlink" x="0px" y="0px"
	 viewBox="0 0 25 30" style="enable-background:new 0 0 25 30;" xml:space="preserve">
<style type="text/css">
	.st0{fill-rule:evenodd;clip-rule:evenodd;fill:#131B4C;}
</style>
<path class="st0" d="M18.5,0h-0.2c-1.6,0.2-3.3,1.2-4.2,2.2c-1,1.1-1.8,2.6-1.6,4.7c2.1,0.2,3.5-0.9,4.4-2.1
	C17.8,3.7,18.7,2.1,18.5,0z M24.7,22.1L24.7,22.1c-2.1-1-3.8-2.7-4-5.6c-0.3-3.2,1.3-5,3.2-6.2c-1-1.6-2.6-2.6-4.9-2.9
	C17.3,7,15.9,7.5,14.6,8c-0.1,0-0.2,0.1-0.3,0.1c-0.1,0-0.2,0.1-0.4,0.1c-0.4,0.2-0.8,0.3-1.1,0.3c-0.6,0-1.2-0.2-1.7-0.5
	C10.9,8.1,10.7,8,10.6,8C9.9,7.7,9.2,7.5,8.5,7.4c-1.7-0.3-3.2,0.3-4.4,1C2,9.7,0.4,12.3,0.3,15.6v1.3c0.3,4.6,2.1,8.1,4.4,10.9
	c0.8,0.9,1.8,2,3.1,2.2h0.6c0.8-0.1,1.4-0.4,2-0.6c0.8-0.3,1.7-0.6,2.8-0.6c0.9,0,1.7,0.3,2.4,0.6c0.8,0.3,1.5,0.6,2.4,0.6
	c2,0,3.1-1.6,4.1-2.9c0-0.1,0.1-0.1,0.1-0.2C23.3,25.5,24.1,23.9,24.7,22.1z"/>
</svg>
