<svg width="150" height="150" viewBox="0 0 150 150" fill="none" xmlns="http://www.w3.org/2000/svg">
<g clip-path="url(#clip0_1365_12968)">
<path d="M75.2949 94.4747H25.4912C24.6823 94.4747 24.0264 93.8188 24.0264 93.0099V58.1473C24.0264 57.3384 24.6823 56.6825 25.4912 56.6825C26.3001 56.6825 26.956 57.3384 26.956 58.1473V91.5451H73.8301V56.3895C73.8468 50.1693 71.3751 44.2011 66.966 39.8137C64.4104 37.2632 61.3033 35.3337 57.8841 34.1742C57.1107 33.9369 56.6762 33.1174 56.9135 32.344C57.1508 31.5706 57.9702 31.1361 58.7437 31.3734C58.77 31.3816 58.7958 31.3904 58.8216 31.3998C62.6632 32.7055 66.1542 34.8755 69.0255 37.7424C73.9895 42.6751 76.7744 49.3886 76.7597 56.3866V93.007C76.7615 93.8159 76.1067 94.473 75.2978 94.4747C75.2969 94.4747 75.2958 94.4747 75.2949 94.4747Z" fill="#1F2F40"/>
<path d="M148.535 94.4748H72.3649C71.5561 94.4748 70.9001 93.8189 70.9001 93.01C70.9001 92.2011 71.5561 91.5452 72.3649 91.5452H147.071V56.3896C147.071 43.4456 136.577 32.9526 123.633 32.9526H58.455C57.6462 32.9526 56.9902 32.2966 56.9902 31.4878C56.9902 30.6789 57.6462 30.0229 58.455 30.0229H123.633C138.195 30.0229 150 41.8276 150 56.3896V93.01C150 93.8189 149.344 94.4748 148.535 94.4748Z" fill="#1F2F40"/>
<path d="M94.5094 150H79.5039C78.695 150 78.0391 149.344 78.0391 148.535V93.0097C78.0391 92.2009 78.695 91.5449 79.5039 91.5449H94.5094C95.3183 91.5449 95.9743 92.2009 95.9743 93.0097V148.535C95.9743 149.344 95.3183 150 94.5094 150ZM80.9687 147.07H93.0446V94.4746H80.9687V147.07Z" fill="#1F2F40"/>
<path d="M133.53 70.4633H112.519C111.71 70.4633 111.054 69.8074 111.054 68.9985C111.054 68.1896 111.71 67.5337 112.519 67.5337H133.53C134.339 67.5337 134.995 68.1896 134.995 68.9985C134.995 69.8074 134.339 70.4633 133.53 70.4633Z" fill="#2AB26E"/>
<path d="M133.53 82.4692H112.519C111.71 82.4692 111.054 81.8132 111.054 81.0044C111.054 80.1955 111.71 79.5396 112.519 79.5396H133.53C134.339 79.5396 134.995 80.1955 134.995 81.0044C134.995 81.8132 134.339 82.4692 133.53 82.4692Z" fill="#2AB26E"/>
<path d="M100.513 58.458C96.3883 58.458 93.0449 55.1146 93.0449 50.9902C93.0449 46.8658 96.3883 43.5225 100.513 43.5225C104.632 43.5225 107.974 46.8588 107.98 50.9785C107.982 55.1056 104.64 58.453 100.513 58.458ZM100.513 46.4463C98.0063 46.4463 95.9746 48.478 95.9746 50.9844C95.9746 53.4907 98.0063 55.5225 100.513 55.5225C103.019 55.5225 105.051 53.4907 105.051 50.9844C105.051 50.9823 105.051 50.9806 105.051 50.9785C105.041 48.478 103.013 46.4554 100.513 46.4521V46.4463Z" fill="#1F2F40"/>
<path d="M100.513 46.4525C99.7038 46.4525 99.0479 45.7965 99.0479 44.9876V13.4795C99.0479 12.6706 99.7038 12.0146 100.513 12.0146C101.322 12.0146 101.977 12.6706 101.977 13.4795V44.9876C101.977 45.7965 101.322 46.4525 100.513 46.4525Z" fill="#1F2F40"/>
<path d="M127.527 20.941H100.513C99.7038 20.941 99.0479 20.2851 99.0479 19.4762V1.46774C99.0479 0.658874 99.7038 0.00292969 100.513 0.00292969H109.949C120.461 0.0158201 128.979 8.53401 128.992 19.0455V19.4762C128.992 20.2851 128.336 20.941 127.527 20.941ZM101.977 18.0114H126.027C125.473 9.53624 118.442 2.94223 109.949 2.93256H101.977V18.0114Z" fill="#1F2F40"/>
<path d="M29.9818 59.9578C13.425 59.9596 0.00175795 46.5386 1.72646e-07 29.9818C-0.00175761 13.425 13.4192 0.00175795 29.976 1.72646e-07C46.5328 -0.00175761 59.9561 13.4192 59.9578 29.976V29.9818C59.9385 46.529 46.529 59.9385 29.9818 59.9578ZM29.9818 2.93256C15.0431 2.9308 2.93139 15.0401 2.92963 29.9789C2.92787 44.9177 15.0372 57.0294 29.976 57.0311C44.9147 57.0329 57.0264 44.9235 57.0282 29.9848C57.0282 29.9839 57.0282 29.9827 57.0282 29.9818C57.0103 15.0516 44.9121 2.9519 29.9818 2.93256Z" fill="#2AB26E"/>
<path d="M25.737 38.8731C25.3483 38.8737 24.9753 38.7198 24.6999 38.4453L18.3339 32.0763C17.752 31.5144 17.7359 30.5869 18.2978 30.0051C18.8597 29.4233 19.7872 29.4071 20.3691 29.969C20.3814 29.9808 20.3934 29.9928 20.4051 30.0051L25.737 35.337L39.5532 21.5179C40.1151 20.9361 41.0426 20.92 41.6244 21.4819C42.2062 22.0438 42.2224 22.9713 41.6605 23.5532C41.6487 23.5655 41.6367 23.5772 41.6244 23.5892L26.7712 38.4453C26.4967 38.7193 26.1249 38.8731 25.737 38.8731Z" fill="#2AB26E"/>
</g>
<defs>
<clipPath id="clip0_1365_12968">
<rect width="150" height="150" fill="white"/>
</clipPath>
</defs>
</svg>
