<svg width="203" height="75" viewBox="0 0 203 75" fill="none" xmlns="http://www.w3.org/2000/svg">
<path fill-rule="evenodd" clip-rule="evenodd" d="M20.5528 54.5825C20.3387 54.4907 20.1246 54.4141 19.8951 54.3529C18.8704 54.1234 17.6622 54.0775 16.3163 54.1693C15.9645 54.1999 15.6892 53.8939 15.5821 53.5572C15.5057 53.2818 15.628 52.6238 15.7504 52.2259C16.8516 48.9513 18.5798 43.5955 20.8128 37.138C23.3517 28.9055 23.1375 29.7624 25.1564 22.9529C26.0129 19.8619 26.227 18.8213 26.5176 17.9338C26.6399 17.5819 26.7317 17.2758 26.8082 17.0463C26.8235 17.0004 26.8541 16.9545 26.8846 16.9239C27.3435 16.5566 27.6188 16.4801 28.567 16.2047C29.7141 15.868 33.6142 15.2712 34.8071 15.2865C36.0154 15.3172 36.1071 15.9598 36.4895 16.679C36.5201 16.7403 36.5507 16.8015 36.5965 16.8474C37.2695 17.8267 38.0036 17.7961 38.0036 17.7961C38.1107 17.7961 38.5236 17.7808 38.7072 17.7502C40.0989 17.536 40.6648 16.2965 40.9095 15.562L40.9401 15.4702L40.9554 15.3631C41.0625 14.8428 41.1237 14.2307 41.0319 13.6339C40.8637 12.3944 40.1754 11.3998 39.166 10.7112C38.8907 10.5582 38.3707 10.1909 36.7648 10.0532C34.1953 9.77777 28.3529 10.65 26.9764 10.8795C23.627 11.4304 20.5069 12.2108 20.5069 12.2108C19.2069 12.5628 16.0716 13.4962 15.368 13.7563C12.8292 14.7204 12.3397 14.9346 10.5197 15.8068C5.36552 18.1327 10.1068 23.917 11.5444 21.3003C12.248 19.9996 19.2375 17.2299 20.7516 17.4748C20.8128 17.4901 20.8587 17.536 20.8587 17.5819C20.9657 18.347 19.574 21.8665 18.7022 25.1105C18.0139 27.2681 17.448 29.1503 15.0468 36.679C11.055 48.8442 9.80088 53.2665 9.26558 55.2252C9.23499 55.3323 9.03616 55.4241 8.9444 55.4853C8.45498 55.776 5.91612 57.0308 4.76904 57.7806C3.88197 58.3621 3.39256 58.6987 2.75019 59.4792C2.21489 60.1678 1.84941 61.0088 2.06096 61.7741C2.24649 62.4452 2.60449 63.0214 3.04873 63.3526C3.97656 64.0444 5.60839 63.9025 5.60839 63.9025C6.58723 63.9025 6.19142 62.4631 8.02674 61.2695C9.11264 60.5656 10.2903 59.724 13.0433 58.9589C16.561 57.9795 18.0445 58.2856 19.6963 58.8059C20.3081 59.0048 21.1952 58.8212 21.8681 58.2244C22.3116 57.8265 22.4034 57.0002 22.2352 56.434C21.9599 55.4394 21.501 55.0415 20.5528 54.5825Z" fill="black"/>
<path d="M37.1487 38.762C36.2974 40.6634 35.5169 42.6783 34.8217 44.8351C34.1264 46.9777 33.502 49.2765 32.9486 51.7312C32.6507 53.1786 32.5513 54.3563 32.6507 55.2502C32.6507 55.307 32.6649 55.3354 32.6932 55.3638C32.7216 55.3921 32.7358 55.4489 32.7358 55.5482C32.8351 56.1016 33.0905 56.4422 33.4878 56.5982C34.0412 56.7543 34.6372 56.5699 35.2899 56.0732C35.9426 55.5766 36.5528 54.9239 37.1204 54.1293C37.6879 53.3347 38.2271 52.4975 38.738 51.6177C39.2346 50.738 39.6177 50.0285 39.8589 49.4751C39.9583 49.2765 40.1144 49.0778 40.313 48.8791C40.611 48.5812 41.0367 48.4535 41.5901 48.5102C42.0867 48.567 42.3421 48.8366 42.3421 49.3332C42.3421 49.5319 42.2854 49.7873 42.186 50.0853C41.7887 50.9366 41.1644 52.1144 40.313 53.6468C39.4616 55.1651 38.5109 56.6266 37.4609 58.0314C37.1629 58.3294 36.8933 58.6273 36.6379 58.9253C36.1413 59.5213 35.6447 60.0179 35.1338 60.4294C35.0771 60.472 35.0345 60.5146 34.9777 60.5429C34.921 60.5713 34.8784 60.6281 34.8217 60.7274C34.4669 60.9261 34.098 61.1105 33.7007 61.295C33.3034 61.4653 32.8493 61.5788 32.3527 61.6355C32.154 61.6781 31.7993 61.6639 31.3027 61.5646C30.352 61.3092 29.6283 60.7842 29.1317 59.947C28.635 59.124 28.2519 58.23 28.0107 57.2793C27.7553 56.1726 27.6134 54.9806 27.5566 53.6752C27.5141 53.1218 27.4999 52.5968 27.5141 52.1002C27.5424 51.6035 27.5708 51.0785 27.6276 50.5251C27.7269 49.4325 27.883 48.3683 28.0816 47.3467C28.2803 46.325 28.5073 45.4169 28.7627 44.6081C28.9614 43.7142 29.2168 42.8344 29.5148 41.983C30.4655 39.2303 31.4446 36.6762 32.4378 34.3065C33.4311 31.9369 34.4385 29.6949 35.4318 27.5949C32.0263 27.5949 28.6634 27.5807 25.3147 27.5523C21.9659 27.5239 18.5888 27.5381 15.1975 27.5949C14.6442 27.5949 14.3036 27.4671 14.1475 27.2259C14.0482 27.0698 13.9772 26.9279 13.9205 26.7719C13.7644 25.8779 13.8495 25.1117 14.1475 24.4873C14.4455 23.863 14.9138 23.3806 15.5381 23.0258C16.1624 22.6711 16.8719 22.4441 17.6807 22.3163C18.4895 22.1886 19.3125 22.1603 20.1497 22.2028C23.1437 22.3022 26.0951 22.4015 28.9898 22.515C31.8844 22.6285 34.8075 22.7562 37.7589 22.8981C38.6103 21.3373 39.3907 19.9041 40.1144 18.6413C40.838 17.3642 41.4766 16.3 42.0299 15.4628C42.6259 14.4695 43.2077 13.5898 43.7469 12.8377C44.0449 12.483 44.3428 12.2134 44.6408 12.0148C44.8962 11.8161 45.18 11.66 45.5064 11.5607C45.8327 11.4614 46.1733 11.5323 46.5138 11.7877C46.8118 11.9864 47.2091 12.3411 47.7199 12.8377C48.2166 13.3344 48.6565 13.9161 49.0254 14.5547C49.3943 15.2074 49.6497 15.8885 49.7774 16.6122C49.9051 17.3358 49.7916 18.0027 49.4369 18.5987C49.1815 18.996 48.7558 19.592 48.1598 20.4008C47.5639 21.1954 46.8118 22.1745 45.9179 23.3238C47.6206 23.4231 46.301 23.5225 48.997 23.5934C51.693 23.6785 51.1254 23.7637 54.3323 23.863C57.5249 23.9623 56.8864 24.0759 60.3628 24.1752C63.8392 24.2745 62.023 24.2319 65.2156 24.3171C68.4083 24.4022 64.4494 24.3029 67.2022 24.388C69.9549 24.4732 66.8758 24.4022 68.6211 24.459C68.7772 24.459 66.9609 24.913 67.2873 24.9698C67.6137 25.0265 67.9258 25.0975 68.2238 25.1968C68.5218 25.2962 68.7914 25.4097 69.0042 25.5374C69.2313 25.6651 69.3448 25.8212 69.3448 26.0198C69.3448 26.2185 69.1177 26.3887 68.6637 26.5448C68.2096 26.7009 67.6988 26.8002 67.1312 26.8854C66.5636 26.9563 67.3724 26.7151 66.7765 26.7435C66.1805 26.7719 69.9691 27.0698 69.6286 27.0698C67.8833 27.1692 68.5076 27.3962 65.7832 27.453C63.0588 27.5097 65.7406 27.4813 62.5196 27.5239C59.2986 27.5807 62.1933 27.5381 58.731 27.5665C55.2546 27.5949 54.8998 27.609 51.6788 27.609H43.08C42.0867 29.1131 41.0792 30.7875 40.086 32.6321C39.0785 34.4768 38.0994 36.5201 37.1487 38.762Z" fill="black"/>
<path d="M42.0146 56.7545C42.0572 56.797 42.0856 56.8538 42.0856 56.9105C42.0856 56.9531 42.0288 57.1376 41.9295 57.4356C41.8301 57.5349 41.7592 57.691 41.7024 57.8896C41.6457 58.0883 41.6315 58.2727 41.6315 58.4572C41.6315 58.6275 41.6882 58.8119 41.816 58.9822C41.9437 59.1525 42.1707 59.266 42.5254 59.3228C42.9795 59.4221 43.3059 59.3511 43.5329 59.0957C43.7599 58.8403 43.9018 58.514 43.9869 58.0883C44.0579 57.6626 44.0721 57.166 44.0295 56.5842C43.9728 56.0166 43.9302 55.449 43.8734 54.8956C43.7741 53.7463 43.6606 52.6963 43.5329 51.7456C43.4052 50.7949 43.2917 49.8158 43.1923 48.8225V47.9286C42.795 48.7232 42.4119 49.4468 42.0288 50.0996C41.6599 50.7523 41.3477 51.2773 41.0923 51.6746C40.993 51.8733 40.8369 52.0435 40.6382 52.1996C40.4821 52.2989 40.3119 52.3699 40.1132 52.3841C39.9146 52.4125 39.7159 52.2989 39.5172 52.0435C39.2618 51.7881 39.1341 51.5753 39.1058 51.3624C39.0774 51.1638 39.0916 50.9651 39.1483 50.7665C39.2051 50.5678 39.3044 50.3408 39.4463 50.0854C39.7443 49.3901 40.1132 48.5813 40.5389 47.6873C40.9646 46.7934 41.3619 45.8853 41.745 44.9913C42.1139 44.0974 42.4687 43.2744 42.795 42.5507C43.1214 41.8271 43.3342 41.2595 43.4336 40.8622C43.5329 39.7696 43.6606 38.7905 43.8025 37.9391C43.9586 37.0878 44.1572 36.5628 44.3984 36.3641C44.7532 36.0661 45.2072 35.7965 45.789 35.5837C46.3566 35.3566 46.9951 35.1864 47.662 35.0587C48.3431 34.931 49.0242 34.86 49.7195 34.8316C50.4148 34.8033 51.0675 34.8174 51.6635 34.8742C51.9189 34.9735 52.1176 35.1296 52.2594 35.3283C52.3588 35.5269 52.4155 35.8107 52.4155 36.1513C52.4155 36.506 52.2878 37.031 52.0466 37.7263C51.7912 38.2797 51.5642 38.9892 51.3371 39.8689C51.1101 40.7487 50.9114 41.7136 50.7412 42.792C50.5709 43.8704 50.4716 45.0055 50.4432 46.1974C50.4148 47.4036 50.4858 48.5529 50.6277 49.6455C50.8263 50.7949 51.025 52.1287 51.2236 53.6611C51.4223 55.1794 51.3939 56.6409 51.1527 58.0457C50.8972 59.4505 50.2729 60.6566 49.2796 61.6782C48.2864 62.6999 46.6546 63.2675 44.4126 63.3668C43.0646 63.4093 41.9437 63.2391 41.0355 62.8418C40.2409 62.5438 39.5598 62.0188 39.0064 61.2667C38.453 60.5147 38.3253 59.4221 38.6375 57.9748C38.6943 57.6768 38.7652 57.4072 38.8645 57.1518C38.9639 56.8964 39.0916 56.6693 39.2335 56.4423C39.3895 56.2153 39.5882 56.0308 39.8294 55.8747C39.872 55.8179 39.9571 55.8038 40.0565 55.8038C40.3119 55.8038 40.5531 55.8321 40.8085 55.8747C41.0639 55.974 41.2909 56.0876 41.518 56.2153C41.745 56.343 41.9153 56.499 42.0146 56.7545Z" fill="black"/>
<path d="M98.3763 50.0996C97.8229 51.3057 97.1134 52.7105 96.2336 54.3281C95.3539 55.9599 94.3464 57.464 93.1971 58.8687C92.0477 60.2735 90.7565 61.3803 89.3375 62.2033C87.9186 63.0263 86.4003 63.2107 84.7969 62.7709C83.9029 62.5155 83.1651 62.0898 82.6259 61.4654C82.0725 60.8411 81.6326 60.089 81.3204 59.2235C80.9941 58.3437 80.7812 57.393 80.6819 56.3714C80.5826 55.3497 80.5826 54.3423 80.6819 53.3348C80.7812 52.0436 80.9799 50.7949 81.2779 49.6314C81.5759 48.4536 81.9022 47.4178 82.257 46.5239C82.6543 45.4738 83.0799 44.4947 83.534 43.6008C84.3854 41.9974 85.3077 40.6778 86.301 39.6277C87.1523 38.7338 88.1456 38.0243 89.295 37.5277C90.4443 37.0311 91.6646 37.1729 92.97 37.9818C93.4667 37.4851 94.0343 37.102 94.6586 36.8608C95.2829 36.6054 95.9498 36.5344 96.6451 36.6337C97.7377 36.7898 98.5749 37.2581 99.1141 38.0527C99.6533 38.8473 100.008 39.7696 100.122 40.8197C100.249 41.8697 100.235 42.9623 100.079 44.1116C99.9229 45.261 99.7526 46.2401 99.554 47.0347C100.859 46.6374 102.051 46.0556 103.158 45.3177C104.251 44.5657 105.088 43.913 105.627 43.3738C105.883 43.1184 106.095 42.9481 106.308 42.8488C106.507 42.7494 106.663 42.7211 106.791 42.7778C106.918 42.8346 107.003 43.0474 107.046 43.4589C107.089 43.7569 107.089 44.0549 107.046 44.3529C106.947 44.9488 106.72 45.4738 106.365 45.9279C105.57 46.8218 104.435 47.6874 102.988 48.5104C101.583 49.3192 100.022 49.8584 98.3763 50.0996ZM86.23 53.2497C85.8327 54.5977 85.6624 55.6761 85.705 56.4707C85.7476 57.2653 85.8753 57.8755 86.0739 58.2728C86.2726 58.7694 86.5706 59.0674 86.9679 59.1667C87.6206 59.3654 88.3159 59.2093 89.0679 58.7127C89.82 58.216 90.5436 57.5065 91.2389 56.6126C91.9342 55.7187 92.6011 54.6686 93.2255 53.4625C93.8498 52.2564 94.4174 51.0361 94.914 49.7874C94.2187 49.5888 93.5376 49.2199 92.8849 48.6665C92.0335 47.9712 91.4518 47.1198 91.1254 46.1124C90.799 45.1191 90.6855 44.0832 90.7849 43.0332C90.1321 43.6859 89.5362 44.5515 88.9828 45.6583C88.4294 46.7651 87.9611 47.886 87.5638 49.0354C87.0814 50.355 86.6273 51.7598 86.23 53.2497ZM93.5802 43.4305C93.5234 44.0265 93.5802 44.5373 93.7363 44.963C93.8924 45.3887 94.091 45.7434 94.3322 46.0556C94.5735 46.3678 94.8573 46.5948 95.1552 46.7651C95.4532 46.9353 95.7086 47.0489 95.9073 47.1056C96.6026 44.8637 96.8296 43.1893 96.5884 42.0825C96.489 41.7278 96.2904 41.4724 95.9924 41.3021C95.6944 41.1318 95.3823 41.0751 95.0559 41.146C94.7295 41.217 94.4316 41.4298 94.162 41.7845C93.864 42.1393 93.6795 42.6927 93.5802 43.4305Z" fill="black"/>
<path d="M184.822 52.0576C183.686 52.157 182.977 50.5961 182.693 47.3609C182.296 42.9054 182.977 37.0877 184.708 29.8936C186.255 23.4657 188.184 18.3149 190.511 14.4412C191.774 12.3411 193.108 11.0357 194.485 10.5107C195.208 10.2553 195.889 10.1134 196.514 10.0566C197.166 9.99986 197.734 9.99986 198.231 10.0424C198.727 10.0992 199.167 10.1985 199.55 10.3404C200.387 10.6384 200.841 11.0783 200.898 11.66C200.955 12.2418 200.771 12.8803 200.359 13.5614C199.948 14.2425 199.309 15.4344 198.415 17.0946C197.535 18.769 196.514 20.9258 195.379 23.6076C192.612 30.0213 190.029 37.5417 187.631 46.169C187.376 47.0345 187.163 47.8291 186.992 48.5386C186.836 49.2339 186.666 49.8299 186.482 50.3407C186.099 51.4333 185.545 51.9867 184.822 52.0576ZM180.082 64.814C179.529 64.3458 179.075 63.8066 178.706 63.1822C178.351 62.5295 178.124 61.7775 178.053 60.9261C177.968 60.0463 178.067 59.2517 178.337 58.5564C178.621 57.8328 179.004 57.2368 179.486 56.7686C180.323 55.9456 181.246 55.4915 182.239 55.4064C183.261 55.3212 184.126 55.307 184.836 55.3922C185.574 55.4631 186.24 55.6334 186.879 55.8746C188.411 56.4848 189.234 57.4922 189.348 58.8828C189.504 60.6281 189.064 62.189 188.043 63.5937C187.078 64.8992 186.028 65.6512 184.878 65.864C183.743 66.0769 182.807 66.0627 182.069 65.8357C181.331 65.6228 180.664 65.2823 180.082 64.814Z" fill="black"/>
<path d="M109.713 49.6597L107.088 57.8328C106.932 58.6842 106.833 59.3795 106.748 59.9329C106.677 60.4863 106.578 60.912 106.492 61.2099C106.294 61.9052 105.882 62.4444 105.258 62.8275C104.634 63.1965 103.952 63.4803 103.229 63.6505C102.505 63.8208 101.781 63.9201 101.058 63.9485C100.334 63.9769 99.7949 63.9343 99.4402 63.835C99.0429 63.7357 98.7591 63.5512 98.6172 63.2674C98.4611 62.9978 98.3618 62.6856 98.3192 62.3309C98.2625 61.9336 98.2625 61.5079 98.3192 61.0538C98.9719 58.4004 99.7665 55.5625 100.717 52.5118C101.569 49.9151 102.647 46.9211 103.938 43.5156C105.23 40.1243 106.805 36.5202 108.663 32.7174L108.734 32.6464L110.38 29.2693C111.374 27.1693 112.353 25.2962 113.303 23.6503C114.254 22.0043 115.077 20.5711 115.772 19.3792C114.978 19.2231 113.786 18.9961 112.211 18.6697C110.636 18.3434 109.032 18.017 107.415 17.6906C105.783 17.3643 104.336 17.0947 103.073 16.8677C101.796 16.6406 101.044 16.5555 100.788 16.6122C99.7949 16.8109 99.1138 17.1656 98.7591 17.6623C98.7023 17.7616 98.6314 18.0028 98.5321 18.3717C98.4327 18.7407 98.5746 19.0812 98.9861 19.3792L99.6672 19.8333C99.9226 19.9894 100.036 20.1454 100.008 20.3157C99.9794 20.486 99.951 20.6279 99.8943 20.7272C99.2983 21.7205 98.6598 22.4016 97.9787 22.7563C97.2976 23.111 96.7158 23.3239 96.2192 23.4374C95.5664 23.5367 95.0698 23.4374 94.7151 23.1394C94.3178 22.9408 93.9063 22.657 93.4806 22.2739C93.0549 21.9049 92.6718 21.4225 92.317 20.8549C91.9623 20.2873 91.7211 19.6488 91.565 18.9393C91.4089 18.244 91.4373 17.492 91.6359 16.6974C91.8914 15.8034 92.161 15.094 92.4589 14.5973C92.615 14.3419 93.0265 13.8737 93.6934 13.1784C94.3745 12.4831 95.4245 11.9297 96.8719 11.5324C99.0145 10.979 101.54 10.8087 104.435 11.0074C107.33 11.206 110.324 11.5608 113.388 12.0574C116.468 12.554 119.504 13.1074 122.527 13.7034C125.549 14.2994 128.288 14.6967 130.728 14.9095C134.971 15.3068 138.362 15.3636 140.888 15.0656C143.414 14.7676 145.372 14.3703 146.776 13.8595C148.38 13.3061 149.501 12.5824 150.154 11.6885C150.253 11.3905 150.381 11.1351 150.522 10.9364C150.622 10.7378 150.764 10.5675 150.934 10.4114C151.104 10.2553 151.317 10.156 151.573 10.1134C151.97 10.0141 152.367 10.0567 152.779 10.227C153.176 10.3972 153.502 10.7662 153.758 11.3196C154.013 11.9723 154.141 12.5966 154.169 13.1926C154.198 13.7885 154.183 14.3419 154.127 14.8386C154.07 15.3919 153.985 15.9453 153.829 16.4845C153.077 18.5278 151.672 20.0319 149.6 20.9826C147.528 21.9333 145.102 22.5009 142.335 22.6712C139.568 22.8414 136.574 22.7563 133.382 22.4158C130.189 22.061 127.081 21.6211 124.087 21.0678C123.832 21.5644 123.435 22.132 122.881 22.7563C122.328 23.3807 121.675 24.2178 120.895 25.2679C120.114 26.3179 119.249 27.6943 118.27 29.397C117.291 31.0998 116.255 33.2991 115.162 35.9951L109.713 49.6597Z" fill="black"/>
<path d="M121.947 40.5927C122.145 40.7913 122.273 41.0467 122.316 41.3447C122.358 41.6001 122.358 41.9123 122.273 42.3238C122.202 42.7211 122.018 43.2035 121.705 43.7428C121.507 44.0975 121.209 44.6367 120.812 45.3887C120.414 46.1408 119.974 47.0063 119.506 47.9712C119.024 48.9503 118.57 49.972 118.116 51.0504C117.661 52.1288 117.321 53.122 117.066 54.0443C116.81 54.9667 116.711 55.7613 116.768 56.3998C116.81 57.0525 117.094 57.4498 117.591 57.6059C118.144 57.8046 118.726 57.6485 119.35 57.1235C119.974 56.5985 120.585 55.9457 121.18 55.1795C121.776 54.3991 122.316 53.5761 122.798 52.7105C123.266 51.8308 123.664 51.1213 123.962 50.5679C124.004 50.3693 124.132 50.1706 124.331 49.972C124.685 49.6172 125.125 49.4753 125.679 49.5179C126.175 49.674 126.431 49.972 126.431 50.4118C126.431 50.6105 126.374 50.8375 126.275 51.0929C125.977 51.7456 125.537 52.6112 124.969 53.6754C124.401 54.7538 123.749 55.8322 123.025 56.939C122.301 58.0316 121.521 59.0816 120.698 60.0465C119.875 61.0256 119.009 61.7635 118.116 62.2601C117.562 62.6148 117.009 62.8277 116.47 62.8986C115.916 62.9696 115.42 62.9838 114.965 62.9412C114.412 62.8844 113.915 62.7851 113.461 62.6432C112.567 62.2459 111.915 61.5932 111.517 60.6992C111.12 59.8053 110.907 58.7695 110.879 57.6201C110.851 56.4708 110.978 55.2079 111.248 53.8315C111.517 52.4551 111.858 51.0929 112.255 49.7449C113.206 46.5948 114.582 43.1042 116.384 39.2589C116.484 38.9609 116.64 38.7055 116.838 38.5068C116.995 38.3082 117.165 38.1379 117.363 37.9818C117.562 37.8257 117.789 37.8115 118.045 37.9109C118.499 38.0669 119.095 38.3649 119.847 38.8048C120.599 39.2447 121.294 39.8406 121.947 40.5927ZM119.847 35.6405C119.293 35.0446 119.123 34.3351 119.322 33.4979C119.52 32.6749 119.747 32.0364 120.003 31.5823C120.258 31.185 120.485 30.8303 120.712 30.5323C120.939 30.2343 121.124 29.9647 121.28 29.7093L121.734 29.0282C121.989 28.6735 122.231 28.4039 122.486 28.2052C122.741 28.0066 122.983 27.8647 123.238 27.7937C123.493 27.7228 123.791 27.8079 124.132 28.0491C124.43 28.2478 124.799 28.5741 125.224 29.0282C125.65 29.4823 126.019 29.9789 126.345 30.5323C126.672 31.0857 126.899 31.6675 127.027 32.2918C127.154 32.9161 127.069 33.4979 126.771 34.0513C126.572 34.3493 126.289 34.7466 125.906 35.2574C125.537 35.754 125.012 36.4351 124.373 37.2865C124.118 37.5845 123.806 37.7264 123.394 37.698C122.997 37.6696 122.571 37.5419 122.117 37.3291C121.663 37.1021 121.237 36.8466 120.84 36.5487C120.414 36.2365 120.088 35.9385 119.847 35.6405Z" fill="black"/>
<path d="M147.871 62.544C146.622 61.9906 145.856 60.9973 145.586 59.55C145.317 58.1027 145.302 56.4567 145.544 54.5978C145.799 52.7532 146.239 50.866 146.892 48.9362C147.544 47.0064 148.183 45.2753 148.836 43.7287L148.68 43.7996C147.686 45.105 146.636 46.6233 145.53 48.3686C144.579 49.8727 143.543 51.7457 142.422 53.9877C141.301 56.2296 140.18 58.8405 139.087 61.7777C138.931 62.0332 138.775 62.2176 138.605 62.3453C138.435 62.473 138.264 62.5865 138.123 62.6859C137.966 62.7284 137.825 62.7568 137.669 62.7568H137.3C136.902 62.7001 136.533 62.6149 136.207 62.5014C135.881 62.3737 135.639 62.2602 135.498 62.1609C134.504 61.4656 133.908 60.373 133.738 58.8973C133.568 57.4216 133.624 55.8181 133.922 54.0586C134.22 52.3133 134.689 50.5113 135.313 48.6666C135.937 46.822 136.548 45.1618 137.143 43.7145L136.987 43.7854C135.881 45.1902 134.76 46.8645 133.61 48.8085C132.617 50.4545 131.51 52.4978 130.318 54.91C129.112 57.3364 127.949 60.1176 126.799 63.2676C126.743 63.5656 126.629 63.7501 126.459 63.8352C126.288 63.9062 126.147 63.9487 126.047 63.9487C125.054 63.8494 124.259 63.6224 123.692 63.2676C123.124 62.9129 122.656 62.544 122.301 62.1467C122.046 61.8913 121.932 61.5933 121.932 61.2527C121.89 61.0541 121.89 60.898 121.932 60.7987C121.989 59.848 122.103 58.8121 122.301 57.6912C122.5 56.5702 122.727 55.4492 122.982 54.3141C123.238 53.1931 123.507 52.1005 123.805 51.0505C124.103 50.0004 124.373 49.0497 124.628 48.1984C124.827 47.5031 125.04 46.822 125.267 46.1693C125.494 45.5165 125.678 44.9632 125.834 44.5233C126.033 44.0266 126.161 43.6435 126.203 43.4023C126.459 42.6077 126.714 41.8415 126.984 41.1178C127.253 40.3941 127.523 39.7556 127.764 39.2022C128.02 38.6062 128.232 38.0245 128.445 37.4853C128.445 37.4427 128.474 37.3859 128.516 37.3292C128.516 37.2866 128.559 37.1589 128.672 36.9603C128.828 36.7616 128.999 36.563 129.197 36.3643C129.396 36.1656 129.666 36.1089 130.02 36.2082C130.418 36.3075 130.971 36.5488 131.666 36.9177C132.362 37.2866 133.043 37.8258 133.695 38.5353C133.738 38.5921 133.795 38.6914 133.852 38.8333C133.894 38.9326 133.951 39.0603 134.008 39.2022C134.05 39.3583 134.079 39.5286 134.079 39.7272C134.079 39.9826 134.05 40.238 134.008 40.5076C133.951 40.7772 133.809 41.0894 133.554 41.4441C133.554 41.5435 133.525 41.6144 133.483 41.6712C133.426 41.7705 133.284 42.0827 133.029 42.6077C132.773 43.1327 132.546 43.601 132.347 43.9983C132.191 44.3956 132.021 44.8213 131.822 45.2753C131.624 45.7294 131.468 46.0983 131.368 46.3963L130.687 48.1984C131.482 46.751 132.333 45.3321 133.241 43.9273C134.135 42.5226 135.058 41.3306 135.98 40.3232C136.902 39.3299 137.81 38.6062 138.719 38.1522C139.612 37.6981 140.435 37.6555 141.188 37.9961C141.642 38.1947 142.181 38.4927 142.833 38.89C143.486 39.2873 144.111 39.8124 144.707 40.4651C144.863 40.7205 144.962 40.9901 145.005 41.2881C145.047 41.5435 145.047 41.8556 145.005 42.2671C144.948 42.6644 144.777 43.1469 144.479 43.6861C144.323 43.9415 144.111 44.3246 143.798 44.8496C143.5 45.3747 143.174 45.9848 142.819 46.6801C142.465 47.3754 142.096 48.1416 141.698 48.9646C141.301 49.7876 140.946 50.5964 140.648 51.4052C141.5 49.7592 142.436 48.0423 143.458 46.2686C144.479 44.4949 145.544 42.9199 146.636 41.5435C147.729 40.1671 148.821 39.1171 149.9 38.3934C150.978 37.6697 151.957 37.5278 152.865 37.9819C153.32 38.1806 153.859 38.4785 154.511 38.8758C155.164 39.2732 155.789 39.7982 156.385 40.4509C156.541 40.7063 156.64 40.9759 156.682 41.2739C156.725 41.5293 156.725 41.8415 156.682 42.253C156.626 42.6503 156.455 43.1327 156.157 43.6719C155.959 44.0266 155.661 44.5658 155.264 45.3179C154.866 46.0699 154.426 46.9355 153.958 47.9004C153.476 48.8795 153.022 49.9011 152.568 50.9795C152.113 52.0579 151.773 53.0512 151.517 53.9735C151.262 54.8958 151.149 55.6904 151.177 56.329C151.205 56.9817 151.461 57.379 151.957 57.5351C152.553 57.6912 153.163 57.5067 153.788 57.0101C154.412 56.5134 155.022 55.8607 155.618 55.0661C156.214 54.2715 156.753 53.4343 157.236 52.5546C157.704 51.6748 158.101 50.9653 158.399 50.4119C158.442 50.2133 158.57 50.0146 158.768 49.816C159.066 49.518 159.52 49.3903 160.116 49.447C160.414 49.5038 160.599 49.6031 160.684 49.745C160.755 49.9011 160.797 50.0714 160.797 50.27C160.797 50.4687 160.741 50.7241 160.641 51.0221C160.343 51.6748 159.918 52.5262 159.364 53.5762C158.811 54.6262 158.172 55.7046 157.449 56.7972C156.725 57.8898 155.93 58.9398 155.093 59.9473C154.242 60.9406 153.376 61.6926 152.468 62.1892C151.915 62.4872 151.361 62.6717 150.822 62.7568C150.269 62.8278 149.772 62.842 149.318 62.7994C148.821 62.8136 148.325 62.7143 147.871 62.544Z" fill="black"/>
<path d="M159.053 49.2058C160.003 46.6517 161.082 44.5942 162.274 43.0192C163.48 41.4441 164.672 40.2522 165.864 39.415C167.07 38.592 168.248 38.1096 169.425 37.9535C170.603 37.7974 171.639 37.9109 172.533 38.2515C173.384 38.6062 173.994 39.117 174.363 39.7839C174.732 40.465 174.973 41.1745 175.073 41.9266C175.115 42.182 175.158 42.4516 175.186 42.7495C175.215 43.0475 175.2 43.4023 175.144 43.7996C175.087 44.4949 174.917 45.4172 174.619 46.5382C174.321 47.6591 173.767 48.7943 172.973 49.9436C172.178 51.093 171.029 52.1856 169.567 53.2072C168.091 54.2289 166.133 54.9667 163.679 55.4208C163.579 56.2722 163.622 57.0952 163.82 57.8898C164.019 58.6844 164.601 59.2662 165.552 59.6067C165.75 59.706 165.977 59.7628 166.233 59.7628H166.304L166.375 59.8337C167.268 59.9331 168.12 59.8763 168.929 59.6777C169.723 59.479 170.461 59.1952 171.142 58.8121C171.823 58.4432 172.419 58.0175 172.944 57.535C173.469 57.0526 173.923 56.5985 174.335 56.1445C174.434 56.0451 174.519 55.9458 174.59 55.8465C174.661 55.7472 174.746 55.6478 174.846 55.5485C175.144 55.1512 175.314 54.9242 175.371 54.8674C175.924 54.1154 176.421 53.3491 176.875 52.5403C177.329 51.7457 177.669 51.0646 177.925 50.5112C177.967 50.3126 178.095 50.1139 178.294 49.9153C178.648 49.5605 179.088 49.4186 179.642 49.4612C179.94 49.5605 180.124 49.6882 180.209 49.8301C180.28 49.9862 180.323 50.1565 180.323 50.3551C180.323 50.5538 180.266 50.7808 180.167 51.0362C179.911 51.5329 179.628 52.1288 179.301 52.7957C178.975 53.4768 178.563 54.2147 178.067 55.0093C177.868 55.5059 177.386 56.2864 176.648 57.3364C176.548 57.4925 176.435 57.6486 176.307 57.8188C176.179 57.9891 176.023 58.2019 175.825 58.4574C174.831 59.6067 173.583 60.7419 172.121 61.8628C170.646 62.9838 168.914 63.594 166.914 63.6933C166.318 63.7926 165.637 63.7926 164.885 63.6933C163.04 63.4946 161.593 63.069 160.571 62.4162C159.549 61.7635 158.783 60.9689 158.286 60.0182C157.832 59.1668 157.577 58.2445 157.492 57.2512C157.421 56.258 157.449 55.2505 157.605 54.2573V54.1863C157.875 52.7248 158.343 51.0504 159.053 49.2058ZM165.339 50.4119C165.14 50.8092 164.97 51.1639 164.856 51.4619C164.729 51.7599 164.615 52.0579 164.516 52.3559C165.864 52.1572 167.013 51.7315 167.964 51.0788C168.914 50.4261 169.709 49.7024 170.362 48.9078C171.015 48.1132 171.497 47.3186 171.823 46.5523C172.15 45.7719 172.334 45.1476 172.391 44.6368C172.49 43.7428 172.405 43.2036 172.135 43.0192C171.866 42.8489 171.667 42.7637 171.568 42.7637C171.312 42.7637 170.986 42.8489 170.589 43.0192C170.192 43.1894 169.723 43.5442 169.198 44.0692C168.673 44.5942 168.091 45.3604 167.439 46.3537C166.786 47.3611 166.091 48.7091 165.339 50.4119Z" fill="black"/>
<path d="M68.4804 59.2236C66.65 60.3729 64.7628 61.0824 62.8046 61.352C60.6478 61.6642 58.8457 61.4939 57.4126 60.8412C55.9794 60.1885 54.8868 59.1384 54.1348 57.7195C53.3828 56.3005 52.9571 54.5552 52.8577 52.4835C52.7584 50.4261 52.9713 48.1416 53.4821 45.6442C54.0071 43.1468 54.8017 40.4934 55.9085 37.6839C57.0011 34.8743 58.3633 32.0222 59.9951 29.1418C61.3857 26.6444 62.8188 24.2748 64.3229 22.0328C65.827 19.7767 67.3878 17.8043 68.9912 16.1016C70.5947 14.3988 72.269 13.0083 73.9718 11.9299C75.6887 10.8515 77.4766 10.2413 79.3638 10.0852C80.0875 10.0143 80.8537 10.1846 81.6625 10.5961C82.4713 11.0076 83.195 11.6035 83.8619 12.3839C84.5288 13.1785 85.0538 14.1576 85.4653 15.3212C85.8768 16.4989 86.0471 17.8327 85.9761 19.3226C85.9193 20.6706 85.6072 22.1605 85.0396 23.7639C84.472 25.3815 83.7909 26.9566 82.9963 28.5316C82.2017 30.0925 81.3787 31.5398 80.499 32.8594C79.6192 34.1791 78.8388 35.2149 78.1435 35.9953C77.8171 36.3359 77.3914 36.5913 76.8381 36.7474C76.2847 36.9034 75.6887 37.017 75.0502 37.0737C74.4116 37.1305 73.7589 37.1163 73.1204 37.0595C72.4677 36.9886 71.9143 36.8751 71.446 36.719C70.9778 36.5629 70.623 36.3784 70.4102 36.1514C70.1973 35.9244 70.1832 35.6973 70.3818 35.4419C70.9352 35.0162 71.5454 34.3635 72.2265 33.498C72.9076 32.6182 73.6028 31.6391 74.3265 30.5465C75.0502 29.4539 75.7738 28.3046 76.4975 27.1127C77.2212 25.9207 77.8739 24.7856 78.484 23.7072C79.08 22.643 79.605 21.6923 80.0165 20.8693C80.428 20.0463 80.726 19.4645 80.8679 19.1098C81.3929 17.8043 81.4922 16.8536 81.1517 16.2435C80.8253 15.6333 80.1158 15.6617 79.0516 16.3286C77.1928 17.5064 75.334 19.3226 73.4468 21.8058C71.5595 24.2889 69.6298 27.2262 67.6432 30.6033C66.9479 31.7243 66.1391 33.2425 65.2168 35.1439C64.2945 37.0595 63.4006 39.1028 62.5208 41.2738C61.6411 43.459 60.8748 45.6584 60.2221 47.8578C57.7106 57.3222 62.01 57.4925 64.3371 56.5985C64.408 56.5701 66.0256 55.9174 66.0824 55.889C73.319 52.5545 70.2967 58.0884 68.4804 59.2236Z" fill="black"/>
<path d="M73.2601 46.7365C72.2242 46.9919 71.6283 46.9352 71.0323 46.5804C70.4364 46.2399 70.3654 46.1689 69.9397 45.6439C69.514 45.1189 69.3863 44.7783 69.2161 44.225C69.0742 43.7283 69.0742 43.402 69.2019 43.1749C69.3438 42.9337 69.5566 42.8628 69.6134 42.8344C70.2945 42.4938 74.4946 41.5857 75.8851 41.1458C78.9075 40.3228 80.4967 39.7269 81.9583 39.216C83.0792 38.8045 84.484 38.2937 85.307 37.9532C85.5624 37.8255 85.8462 37.9248 86.1442 38.2086C86.4422 38.5066 86.4989 39.0458 86.3003 39.812C85.7327 41.9972 85.0658 44.2959 84.2712 46.6939C83.4765 49.092 82.8238 51.3907 82.2846 53.6184C81.7454 55.8462 81.4474 57.8895 81.4049 59.7483C81.3623 61.6071 81.8022 63.097 82.7245 64.2322C82.4407 64.9275 81.9583 65.3674 81.2914 65.5376C80.6244 65.7221 79.915 65.6795 79.1771 65.3957C78.4393 65.1119 77.744 64.6295 77.1196 63.92C76.4811 63.2105 76.0412 62.3024 75.8 61.1814C75.6723 59.4078 75.8426 57.7901 76.3108 56.3428C76.7933 54.8955 77.4176 53.4623 78.198 52.0576C78.9785 50.6528 79.8298 49.2055 80.7238 47.7298C81.6177 46.2541 82.4123 44.5655 83.0934 42.6641L82.3272 44.1398C81.3055 45.9277 80.1136 47.7581 78.7656 49.617C77.4176 51.4758 75.9419 53.2211 74.3243 54.8245C72.7067 56.4279 70.9898 57.8043 69.1735 58.9537C67.343 60.103 65.4558 60.8125 63.4977 61.0821C61.3409 61.3943 61.426 58.3152 62.774 57.0523C66.591 56.13 70.6066 52.9515 71.3445 52.242C75.6155 48.1696 76.2257 46.7791 77.3609 45.4027C76.3392 46.0554 73.2601 46.7365 73.2601 46.7365Z" fill="url(#paint0_linear_5250_7576)"/>
<defs>
<linearGradient id="paint0_linear_5250_7576" x1="64.9304" y1="56.4003" x2="87.0049" y2="50.4871" gradientUnits="userSpaceOnUse">
<stop/>
<stop offset="1" stop-color="#E5B80B"/>
</linearGradient>
</defs>
</svg>
