<svg width="1430" height="530" viewBox="0 0 1430 530" fill="none" xmlns="http://www.w3.org/2000/svg">
<path fill-rule="evenodd" clip-rule="evenodd" d="M142.412 382.784C140.896 382.134 139.379 381.592 137.754 381.159C130.496 379.533 121.938 379.208 112.404 379.858C109.913 380.075 107.963 377.907 107.204 375.523C106.663 373.572 107.529 368.911 108.396 366.093C116.196 342.898 128.437 304.962 144.254 259.223C162.237 200.91 160.72 206.98 175.02 158.748C181.087 136.853 182.604 129.483 184.662 123.196C185.528 120.704 186.178 118.536 186.72 116.91C186.828 116.585 187.045 116.26 187.262 116.043C190.512 113.442 192.462 112.9 199.178 110.949C207.303 108.564 234.928 104.337 243.378 104.445C251.936 104.662 252.586 109.214 255.294 114.309C255.511 114.742 255.728 115.176 256.053 115.501C260.819 122.438 266.019 122.221 266.019 122.221C266.778 122.221 269.702 122.113 271.002 121.896C280.861 120.378 284.869 111.599 286.602 106.396L286.819 105.746L286.927 104.987C287.686 101.302 288.119 96.9667 287.469 92.7396C286.277 83.9602 281.402 76.915 274.252 72.0376C272.302 70.9537 268.619 68.3524 257.244 67.3769C239.045 65.4259 197.662 71.604 187.912 73.2298C164.187 77.1318 142.087 82.6595 142.087 82.6595C132.879 85.1525 110.671 91.7641 105.688 93.6067C87.7046 100.435 84.238 101.953 71.3464 108.131C34.8385 124.605 68.4215 165.576 78.6047 147.042C83.588 137.829 133.096 118.211 143.821 119.945C144.254 120.053 144.579 120.378 144.579 120.704C145.337 126.123 135.479 151.052 129.304 174.03C124.429 189.313 120.421 202.644 103.413 255.971C75.1381 342.139 66.2548 373.463 62.4632 387.337C62.2465 388.095 60.8382 388.746 60.1882 389.179C56.7216 391.239 38.7385 400.126 30.6136 405.437C24.3303 409.556 20.8637 411.941 16.3137 417.468C12.5221 422.346 9.93334 428.303 11.4318 433.724C12.746 438.477 15.2817 442.559 18.4283 444.905C25.0003 449.805 36.5588 448.8 36.5588 448.8C43.492 448.8 40.6885 438.604 53.6883 430.15C61.3799 425.164 69.7215 419.203 89.2212 413.783C114.138 406.846 124.646 409.014 136.346 412.699C140.679 414.108 146.962 412.808 151.729 408.581C154.87 405.763 155.52 399.91 154.329 395.899C152.379 388.854 149.129 386.036 142.412 382.784Z" fill="black"/>
<path d="M259.954 270.726C253.923 284.194 248.395 298.466 243.471 313.743C238.546 328.92 234.124 345.202 230.204 362.589C228.093 372.841 227.39 381.183 228.093 387.515C228.093 387.917 228.194 388.118 228.395 388.319C228.596 388.52 228.696 388.922 228.696 389.626C229.4 393.545 231.209 395.958 234.023 397.063C237.943 398.169 242.164 396.862 246.787 393.344C251.411 389.827 255.732 385.203 259.753 379.575C263.773 373.947 267.592 368.017 271.21 361.785C274.728 355.554 277.442 350.529 279.15 346.609C279.854 345.202 280.96 343.795 282.367 342.388C284.477 340.277 287.493 339.372 291.412 339.774C294.93 340.176 296.739 342.086 296.739 345.604C296.739 347.011 296.337 348.82 295.634 350.931C292.819 356.961 288.397 365.303 282.367 376.158C276.336 386.912 269.602 397.264 262.165 407.214C260.054 409.325 258.145 411.436 256.336 413.546C252.818 417.767 249.3 421.285 245.682 424.2C245.28 424.501 244.978 424.803 244.576 425.004C244.174 425.205 243.873 425.607 243.471 426.311C240.958 427.718 238.345 429.024 235.531 430.331C232.716 431.537 229.5 432.341 225.982 432.743C224.575 433.044 222.063 432.944 218.545 432.24C211.811 430.431 206.685 426.713 203.167 420.783C199.65 414.953 196.936 408.621 195.227 401.887C193.418 394.048 192.413 385.605 192.011 376.359C191.71 372.439 191.609 368.72 191.71 365.203C191.911 361.685 192.112 357.966 192.514 354.046C193.217 346.307 194.323 338.769 195.73 331.533C197.137 324.296 198.745 317.864 200.554 312.135C201.961 305.803 203.771 299.572 205.881 293.541C212.615 274.043 219.55 255.952 226.586 239.167C233.621 222.383 240.757 206.503 247.792 191.628C223.671 191.628 199.851 191.527 176.131 191.326C152.412 191.125 128.491 191.226 104.47 191.628C100.55 191.628 98.1381 190.723 97.0325 189.014C96.329 187.909 95.8264 186.904 95.4244 185.798C94.3188 179.466 94.9219 174.039 97.0325 169.617C99.1431 165.194 102.46 161.777 106.882 159.264C111.304 156.752 116.33 155.144 122.059 154.239C127.788 153.335 133.617 153.134 139.547 153.435C160.754 154.139 181.659 154.842 202.162 155.646C222.666 156.45 243.37 157.355 264.276 158.36C270.306 147.304 275.834 137.153 280.96 128.208C286.085 119.162 290.608 111.624 294.528 105.694C298.749 98.659 302.87 92.4276 306.689 87.1007C308.8 84.588 310.911 82.6784 313.021 81.2713C314.83 79.8642 316.841 78.7587 319.152 78.0551C321.464 77.3516 323.876 77.8541 326.288 79.6632C328.399 81.0703 331.213 83.583 334.831 87.1007C338.349 90.6184 341.465 94.7392 344.078 99.262C346.691 103.885 348.5 108.71 349.405 113.835C350.309 118.961 349.505 123.685 346.992 127.906C345.183 130.721 342.168 134.942 337.947 140.671C333.726 146.299 328.399 153.234 322.067 161.375C334.128 162.079 324.781 162.782 343.877 163.285C362.973 163.888 358.953 164.491 381.667 165.194C404.281 165.898 399.758 166.702 424.383 167.405C449.007 168.109 436.142 167.808 458.756 168.411C481.37 169.014 453.328 168.31 472.827 168.913C492.325 169.516 470.515 169.014 482.877 169.416C483.983 169.416 471.118 172.632 473.43 173.034C475.741 173.436 477.953 173.938 480.063 174.642C482.174 175.346 484.084 176.15 485.591 177.054C487.199 177.959 488.003 179.064 488.003 180.471C488.003 181.878 486.395 183.085 483.179 184.19C479.963 185.296 476.345 185.999 472.324 186.602C468.304 187.105 474.033 185.396 469.812 185.597C465.59 185.798 492.426 187.909 490.013 187.909C477.651 188.612 482.073 190.221 462.776 190.623C443.479 191.025 462.475 190.824 439.66 191.125C416.845 191.527 437.348 191.226 412.824 191.427C388.2 191.628 385.688 191.728 362.873 191.728H301.966C294.93 202.382 287.794 214.242 280.759 227.307C273.623 240.373 266.688 254.846 259.954 270.726Z" fill="black"/>
<path d="M294.43 398.17C294.732 398.472 294.933 398.874 294.933 399.276C294.933 399.577 294.531 400.884 293.827 402.994C293.124 403.698 292.621 404.803 292.219 406.211C291.817 407.618 291.716 408.924 291.716 410.231C291.716 411.437 292.118 412.743 293.023 413.95C293.928 415.156 295.536 415.96 298.048 416.362C301.265 417.065 303.576 416.563 305.184 414.754C306.792 412.944 307.798 410.633 308.401 407.618C308.903 404.602 309.004 401.085 308.702 396.964C308.3 392.944 307.999 388.923 307.597 385.004C306.893 376.863 306.089 369.425 305.184 362.691C304.28 355.957 303.476 349.022 302.772 341.987V335.655C299.958 341.283 297.244 346.409 294.531 351.032C291.917 355.656 289.706 359.374 287.897 362.189C287.194 363.596 286.088 364.802 284.681 365.907C283.575 366.611 282.369 367.113 280.962 367.214C279.555 367.415 278.148 366.611 276.741 364.802C274.932 362.993 274.027 361.485 273.826 359.977C273.625 358.57 273.726 357.163 274.128 355.756C274.53 354.349 275.233 352.741 276.238 350.932C278.349 346.007 280.962 340.278 283.977 333.946C286.993 327.614 289.807 321.182 292.521 314.85C295.134 308.518 297.646 302.689 299.958 297.563C302.27 292.437 303.777 288.417 304.481 285.603C305.184 277.864 306.089 270.929 307.094 264.898C308.2 258.868 309.607 255.149 311.315 253.742C313.828 251.631 317.044 249.722 321.165 248.214C325.185 246.606 329.708 245.4 334.432 244.495C339.256 243.591 344.08 243.088 349.005 242.887C353.93 242.686 358.553 242.787 362.775 243.189C364.584 243.892 365.991 244.998 366.996 246.405C367.699 247.812 368.101 249.822 368.101 252.234C368.101 254.747 367.197 258.466 365.488 263.391C363.679 267.31 362.071 272.336 360.463 278.567C358.855 284.799 357.448 291.633 356.242 299.271C355.036 306.91 354.332 314.951 354.131 323.393C353.93 331.936 354.433 340.077 355.438 347.816C356.845 355.957 358.252 365.405 359.659 376.26C361.066 387.014 360.865 397.366 359.156 407.316C357.347 417.266 352.925 425.809 345.89 433.046C338.854 440.282 327.296 444.303 311.416 445.006C301.868 445.308 293.928 444.102 287.495 441.287C281.867 439.177 277.042 435.458 273.123 430.131C269.203 424.804 268.298 417.065 270.51 406.814C270.912 404.703 271.414 402.793 272.118 400.984C272.821 399.175 273.726 397.567 274.731 395.959C275.836 394.351 277.243 393.044 278.952 391.939C279.254 391.537 279.857 391.436 280.56 391.436C282.369 391.436 284.078 391.637 285.887 391.939C287.696 392.642 289.304 393.446 290.912 394.351C292.521 395.255 293.727 396.361 294.43 398.17Z" fill="black"/>
<path d="M693.641 351.032C689.721 359.575 684.696 369.526 678.464 380.983C672.233 392.542 665.097 403.195 656.956 413.145C648.815 423.096 639.669 430.935 629.618 436.764C619.567 442.594 608.813 443.9 597.456 440.785C591.124 438.976 585.898 435.96 582.078 431.538C578.159 427.116 575.043 421.789 572.832 415.658C570.52 409.427 569.012 402.693 568.309 395.456C567.605 388.22 567.605 381.084 568.309 373.948C569.012 364.802 570.42 355.957 572.53 347.716C574.641 339.374 576.952 332.037 579.465 325.705C582.279 318.267 585.295 311.332 588.511 305C594.541 293.643 601.074 284.296 608.11 276.858C614.14 270.527 621.175 265.501 629.316 261.983C637.457 258.466 646.101 259.471 655.348 265.2C658.865 261.682 662.886 258.968 667.308 257.26C671.73 255.451 676.454 254.948 681.379 255.652C689.118 256.757 695.048 260.074 698.867 265.702C702.686 271.331 705.199 277.864 706.003 285.301C706.908 292.738 706.807 300.477 705.701 308.619C704.596 316.76 703.39 323.695 701.983 329.323C711.229 326.509 719.672 322.388 727.511 317.162C735.25 311.835 741.18 307.211 745 303.392C746.809 301.583 748.316 300.377 749.824 299.673C751.231 298.97 752.337 298.769 753.241 299.171C754.146 299.573 754.749 301.081 755.05 303.995C755.352 306.106 755.352 308.217 755.05 310.327C754.347 314.548 752.739 318.267 750.226 321.483C744.598 327.815 736.557 333.946 726.305 339.776C716.355 345.504 705.299 349.324 693.641 351.032ZM607.607 373.345C604.793 382.893 603.587 390.531 603.888 396.16C604.19 401.788 605.094 406.11 606.501 408.924C607.909 412.442 610.019 414.553 612.833 415.256C617.457 416.663 622.381 415.558 627.708 412.04C633.035 408.522 638.161 403.497 643.086 397.165C648.011 390.833 652.735 383.395 657.157 374.852C661.579 366.309 665.599 357.666 669.117 348.821C664.192 347.414 659.368 344.801 654.745 340.881C648.714 335.956 644.593 329.926 642.282 322.79C639.97 315.755 639.166 308.418 639.87 300.98C635.246 305.603 631.025 311.734 627.105 319.574C623.186 327.413 619.869 335.353 617.055 343.494C613.637 352.841 610.421 362.792 607.607 373.345ZM659.669 303.794C659.267 308.016 659.669 311.634 660.775 314.649C661.881 317.664 663.288 320.177 664.996 322.388C666.705 324.599 668.715 326.207 670.826 327.413C672.936 328.619 674.745 329.423 676.153 329.825C681.077 313.945 682.685 302.086 680.977 294.246C680.273 291.733 678.866 289.924 676.756 288.718C674.645 287.512 672.434 287.11 670.122 287.613C667.81 288.115 665.7 289.623 663.79 292.135C661.68 294.648 660.373 298.568 659.669 303.794Z" fill="black"/>
<path d="M1305.93 364.902C1297.89 365.605 1292.86 354.55 1290.85 331.634C1288.04 300.075 1292.86 258.867 1305.12 207.91C1316.08 162.381 1329.75 125.897 1346.23 98.4588C1355.18 83.5838 1364.62 74.3372 1374.37 70.6184C1379.5 68.8093 1384.32 67.8043 1388.75 67.4022C1393.37 67.0002 1397.39 67.0002 1400.91 67.3017C1404.43 67.7037 1407.54 68.4073 1410.25 69.4124C1416.18 71.523 1419.4 74.6387 1419.8 78.7595C1420.21 82.8802 1418.9 87.403 1415.98 92.2274C1413.07 97.0517 1408.55 105.494 1402.21 117.254C1395.98 129.113 1388.75 144.39 1380.71 163.386C1361.11 208.815 1342.81 262.084 1325.83 323.192C1324.02 329.323 1322.51 334.951 1321.31 339.976C1320.2 344.901 1318.99 349.122 1317.69 352.741C1314.97 360.48 1311.05 364.399 1305.93 364.902ZM1272.36 455.257C1268.44 451.941 1265.22 448.121 1262.61 443.699C1260.1 439.076 1258.49 433.749 1257.99 427.718C1257.38 421.487 1258.09 415.859 1260 410.934C1262.01 405.808 1264.72 401.587 1268.14 398.27C1274.07 392.441 1280.6 389.224 1287.64 388.621C1294.87 388.018 1301 387.918 1306.03 388.521C1311.26 389.023 1315.98 390.229 1320.5 391.938C1331.36 396.26 1337.19 403.396 1337.99 413.246C1339.1 425.608 1335.98 436.664 1328.74 446.614C1321.91 455.86 1314.47 461.187 1306.33 462.695C1298.29 464.202 1291.66 464.102 1286.43 462.494C1281.2 460.986 1276.48 458.574 1272.36 455.257Z" fill="black"/>
<path d="M773.945 347.916L755.351 405.808C754.246 411.838 753.542 416.763 752.939 420.683C752.436 424.603 751.733 427.618 751.13 429.728C749.723 434.653 746.808 438.473 742.386 441.186C737.964 443.799 733.139 445.81 728.013 447.016C722.888 448.222 717.762 448.925 712.636 449.126C707.51 449.327 703.691 449.026 701.178 448.322C698.364 447.619 696.354 446.312 695.349 444.302C694.243 442.392 693.54 440.181 693.238 437.668C692.836 434.854 692.836 431.839 693.238 428.623C697.861 409.828 703.49 389.727 710.224 368.118C716.254 349.725 723.893 328.518 733.039 304.397C742.185 280.376 753.341 254.847 766.507 227.911L767.01 227.409L778.669 203.488C785.704 188.613 792.639 175.346 799.373 163.687C806.107 152.029 811.936 141.877 816.861 133.435C811.233 132.329 802.79 130.721 791.634 128.41C780.478 126.098 769.121 123.786 757.663 121.475C746.105 119.163 735.853 117.253 726.908 115.645C717.862 114.037 712.535 113.434 710.726 113.836C703.691 115.243 698.866 117.756 696.354 121.274C695.952 121.977 695.449 123.686 694.746 126.299C694.042 128.912 695.047 131.324 697.962 133.435L702.786 136.651C704.595 137.757 705.399 138.862 705.198 140.068C704.997 141.274 704.796 142.279 704.394 142.983C700.173 150.019 695.65 154.843 690.826 157.355C686.002 159.868 681.881 161.376 678.363 162.18C673.74 162.883 670.222 162.18 667.709 160.069C664.895 158.662 661.981 156.652 658.965 153.938C655.95 151.325 653.236 147.908 650.724 143.888C648.211 139.867 646.502 135.345 645.397 130.319C644.291 125.394 644.492 120.068 645.899 114.439C647.709 108.107 649.618 103.082 651.729 99.5642C652.834 97.7551 655.749 94.4383 660.473 89.5135C665.297 84.5887 672.735 80.6689 682.986 77.8547C698.163 73.935 716.053 72.7289 736.556 74.136C757.06 75.5431 778.267 78.0558 799.976 81.5735C821.786 85.0912 843.294 89.011 864.702 93.2323C886.11 97.4535 905.508 100.268 922.795 101.775C952.847 104.59 976.868 104.992 994.758 102.881C1012.65 100.77 1026.52 97.9561 1036.47 94.3378C1047.83 90.4181 1055.77 85.2922 1060.39 78.9603C1061.09 76.8497 1062 75.0406 1063 73.6335C1063.71 72.2264 1064.71 71.0203 1065.92 69.9147C1067.12 68.8092 1068.63 68.1056 1070.44 67.8041C1073.25 67.1005 1076.07 67.4021 1078.98 68.6081C1081.8 69.8142 1084.11 72.4274 1085.92 76.3471C1087.73 80.9705 1088.63 85.3927 1088.83 89.614C1089.03 93.8353 1088.93 97.7551 1088.53 101.273C1088.13 105.193 1087.53 109.112 1086.42 112.932C1081.09 127.405 1071.14 138.058 1056.47 144.792C1041.79 151.526 1024.61 155.546 1005.01 156.752C985.411 157.959 964.204 157.355 941.59 154.943C918.976 152.431 896.965 149.315 875.758 145.395C873.949 148.913 871.135 152.933 867.215 157.355C863.295 161.778 858.672 167.708 853.144 175.145C847.616 182.583 841.485 192.332 834.55 204.393C827.615 216.453 820.278 232.032 812.539 251.128L773.945 347.916Z" fill="black"/>
<path d="M860.587 283.693C861.994 285.101 862.898 286.91 863.2 289.02C863.501 290.829 863.501 293.041 862.898 295.955C862.396 298.769 861.089 302.187 858.878 306.006C857.471 308.519 855.36 312.338 852.546 317.665C849.732 322.992 846.616 329.122 843.3 335.957C839.882 342.892 836.666 350.128 833.45 357.767C830.234 365.405 827.822 372.441 826.012 378.974C824.203 385.507 823.5 391.135 823.902 395.658C824.203 400.281 826.213 403.095 829.731 404.201C833.651 405.608 837.772 404.502 842.194 400.784C846.616 397.065 850.938 392.442 855.159 387.014C859.381 381.486 863.2 375.657 866.617 369.526C869.934 363.295 872.748 358.269 874.859 354.35C875.16 352.942 876.065 351.535 877.472 350.128C879.984 347.616 883.1 346.611 887.02 346.912C890.538 348.018 892.347 350.128 892.347 353.244C892.347 354.651 891.945 356.259 891.241 358.068C889.131 362.692 886.015 368.823 881.995 376.361C877.974 383.999 873.351 391.638 868.225 399.477C863.099 407.216 857.572 414.654 851.742 421.488C845.913 428.423 839.782 433.649 833.45 437.167C829.53 439.68 825.61 441.187 821.791 441.69C817.871 442.192 814.354 442.293 811.137 441.991C807.218 441.589 803.7 440.886 800.484 439.881C794.152 437.067 789.529 432.443 786.714 426.111C783.9 419.779 782.393 412.442 782.192 404.301C781.991 396.16 782.895 387.215 784.805 377.466C786.714 367.717 789.127 358.068 791.941 348.52C798.675 326.208 808.424 301.483 821.188 274.246C821.892 272.135 822.997 270.326 824.404 268.919C825.51 267.512 826.716 266.306 828.123 265.2C829.53 264.095 831.138 263.994 832.947 264.698C836.164 265.803 840.385 267.914 845.712 271.03C851.039 274.145 855.963 278.367 860.587 283.693ZM845.712 248.617C841.792 244.395 840.586 239.37 841.993 233.44C843.4 227.611 845.008 223.088 846.817 219.872C848.626 217.058 850.235 214.545 851.843 212.434C853.451 210.324 854.757 208.414 855.863 206.605L859.079 201.781C860.888 199.268 862.597 197.358 864.406 195.951C866.215 194.544 867.924 193.539 869.733 193.036C871.542 192.534 873.653 193.137 876.065 194.846C878.175 196.253 880.789 198.564 883.804 201.781C886.819 204.997 889.432 208.514 891.744 212.434C894.055 216.354 895.664 220.475 896.568 224.897C897.473 229.319 896.87 233.44 894.759 237.36C893.352 239.471 891.342 242.285 888.628 245.903C886.015 249.421 882.296 254.245 877.773 260.275C875.964 262.386 873.753 263.391 870.838 263.19C868.024 262.989 865.009 262.084 861.793 260.577C858.577 258.969 855.561 257.16 852.747 255.049C849.732 252.838 847.42 250.727 845.712 248.617Z" fill="black"/>
<path d="M1044.21 439.177C1035.37 435.257 1029.94 428.222 1028.03 417.97C1026.12 407.718 1026.02 396.06 1027.73 382.893C1029.54 369.827 1032.65 356.46 1037.28 342.791C1041.9 329.122 1046.42 316.86 1051.05 305.905L1049.94 306.408C1042.91 315.654 1035.47 326.409 1027.63 338.771C1020.89 349.425 1013.56 362.691 1005.62 378.572C997.677 394.452 989.737 412.945 981.998 433.75C980.893 435.559 979.787 436.865 978.581 437.77C977.375 438.674 976.169 439.479 975.164 440.182C974.058 440.484 973.053 440.685 971.948 440.685H969.335C966.52 440.283 963.907 439.68 961.596 438.875C959.284 437.971 957.575 437.167 956.57 436.463C949.535 431.539 945.314 423.799 944.107 413.347C942.901 402.894 943.303 391.537 945.414 379.074C947.525 366.712 950.841 353.947 955.264 340.882C959.686 327.816 964.008 316.056 968.229 305.805L967.123 306.307C959.284 316.257 951.344 328.117 943.203 341.887C936.167 353.545 928.328 368.018 919.885 385.104C911.342 402.291 903.101 421.99 894.96 444.303C894.558 446.413 893.754 447.72 892.547 448.323C891.341 448.826 890.336 449.127 889.633 449.127C882.597 448.424 876.969 446.816 872.949 444.303C868.928 441.79 865.612 439.177 863.099 436.363C861.29 434.554 860.486 432.443 860.486 430.031C860.184 428.624 860.184 427.518 860.486 426.815C860.888 420.081 861.692 412.744 863.099 404.804C864.506 396.864 866.114 388.924 867.923 380.883C869.732 372.943 871.642 365.204 873.753 357.767C875.863 350.329 877.773 343.595 879.582 337.565C880.989 332.64 882.497 327.816 884.105 323.192C885.713 318.569 887.02 314.649 888.125 311.534C889.532 308.016 890.437 305.302 890.738 303.594C892.547 297.965 894.357 292.538 896.266 287.412C898.176 282.286 900.085 277.763 901.794 273.844C903.603 269.622 905.111 265.502 906.618 261.682C906.618 261.381 906.819 260.979 907.121 260.577C907.121 260.275 907.423 259.371 908.227 257.964C909.332 256.556 910.538 255.149 911.945 253.742C913.352 252.335 915.262 251.933 917.775 252.637C920.589 253.34 924.509 255.049 929.433 257.662C934.358 260.275 939.183 264.094 943.806 269.12C944.107 269.522 944.509 270.225 944.911 271.23C945.213 271.934 945.615 272.839 946.017 273.844C946.319 274.949 946.52 276.155 946.52 277.562C946.52 279.371 946.319 281.181 946.017 283.09C945.615 285 944.61 287.211 942.801 289.724C942.801 290.427 942.6 290.93 942.298 291.332C941.896 292.035 940.891 294.246 939.082 297.965C937.273 301.684 935.665 305.001 934.258 307.815C933.152 310.629 931.946 313.644 930.539 316.86C929.132 320.077 928.026 322.69 927.323 324.8L922.499 337.565C928.127 327.313 934.157 317.262 940.59 307.312C946.922 297.362 953.455 288.92 959.987 281.784C966.52 274.748 972.953 269.622 979.385 266.406C985.717 263.19 991.547 262.888 996.873 265.301C1000.09 266.708 1003.91 268.818 1008.53 271.632C1013.16 274.447 1017.58 278.165 1021.8 282.789C1022.9 284.598 1023.61 286.507 1023.91 288.618C1024.21 290.427 1024.21 292.638 1023.91 295.553C1023.51 298.367 1022.3 301.784 1020.19 305.604C1019.09 307.413 1017.58 310.126 1015.37 313.845C1013.26 317.564 1010.94 321.886 1008.43 326.811C1005.92 331.735 1003.31 337.163 1000.49 342.992C997.677 348.822 995.165 354.55 993.054 360.279C999.085 348.621 1005.72 336.459 1012.95 323.896C1020.19 311.333 1027.73 300.176 1035.47 290.427C1043.21 280.678 1050.95 273.241 1058.58 268.115C1066.22 262.989 1073.16 261.984 1079.59 265.2C1082.81 266.607 1086.63 268.718 1091.25 271.532C1095.87 274.346 1100.29 278.065 1104.52 282.688C1105.62 284.497 1106.33 286.407 1106.63 288.518C1106.93 290.327 1106.93 292.538 1106.63 295.453C1106.22 298.267 1105.02 301.684 1102.91 305.503C1101.5 308.016 1099.39 311.835 1096.58 317.162C1093.76 322.489 1090.65 328.62 1087.33 335.454C1083.91 342.389 1080.7 349.626 1077.48 357.264C1074.26 364.903 1071.85 371.938 1070.04 378.471C1068.23 385.004 1067.43 390.632 1067.63 395.155C1067.83 399.778 1069.64 402.593 1073.16 403.698C1077.38 404.804 1081.7 403.497 1086.12 399.979C1090.55 396.462 1094.87 391.838 1099.09 386.21C1103.31 380.582 1107.13 374.652 1110.55 368.42C1113.86 362.189 1116.68 357.164 1118.79 353.244C1119.09 351.837 1119.99 350.43 1121.4 349.023C1123.51 346.912 1126.73 346.007 1130.95 346.409C1133.06 346.811 1134.37 347.515 1134.97 348.52C1135.47 349.626 1135.77 350.832 1135.77 352.239C1135.77 353.646 1135.37 355.455 1134.67 357.566C1132.56 362.189 1129.54 368.219 1125.62 375.657C1121.7 383.094 1117.18 390.733 1112.05 398.472C1106.93 406.211 1101.3 413.648 1095.37 420.784C1089.34 427.82 1083.21 433.147 1076.78 436.664C1072.86 438.775 1068.94 440.082 1065.12 440.685C1061.2 441.187 1057.68 441.288 1054.46 440.986C1050.95 441.087 1047.43 440.383 1044.21 439.177Z" fill="black"/>
<path d="M1123.41 344.701C1130.14 326.61 1137.78 312.036 1146.23 300.88C1154.77 289.724 1163.21 281.281 1171.65 275.352C1180.2 269.522 1188.54 266.105 1196.88 264.999C1205.22 263.894 1212.56 264.698 1218.89 267.11C1224.92 269.623 1229.24 273.241 1231.86 277.965C1234.47 282.789 1236.18 287.814 1236.88 293.141C1237.18 294.95 1237.49 296.86 1237.69 298.971C1237.89 301.081 1237.79 303.594 1237.38 306.408C1236.98 311.333 1235.78 317.866 1233.67 325.806C1231.56 333.746 1227.64 341.786 1222.01 349.927C1216.38 358.068 1208.24 365.807 1197.89 373.044C1187.43 380.28 1173.56 385.507 1156.18 388.723C1155.47 394.753 1155.77 400.583 1157.18 406.211C1158.59 411.84 1162.71 415.96 1169.44 418.372C1170.85 419.076 1172.46 419.478 1174.27 419.478H1174.77L1175.27 419.981C1181.6 420.684 1187.63 420.282 1193.36 418.875C1198.99 417.468 1204.22 415.458 1209.04 412.744C1213.87 410.131 1218.09 407.116 1221.81 403.698C1225.52 400.281 1228.74 397.065 1231.66 393.849C1232.36 393.145 1232.96 392.442 1233.46 391.738C1233.97 391.035 1234.57 390.331 1235.27 389.628C1237.38 386.813 1238.59 385.205 1238.99 384.803C1242.91 379.476 1246.43 374.049 1249.65 368.32C1252.86 362.692 1255.27 357.867 1257.08 353.948C1257.39 352.541 1258.29 351.134 1259.7 349.726C1262.21 347.214 1265.33 346.209 1269.25 346.51C1271.36 347.214 1272.66 348.118 1273.27 349.123C1273.77 350.229 1274.07 351.435 1274.07 352.842C1274.07 354.249 1273.67 355.857 1272.96 357.666C1271.15 361.184 1269.14 365.405 1266.83 370.129C1264.52 374.954 1261.61 380.18 1258.09 385.808C1256.68 389.326 1253.26 394.854 1248.04 402.291C1247.33 403.397 1246.53 404.503 1245.63 405.709C1244.72 406.915 1243.62 408.422 1242.21 410.231C1235.17 418.372 1226.33 426.413 1215.98 434.353C1205.52 442.293 1193.26 446.615 1179.09 447.318C1174.87 448.022 1170.05 448.022 1164.72 447.318C1151.65 445.911 1141.4 442.896 1134.16 438.273C1126.93 433.649 1121.5 428.021 1117.98 421.287C1114.77 415.257 1112.96 408.724 1112.35 401.688C1111.85 394.653 1112.05 387.517 1113.16 380.481V379.979C1115.07 369.627 1118.38 357.767 1123.41 344.701ZM1167.93 353.244C1166.53 356.058 1165.32 358.571 1164.52 360.682C1163.61 362.792 1162.81 364.903 1162.11 367.014C1171.65 365.606 1179.79 362.591 1186.53 357.968C1193.26 353.345 1198.89 348.219 1203.51 342.59C1208.14 336.962 1211.55 331.334 1213.87 325.906C1216.18 320.379 1217.48 315.956 1217.89 312.338C1218.59 306.006 1217.99 302.187 1216.08 300.88C1214.17 299.674 1212.76 299.071 1212.06 299.071C1210.25 299.071 1207.94 299.674 1205.12 300.88C1202.31 302.086 1198.99 304.599 1195.27 308.318C1191.55 312.036 1187.43 317.464 1182.81 324.499C1178.19 331.635 1173.26 341.183 1167.93 353.244Z" fill="black"/>
<path d="M481.873 415.658C468.908 423.799 455.54 428.825 441.67 430.734C426.393 432.945 413.629 431.739 403.478 427.116C393.327 422.493 385.588 415.055 380.261 405.005C374.934 394.954 371.919 382.592 371.215 367.918C370.512 353.344 372.019 337.163 375.637 319.474C379.356 301.784 384.985 282.99 392.824 263.089C400.563 243.189 410.212 222.987 421.77 202.584C431.62 184.895 441.771 168.111 452.425 152.23C463.078 136.25 474.134 122.28 485.491 110.219C496.848 98.1579 508.708 88.3083 520.769 80.6698C532.93 73.0313 545.594 68.7095 558.962 67.6039C564.087 67.1014 569.515 68.3074 575.244 71.2221C580.973 74.1368 586.098 78.3581 590.822 83.886C595.546 89.5143 599.265 96.4493 602.179 104.691C605.094 113.033 606.3 122.481 605.798 133.034C605.396 142.582 603.184 153.135 599.164 164.492C595.144 175.95 590.32 187.106 584.691 198.263C579.063 209.318 573.234 219.57 567.002 228.917C560.771 238.264 555.243 245.601 550.318 251.129C548.006 253.541 544.991 255.35 541.071 256.456C537.152 257.561 532.93 258.365 528.408 258.768C523.885 259.17 519.261 259.069 514.739 258.667C510.115 258.164 506.196 257.36 502.879 256.255C499.562 255.149 497.049 253.843 495.542 252.235C494.034 250.626 493.934 249.018 495.341 247.209C499.261 244.194 503.582 239.571 508.407 233.44C513.231 227.208 518.156 220.273 523.282 212.534C528.408 204.795 533.533 196.654 538.659 188.212C543.785 179.769 548.408 171.729 552.73 164.09C556.951 156.552 560.67 149.818 563.585 143.989C566.5 138.16 568.61 134.039 569.615 131.526C573.334 122.279 574.038 115.546 571.625 111.224C569.314 106.902 564.288 107.103 556.75 111.827C543.584 120.169 530.418 133.034 517.05 150.622C503.683 168.211 490.014 189.016 475.943 212.936C471.018 220.877 465.289 231.631 458.756 245.099C452.224 258.667 445.892 273.14 439.66 288.517C433.429 303.995 428.001 319.574 423.378 335.153C405.588 402.19 436.042 403.397 452.525 397.065C453.028 396.864 464.485 392.24 464.887 392.039C516.146 368.42 494.738 407.618 481.873 415.658Z" fill="black"/>
<path d="M515.743 327.212C508.406 329.021 504.185 328.619 499.964 326.106C495.743 323.694 495.24 323.192 492.225 319.473C489.21 315.754 488.305 313.342 487.099 309.422C486.094 305.905 486.094 303.593 486.998 301.985C488.004 300.276 489.511 299.774 489.913 299.573C494.737 297.161 524.487 290.728 534.337 287.612C555.745 281.783 567.002 277.562 577.354 273.944C585.294 271.029 595.244 267.411 601.073 264.998C602.883 264.094 604.893 264.797 607.003 266.808C609.114 268.918 609.516 272.737 608.109 278.165C604.089 293.643 599.365 309.925 593.736 326.911C588.108 343.896 583.485 360.178 579.666 375.958C575.846 391.737 573.736 406.21 573.434 419.377C573.133 432.543 576.248 443.096 582.781 451.137C580.771 456.062 577.354 459.177 572.63 460.383C567.906 461.69 562.881 461.388 557.655 459.378C552.428 457.368 547.503 453.951 543.081 448.926C538.558 443.9 535.443 437.468 533.734 429.528C532.829 416.964 534.036 405.507 537.352 395.255C540.77 385.003 545.192 374.852 550.72 364.902C556.248 354.952 562.278 344.7 568.61 334.248C574.942 323.795 580.57 311.835 585.394 298.367L579.967 308.819C572.731 321.483 564.288 334.449 554.74 347.615C545.192 360.781 534.739 373.144 523.281 384.501C511.824 395.858 499.662 405.607 486.797 413.748C473.832 421.889 460.465 426.915 446.595 428.824C431.318 431.035 431.921 409.225 441.469 400.28C468.505 393.747 496.949 371.234 502.175 366.209C532.427 337.363 536.749 327.514 544.79 317.764C537.553 322.388 515.743 327.212 515.743 327.212Z" fill="url(#paint0_linear_5250_7593)"/>
<defs>
<linearGradient id="paint0_linear_5250_7593" x1="456.743" y1="395.662" x2="613.1" y2="353.778" gradientUnits="userSpaceOnUse">
<stop/>
<stop offset="1" stop-color="#E5B80B"/>
</linearGradient>
</defs>
</svg>
