<svg width="390" height="190" viewBox="0 0 390 190" fill="none" xmlns="http://www.w3.org/2000/svg">
<rect width="390" height="190" rx="12" fill="#EAF2FB"/>
    <defs>
        <linearGradient id="paint0_linear_5250_7663" x1="163.952" y1="110.928" x2="182.679" y2="105.911" gradientUnits="userSpaceOnUse">
            <stop/>
            <stop offset="1" stop-color="#E5B80B"/>
        </linearGradient>
    </defs>
<g opacity="0.2">
<path fill-rule="evenodd" clip-rule="evenodd" d="M126.303 109.386C126.121 109.308 125.939 109.243 125.745 109.191C124.875 108.996 123.85 108.958 122.708 109.035C122.41 109.061 122.176 108.802 122.085 108.516C122.021 108.282 122.124 107.724 122.228 107.387C123.162 104.609 124.629 100.065 126.523 94.5862C128.677 87.6018 128.495 88.3288 130.208 82.5517C130.935 79.9293 131.117 79.0465 131.363 78.2935C131.467 77.9949 131.545 77.7353 131.61 77.5405C131.623 77.5016 131.649 77.4626 131.674 77.4367C132.064 77.1251 132.297 77.0602 133.102 76.8265C134.075 76.5409 137.384 76.0346 138.396 76.0476C139.421 76.0735 139.499 76.6188 139.823 77.229C139.849 77.2809 139.875 77.3328 139.914 77.3718C140.485 78.2026 141.108 78.1767 141.108 78.1767C141.199 78.1767 141.549 78.1637 141.705 78.1377C142.885 77.956 143.365 76.9044 143.573 76.2813L143.599 76.2034L143.612 76.1125C143.703 75.6711 143.755 75.1518 143.677 74.6455C143.534 73.5939 142.95 72.7501 142.094 72.1659C141.86 72.0361 141.419 71.7245 140.057 71.6076C137.877 71.374 132.92 72.114 131.752 72.3087C128.911 72.776 126.264 73.4381 126.264 73.4381C125.161 73.7367 122.501 74.5286 121.904 74.7493C119.75 75.5672 119.335 75.749 117.791 76.489C113.418 78.4623 117.44 83.3696 118.66 81.1496C119.257 80.0461 125.187 77.6963 126.471 77.904C126.523 77.917 126.562 77.956 126.562 77.9949C126.653 78.644 125.472 81.6299 124.733 84.3822C124.149 86.2127 123.669 87.8095 121.631 94.1967C118.245 104.518 117.181 108.269 116.727 109.931C116.701 110.022 116.532 110.1 116.454 110.152C116.039 110.399 113.885 111.463 112.912 112.099C112.159 112.593 111.744 112.878 111.199 113.54C110.745 114.124 110.435 114.838 110.614 115.487C110.772 116.057 111.075 116.546 111.452 116.827C112.239 117.413 113.624 117.293 113.624 117.293C114.454 117.293 114.118 116.072 115.676 115.059C116.597 114.462 117.596 113.748 119.932 113.099C122.916 112.268 124.175 112.528 125.576 112.969C126.095 113.138 126.848 112.982 127.418 112.476C127.795 112.138 127.873 111.437 127.73 110.957C127.496 110.113 127.107 109.775 126.303 109.386Z" fill="black"/>
<path d="M140.381 95.964C139.659 97.5771 138.997 99.2865 138.407 101.116C137.817 102.934 137.287 104.884 136.818 106.967C136.565 108.195 136.481 109.194 136.565 109.952C136.565 110.001 136.577 110.025 136.601 110.049C136.625 110.073 136.637 110.121 136.637 110.205C136.722 110.675 136.938 110.964 137.275 111.096C137.745 111.229 138.25 111.072 138.804 110.651C139.358 110.229 139.876 109.676 140.357 109.001C140.839 108.327 141.296 107.617 141.729 106.871C142.151 106.124 142.476 105.522 142.68 105.053C142.765 104.884 142.897 104.716 143.066 104.547C143.319 104.294 143.68 104.186 144.149 104.234C144.571 104.282 144.787 104.511 144.787 104.933C144.787 105.101 144.739 105.318 144.655 105.571C144.318 106.293 143.788 107.292 143.066 108.592C142.343 109.88 141.537 111.12 140.646 112.312C140.393 112.565 140.164 112.818 139.948 113.07C139.526 113.576 139.105 113.997 138.672 114.346C138.624 114.383 138.587 114.419 138.539 114.443C138.491 114.467 138.455 114.515 138.407 114.599C138.106 114.768 137.793 114.924 137.456 115.081C137.119 115.225 136.734 115.322 136.312 115.37C136.144 115.406 135.843 115.394 135.421 115.31C134.615 115.093 134.001 114.647 133.58 113.937C133.158 113.239 132.833 112.481 132.629 111.674C132.412 110.735 132.291 109.724 132.243 108.616C132.207 108.147 132.195 107.701 132.207 107.28C132.231 106.859 132.255 106.413 132.303 105.944C132.388 105.017 132.52 104.114 132.689 103.247C132.857 102.38 133.05 101.61 133.267 100.924C133.435 100.165 133.652 99.419 133.905 98.6967C134.711 96.3612 135.542 94.1943 136.384 92.1839C137.227 90.1736 138.082 88.2715 138.925 86.4898C136.035 86.4898 133.182 86.4778 130.341 86.4537C127.5 86.4296 124.635 86.4417 121.758 86.4898C121.288 86.4898 121 86.3815 120.867 86.1768C120.783 86.0444 120.723 85.924 120.674 85.7916C120.542 85.0332 120.614 84.3831 120.867 83.8534C121.12 83.3238 121.517 82.9145 122.047 82.6135C122.577 82.3125 123.178 82.1199 123.865 82.0116C124.551 81.9032 125.249 81.8792 125.959 81.9153C128.499 81.9995 131.003 82.0838 133.459 82.1801C135.915 82.2764 138.395 82.3848 140.899 82.5052C141.621 81.1809 142.283 79.9651 142.897 78.8937C143.511 77.8102 144.053 76.9073 144.522 76.1971C145.028 75.3544 145.522 74.608 145.979 73.97C146.232 73.669 146.485 73.4403 146.737 73.2718C146.954 73.1032 147.195 72.9708 147.472 72.8865C147.749 72.8023 148.038 72.8625 148.326 73.0792C148.579 73.2477 148.916 73.5487 149.35 73.97C149.771 74.3913 150.144 74.8849 150.457 75.4266C150.77 75.9804 150.987 76.5582 151.095 77.1722C151.204 77.7861 151.107 78.3519 150.806 78.8575C150.59 79.1946 150.229 79.7002 149.723 80.3864C149.217 81.0606 148.579 81.8912 147.821 82.8663C149.265 82.9506 148.146 83.0348 150.433 83.095C152.72 83.1673 152.239 83.2395 154.96 83.3238C157.668 83.408 157.126 83.5043 160.076 83.5886C163.025 83.6729 161.484 83.6368 164.193 83.709C166.902 83.7812 163.543 83.6969 165.878 83.7692C168.214 83.8414 165.601 83.7812 167.082 83.8294C167.215 83.8294 165.674 84.2146 165.951 84.2627C166.227 84.3109 166.492 84.3711 166.745 84.4554C166.998 84.5396 167.227 84.6359 167.407 84.7443C167.6 84.8526 167.696 84.985 167.696 85.1536C167.696 85.3221 167.503 85.4666 167.118 85.599C166.733 85.7314 166.3 85.8157 165.818 85.8879C165.337 85.9481 166.023 85.7435 165.517 85.7675C165.012 85.7916 168.226 86.0444 167.937 86.0444C166.456 86.1287 166.986 86.3213 164.674 86.3694C162.363 86.4176 164.638 86.3935 161.906 86.4296C159.173 86.4778 161.629 86.4417 158.691 86.4658C155.742 86.4898 155.441 86.5019 152.708 86.5019H145.413C144.571 87.7779 143.716 89.1984 142.873 90.7634C142.018 92.3284 141.188 94.0619 140.381 95.964Z" fill="black"/>
<path d="M144.511 111.229C144.547 111.265 144.571 111.313 144.571 111.361C144.571 111.397 144.523 111.554 144.438 111.806C144.354 111.891 144.294 112.023 144.246 112.192C144.198 112.36 144.185 112.517 144.185 112.673C144.185 112.818 144.234 112.974 144.342 113.119C144.45 113.263 144.643 113.359 144.944 113.407C145.329 113.492 145.606 113.432 145.799 113.215C145.991 112.998 146.112 112.721 146.184 112.36C146.244 111.999 146.256 111.578 146.22 111.084C146.172 110.603 146.136 110.121 146.088 109.652C146.003 108.676 145.907 107.786 145.799 106.979C145.69 106.172 145.594 105.342 145.51 104.499V103.741C145.173 104.415 144.848 105.029 144.523 105.583C144.21 106.136 143.945 106.582 143.728 106.919C143.644 107.087 143.511 107.232 143.343 107.364C143.21 107.448 143.066 107.509 142.897 107.521C142.729 107.545 142.56 107.448 142.392 107.232C142.175 107.015 142.067 106.835 142.043 106.654C142.019 106.485 142.031 106.317 142.079 106.148C142.127 105.98 142.211 105.787 142.332 105.571C142.584 104.981 142.897 104.294 143.259 103.536C143.62 102.778 143.957 102.007 144.282 101.249C144.595 100.49 144.896 99.7921 145.173 99.1782C145.45 98.5642 145.63 98.0827 145.714 97.7456C145.799 96.8187 145.907 95.988 146.027 95.2657C146.16 94.5434 146.328 94.098 146.533 93.9295C146.834 93.6767 147.219 93.448 147.713 93.2674C148.194 93.0748 148.736 92.9303 149.302 92.822C149.88 92.7136 150.457 92.6534 151.047 92.6293C151.637 92.6053 152.191 92.6173 152.697 92.6655C152.913 92.7497 153.082 92.8822 153.202 93.0507C153.286 93.2192 153.335 93.46 153.335 93.7489C153.335 94.0499 153.226 94.4953 153.022 95.0852C152.805 95.5547 152.612 96.1566 152.42 96.9029C152.227 97.6493 152.059 98.4679 151.914 99.3828C151.77 100.298 151.685 101.261 151.661 102.272C151.637 103.295 151.697 104.27 151.818 105.197C151.986 106.172 152.155 107.304 152.323 108.604C152.492 109.892 152.468 111.132 152.263 112.324C152.047 113.516 151.517 114.539 150.674 115.406C149.831 116.273 148.447 116.754 146.545 116.838C145.401 116.874 144.45 116.73 143.68 116.393C143.006 116.14 142.428 115.695 141.958 115.057C141.489 114.419 141.381 113.492 141.645 112.264C141.694 112.011 141.754 111.782 141.838 111.566C141.922 111.349 142.031 111.156 142.151 110.964C142.283 110.771 142.452 110.615 142.657 110.482C142.693 110.434 142.765 110.422 142.849 110.422C143.066 110.422 143.271 110.446 143.487 110.482C143.704 110.566 143.897 110.663 144.089 110.771C144.282 110.879 144.426 111.012 144.511 111.229Z" fill="black"/>
<path d="M192.327 105.583C191.857 106.606 191.256 107.798 190.509 109.17C189.763 110.555 188.908 111.831 187.933 113.022C186.958 114.214 185.862 115.153 184.659 115.851C183.455 116.55 182.167 116.706 180.806 116.333C180.048 116.116 179.422 115.755 178.964 115.225C178.495 114.696 178.122 114.058 177.857 113.323C177.58 112.577 177.399 111.77 177.315 110.904C177.231 110.037 177.231 109.182 177.315 108.327C177.399 107.232 177.568 106.173 177.821 105.185C178.074 104.186 178.35 103.308 178.651 102.549C178.988 101.658 179.35 100.828 179.735 100.069C180.457 98.7089 181.24 97.5893 182.082 96.6985C182.805 95.9401 183.647 95.3382 184.622 94.9168C185.598 94.4955 186.633 94.6159 187.74 95.302C188.162 94.8807 188.643 94.5557 189.173 94.351C189.703 94.1343 190.268 94.0741 190.858 94.1584C191.785 94.2908 192.495 94.6881 192.953 95.3622C193.41 96.0364 193.711 96.8189 193.808 97.7097C193.916 98.6005 193.904 99.5275 193.772 100.503C193.639 101.478 193.495 102.308 193.326 102.982C194.434 102.645 195.445 102.152 196.384 101.526C197.311 100.888 198.021 100.334 198.478 99.8766C198.695 99.6599 198.876 99.5154 199.056 99.4312C199.225 99.3469 199.357 99.3228 199.466 99.371C199.574 99.4191 199.646 99.5997 199.682 99.9488C199.718 100.202 199.718 100.454 199.682 100.707C199.598 101.213 199.405 101.658 199.104 102.043C198.43 102.802 197.467 103.536 196.239 104.234C195.048 104.921 193.723 105.378 192.327 105.583ZM182.022 108.255C181.685 109.399 181.541 110.314 181.577 110.988C181.613 111.662 181.721 112.18 181.89 112.517C182.058 112.938 182.311 113.191 182.648 113.275C183.202 113.444 183.792 113.311 184.43 112.89C185.068 112.469 185.682 111.867 186.272 111.108C186.862 110.35 187.427 109.459 187.957 108.436C188.487 107.413 188.968 106.377 189.39 105.318C188.8 105.149 188.222 104.836 187.668 104.367C186.946 103.777 186.452 103.055 186.175 102.2C185.898 101.357 185.802 100.479 185.886 99.5877C185.333 100.141 184.827 100.876 184.358 101.815C183.888 102.754 183.491 103.705 183.154 104.68C182.744 105.799 182.359 106.991 182.022 108.255ZM188.258 99.9247C188.21 100.43 188.258 100.864 188.39 101.225C188.523 101.586 188.691 101.887 188.896 102.152C189.101 102.417 189.341 102.609 189.594 102.754C189.847 102.898 190.064 102.995 190.232 103.043C190.822 101.141 191.015 99.7201 190.81 98.7811C190.726 98.4802 190.557 98.2635 190.304 98.119C190.052 97.9745 189.787 97.9264 189.51 97.9866C189.233 98.0468 188.98 98.2273 188.752 98.5283C188.499 98.8293 188.342 99.2988 188.258 99.9247Z" fill="black"/>
<path d="M265.664 107.244C264.701 107.328 264.099 106.004 263.858 103.259C263.521 99.4793 264.099 94.5436 265.568 88.4402C266.88 82.9869 268.517 78.6169 270.491 75.3305C271.563 73.5488 272.694 72.4413 273.862 71.9959C274.476 71.7792 275.054 71.6588 275.583 71.6107C276.137 71.5625 276.619 71.5625 277.04 71.5986C277.461 71.6468 277.835 71.731 278.16 71.8514C278.87 72.1042 279.255 72.4774 279.303 72.971C279.351 73.4646 279.195 74.0063 278.846 74.5841C278.497 75.162 277.955 76.1732 277.197 77.5817C276.45 79.0022 275.583 80.832 274.62 83.1072C272.273 88.5485 270.082 94.9288 268.047 102.248C267.831 102.982 267.65 103.657 267.506 104.259C267.373 104.848 267.229 105.354 267.072 105.787C266.747 106.714 266.278 107.184 265.664 107.244ZM261.643 118.066C261.174 117.669 260.788 117.212 260.475 116.682C260.174 116.128 259.982 115.49 259.922 114.768C259.849 114.022 259.934 113.347 260.162 112.758C260.403 112.144 260.728 111.638 261.138 111.241C261.848 110.543 262.63 110.157 263.473 110.085C264.34 110.013 265.074 110.001 265.676 110.073C266.302 110.133 266.868 110.278 267.409 110.482C268.71 111 269.408 111.855 269.504 113.034C269.637 114.515 269.263 115.839 268.397 117.031C267.578 118.139 266.687 118.777 265.712 118.957C264.749 119.138 263.954 119.126 263.328 118.933C262.702 118.753 262.137 118.464 261.643 118.066Z" fill="black"/>
<path d="M201.945 105.21L199.718 112.144C199.585 112.866 199.501 113.456 199.429 113.925C199.369 114.395 199.284 114.756 199.212 115.009C199.044 115.599 198.695 116.056 198.165 116.381C197.635 116.694 197.057 116.935 196.443 117.079C195.829 117.224 195.215 117.308 194.601 117.332C193.988 117.356 193.53 117.32 193.229 117.236C192.892 117.152 192.651 116.995 192.531 116.754C192.398 116.526 192.314 116.261 192.278 115.96C192.23 115.623 192.23 115.262 192.278 114.876C192.832 112.625 193.506 110.217 194.313 107.629C195.035 105.426 195.95 102.886 197.045 99.9969C198.141 97.1198 199.477 94.0621 201.054 90.8358L201.114 90.7756L202.511 87.9105C203.353 86.1288 204.184 84.5398 204.991 83.1433C205.797 81.7469 206.495 80.531 207.085 79.5198C206.411 79.3874 205.4 79.1948 204.064 78.9179C202.727 78.641 201.367 78.3641 199.995 78.0872C198.61 77.8104 197.382 77.5816 196.311 77.389C195.227 77.1964 194.589 77.1242 194.373 77.1723C193.53 77.3409 192.952 77.6418 192.651 78.0632C192.603 78.1474 192.543 78.3521 192.459 78.6651C192.374 78.9781 192.495 79.267 192.844 79.5198L193.422 79.905C193.638 80.0374 193.735 80.1699 193.711 80.3143C193.687 80.4588 193.662 80.5792 193.614 80.6634C193.109 81.5061 192.567 82.084 191.989 82.3849C191.411 82.6859 190.918 82.8664 190.496 82.9627C189.943 83.047 189.521 82.9627 189.22 82.7099C188.883 82.5414 188.534 82.3006 188.173 81.9756C187.812 81.6626 187.487 81.2533 187.186 80.7718C186.885 80.2902 186.68 79.7485 186.548 79.1466C186.415 78.5567 186.44 77.9187 186.608 77.2446C186.825 76.4861 187.053 75.8842 187.306 75.4629C187.439 75.2462 187.788 74.8489 188.354 74.2591C188.931 73.6692 189.822 73.1997 191.05 72.8626C192.868 72.3931 195.011 72.2487 197.467 72.4172C199.922 72.5857 202.462 72.8867 205.063 73.308C207.675 73.7294 210.251 74.1989 212.815 74.7045C215.38 75.2101 217.703 75.5472 219.774 75.7277C223.373 76.0648 226.25 76.113 228.393 75.8602C230.536 75.6073 232.197 75.2703 233.389 74.8369C234.749 74.3674 235.7 73.7534 236.254 72.995C236.338 72.7422 236.447 72.5255 236.567 72.357C236.651 72.1885 236.772 72.044 236.916 71.9116C237.061 71.7792 237.241 71.6949 237.458 71.6588C237.795 71.5745 238.132 71.6106 238.481 71.7551C238.818 71.8996 239.095 72.2125 239.312 72.682C239.528 73.2358 239.637 73.7655 239.661 74.2711C239.685 74.7767 239.673 75.2462 239.625 75.6675C239.577 76.137 239.504 76.6065 239.372 77.064C238.734 78.7975 237.542 80.0736 235.785 80.8801C234.027 81.6867 231.968 82.1682 229.621 82.3127C227.273 82.4571 224.733 82.3849 222.025 82.096C219.316 81.795 216.68 81.4218 214.14 80.9524C213.923 81.3737 213.586 81.8552 213.116 82.3849C212.647 82.9146 212.093 83.6249 211.431 84.5157C210.769 85.4065 210.035 86.5742 209.204 88.0188C208.373 89.4634 207.495 91.3294 206.568 93.6166L201.945 105.21Z" fill="black"/>
<path d="M212.323 97.5173C212.491 97.6858 212.6 97.9025 212.636 98.1553C212.672 98.372 212.672 98.6368 212.6 98.9859C212.54 99.323 212.383 99.7323 212.118 100.19C211.95 100.491 211.697 100.948 211.36 101.586C211.023 102.224 210.65 102.959 210.252 103.777C209.843 104.608 209.458 105.475 209.073 106.389C208.687 107.304 208.398 108.147 208.182 108.93C207.965 109.712 207.881 110.386 207.929 110.928C207.965 111.482 208.206 111.819 208.627 111.951C209.097 112.12 209.59 111.987 210.12 111.542C210.65 111.096 211.167 110.543 211.673 109.893C212.178 109.231 212.636 108.532 213.045 107.798C213.442 107.052 213.779 106.45 214.032 105.98C214.068 105.812 214.177 105.643 214.345 105.475C214.646 105.174 215.019 105.053 215.489 105.089C215.91 105.222 216.127 105.475 216.127 105.848C216.127 106.016 216.079 106.209 215.995 106.426C215.742 106.979 215.369 107.714 214.887 108.617C214.405 109.531 213.852 110.446 213.238 111.385C212.624 112.312 211.962 113.203 211.263 114.022C210.565 114.852 209.831 115.478 209.073 115.9C208.603 116.201 208.134 116.381 207.676 116.441C207.207 116.502 206.785 116.514 206.4 116.478C205.931 116.429 205.509 116.345 205.124 116.225C204.366 115.888 203.812 115.334 203.475 114.576C203.138 113.817 202.957 112.938 202.933 111.963C202.909 110.988 203.017 109.917 203.246 108.749C203.475 107.581 203.764 106.426 204.101 105.282C204.907 102.609 206.075 99.648 207.604 96.3857C207.688 96.1328 207.821 95.9162 207.989 95.7476C208.121 95.5791 208.266 95.4346 208.434 95.3022C208.603 95.1698 208.796 95.1577 209.012 95.242C209.398 95.3744 209.903 95.6272 210.541 96.0004C211.179 96.3736 211.769 96.8792 212.323 97.5173ZM210.541 93.3159C210.072 92.8103 209.927 92.2084 210.096 91.4981C210.264 90.7999 210.457 90.2582 210.674 89.8729C210.89 89.5359 211.083 89.2349 211.276 88.9821C211.468 88.7293 211.625 88.5006 211.757 88.2839L212.142 87.706C212.359 87.4051 212.564 87.1764 212.78 87.0078C212.997 86.8393 213.202 86.7189 213.418 86.6587C213.635 86.5985 213.888 86.6707 214.177 86.8754C214.43 87.0439 214.743 87.3208 215.104 87.706C215.465 88.0913 215.778 88.5126 216.055 88.9821C216.332 89.4516 216.524 89.9452 216.633 90.4748C216.741 91.0045 216.669 91.4981 216.416 91.9676C216.247 92.2204 216.007 92.5575 215.682 92.9909C215.369 93.4122 214.923 93.99 214.381 94.7123C214.165 94.9651 213.9 95.0855 213.551 95.0614C213.214 95.0374 212.853 94.929 212.467 94.7484C212.082 94.5558 211.721 94.3391 211.384 94.0863C211.023 93.8215 210.746 93.5687 210.541 93.3159Z" fill="black"/>
<path d="M234.316 116.141C233.257 115.671 232.607 114.828 232.378 113.6C232.149 112.373 232.137 110.976 232.342 109.399C232.559 107.834 232.932 106.233 233.486 104.596C234.039 102.959 234.581 101.49 235.135 100.178L235.002 100.238C234.16 101.345 233.269 102.634 232.33 104.114C231.523 105.39 230.645 106.979 229.694 108.881C228.743 110.783 227.792 112.999 226.865 115.49C226.732 115.707 226.6 115.864 226.455 115.972C226.311 116.08 226.166 116.177 226.046 116.261C225.914 116.297 225.793 116.321 225.661 116.321H225.348C225.011 116.273 224.698 116.201 224.421 116.104C224.144 115.996 223.939 115.9 223.819 115.816C222.976 115.226 222.471 114.299 222.326 113.047C222.182 111.795 222.23 110.434 222.483 108.942C222.735 107.461 223.133 105.932 223.662 104.367C224.192 102.802 224.71 101.394 225.215 100.166L225.083 100.226C224.144 101.418 223.193 102.838 222.218 104.487C221.375 105.884 220.436 107.617 219.425 109.664C218.402 111.722 217.415 114.082 216.439 116.754C216.391 117.007 216.295 117.164 216.151 117.236C216.006 117.296 215.886 117.332 215.801 117.332C214.959 117.248 214.285 117.055 213.803 116.754C213.322 116.454 212.924 116.141 212.623 115.803C212.407 115.587 212.31 115.334 212.31 115.045C212.274 114.877 212.274 114.744 212.31 114.66C212.358 113.853 212.455 112.974 212.623 112.023C212.792 111.072 212.984 110.121 213.201 109.158C213.418 108.207 213.647 107.28 213.899 106.39C214.152 105.499 214.381 104.692 214.598 103.97C214.766 103.38 214.947 102.802 215.139 102.248C215.332 101.695 215.488 101.225 215.621 100.852C215.789 100.431 215.898 100.106 215.934 99.9009C216.151 99.2267 216.367 98.5767 216.596 97.9627C216.825 97.3488 217.053 96.807 217.258 96.3375C217.475 95.8319 217.655 95.3384 217.836 94.8809C217.836 94.8448 217.86 94.7966 217.896 94.7485C217.896 94.7124 217.932 94.604 218.028 94.4355C218.161 94.2669 218.305 94.0984 218.474 93.9299C218.642 93.7613 218.871 93.7132 219.172 93.7975C219.509 93.8817 219.979 94.0864 220.569 94.3994C221.158 94.7124 221.736 95.1698 222.29 95.7717C222.326 95.8199 222.374 95.9042 222.422 96.0245C222.459 96.1088 222.507 96.2172 222.555 96.3375C222.591 96.47 222.615 96.6144 222.615 96.783C222.615 96.9996 222.591 97.2163 222.555 97.4451C222.507 97.6738 222.386 97.9386 222.17 98.2396C222.17 98.3239 222.146 98.384 222.109 98.4322C222.061 98.5165 221.941 98.7813 221.724 99.2267C221.508 99.6721 221.315 100.069 221.146 100.406C221.014 100.744 220.87 101.105 220.701 101.49C220.532 101.875 220.4 102.188 220.316 102.441L219.738 103.97C220.412 102.742 221.134 101.538 221.905 100.346C222.663 99.1545 223.446 98.1433 224.228 97.2886C225.011 96.4459 225.781 95.8319 226.552 95.4467C227.31 95.0615 228.008 95.0254 228.646 95.3143C229.031 95.4828 229.489 95.7356 230.043 96.0727C230.596 96.4098 231.126 96.8552 231.632 97.4089C231.764 97.6256 231.848 97.8544 231.885 98.1072C231.921 98.3239 231.921 98.5887 231.885 98.9378C231.836 99.2749 231.692 99.6842 231.439 100.142C231.307 100.358 231.126 100.683 230.861 101.129C230.609 101.574 230.332 102.092 230.031 102.682C229.73 103.272 229.417 103.922 229.08 104.62C228.743 105.318 228.442 106.004 228.189 106.69C228.911 105.294 229.706 103.837 230.572 102.333C231.439 100.828 232.342 99.4916 233.269 98.3239C234.196 97.1561 235.123 96.2653 236.038 95.6514C236.953 95.0374 237.783 94.917 238.554 95.3022C238.939 95.4708 239.396 95.7236 239.95 96.0607C240.504 96.3977 241.034 96.8431 241.539 97.3969C241.672 97.6136 241.756 97.8423 241.792 98.0951C241.828 98.3118 241.828 98.5767 241.792 98.9258C241.744 99.2628 241.599 99.6721 241.347 100.13C241.178 100.431 240.925 100.888 240.588 101.526C240.251 102.164 239.878 102.898 239.481 103.717C239.071 104.548 238.686 105.414 238.301 106.329C237.916 107.244 237.627 108.087 237.41 108.869C237.193 109.652 237.097 110.326 237.121 110.868C237.145 111.422 237.362 111.759 237.783 111.891C238.289 112.023 238.807 111.867 239.336 111.446C239.866 111.024 240.384 110.471 240.889 109.796C241.395 109.122 241.852 108.412 242.262 107.666C242.659 106.919 242.996 106.317 243.249 105.848C243.285 105.679 243.393 105.511 243.562 105.342C243.815 105.089 244.2 104.981 244.705 105.029C244.958 105.077 245.115 105.162 245.187 105.282C245.247 105.414 245.283 105.559 245.283 105.727C245.283 105.896 245.235 106.113 245.151 106.365C244.898 106.919 244.537 107.641 244.067 108.532C243.598 109.423 243.056 110.338 242.442 111.265C241.828 112.192 241.154 113.083 240.444 113.938C239.722 114.78 238.987 115.418 238.217 115.84C237.747 116.092 237.278 116.249 236.82 116.321C236.351 116.381 235.929 116.393 235.544 116.357C235.123 116.369 234.702 116.285 234.316 116.141Z" fill="black"/>
<path d="M243.803 104.824C244.609 102.657 245.524 100.912 246.535 99.5757C247.559 98.2394 248.57 97.2282 249.581 96.518C250.604 95.8197 251.604 95.4104 252.603 95.278C253.602 95.1456 254.481 95.2419 255.239 95.5308C255.961 95.8318 256.479 96.2652 256.792 96.831C257.105 97.4088 257.31 98.0107 257.394 98.6487C257.43 98.8654 257.466 99.0942 257.49 99.347C257.514 99.5998 257.502 99.9007 257.454 100.238C257.406 100.828 257.262 101.61 257.009 102.561C256.756 103.512 256.286 104.475 255.612 105.45C254.938 106.425 253.963 107.352 252.723 108.219C251.471 109.086 249.81 109.712 247.727 110.097C247.643 110.819 247.679 111.518 247.848 112.192C248.016 112.866 248.51 113.36 249.316 113.648C249.485 113.733 249.677 113.781 249.894 113.781H249.954L250.014 113.841C250.773 113.925 251.495 113.877 252.181 113.709C252.856 113.54 253.481 113.299 254.059 112.974C254.637 112.661 255.143 112.3 255.588 111.891C256.034 111.482 256.419 111.096 256.768 110.711C256.852 110.627 256.924 110.543 256.985 110.458C257.045 110.374 257.117 110.29 257.201 110.206C257.454 109.868 257.599 109.676 257.647 109.628C258.116 108.99 258.538 108.34 258.923 107.653C259.308 106.979 259.597 106.401 259.814 105.932C259.85 105.763 259.958 105.595 260.127 105.426C260.428 105.125 260.801 105.005 261.27 105.041C261.523 105.125 261.68 105.234 261.752 105.354C261.812 105.486 261.848 105.631 261.848 105.799C261.848 105.968 261.8 106.161 261.716 106.377C261.499 106.799 261.258 107.304 260.981 107.87C260.704 108.448 260.355 109.074 259.934 109.748C259.765 110.169 259.356 110.831 258.73 111.722C258.646 111.855 258.55 111.987 258.441 112.132C258.333 112.276 258.201 112.457 258.032 112.673C257.189 113.648 256.13 114.612 254.89 115.563C253.638 116.514 252.169 117.031 250.472 117.115C249.966 117.2 249.388 117.2 248.75 117.115C247.185 116.947 245.958 116.586 245.091 116.032C244.224 115.478 243.574 114.804 243.153 113.998C242.767 113.275 242.551 112.493 242.478 111.65C242.418 110.807 242.442 109.953 242.575 109.11V109.05C242.804 107.81 243.201 106.389 243.803 104.824ZM249.136 105.848C248.967 106.185 248.823 106.486 248.726 106.738C248.618 106.991 248.522 107.244 248.437 107.497C249.581 107.328 250.556 106.967 251.363 106.413C252.169 105.86 252.843 105.246 253.397 104.572C253.951 103.897 254.36 103.223 254.637 102.573C254.914 101.911 255.071 101.381 255.119 100.948C255.203 100.19 255.131 99.7322 254.902 99.5757C254.673 99.4312 254.505 99.359 254.42 99.359C254.204 99.359 253.927 99.4312 253.59 99.5757C253.253 99.7201 252.856 100.021 252.41 100.467C251.965 100.912 251.471 101.562 250.917 102.405C250.364 103.259 249.774 104.403 249.136 105.848Z" fill="black"/>
<path d="M166.962 113.324C165.409 114.299 163.808 114.901 162.147 115.129C160.317 115.394 158.788 115.25 157.572 114.696C156.356 114.142 155.429 113.251 154.791 112.047C154.153 110.844 153.792 109.363 153.708 107.605C153.623 105.86 153.804 103.922 154.237 101.803C154.683 99.6841 155.357 97.4329 156.296 95.0494C157.223 92.6658 158.379 90.2461 159.763 87.8023C160.943 85.6836 162.159 83.6732 163.435 81.7711C164.711 79.857 166.035 78.1837 167.395 76.7391C168.756 75.2945 170.176 74.1148 171.621 73.1998C173.077 72.2849 174.594 71.7673 176.195 71.6349C176.809 71.5747 177.459 71.7191 178.145 72.0682C178.832 72.4173 179.446 72.923 180.011 73.5851C180.577 74.2592 181.023 75.0899 181.372 76.077C181.721 77.0762 181.865 78.2078 181.805 79.4718C181.757 80.6154 181.492 81.8795 181.011 83.2398C180.529 84.6122 179.951 85.9484 179.277 87.2847C178.603 88.6089 177.905 89.8368 177.158 90.9563C176.412 92.0759 175.75 92.9547 175.16 93.6168C174.883 93.9057 174.522 94.1224 174.052 94.2548C173.583 94.3873 173.077 94.4836 172.536 94.5317C171.994 94.5799 171.44 94.5678 170.898 94.5197C170.345 94.4595 169.875 94.3632 169.478 94.2308C169.081 94.0983 168.78 93.9418 168.599 93.7492C168.418 93.5566 168.406 93.364 168.575 93.1473C169.044 92.7862 169.562 92.2324 170.14 91.4981C170.718 90.7517 171.308 89.921 171.922 88.9941C172.536 88.0671 173.15 87.092 173.763 86.0808C174.377 85.0696 174.931 84.1065 175.449 83.1916C175.954 82.2888 176.4 81.4822 176.749 80.784C177.098 80.0857 177.351 79.5922 177.471 79.2912C177.917 78.1837 178.001 77.3771 177.712 76.8595C177.435 76.3418 176.833 76.3659 175.93 76.9317C174.353 77.9309 172.776 79.4718 171.175 81.5785C169.574 83.6852 167.937 86.1771 166.252 89.0422C165.662 89.9933 164.976 91.2814 164.193 92.8945C163.411 94.5197 162.652 96.2532 161.906 98.095C161.159 99.9489 160.509 101.815 159.956 103.681C157.825 111.71 161.472 111.855 163.447 111.096C163.507 111.072 164.879 110.519 164.927 110.495C171.067 107.665 168.503 112.36 166.962 113.324Z" fill="black"/>
<path d="M171.018 102.729C170.14 102.946 169.634 102.898 169.128 102.597C168.623 102.308 168.563 102.248 168.201 101.803C167.84 101.357 167.732 101.068 167.587 100.599C167.467 100.177 167.467 99.9005 167.575 99.7078C167.696 99.5032 167.876 99.443 167.925 99.4189C168.502 99.13 172.066 98.3596 173.245 97.9864C175.81 97.2881 177.158 96.7825 178.398 96.3492C179.349 96 180.541 95.5667 181.239 95.2777C181.456 95.1694 181.696 95.2537 181.949 95.4944C182.202 95.7472 182.25 96.2047 182.082 96.8548C181.6 98.7087 181.034 100.659 180.36 102.693C179.686 104.728 179.132 106.678 178.675 108.568C178.217 110.458 177.964 112.192 177.928 113.769C177.892 115.346 178.265 116.61 179.048 117.573C178.807 118.163 178.398 118.536 177.832 118.68C177.266 118.837 176.664 118.801 176.038 118.56C175.412 118.319 174.823 117.91 174.293 117.308C173.751 116.706 173.378 115.935 173.173 114.984C173.065 113.48 173.209 112.107 173.607 110.879C174.016 109.651 174.546 108.436 175.208 107.244C175.87 106.052 176.592 104.824 177.351 103.572C178.109 102.32 178.783 100.888 179.361 99.2745L178.711 100.526C177.844 102.043 176.833 103.596 175.689 105.173C174.546 106.75 173.294 108.231 171.921 109.591C170.549 110.952 169.092 112.119 167.551 113.094C165.998 114.07 164.397 114.671 162.736 114.9C160.906 115.165 160.978 112.553 162.122 111.481C165.36 110.699 168.767 108.002 169.393 107.4C173.017 103.945 173.534 102.766 174.497 101.598C173.631 102.152 171.018 102.729 171.018 102.729Z" fill="url(#paint0_linear_5250_7663)"/>
</g>

</svg>
