<svg width="26" height="26" viewBox="0 0 26 26" fill="none" xmlns="http://www.w3.org/2000/svg">
<circle cx="13" cy="13" r="13" fill="#9095AE"/>
<path d="M14.0938 4.79688C14.0938 4.35678 13.737 4 13.2969 4C12.8568 4 12.5 4.35678 12.5 4.79688V12.5H4.79688C4.35678 12.5 4 12.8568 4 13.2969C4 13.737 4.35678 14.0938 4.79688 14.0938H12.5V21.7969C12.5 22.237 12.8568 22.5938 13.2969 22.5938C13.737 22.5938 14.0938 22.237 14.0938 21.7969V14.0938H21.7969C22.237 14.0938 22.5938 13.737 22.5938 13.2969C22.5938 12.8568 22.237 12.5 21.7969 12.5H14.0938V4.79688Z" fill="white"/>
</svg>
