<svg width="26" height="26" viewBox="0 0 26 26" fill="none" xmlns="http://www.w3.org/2000/svg">
<path fill-rule="evenodd" clip-rule="evenodd" d="M5.6875 9.75C5.6875 5.71142 8.96142 2.4375 13 2.4375C17.0386 2.4375 20.3125 5.71142 20.3125 9.75V17.3333C20.3125 17.7821 19.9487 18.1458 19.5 18.1458C19.0513 18.1458 18.6875 17.7821 18.6875 17.3333V9.75C18.6875 6.60888 16.1411 4.0625 13 4.0625C9.85889 4.0625 7.3125 6.60889 7.3125 9.75V18.4167C7.3125 20.3611 8.88883 21.9375 10.8333 21.9375C12.7778 21.9375 14.3542 20.3611 14.3542 18.4167V10.8333C14.3542 10.0854 13.7479 9.47917 13 9.47917C12.2521 9.47917 11.6458 10.0854 11.6458 10.8333V17.3333C11.6458 17.7821 11.2821 18.1458 10.8333 18.1458C10.3846 18.1458 10.0208 17.7821 10.0208 17.3333V10.8333C10.0208 9.18799 11.3546 7.85417 13 7.85417C14.6454 7.85417 15.9792 9.18799 15.9792 10.8333V18.4167C15.9792 21.2587 13.6754 23.5625 10.8333 23.5625C7.99137 23.5625 5.6875 21.2587 5.6875 18.4167V9.75Z" fill="#9095AE"/>
</svg>
