<svg width="26" height="26" viewBox="0 0 26 26" fill="none" xmlns="http://www.w3.org/2000/svg">
<path d="M16.7917 20.8538C15.145 20.8538 13.8125 19.5213 13.8125 17.8747V8.12467C13.8125 6.47801 15.145 5.14551 16.7917 5.14551C18.4383 5.14551 19.7708 6.47801 19.7708 8.12467V17.8747C19.7708 19.5213 18.4383 20.8538 16.7917 20.8538ZM16.7917 6.77051C16.0442 6.77051 15.4375 7.37717 15.4375 8.12467V17.8747C15.4375 18.6222 16.0442 19.2288 16.7917 19.2288C17.5392 19.2288 18.1458 18.6222 18.1458 17.8747V8.12467C18.1458 7.37717 17.5392 6.77051 16.7917 6.77051Z" fill="#131B4C"/>
<path d="M9.20817 20.8545C7.5615 20.8545 6.229 19.522 6.229 17.8753V14.0837C6.229 12.437 7.5615 11.1045 9.20817 11.1045C10.8548 11.1045 12.1873 12.437 12.1873 14.0837V17.8753C12.1873 19.522 10.8548 20.8545 9.20817 20.8545ZM9.20817 12.7295C8.46067 12.7295 7.854 13.3362 7.854 14.0837V17.8753C7.854 18.6228 8.46067 19.2295 9.20817 19.2295C9.95567 19.2295 10.5623 18.6228 10.5623 17.8753V14.0837C10.5623 13.3362 9.95567 12.7295 9.20817 12.7295Z" fill="#131B4C"/>
<path d="M16.2498 24.6462H9.74984C3.86734 24.6462 1.354 22.1328 1.354 16.2503V9.75033C1.354 3.86783 3.86734 1.35449 9.74984 1.35449H16.2498C22.1323 1.35449 24.6457 3.86783 24.6457 9.75033V16.2503C24.6457 22.1328 22.1323 24.6462 16.2498 24.6462ZM9.74984 2.97949C4.75567 2.97949 2.979 4.75616 2.979 9.75033V16.2503C2.979 21.2445 4.75567 23.0212 9.74984 23.0212H16.2498C21.244 23.0212 23.0207 21.2445 23.0207 16.2503V9.75033C23.0207 4.75616 21.244 2.97949 16.2498 2.97949H9.74984Z" fill="#131B4C"/>
</svg>
