<svg width="26" height="26" viewBox="0 0 26 26" fill="none" xmlns="http://www.w3.org/2000/svg">
<path fill-rule="evenodd" clip-rule="evenodd" d="M7.58333 10.0205C6.53629 10.0205 5.6875 10.8693 5.6875 11.9163C5.6875 12.9634 6.53629 13.8122 7.58333 13.8122C8.63037 13.8122 9.47917 12.9634 9.47917 11.9163C9.47917 10.8693 8.63037 10.0205 7.58333 10.0205ZM4.0625 11.9163C4.0625 9.97183 5.63883 8.39551 7.58333 8.39551C9.52784 8.39551 11.1042 9.97183 11.1042 11.9163C11.1042 13.8608 9.52784 15.4372 7.58333 15.4372C5.63883 15.4372 4.0625 13.8608 4.0625 11.9163Z" fill="#2AB26E"/>
<path fill-rule="evenodd" clip-rule="evenodd" d="M2.16699 5.6875C2.61572 5.6875 2.97949 6.05127 2.97949 6.5V16.5208H12.1879V12.1675C12.1873 11.4375 12.1869 10.8721 12.3552 10.391C12.6546 9.53528 13.3274 8.86246 14.1832 8.56301C14.6643 8.39466 15.2296 8.39514 15.9596 8.39576L16.2836 8.39581C18.2647 8.39548 19.4739 8.39528 20.4745 8.74539C22.2638 9.37151 23.6706 10.7783 24.2968 12.5676C24.6469 13.5682 24.6467 14.7775 24.6464 16.7585L24.6463 19.5C24.6463 19.9487 24.2826 20.3125 23.8338 20.3125C23.385 20.3125 23.0213 19.9487 23.0213 19.5V18.1458H13.0004H2.97949V19.5C2.97949 19.9487 2.61572 20.3125 2.16699 20.3125C1.71826 20.3125 1.35449 19.9487 1.35449 19.5V6.5C1.35449 6.05127 1.71826 5.6875 2.16699 5.6875ZM13.8129 16.5208H23.0211C23.0188 14.598 22.9934 13.7632 22.7629 13.1043C22.3002 11.7818 21.2603 10.742 19.9378 10.2792C19.2323 10.0323 18.3249 10.0208 16.0957 10.0208C15.1632 10.0208 14.9042 10.0323 14.7199 10.0968C14.3309 10.2329 14.0251 10.5388 13.889 10.9278C13.8244 11.1121 13.8129 11.3711 13.8129 12.3035V16.5208Z" fill="#2AB26E"/>
</svg>
