<svg width="36" height="36" viewBox="0 0 36 36" fill="none" xmlns="http://www.w3.org/2000/svg">
<path fill-rule="evenodd" clip-rule="evenodd" d="M13.5 1.875C14.1213 1.875 14.625 2.37868 14.625 3V4.89092C15.6288 4.875 16.7442 4.875 17.9834 4.875H18.0166C19.2558 4.875 20.3712 4.875 21.375 4.89092V3C21.375 2.37868 21.8787 1.875 22.5 1.875C23.1213 1.875 23.625 2.37868 23.625 3V4.97037C25.8928 5.11256 27.6351 5.48002 29.0697 6.52222C29.8019 7.05421 30.4458 7.69814 30.9777 8.43035C31.8566 9.63984 32.25 11.0564 32.4395 12.8047C32.625 14.5179 32.625 16.6773 32.625 19.4321V19.5173C32.625 21.257 32.625 22.7529 32.5809 24.0385C32.4846 26.8486 32.1805 28.9142 30.9777 30.5697C30.4458 31.3019 29.8019 31.9458 29.0697 32.4777C27.4142 33.6805 25.3486 33.9846 22.5385 34.0809C21.2526 34.125 19.7565 34.125 18.0162 34.125H17.9321C15.1773 34.125 13.0179 34.125 11.3047 33.9395C9.55641 33.75 8.13984 33.3566 6.93036 32.4777C6.19814 31.9458 5.55422 31.3019 5.02223 30.5697C4.14348 29.3601 3.75002 27.9436 3.5606 26.1952C3.37499 24.4821 3.37499 22.3227 3.375 19.5678V19.4322C3.37499 16.6773 3.37499 14.5179 3.5606 12.8047C3.75002 11.0564 4.14348 9.63984 5.02223 8.43035C5.55422 7.69814 6.19814 7.05421 6.93036 6.52222C8.36483 5.48002 10.1071 5.11256 12.375 4.97037V3C12.375 2.37868 12.8787 1.875 13.5 1.875ZM12.375 7.22587C10.3319 7.36638 9.15266 7.68877 8.25287 8.34252C7.71167 8.73573 7.23573 9.21167 6.84252 9.75287C6.28889 10.5149 5.96618 11.4902 5.7975 13.0471C5.62655 14.625 5.625 16.6626 5.625 19.5C5.625 22.3374 5.62655 24.375 5.7975 25.953C5.96618 27.5098 6.28889 28.4852 6.84252 29.2472C7.23573 29.7884 7.71167 30.2643 8.25287 30.6574C9.01488 31.2111 9.9902 31.5338 11.5471 31.7025C13.125 31.8735 15.1626 31.875 18 31.875C19.2724 31.875 20.3877 31.8749 21.3777 31.8588C21.3843 31.1468 21.4065 30.6227 21.4812 30.1507C22.0658 26.4601 24.9601 23.5658 28.6507 22.9812C29.1227 22.9065 29.6468 22.8843 30.3588 22.8777C30.375 21.8877 30.375 20.7724 30.375 19.5C30.375 16.6626 30.3735 14.625 30.2025 13.0471C30.0338 11.4902 29.7111 10.5149 29.1574 9.75287C28.7643 9.21167 28.2884 8.73573 27.7472 8.34252C26.8473 7.68877 25.6681 7.36638 23.625 7.22587V7.5C23.625 8.12132 23.1213 8.625 22.5 8.625C21.8787 8.625 21.375 8.12132 21.375 7.5V7.14118C20.3856 7.12507 19.2714 7.125 18 7.125C16.7286 7.125 15.6144 7.12507 14.625 7.14118V7.5C14.625 8.12132 14.1213 8.625 13.5 8.625C12.8787 8.625 12.375 8.12132 12.375 7.5V7.22587ZM30.2739 25.1292C29.6664 25.1362 29.3103 25.1549 29.0028 25.2034C26.2749 25.6356 24.1356 27.7749 23.7035 30.5028C23.6549 30.8103 23.6362 31.1664 23.6292 31.7739C25.6696 31.6332 26.8479 31.3107 27.7472 30.6574C28.2884 30.2643 28.7643 29.7884 29.1574 29.2472C29.8108 28.3479 30.1332 27.1696 30.2739 25.1292Z" fill="#1F2F40"/>
<path d="M12 13.5C12 14.3284 11.3284 15 10.5 15C9.67158 15 9 14.3284 9 13.5C9 12.6716 9.67158 12 10.5 12C11.3284 12 12 12.6716 12 13.5Z" fill="#2AB26E"/>
<path d="M12 19.5C12 20.3284 11.3284 21 10.5 21C9.67158 21 9 20.3284 9 19.5C9 18.6716 9.67158 18 10.5 18C11.3284 18 12 18.6716 12 19.5Z" fill="#2AB26E"/>
<path d="M19.5 13.5C19.5 14.3284 18.8284 15 18 15C17.1716 15 16.5 14.3284 16.5 13.5C16.5 12.6716 17.1716 12 18 12C18.8284 12 19.5 12.6716 19.5 13.5Z" fill="#1F2F40"/>
<path d="M19.5 19.5C19.5 20.3284 18.8284 21 18 21C17.1716 21 16.5 20.3284 16.5 19.5C16.5 18.6716 17.1716 18 18 18C18.8284 18 19.5 18.6716 19.5 19.5Z" fill="#2AB26E"/>
<path d="M19.5 25.5C19.5 26.3284 18.8284 27 18 27C17.1716 27 16.5 26.3284 16.5 25.5C16.5 24.6716 17.1716 24 18 24C18.8284 24 19.5 24.6716 19.5 25.5Z" fill="#2AB26E"/>
<path d="M27 13.5C27 14.3284 26.3284 15 25.5 15C24.6716 15 24 14.3284 24 13.5C24 12.6716 24.6716 12 25.5 12C26.3284 12 27 12.6716 27 13.5Z" fill="#1F2F40"/>
<path d="M27 19.5C27 20.3284 26.3284 21 25.5 21C24.6716 21 24 20.3284 24 19.5C24 18.6716 24.6716 18 25.5 18C26.3284 18 27 18.6716 27 19.5Z" fill="#2AB26E"/>
<path d="M12 25.5C12 26.3284 11.3284 27 10.5 27C9.67158 27 9 26.3284 9 25.5C9 24.6716 9.67158 24 10.5 24C11.3284 24 12 24.6716 12 25.5Z" fill="#2AB26E"/>
</svg>
