<svg width="36" height="36" viewBox="0 0 36 36" fill="none" xmlns="http://www.w3.org/2000/svg">
<path fill-rule="evenodd" clip-rule="evenodd" d="M18 12.375C14.065 12.375 10.875 15.5649 10.875 19.5C10.875 23.435 14.065 26.625 18 26.625C21.9351 26.625 25.125 23.435 25.125 19.5C25.125 15.5649 21.9351 12.375 18 12.375ZM13.125 19.5C13.125 16.8077 15.3077 14.625 18 14.625C20.6924 14.625 22.875 16.8077 22.875 19.5C22.875 22.1924 20.6924 24.375 18 24.375C15.3077 24.375 13.125 22.1924 13.125 19.5Z" fill="#2AB26E"/>
<path fill-rule="evenodd" clip-rule="evenodd" d="M23.4752 3.36195C20.3528 0.586381 15.6473 0.586381 12.5248 3.36195L12.2012 3.64962C11.3129 4.43916 10.1658 4.87528 8.9774 4.87528C5.05485 4.87528 1.875 8.05513 1.875 11.9777V19.5681C1.87499 22.323 1.87499 24.4824 2.0606 26.1955C2.25002 27.9439 2.64348 29.3604 3.52223 30.57C4.05422 31.3021 4.69814 31.9461 5.43036 32.478C6.63984 33.3568 8.05641 33.7503 9.80472 33.9397C11.5179 34.1253 13.6773 34.1253 16.4321 34.1253H19.568C22.3227 34.1253 24.4821 34.1253 26.1953 33.9397C27.9437 33.7503 29.3601 33.3568 30.5697 32.478C31.3019 31.9461 31.9458 31.3021 32.4777 30.57C33.3566 29.3604 33.75 27.9439 33.9395 26.1955C34.125 24.4824 34.125 22.323 34.125 19.5682V11.9777C34.125 8.05513 30.9452 4.87528 27.0227 4.87528C25.8342 4.87528 24.6872 4.43916 23.7989 3.64962L23.4752 3.36195ZM14.0196 5.04361C16.2896 3.02583 19.7105 3.02583 21.9804 5.04361L22.3041 5.33128C23.6042 6.48693 25.2831 7.12528 27.0227 7.12528C29.7026 7.12528 31.875 9.29778 31.875 11.9777V19.5003C31.875 22.3377 31.8735 24.3753 31.7025 25.9531C31.5338 27.5101 31.2111 28.4854 30.6575 29.2474C30.2643 29.7886 29.7884 30.2646 29.2472 30.6577C28.4852 31.2114 27.5099 31.534 25.953 31.7028C24.375 31.8738 22.3374 31.8753 19.5 31.8753H16.5C13.6626 31.8753 11.625 31.8738 10.0471 31.7028C8.4902 31.534 7.51488 31.2114 6.75287 30.6577C6.21167 30.2646 5.73573 29.7886 5.34252 29.2474C4.78889 28.4854 4.46618 27.5101 4.2975 25.9531C4.12655 24.3753 4.125 22.3377 4.125 19.5003V11.9777C4.125 9.29778 6.2975 7.12528 8.9774 7.12528C10.7169 7.12528 12.3959 6.48693 13.696 5.33128L14.0196 5.04361Z" fill="#1F2F40"/>
<path d="M25.5 12C25.5 12.8284 26.1716 13.5 27 13.5C27.8285 13.5 28.5 12.8284 28.5 12C28.5 11.1716 27.8285 10.5 27 10.5C26.1716 10.5 25.5 11.1716 25.5 12Z" fill="#2AB26E"/>
</svg>
