<svg width="34" height="34" viewBox="0 0 34 34" fill="none" xmlns="http://www.w3.org/2000/svg">
<path fill-rule="evenodd" clip-rule="evenodd" d="M17 11.3711C13.065 11.3711 9.875 14.561 9.875 18.4961C9.875 22.4311 13.065 25.6211 17 25.6211C20.9351 25.6211 24.125 22.4311 24.125 18.4961C24.125 14.561 20.9351 11.3711 17 11.3711ZM12.125 18.4961C12.125 15.8038 14.3077 13.6211 17 13.6211C19.6924 13.6211 21.875 15.8038 21.875 18.4961C21.875 21.1885 19.6924 23.3711 17 23.3711C14.3077 23.3711 12.125 21.1885 12.125 18.4961Z" fill="#E59B0B"/>
<path fill-rule="evenodd" clip-rule="evenodd" d="M22.4752 2.35902C19.3528 -0.416548 14.6473 -0.416548 11.5248 2.35902L11.2012 2.64669C10.3129 3.43623 9.16582 3.87235 7.9774 3.87235C4.05485 3.87235 0.875 7.0522 0.875 10.9748V18.5652C0.874985 21.3201 0.874985 23.4795 1.0606 25.1926C1.25002 26.941 1.64348 28.3575 2.52223 29.5671C3.05422 30.2992 3.69814 30.9432 4.43036 31.4751C5.63984 32.3539 7.05641 32.7474 8.80472 32.9368C10.5179 33.1224 12.6773 33.1224 15.4321 33.1224H18.568C21.3227 33.1224 23.4821 33.1224 25.1953 32.9368C26.9437 32.7474 28.3601 32.3539 29.5697 31.4751C30.3019 30.9432 30.9458 30.2992 31.4777 29.5671C32.3566 28.3575 32.75 26.941 32.9395 25.1926C33.125 23.4795 33.125 21.3201 33.125 18.5653V10.9747C33.125 7.0522 29.9452 3.87235 26.0227 3.87235C24.8342 3.87235 23.6872 3.43623 22.7989 2.64669L22.4752 2.35902ZM13.0196 4.04068C15.2896 2.0229 18.7105 2.0229 20.9804 4.04068L21.3041 4.32835C22.6042 5.484 24.2831 6.12235 26.0227 6.12235C28.7026 6.12235 30.875 8.29485 30.875 10.9747V18.4974C30.875 21.3348 30.8735 23.3724 30.7025 24.9502C30.5338 26.5072 30.2111 27.4825 29.6575 28.2445C29.2643 28.7857 28.7884 29.2617 28.2472 29.6548C27.4852 30.2085 26.5099 30.5311 24.953 30.6999C23.375 30.8709 21.3374 30.8724 18.5 30.8724H15.5C12.6626 30.8724 10.625 30.8709 9.04706 30.6999C7.4902 30.5311 6.51488 30.2085 5.75287 29.6548C5.21167 29.2617 4.73573 28.7857 4.34252 28.2445C3.78889 27.4825 3.46618 26.5072 3.2975 24.9502C3.12655 23.3724 3.125 21.3348 3.125 18.4974V10.9748C3.125 8.29485 5.2975 6.12235 7.9774 6.12235C9.71687 6.12235 11.3959 5.484 12.696 4.32835L13.0196 4.04068Z" fill="#1F2F40"/>
<path d="M24.5 10.9961C24.5 11.8245 25.1716 12.4961 26 12.4961C26.8285 12.4961 27.5 11.8245 27.5 10.9961C27.5 10.1677 26.8285 9.49609 26 9.49609C25.1716 9.49609 24.5 10.1677 24.5 10.9961Z" fill="#E59B0B"/>
</svg>
