<svg width="25" height="24" viewBox="0 0 25 24" fill="none" xmlns="http://www.w3.org/2000/svg">
<path fill-rule="evenodd" clip-rule="evenodd" d="M12.9638 0.354492H15.2032C16.6892 0.354492 17.8543 0.354481 18.7907 0.430986C19.7441 0.508889 20.5318 0.670154 21.2448 1.03343C22.4169 1.63064 23.3698 2.58358 23.9671 3.75568C24.3303 4.46866 24.4916 5.25635 24.5695 6.20984C24.646 7.14621 24.646 8.31126 24.646 9.79728V14.4143C24.646 17.1197 22.4529 19.3128 19.7475 19.3128H19.0956C18.8264 19.3128 18.6424 19.5847 18.7424 19.8347C19.4862 21.6944 17.3444 23.3756 15.7146 22.2115L13.7032 20.7748C13.2529 20.9348 12.7734 21.0319 12.2754 21.0557C12.156 21.0614 12.0069 21.0614 11.7717 21.0614H11.7426L11.6804 21.0615C10.9892 21.066 10.3147 21.2847 9.74764 21.6897L7.50741 23.3116C6.05756 24.3614 4.24917 22.8246 4.87426 21.2405C4.89242 21.1946 4.88622 21.1509 4.86122 21.1134C4.83654 21.0765 4.80504 21.0614 4.7685 21.0614H4.26147C2.04725 21.0614 0.270996 19.245 0.270996 17.0276V13.381C0.270991 12.215 0.270985 11.2911 0.331022 10.5463C0.3924 9.78475 0.520464 9.13983 0.816737 8.55043C1.29704 7.59492 2.06451 6.81602 3.01097 6.3272C3.20348 6.22777 3.40192 6.14692 3.60856 6.08095C3.69048 5.18315 3.85423 4.43416 4.19993 3.75567C4.79715 2.58358 5.75008 1.63064 6.92218 1.03343C7.63516 0.670154 8.42285 0.508889 9.37635 0.430986C10.3127 0.354481 11.4778 0.354492 12.9638 0.354492ZM5.27399 5.81223C5.95684 5.77108 6.76389 5.77112 7.73359 5.77116H9.54553C10.6947 5.77115 11.6074 5.77115 12.3436 5.83211C13.0972 5.89453 13.7375 6.02496 14.3227 6.3272C15.2692 6.81602 16.0366 7.59492 16.5169 8.55043C16.8132 9.13983 16.9412 9.78475 17.0026 10.5463C17.0627 11.2911 17.0627 12.2151 17.0627 13.381V15.7458C17.0627 15.9612 17.0627 16.0982 17.057 16.2184C16.9883 17.6906 16.3029 18.9997 15.2528 19.8847L16.659 20.8892C16.9683 21.1101 17.3747 20.791 17.2335 20.4382C16.7066 19.1209 17.6768 17.6878 19.0956 17.6878H19.7475C21.5555 17.6878 23.021 16.2223 23.021 14.4143V9.83366C23.021 8.30344 23.0203 7.20465 22.9499 6.34216C22.8802 5.48917 22.7463 4.93913 22.5192 4.49341C22.0777 3.62708 21.3734 2.92273 20.5071 2.48131C20.0613 2.25421 19.5113 2.12028 18.6583 2.05059C17.7959 1.98012 16.697 1.97949 15.1668 1.97949H13.0002C11.47 1.97949 10.3712 1.98012 9.50867 2.05059C8.65567 2.12028 8.10563 2.25421 7.65991 2.48131C6.79358 2.92273 6.08923 3.62708 5.64782 4.49341C5.47088 4.84068 5.35128 5.24919 5.27399 5.81223ZM7.82423 7.39616C6.1945 7.39616 5.22767 7.39939 4.52198 7.52711C4.20224 7.58498 3.96169 7.66512 3.75665 7.771C3.11768 8.10102 2.59614 8.6287 2.26863 9.28025C2.10572 9.60434 2.00419 10.014 1.95077 10.6768C1.89661 11.3487 1.896 12.2072 1.896 13.4163V17.0276C1.896 18.3684 2.96539 19.4364 4.26147 19.4364H4.7685C6.01467 19.4364 6.83394 20.7014 6.38583 21.8371C6.36689 21.885 6.37187 21.9108 6.37607 21.9247C6.38216 21.9451 6.39754 21.9707 6.42452 21.9921C6.45154 22.0137 6.47654 22.0203 6.49063 22.021C6.49755 22.0215 6.51692 22.0226 6.55443 21.9954L8.75421 20.4027L8.80313 20.3673C9.64153 19.7686 10.6419 19.4433 11.6698 19.4365L11.7426 19.4364C12.0162 19.4364 12.1226 19.4362 12.1975 19.4326C12.6495 19.4109 13.077 19.3004 13.4645 19.1178C14.5807 18.5924 15.3719 17.4683 15.4339 16.1426C15.4374 16.0654 15.4377 15.9693 15.4377 15.7214V13.4163C15.4377 12.2072 15.437 11.3487 15.3828 10.6768C15.3294 10.014 15.2279 9.60434 15.065 9.28025C14.7375 8.6287 14.216 8.10102 13.577 7.771C13.261 7.6078 12.8608 7.50551 12.2094 7.45157C11.5482 7.39681 10.7027 7.39616 9.50942 7.39616H7.82423Z" fill="#131B4C"/>
<path d="M6.50016 14.1673C6.50016 14.7656 6.01514 15.2507 5.41683 15.2507C4.81853 15.2507 4.3335 14.7656 4.3335 14.1673C4.3335 13.569 4.81853 13.084 5.41683 13.084C6.01514 13.084 6.50016 13.569 6.50016 14.1673Z" fill="#131B4C"/>
<path d="M9.75016 14.1673C9.75016 14.7656 9.26514 15.2507 8.66683 15.2507C8.06853 15.2507 7.5835 14.7656 7.5835 14.1673C7.5835 13.569 8.06853 13.084 8.66683 13.084C9.26514 13.084 9.75016 13.569 9.75016 14.1673Z" fill="#131B4C"/>
<path d="M13.0002 14.1673C13.0002 14.7656 12.5152 15.2507 11.9168 15.2507C11.3185 15.2507 10.8335 14.7656 10.8335 14.1673C10.8335 13.569 11.3185 13.084 11.9168 13.084C12.5152 13.084 13.0002 13.569 13.0002 14.1673Z" fill="#131B4C"/>
</svg>
