<svg width="36" height="36" viewBox="0 0 36 36" fill="none" xmlns="http://www.w3.org/2000/svg">
<path fill-rule="evenodd" clip-rule="evenodd" d="M13.1667 11.25C10.606 11.25 8.45833 13.418 8.45833 16.1827C8.45833 16.8359 8.57908 17.4572 8.79746 18.0249C9.37034 17.8661 9.96827 17.7678 10.5834 17.7371C10.7214 17.7302 10.8603 17.7267 11 17.7267C12.0094 17.7267 12.9783 17.9087 13.8732 18.2424C14.6606 16.5409 15.8749 15.0752 17.3791 13.9759C16.5992 12.3438 14.99 11.25 13.1667 11.25ZM19.3246 12.8363C18.1656 10.5695 15.8578 9 13.1667 9C9.28405 9 6.20833 12.2562 6.20833 16.1827C6.20833 17.15 6.39407 18.0751 6.7319 18.9204C4.4211 20.3293 2.875 22.8493 2.875 25.7383C2.875 30.1803 6.53008 33.75 11 33.75H24C30.1269 33.75 35.125 28.8589 35.125 22.787C35.125 16.715 30.1269 11.8239 24 11.8239C22.331 11.8239 20.7467 12.1863 19.3246 12.8363ZM19.0801 15.534C17.8558 16.3361 16.8466 17.4288 16.1543 18.7099C16.055 18.8935 15.9624 19.0809 15.8765 19.272C15.414 20.3004 14.2198 20.7926 13.1736 20.3836C12.503 20.1216 11.7702 19.9767 11 19.9767C10.871 19.9767 10.7431 19.9808 10.6163 19.9888C9.92682 20.0322 9.27171 20.1921 8.66974 20.4474L8.61304 20.4715C6.55183 21.3713 5.125 23.3997 5.125 25.7383C5.125 28.9032 7.73794 31.5 11 31.5H11.0118H11.0139H24C28.9189 31.5 32.875 27.5819 32.875 22.787C32.875 17.9921 28.9189 14.0739 24 14.0739C22.1785 14.0739 20.4872 14.6121 19.0801 15.534Z" fill="#1F2F40"/>
<path fill-rule="evenodd" clip-rule="evenodd" d="M14.6667 3C15.3089 3 15.8296 3.5206 15.8296 4.16278V5.71318C15.8296 6.35537 15.3089 6.87597 14.6667 6.87597C14.0246 6.87597 13.5039 6.35537 13.5039 5.71318V4.16278C13.5039 3.5206 14.0246 3 14.6667 3Z" fill="#2AB26E"/>
<path fill-rule="evenodd" clip-rule="evenodd" d="M4.87597 14.6667C4.87597 15.3089 4.35537 15.8296 3.71318 15.8296H2.16278C1.5206 15.8296 1 15.3089 1 14.6667C1 14.0246 1.5206 13.5039 2.16278 13.5039H3.71318C4.35537 13.5039 4.87597 14.0246 4.87597 14.6667Z" fill="#2AB26E"/>
<path fill-rule="evenodd" clip-rule="evenodd" d="M7.08131 8.08131C6.62721 8.53541 5.89098 8.53541 5.43688 8.08131L4.34058 6.98501C3.88648 6.53091 3.88648 5.79468 4.34058 5.34058C4.79468 4.88648 5.53091 4.88648 5.98501 5.34058L7.08131 6.43688C7.53541 6.89096 7.53541 7.62721 7.08131 8.08131Z" fill="#2AB26E"/>
</svg>
