<svg width="65" height="65" viewBox="0 0 65 65" fill="none" xmlns="http://www.w3.org/2000/svg">
<path d="M30.7326 12H12.3739C6.67403 12 2.05273 16.6953 2.05273 22.4864V48.7023C2.05273 54.4934 6.67403 59.1887 12.3739 59.1887H52.6263C58.3262 59.1887 62.9475 54.4934 62.9475 48.7023V23.7578" stroke="#1F2F40" stroke-width="3" stroke-linecap="round" stroke-linejoin="round"/>
<path d="M12.374 48.7031H48.498" stroke="#1F2F40" stroke-width="3" stroke-linecap="round" stroke-linejoin="round"/>
<path d="M12.374 38.2168H17.5346" stroke="#1F2F40" stroke-width="3" stroke-linecap="round" stroke-linejoin="round"/>
<path d="M12.374 27.7285H17.5346" stroke="#1F2F40" stroke-width="3" stroke-linecap="round" stroke-linejoin="round"/>
<path fill-rule="evenodd" clip-rule="evenodd" d="M37.3258 19.1975C37.3258 18.53 36.7926 17.9883 36.1356 17.9883H28.1973C26.6642 17.9883 25.4189 19.2509 25.4189 20.8111V35.3295C25.4189 36.8872 26.6642 38.1524 28.1973 38.1524H34.5474C36.083 38.1524 37.3258 36.8872 37.3258 35.3295V19.1975ZM34.9441 20.4068V35.3283C34.9441 35.5508 34.7664 35.7313 34.5474 35.7313H28.1973C27.9783 35.7313 27.8006 35.5508 27.8006 35.3283V20.8098C27.8006 20.5873 27.9783 20.4068 28.1973 20.4068H34.9454H34.9441Z" fill="#2AB26E"/>
<path fill-rule="evenodd" clip-rule="evenodd" d="M35.0745 18.7073C34.9881 18.8777 34.9443 19.0659 34.9443 19.2579V34.3129C34.9443 34.7173 35.1433 35.0949 35.475 35.32C35.475 35.32 38.217 37.1765 39.6137 38.1238C40.3308 38.6108 41.1743 38.8689 42.0366 38.8689H49.6558C53.3089 38.8689 56.4364 36.2088 57.0797 32.5557C57.5115 30.1016 58.0258 27.1771 58.4726 24.6416C58.793 22.8182 58.2761 20.9478 57.0659 19.5618C55.8557 18.1784 54.0873 17.4307 52.2677 17.5388L47.6083 17.8134C47.4857 17.8198 47.368 17.7702 47.2879 17.6774C47.2066 17.5833 47.174 17.46 47.1953 17.3366L48.2103 13.138C48.2741 12.8748 48.3267 12.6078 48.358 12.3382C48.4831 11.2523 48.3767 10.1511 48.0476 9.10721C47.9074 8.66344 47.7522 8.17136 47.6033 7.70216C47.0539 5.96524 45.4645 4.78906 43.6711 4.78906H43.6698C41.8752 4.78906 40.287 5.96524 39.7376 7.70216L38.9829 10.0901L38.645 10.9637L35.0782 18.7073H35.0745ZM37.3259 19.5478L40.9403 11.6821C41.0066 11.5486 41.0642 11.4074 41.1105 11.2637L42.0028 8.4422C42.2344 7.70725 42.9077 7.2088 43.6686 7.2088H43.6698C44.4307 7.2088 45.1041 7.70725 45.3356 8.4422L45.7799 9.84725C46.0402 10.6687 46.0952 11.5422 45.9451 12.3916C45.8024 13.1838 45.0039 16.0587 44.8525 16.9043C44.6998 17.7562 44.9401 18.6323 45.5045 19.2808C46.0677 19.928 46.895 20.2777 47.746 20.2281L52.4053 19.9534C53.4979 19.8886 54.5579 20.3375 55.2838 21.1678C56.0097 21.9981 56.32 23.1209 56.1286 24.2144L54.7356 32.1284C54.2964 34.6283 52.155 36.4479 49.6545 36.4479H42.0354C41.6436 36.4479 41.2607 36.3296 40.934 36.1096L37.3247 33.6657V19.5478H37.3259Z" fill="#2AB26E"/>
<path fill-rule="evenodd" clip-rule="evenodd" d="M30.1807 32.1038V33.7173C30.1807 34.3849 30.7138 34.9266 31.3708 34.9266C32.0279 34.9266 32.561 34.3849 32.561 33.7173V32.1038C32.561 31.4362 32.0279 30.8945 31.3708 30.8945C30.7138 30.8945 30.1807 31.4362 30.1807 32.1038Z" fill="#2AB26E"/>
</svg>
