<svg width="34" height="34" viewBox="0 0 34 34" fill="none" xmlns="http://www.w3.org/2000/svg">
<path d="M16.1 33.125H10.4C3.815 33.125 0.875 30.185 0.875 23.6V17.9C0.875 11.315 3.815 8.375 10.4 8.375H14.9C15.515 8.375 16.025 8.885 16.025 9.5C16.025 10.115 15.515 10.625 14.9 10.625H10.4C5.03 10.625 3.125 12.53 3.125 17.9V23.6C3.125 28.97 5.03 30.875 10.4 30.875H16.1C21.47 30.875 23.375 28.97 23.375 23.6V19.1C23.375 18.485 23.885 17.975 24.5 17.975C25.115 17.975 25.625 18.485 25.625 19.1V23.6C25.625 30.185 22.685 33.125 16.1 33.125Z" fill="#E59B0B"/>
<path d="M24.5004 20.2248H19.7004C15.4854 20.2248 13.7754 18.5148 13.7754 14.2998V9.49974C13.7754 9.04974 14.0454 8.62974 14.4654 8.46474C14.8854 8.28474 15.3654 8.38974 15.6954 8.70474L25.2954 18.3048C25.6104 18.6198 25.7154 19.1148 25.5354 19.5348C25.3704 19.9548 24.9504 20.2248 24.5004 20.2248ZM16.0254 12.2147V14.2998C16.0254 17.2848 16.7154 17.9748 19.7004 17.9748H21.7854L16.0254 12.2147Z" fill="#E59B0B"/>
<path d="M22.3984 3.125H16.3984C15.7834 3.125 15.2734 2.615 15.2734 2C15.2734 1.385 15.7834 0.875 16.3984 0.875H22.3984C23.0134 0.875 23.5234 1.385 23.5234 2C23.5234 2.615 23.0134 3.125 22.3984 3.125Z" fill="#1F2F40"/>
<path d="M9.5 7.625C8.885 7.625 8.375 7.115 8.375 6.5C8.375 3.395 10.895 0.875 14 0.875H17.93C18.545 0.875 19.055 1.385 19.055 2C19.055 2.615 18.545 3.125 17.93 3.125H14C12.14 3.125 10.625 4.64 10.625 6.5C10.625 7.115 10.115 7.625 9.5 7.625Z" fill="#1F2F40"/>
<path d="M27.7852 25.625C27.1702 25.625 26.6602 25.115 26.6602 24.5C26.6602 23.885 27.1702 23.375 27.7852 23.375C29.4952 23.375 30.8752 21.98 30.8752 20.285V11C30.8752 10.385 31.3852 9.875 32.0002 9.875C32.6152 9.875 33.1252 10.385 33.1252 11V20.285C33.1252 23.225 30.7252 25.625 27.7852 25.625Z" fill="#1F2F40"/>
<path d="M32 12.1247H27.5C23.51 12.1247 21.875 10.4897 21.875 6.49974V1.99974C21.875 1.54974 22.145 1.12974 22.565 0.964739C22.985 0.784739 23.465 0.889739 23.795 1.20474L32.795 10.2047C33.11 10.5197 33.215 11.0147 33.035 11.4347C32.87 11.8547 32.45 12.1247 32 12.1247ZM24.125 4.71474V6.49974C24.125 9.24474 24.755 9.87474 27.5 9.87474H29.285L24.125 4.71474Z" fill="#1F2F40"/>
</svg>
