<svg width="36" height="36" viewBox="0 0 36 36" fill="none" xmlns="http://www.w3.org/2000/svg">
<path d="M17.1 34.125H11.4C4.815 34.125 1.875 31.185 1.875 24.6V18.9C1.875 12.315 4.815 9.375 11.4 9.375H15.9C16.515 9.375 17.025 9.885 17.025 10.5C17.025 11.115 16.515 11.625 15.9 11.625H11.4C6.03 11.625 4.125 13.53 4.125 18.9V24.6C4.125 29.97 6.03 31.875 11.4 31.875H17.1C22.47 31.875 24.375 29.97 24.375 24.6V20.1C24.375 19.485 24.885 18.975 25.5 18.975C26.115 18.975 26.625 19.485 26.625 20.1V24.6C26.625 31.185 23.685 34.125 17.1 34.125Z" fill="#1F2F40"/>
<path d="M25.5004 21.2248H20.7004C16.4854 21.2248 14.7754 19.5148 14.7754 15.2998V10.4997C14.7754 10.0497 15.0454 9.62974 15.4654 9.46474C15.8854 9.28474 16.3654 9.38974 16.6954 9.70474L26.2954 19.3048C26.6104 19.6198 26.7154 20.1148 26.5354 20.5348C26.3704 20.9548 25.9504 21.2248 25.5004 21.2248ZM17.0254 13.2147V15.2998C17.0254 18.2848 17.7154 18.9748 20.7004 18.9748H22.7854L17.0254 13.2147Z" fill="#1F2F40"/>
<path d="M23.3984 4.125H17.3984C16.7834 4.125 16.2734 3.615 16.2734 3C16.2734 2.385 16.7834 1.875 17.3984 1.875H23.3984C24.0134 1.875 24.5234 2.385 24.5234 3C24.5234 3.615 24.0134 4.125 23.3984 4.125Z" fill="#2AB26E"/>
<path d="M10.5 8.625C9.885 8.625 9.375 8.115 9.375 7.5C9.375 4.395 11.895 1.875 15 1.875H18.93C19.545 1.875 20.055 2.385 20.055 3C20.055 3.615 19.545 4.125 18.93 4.125H15C13.14 4.125 11.625 5.64 11.625 7.5C11.625 8.115 11.115 8.625 10.5 8.625Z" fill="#2AB26E"/>
<path d="M28.7852 26.625C28.1702 26.625 27.6602 26.115 27.6602 25.5C27.6602 24.885 28.1702 24.375 28.7852 24.375C30.4952 24.375 31.8752 22.98 31.8752 21.285V12C31.8752 11.385 32.3852 10.875 33.0002 10.875C33.6152 10.875 34.1252 11.385 34.1252 12V21.285C34.1252 24.225 31.7252 26.625 28.7852 26.625Z" fill="#2AB26E"/>
<path d="M33 13.1247H28.5C24.51 13.1247 22.875 11.4897 22.875 7.49974V2.99974C22.875 2.54974 23.145 2.12974 23.565 1.96474C23.985 1.78474 24.465 1.88974 24.795 2.20474L33.795 11.2047C34.11 11.5197 34.215 12.0147 34.035 12.4347C33.87 12.8547 33.45 13.1247 33 13.1247ZM25.125 5.71474V7.49974C25.125 10.2447 25.755 10.8747 28.5 10.8747H30.285L25.125 5.71474Z" fill="#2AB26E"/>
</svg>
