<svg width="24" height="24" viewBox="0 0 24 24" fill="none" xmlns="http://www.w3.org/2000/svg">
<path d="M16.1898 2.44531H7.81978C4.17978 2.44531 2.00977 4.61531 2.00977 8.25531V16.6253C2.00977 20.2653 4.17978 22.4353 7.81978 22.4353H16.1898C19.8298 22.4353 21.9998 20.2653 21.9998 16.6253V8.25531C21.9998 4.61531 19.8298 2.44531 16.1898 2.44531Z" fill="white"/>
<path d="M16.8598 8.46007C16.0198 8.38007 15.2498 8.33007 14.4998 8.28007L14.4198 7.80007C14.3498 7.32007 14.1998 6.33008 12.6898 6.33008H11.2998C9.8098 6.33008 9.6498 7.28008 9.5698 7.79008L9.4898 8.26007C9.0598 8.29007 8.6398 8.31007 8.2098 8.35007L7.11979 8.46007C6.73979 8.50007 6.46979 8.83007 6.50979 9.21007C6.54979 9.56007 6.8398 9.83008 7.1898 9.83008H7.25979L8.33979 9.72008C8.93979 9.67008 9.54979 9.62007 10.1498 9.59007C11.3698 9.54007 12.5898 9.56007 13.8198 9.62007C14.7298 9.66007 15.6798 9.73008 16.7198 9.83008H16.7798C17.1298 9.83008 17.4298 9.56007 17.4598 9.21007C17.5098 8.83007 17.2398 8.49007 16.8598 8.46007Z" fill="#CC0E36"/>
<path d="M15.8295 11.1005C15.6595 10.9105 15.4095 10.8105 15.1595 10.8105H8.83951C8.58951 10.8105 8.33951 10.9205 8.16951 11.1005C7.99951 11.2905 7.90951 11.5405 7.92951 11.7905L8.23952 15.7505C8.29952 16.6005 8.36951 17.6605 10.2895 17.6605H13.7095C15.6295 17.6605 15.6995 16.6005 15.7595 15.7505L16.0695 11.7905C16.0895 11.5405 15.9995 11.2905 15.8295 11.1005Z" fill="#CC0E36"/>
</svg>
