<svg width="40" height="40" viewBox="0 0 40 40" fill="none" xmlns="http://www.w3.org/2000/svg">
<path d="M39.2184 20.4786H34.5117V13.106C34.5117 9.57199 36.2779 6.27184 39.2184 4.31152V20.4786Z" stroke="white" stroke-miterlimit="10" stroke-linecap="round" stroke-linejoin="round"/>
<path d="M37.65 33.7279C36.7835 33.7279 36.0811 33.0255 36.0811 32.159V20.4785H39.2189V32.159C39.2189 33.0255 38.5164 33.7279 37.65 33.7279Z" stroke="white" stroke-miterlimit="10" stroke-linecap="round" stroke-linejoin="round"/>
<path d="M7.05672 4.31152V12.1559C7.05672 13.4556 6.00312 14.5092 4.70344 14.5092H3.13453C1.83484 14.5092 0.78125 13.4556 0.78125 12.1559V4.31152" stroke="white" stroke-miterlimit="10" stroke-linecap="round" stroke-linejoin="round"/>
<path d="M3.91895 4.31152V10.587" stroke="white" stroke-miterlimit="10" stroke-linecap="round" stroke-linejoin="round"/>
<path d="M5.48832 14.374V32.1155C5.48832 32.9824 4.80379 33.7182 3.93691 33.7276C3.49699 33.7324 3.09801 33.5558 2.81027 33.268C2.52629 32.984 2.35059 32.5918 2.35059 32.1588V14.374" stroke="white" stroke-miterlimit="10" stroke-linecap="round" stroke-linejoin="round"/>
<path d="M0.78125 10.5869H7.05672" stroke="white" stroke-miterlimit="10" stroke-linecap="round" stroke-linejoin="round"/>
<path d="M5.48828 28.5984C8.42758 33.5482 13.8261 36.8656 20.0004 36.8656C27.5388 36.8656 33.9218 31.9205 36.0814 25.0967" stroke="white" stroke-miterlimit="10" stroke-linecap="round" stroke-linejoin="round"/>
<path d="M7.05664 9.18672C10.1505 5.48734 14.8006 3.13477 19.9999 3.13477C26.2511 3.13477 31.7077 6.53531 34.6211 11.5879" stroke="white" stroke-miterlimit="10" stroke-linecap="round" stroke-linejoin="round"/>
<path d="M20.0004 31.3747C26.2822 31.3747 31.3747 26.2822 31.3747 20.0004C31.3747 13.7185 26.2822 8.62598 20.0004 8.62598C13.7185 8.62598 8.62598 13.7185 8.62598 20.0004C8.62598 26.2822 13.7185 31.3747 20.0004 31.3747Z" stroke="white" stroke-miterlimit="10" stroke-linecap="round" stroke-linejoin="round"/>
</svg>
