<svg width="26" height="26" viewBox="0 0 26 26" fill="none" xmlns="http://www.w3.org/2000/svg">
<path fill-rule="evenodd" clip-rule="evenodd" d="M11.4769 11.1543C11.0388 11.5268 10.8031 11.9867 10.8031 12.4313V12.773C11.5073 12.6027 12.2431 12.5125 12.9998 12.5125C13.7565 12.5125 14.4923 12.6027 15.1966 12.773V12.4313C15.1966 11.9867 14.9609 11.5268 14.5228 11.1543C14.0833 10.7808 13.5136 10.5625 12.9998 10.5625C12.4861 10.5625 11.9164 10.7808 11.4769 11.1543ZM16.8216 13.3303V12.4313C16.8216 11.395 16.2789 10.5143 15.5754 9.91627C14.8732 9.31946 13.9383 8.9375 12.9998 8.9375C12.0613 8.9375 11.1264 9.31946 10.4244 9.91627C9.72083 10.5143 9.17808 11.395 9.17808 12.4313V13.3303C6.22118 14.6635 4.09506 17.4962 3.79727 20.8542H2.1665C1.71778 20.8542 1.354 21.218 1.354 21.6667C1.354 22.1154 1.71778 22.4792 2.1665 22.4792H23.8332C24.2819 22.4792 24.6457 22.1154 24.6457 21.6667C24.6457 21.218 24.2819 20.8542 23.8332 20.8542H22.2024C21.9046 17.4962 19.7785 14.6635 16.8216 13.3303ZM20.5694 20.8542C20.1599 17.0841 16.9337 14.1375 12.9998 14.1375C9.0659 14.1375 5.83974 17.0841 5.43027 20.8542H20.5694Z" fill="#2AB26E"/>
<path fill-rule="evenodd" clip-rule="evenodd" d="M13 3.52148C13.4487 3.52148 13.8125 3.88526 13.8125 4.33398V5.41732C13.8125 5.86605 13.4487 6.22982 13 6.22982C12.5513 6.22982 12.1875 5.86605 12.1875 5.41732V4.33398C12.1875 3.88526 12.5513 3.52148 13 3.52148ZM7.55048 5.99348C7.86779 5.67618 8.38223 5.67619 8.69953 5.99349L9.71549 7.00946C10.0328 7.32677 10.0328 7.84121 9.71548 8.15851C9.39818 8.47581 8.88373 8.47581 8.56643 8.15851L7.55048 7.14253C7.23317 6.82523 7.23318 6.31079 7.55048 5.99348ZM18.4495 5.9935C18.7668 6.31081 18.7668 6.82525 18.4495 7.14256L17.4335 8.15851C17.1162 8.47581 16.6018 8.47581 16.2845 8.15851C15.9673 7.84121 15.9673 7.32676 16.2845 7.00946L17.3005 5.9935C17.6177 5.6762 18.1322 5.6762 18.4495 5.9935Z" fill="#2AB26E"/>
</svg>
