<svg width="26" height="26" viewBox="0 0 26 26" fill="none" xmlns="http://www.w3.org/2000/svg">
<path d="M9.75065 11.6458C8.10398 11.6458 6.77148 10.3133 6.77148 8.66667C6.77148 7.02 8.10398 5.6875 9.75065 5.6875C11.3973 5.6875 12.7298 7.02 12.7298 8.66667C12.7298 10.3133 11.3973 11.6458 9.75065 11.6458ZM9.75065 7.3125C9.00315 7.3125 8.39648 7.91917 8.39648 8.66667C8.39648 9.41417 9.00315 10.0208 9.75065 10.0208C10.4982 10.0208 11.1048 9.41417 11.1048 8.66667C11.1048 7.91917 10.4982 7.3125 9.75065 7.3125Z" fill="#2AB26E"/>
<path d="M16.2503 24.6452H9.75033C3.86783 24.6452 1.35449 22.1318 1.35449 16.2493V9.74935C1.35449 3.86685 3.86783 1.35352 9.75033 1.35352H14.0837C14.5278 1.35352 14.8962 1.72185 14.8962 2.16602C14.8962 2.61018 14.5278 2.97852 14.0837 2.97852H9.75033C4.75616 2.97852 2.97949 4.75518 2.97949 9.74935V16.2493C2.97949 21.2435 4.75616 23.0202 9.75033 23.0202H16.2503C21.2445 23.0202 23.0212 21.2435 23.0212 16.2493V10.8327C23.0212 10.3885 23.3895 10.0202 23.8337 10.0202C24.2778 10.0202 24.6462 10.3885 24.6462 10.8327V16.2493C24.6462 22.1318 22.1328 24.6452 16.2503 24.6452Z" fill="#2AB26E"/>
<path d="M23.0208 6.22852H17.0625C16.6183 6.22852 16.25 5.86018 16.25 5.41602C16.25 4.97185 16.6183 4.60352 17.0625 4.60352H23.0208C23.465 4.60352 23.8333 4.97185 23.8333 5.41602C23.8333 5.86018 23.465 6.22852 23.0208 6.22852Z" fill="#2AB26E"/>
<path d="M20.042 9.20736C19.5978 9.20736 19.2295 8.83902 19.2295 8.39486V2.43652C19.2295 1.99236 19.5978 1.62402 20.042 1.62402C20.4862 1.62402 20.8545 1.99236 20.8545 2.43652V8.39486C20.8545 8.83902 20.4862 9.20736 20.042 9.20736Z" fill="#2AB26E"/>
<path d="M2.89274 21.3414C2.63274 21.3414 2.37274 21.2114 2.22107 20.9839C1.9719 20.6156 2.0694 20.1064 2.43774 19.8573L7.77857 16.2714C8.94857 15.4914 10.5627 15.5781 11.6244 16.4773L11.9819 16.7914C12.5236 17.2573 13.4444 17.2573 13.9752 16.7914L18.4819 12.9239C19.6411 11.9381 21.4394 11.9381 22.5986 12.9239L24.3644 14.4406C24.7002 14.7331 24.7436 15.2423 24.4511 15.5889C24.1586 15.9248 23.6494 15.9681 23.3027 15.6756L21.5369 14.1589C20.9952 13.6931 20.0744 13.6931 19.5436 14.1589L15.0369 18.0264C13.8886 19.0123 12.0794 19.0123 10.9202 18.0264L10.5627 17.7123C10.0644 17.2898 9.24108 17.2464 8.68858 17.6256L3.35857 21.2114C3.2069 21.2981 3.0444 21.3414 2.89274 21.3414Z" fill="#2AB26E"/>
</svg>
