<svg width="24" height="24" viewBox="0 0 24 24" fill="none" xmlns="http://www.w3.org/2000/svg">
<path fill-rule="evenodd" clip-rule="evenodd" d="M11.8789 2C12.2931 2 12.6289 2.33579 12.6289 2.75V14.791C12.6289 15.2052 12.2931 15.541 11.8789 15.541C11.4647 15.541 11.1289 15.2052 11.1289 14.791V2.75C11.1289 2.33579 11.4647 2 11.8789 2Z" fill="#1F2F40"/>
<path fill-rule="evenodd" clip-rule="evenodd" d="M8.43364 11.3328C8.72714 11.0405 9.20201 11.0415 9.4943 11.335L11.8789 13.7294L14.2635 11.335C14.5558 11.0415 15.0307 11.0405 15.3242 11.3328C15.6177 11.6251 15.6186 12.0999 15.3264 12.3934L12.4104 15.3214C12.2696 15.4628 12.0784 15.5422 11.8789 15.5422C11.6795 15.5422 11.4883 15.4628 11.3475 15.3214L8.43147 12.3934C8.13918 12.0999 8.14015 11.6251 8.43364 11.3328Z" fill="#1F2F40"/>
<path fill-rule="evenodd" clip-rule="evenodd" d="M15.6232 7.18998C15.6612 6.77752 16.0264 6.47398 16.4389 6.51201C18.2862 6.68234 19.7852 7.12906 20.7547 8.43728C21.6843 9.69157 22 11.5813 22 14.2588C22 17.8083 21.4432 19.9905 19.6197 21.1104C18.7506 21.6442 17.6743 21.88 16.4422 21.9947C15.215 22.1088 13.7408 22.1088 12.0317 22.1088H11.9684C10.2588 22.1088 8.78428 22.1088 7.55699 21.9947C6.32486 21.88 5.24859 21.6442 4.37959 21.1104C2.55627 19.9904 2 17.8081 2 14.2588C2 11.5814 2.31546 9.69163 3.24491 8.43732C4.21436 7.12904 5.71345 6.68233 7.56116 6.51201C7.97363 6.47399 8.33882 6.77754 8.37684 7.19C8.41486 7.60247 8.11131 7.96766 7.69885 8.00568C5.96655 8.16536 5.02565 8.55366 4.4501 9.33037C3.83455 10.161 3.5 11.6062 3.5 14.2588C3.5 17.8095 4.09823 19.1772 5.16467 19.8322C5.74055 20.186 6.54296 20.3938 7.69593 20.5011C8.84617 20.6081 10.2526 20.6088 12 20.6088C13.747 20.6088 15.1531 20.6081 16.3033 20.5011C17.4561 20.3939 18.2586 20.186 18.8347 19.8322C19.9014 19.1771 20.5 17.8094 20.5 14.2588C20.5 11.6063 20.1653 10.1611 19.5496 9.33042C18.9739 8.55363 18.0329 8.16535 16.3012 8.00568C15.8887 7.96765 15.5852 7.60245 15.6232 7.18998Z" fill="#1F2F40"/>
</svg>
