<svg width="26" height="26" viewBox="0 0 26 26" fill="none" xmlns="http://www.w3.org/2000/svg">
<path fill-rule="evenodd" clip-rule="evenodd" d="M19.2153 4.22261C18.1898 3.18882 16.541 3.18882 15.5155 4.22261L5.552 14.2403C5.30993 14.491 5.16778 14.7868 5.12742 15.0894L5.12657 15.0958L4.58029 18.9595L7.72373 18.5127V18.4957L8.42885 18.4017C8.73461 18.3609 9.01749 18.2191 9.23375 17.9893L9.24142 17.9812L19.216 7.95244L19.2176 7.95088C20.2423 6.92609 20.2457 5.26128 19.2153 4.22261ZM14.3624 3.07761C16.0236 1.40363 18.708 1.40382 20.3689 3.07818C22.0249 4.74755 22.0285 7.43712 20.3675 9.0991L20.3666 9.09995L10.4088 19.1119C10.106 19.4309 9.74361 19.6725 9.34873 19.8289V19.9231L4.45806 20.6181L4.45551 20.6185C4.04723 20.6752 3.61484 20.5672 3.2974 20.2536C2.97814 19.9382 2.86482 19.5035 2.92105 19.0874L2.92171 19.0825L3.51713 14.8712C3.60721 14.2015 3.91883 13.5898 4.38906 13.1053L4.39597 13.0982L14.3624 3.07761Z" fill="#131B4C"/>
<path fill-rule="evenodd" clip-rule="evenodd" d="M17.6127 5.87937C17.9312 6.19548 17.9332 6.70993 17.6171 7.02843L16.1763 8.48007C15.8602 8.79857 15.3457 8.80052 15.0273 8.48443C14.7088 8.16833 14.7068 7.65386 15.0229 7.33536L16.4637 5.8837C16.7798 5.5652 17.2943 5.56327 17.6127 5.87937Z" fill="#131B4C"/>
<path fill-rule="evenodd" clip-rule="evenodd" d="M13.9316 22.1426C13.9316 21.6938 14.2954 21.3301 14.7441 21.3301H21.06C21.5087 21.3301 21.8725 21.6938 21.8725 22.1426C21.8725 22.5913 21.5087 22.9551 21.06 22.9551H14.7441C14.2954 22.9551 13.9316 22.5913 13.9316 22.1426Z" fill="#131B4C"/>
</svg>
