<svg width="26" height="26" viewBox="0 0 26 26" fill="none" xmlns="http://www.w3.org/2000/svg">
<path d="M0.75 12.9999C0.75 8.16692 1.5654 5.18326 3.37433 3.37434C5.18326 1.56541 8.16691 0.75 12.9999 0.75C17.833 0.75 20.8167 1.56541 22.6256 3.37434C24.4346 5.18327 25.25 8.16692 25.25 12.9999C25.25 17.833 24.4346 20.8167 22.6256 22.6256C20.8167 24.4346 17.833 25.25 12.9999 25.25C8.16692 25.25 5.18326 24.4346 3.37433 22.6256C1.5654 20.8167 0.75 17.833 0.75 12.9999Z" fill="white" stroke="#E6E6E6" stroke-width="1.5"/>
<path fill-rule="evenodd" clip-rule="evenodd" d="M17.781 6.24876C16.9921 5.45354 15.7239 5.45354 14.935 6.24876L7.27077 13.9547C7.08456 14.1475 6.97521 14.3751 6.94417 14.6079L6.94352 14.6128L6.5233 17.5848L8.94133 17.2412V17.2281L9.48373 17.1558C9.71893 17.1244 9.93653 17.0153 10.1029 16.8386L10.1088 16.8323L17.7815 9.11786L17.7827 9.11666C18.571 8.32836 18.5736 7.04774 17.781 6.24876ZM14.048 5.36799C15.3259 4.08031 17.3907 4.08046 18.6684 5.36843C19.9422 6.65257 19.945 8.72146 18.6673 9.99991L18.6666 10.0006L11.0067 17.7021C10.7739 17.9475 10.4951 18.1333 10.1913 18.2536V18.3261L6.42928 18.8607L6.42732 18.861C6.11325 18.9046 5.78064 18.8215 5.53646 18.5803C5.29088 18.3377 5.20371 18.0033 5.24696 17.6832L5.24747 17.6794L5.70549 14.44C5.77478 13.9249 6.01448 13.4543 6.3762 13.0816L6.38151 13.0762L14.048 5.36799Z" fill="#696F8E"/>
<path fill-rule="evenodd" clip-rule="evenodd" d="M16.5485 7.5232C16.7935 7.76635 16.795 8.16208 16.5519 8.40708L15.4436 9.52373C15.2004 9.76873 14.8047 9.77023 14.5597 9.52708C14.3147 9.28393 14.3132 8.88818 14.5564 8.64318L15.6647 7.52652C15.9078 7.28153 16.3036 7.28004 16.5485 7.5232Z" fill="#696F8E"/>
<path fill-rule="evenodd" clip-rule="evenodd" d="M13.7168 20.0332C13.7168 19.688 13.9966 19.4082 14.3418 19.4082H19.2001C19.5453 19.4082 19.8251 19.688 19.8251 20.0332C19.8251 20.3784 19.5453 20.6582 19.2001 20.6582H14.3418C13.9966 20.6582 13.7168 20.3784 13.7168 20.0332Z" fill="#696F8E"/>
</svg>
