<svg width="40" height="40" viewBox="0 0 40 40" fill="none" xmlns="http://www.w3.org/2000/svg">
<g clip-path="url(#clip0_143_20403)">
<path d="M39.0905 35.0006C37.8915 35.0006 37.318 34.5188 36.6541 33.9615C36.2575 33.5647 35.7866 33.2499 35.2683 33.0351C34.75 32.8203 34.1945 32.7097 33.6334 32.7097C33.0724 32.7097 32.5168 32.8203 31.9985 33.0351C31.4802 33.2499 31.0093 33.5647 30.6127 33.9615C29.9485 34.5188 29.375 35.0006 28.1761 35.0006C26.978 35.0006 26.4049 34.5188 25.7417 33.9615C25.1547 33.3961 24.4279 32.9968 23.6359 32.8044V26.8188C23.6359 26.6983 23.588 26.5826 23.5028 26.4974C23.4175 26.4122 23.3019 26.3643 23.1814 26.3643C23.0608 26.3643 22.9452 26.4122 22.86 26.4974C22.7747 26.5826 22.7268 26.6983 22.7268 26.8188V32.7097H22.7228C22.4187 32.7093 22.1154 32.7406 21.8177 32.803V15.4552C21.8177 14.6113 22.153 13.802 22.7497 13.2053C23.3464 12.6086 24.1557 12.2734 24.9996 12.2734C25.8434 12.2734 26.6527 12.6086 27.2494 13.2053C27.8461 13.802 28.1814 14.6113 28.1814 15.4552V16.8188H27.2723V15.4552C27.2723 14.8524 27.0328 14.2743 26.6066 13.8481C26.1804 13.4219 25.6023 13.1825 24.9996 13.1825C24.3968 13.1825 23.8187 13.4219 23.3925 13.8481C22.9663 14.2743 22.7268 14.8524 22.7268 15.4552V24.5461C22.7268 24.6666 22.7747 24.7823 22.86 24.8675C22.9452 24.9527 23.0608 25.0006 23.1814 25.0006C23.3019 25.0006 23.4175 24.9527 23.5028 24.8675C23.588 24.7823 23.6359 24.6666 23.6359 24.5461V17.7279H39.0905C39.211 17.7279 39.3266 17.68 39.4119 17.5948C39.4971 17.5095 39.545 17.3939 39.545 17.2734C39.545 17.1528 39.4971 17.0372 39.4119 16.952C39.3266 16.8667 39.211 16.8188 39.0905 16.8188H29.0905V15.4552C29.0905 14.3702 28.6595 13.3297 27.8923 12.5625C27.1251 11.7953 26.0845 11.3643 24.9996 11.3643C23.9146 11.3643 22.874 11.7953 22.1068 12.5625C21.3397 13.3297 20.9086 14.3702 20.9086 15.4552V16.8188H17.2723V15.4552C17.2711 14.3706 16.8397 13.3307 16.0728 12.5638C15.3058 11.7969 14.266 11.3655 13.1814 11.3643C12.5685 11.3627 11.9633 11.5 11.4111 11.766C11.3025 11.8182 11.219 11.9114 11.1791 12.0252C11.1392 12.139 11.1461 12.2639 11.1983 12.3726C11.2505 12.4812 11.3438 12.5647 11.4575 12.6046C11.5713 12.6445 11.6962 12.6376 11.8049 12.5854C12.29 12.3532 12.8261 12.2476 13.3631 12.2787C13.9001 12.3097 14.4205 12.4763 14.8757 12.7629C15.3309 13.0494 15.706 13.4467 15.9661 13.9175C16.2263 14.3883 16.3629 14.9173 16.3632 15.4552V16.8188H15.4541V15.4552C15.4541 14.8524 15.2147 14.2743 14.7884 13.8481C14.3622 13.4219 13.7841 13.1825 13.1814 13.1825C12.5786 13.1825 12.0005 13.4219 11.5743 13.8481C11.1481 14.2743 10.9086 14.8524 10.9086 15.4552V32.8031C10.5935 32.8666 10.2879 32.9708 9.99956 33.113V15.4552C9.99933 14.9169 10.1357 14.3874 10.396 13.9162C10.4249 13.864 10.4433 13.8066 10.4501 13.7473C10.4569 13.688 10.452 13.6279 10.4355 13.5705C10.4191 13.5131 10.3915 13.4595 10.3544 13.4128C10.3172 13.366 10.2713 13.3271 10.2191 13.2981C10.1669 13.2691 10.1095 13.2507 10.0501 13.2439C9.99082 13.2371 9.93075 13.2421 9.87335 13.2585C9.81595 13.275 9.76235 13.3025 9.7156 13.3397C9.66886 13.3768 9.62989 13.4228 9.60092 13.475C9.26597 14.0812 9.09034 14.7626 9.09046 15.4552V16.8188H0.908647C0.788094 16.8188 0.672479 16.8667 0.587235 16.952C0.501991 17.0372 0.454102 17.1528 0.454102 17.2734C0.454102 17.3939 0.501991 17.5095 0.587235 17.5948C0.672479 17.68 0.788094 17.7279 0.908647 17.7279H9.09046V33.7183C8.98965 33.7998 8.89142 33.8815 8.79574 33.9619C8.13256 34.5188 7.55969 35.0006 6.36228 35.0006C5.16487 35.0006 4.59142 34.5188 3.92778 33.9615C3.53233 33.5635 3.06187 33.248 2.54363 33.0331C2.02538 32.8183 1.46967 32.7083 0.908647 32.7097C0.788094 32.7097 0.672479 32.7576 0.587235 32.8429C0.501991 32.9281 0.454102 33.0437 0.454102 33.1643C0.454102 33.2848 0.501991 33.4004 0.587235 33.4857C0.672479 33.5709 0.788094 33.6188 0.908647 33.6188C2.10651 33.6188 2.67956 34.1006 3.34319 34.658C3.7394 35.0548 4.20998 35.3696 4.72799 35.5844C5.24601 35.7992 5.8013 35.9098 6.36208 35.9097C6.92287 35.9097 7.47814 35.7991 7.99612 35.5842C8.5141 35.3693 8.98463 35.0544 9.38078 34.6575C10.044 34.1004 10.6168 33.6188 11.8142 33.6188C13.0116 33.6188 13.5849 34.1006 14.2485 34.6575C14.6448 35.0544 15.1154 35.3693 15.6335 35.5842C16.1516 35.7991 16.707 35.9097 17.2679 35.9097C17.8288 35.9098 18.3841 35.7992 18.9023 35.5844C19.4204 35.3697 19.8911 35.0548 20.2874 34.658C20.9513 34.1006 21.5243 33.6188 22.7228 33.6188C23.9205 33.6188 24.4935 34.1006 25.1567 34.6575C25.5531 35.0545 26.0238 35.3694 26.542 35.5843C27.0602 35.7991 27.6156 35.9098 28.1766 35.9098C28.7376 35.9099 29.2931 35.7993 29.8113 35.5845C30.3295 35.3697 30.8003 35.0549 31.1967 34.658C31.8608 34.1004 32.4343 33.6188 33.6331 33.6188C34.8319 33.6188 35.4058 34.1006 36.0695 34.658C36.4652 35.056 36.936 35.3716 37.4546 35.5864C37.9731 35.8013 38.5292 35.9112 39.0905 35.9097C39.211 35.9097 39.3266 35.8618 39.4119 35.7766C39.4971 35.6914 39.545 35.5757 39.545 35.4552C39.545 35.3346 39.4971 35.219 39.4119 35.1338C39.3266 35.0485 39.211 35.0006 39.0905 35.0006ZM23.6359 15.4552C23.6359 15.0935 23.7796 14.7467 24.0353 14.4909C24.291 14.2352 24.6379 14.0915 24.9996 14.0915C25.3612 14.0915 25.7081 14.2352 25.9638 14.4909C26.2195 14.7467 26.3632 15.0935 26.3632 15.4552V16.8188H23.6359V15.4552ZM11.8177 25.0006H20.9086V25.9097H11.8177V25.0006ZM20.9086 24.0915H11.8177V22.2734H20.9086V24.0915ZM20.9086 21.3643H11.8177V20.4552H20.9086V21.3643ZM11.8177 26.8188H20.9086V28.637H11.8177V26.8188ZM11.8177 29.5461H20.9086V30.4552H11.8177V29.5461ZM20.9086 17.7279V19.5461H11.8177V17.7279H20.9086ZM13.1814 14.0915C13.5429 14.0919 13.8895 14.2357 14.1452 14.4914C14.4008 14.747 14.5446 15.0936 14.545 15.4552V16.8188H11.8177V15.4552C11.8181 15.0936 11.9619 14.747 12.2176 14.4914C12.4732 14.2357 12.8198 14.0919 13.1814 14.0915ZM19.7028 33.9615C19.039 34.5188 18.4657 35.0006 17.2674 35.0006C16.0691 35.0006 15.4967 34.5188 14.8331 33.9615C14.4381 33.564 13.9683 33.2487 13.4507 33.0339C12.9331 32.819 12.3781 32.7088 11.8177 32.7097V31.3643H20.9086V33.1124C20.4739 33.3457 20.069 33.6308 19.7028 33.9615Z" fill="white"/>
<path d="M39.0905 38.6366C37.8915 38.6366 37.318 38.1548 36.6541 37.5975C36.2575 37.2006 35.7866 36.8858 35.2683 36.6711C34.75 36.4563 34.1945 36.3457 33.6334 36.3457C33.0724 36.3457 32.5168 36.4563 31.9985 36.6711C31.4802 36.8858 31.0093 37.2006 30.6127 37.5975C29.9485 38.1548 29.375 38.6366 28.1761 38.6366C26.978 38.6366 26.4049 38.1548 25.7417 37.5975C25.3454 37.2007 24.8747 36.8858 24.3566 36.6711C23.8385 36.4563 23.2831 36.3457 22.7223 36.3457C22.1614 36.3457 21.6061 36.4563 21.088 36.6711C20.5699 36.8858 20.0992 37.2007 19.7028 37.5975C19.039 38.1548 18.4657 38.6366 17.2674 38.6366C16.0691 38.6366 15.4967 38.1548 14.8331 37.5975C14.4369 37.2006 13.9664 36.8858 13.4484 36.671C12.9304 36.4562 12.3751 36.3457 11.8143 36.3457C11.2536 36.3458 10.6983 36.4564 10.1804 36.6712C9.66239 36.8861 9.19187 37.201 8.79574 37.5979C8.13256 38.1548 7.55969 38.6366 6.36228 38.6366C5.16487 38.6366 4.59142 38.1548 3.92778 37.5975C3.53233 37.1995 3.06187 36.884 2.54363 36.6691C2.02538 36.4543 1.46967 36.3443 0.908647 36.3457C0.788094 36.3457 0.672479 36.3936 0.587235 36.4788C0.501991 36.5641 0.454102 36.6797 0.454102 36.8003C0.454102 36.9208 0.501991 37.0364 0.587235 37.1217C0.672479 37.2069 0.788094 37.2548 0.908647 37.2548C2.10651 37.2548 2.67956 37.7366 3.34319 38.2939C3.7394 38.6908 4.20998 39.0056 4.72799 39.2204C5.24601 39.4352 5.8013 39.5458 6.36208 39.5457C6.92287 39.5457 7.47814 39.4351 7.99612 39.2202C8.5141 39.0053 8.98463 38.6904 9.38078 38.2935C10.044 37.7364 10.6168 37.2548 11.8142 37.2548C13.0116 37.2548 13.5849 37.7366 14.2485 38.2935C14.6448 38.6904 15.1154 39.0053 15.6335 39.2202C16.1516 39.4351 16.707 39.5457 17.2679 39.5457C17.8288 39.5458 18.3841 39.4352 18.9023 39.2204C19.4204 39.0056 19.8911 38.6908 20.2874 38.2939C20.9513 37.7366 21.5243 37.2548 22.7228 37.2548C23.9205 37.2548 24.4935 37.7366 25.1567 38.2935C25.5531 38.6904 26.0238 39.0054 26.542 39.2203C27.0602 39.4351 27.6156 39.5458 28.1766 39.5458C28.7376 39.5458 29.2931 39.4353 29.8113 39.2205C30.3295 39.0057 30.8003 38.6908 31.1967 38.2939C31.8608 37.7364 32.4343 37.2548 33.6331 37.2548C34.8319 37.2548 35.4058 37.7366 36.0695 38.2939C36.4652 38.692 36.936 39.0076 37.4546 39.2224C37.9731 39.4373 38.5292 39.5472 39.0905 39.5457C39.211 39.5457 39.3266 39.4978 39.4119 39.4126C39.4971 39.3273 39.545 39.2117 39.545 39.0912C39.545 38.9706 39.4971 38.855 39.4119 38.7698C39.3266 38.6845 39.211 38.6366 39.0905 38.6366Z" fill="white"/>
<path d="M34.09 8.63708C34.7193 8.63708 35.3345 8.45047 35.8577 8.10084C36.381 7.75122 36.7888 7.25429 37.0296 6.67289C37.2705 6.09149 37.3335 5.45173 37.2107 4.83452C37.0879 4.2173 36.7849 3.65036 36.3399 3.20537C35.8949 2.76039 35.328 2.45735 34.7108 2.33458C34.0936 2.21181 33.4538 2.27482 32.8724 2.51564C32.291 2.75646 31.7941 3.16429 31.4444 3.68753C31.0948 4.21078 30.9082 4.82595 30.9082 5.45526C30.9092 6.29881 31.2448 7.10753 31.8413 7.70401C32.4377 8.3005 33.2465 8.63605 34.09 8.63708ZM34.09 3.18253C34.5395 3.18253 34.9789 3.31582 35.3527 3.56555C35.7264 3.81528 36.0177 4.17024 36.1897 4.58552C36.3618 5.00081 36.4068 5.45778 36.3191 5.89864C36.2314 6.33951 36.0149 6.74447 35.6971 7.06232C35.3792 7.38016 34.9743 7.59662 34.5334 7.68431C34.0925 7.77201 33.6356 7.727 33.2203 7.55498C32.805 7.38297 32.45 7.09166 32.2003 6.71792C31.9506 6.34417 31.8173 5.90476 31.8173 5.45526C31.818 4.85271 32.0577 4.27505 32.4837 3.84898C32.9098 3.42291 33.4875 3.18324 34.09 3.18253Z" fill="white"/>
<path d="M34.0903 1.81871C34.2108 1.81871 34.3265 1.77083 34.4117 1.68558C34.4969 1.60034 34.5448 1.48472 34.5448 1.36417V0.909624C34.5448 0.789071 34.4969 0.673455 34.4117 0.588211C34.3265 0.502968 34.2108 0.455078 34.0903 0.455078C33.9697 0.455078 33.8541 0.502968 33.7689 0.588211C33.6836 0.673455 33.6357 0.789071 33.6357 0.909624V1.36417C33.6357 1.48472 33.6836 1.60034 33.7689 1.68558C33.8541 1.77083 33.9697 1.81871 34.0903 1.81871Z" fill="white"/>
<path d="M30.8761 2.88318C30.9618 2.96664 31.0768 3.01301 31.1963 3.01225C31.3159 3.0115 31.4303 2.96367 31.5149 2.87913C31.5994 2.79459 31.6472 2.68015 31.648 2.5606C31.6488 2.44105 31.6024 2.32601 31.5189 2.2404L31.1975 1.91904C31.1556 1.87563 31.1054 1.841 31.05 1.81718C30.9945 1.79335 30.9349 1.78082 30.8745 1.78029C30.8142 1.77977 30.7543 1.79127 30.6984 1.81412C30.6426 1.83698 30.5918 1.87073 30.5491 1.91341C30.5065 1.95609 30.4727 2.00684 30.4499 2.0627C30.427 2.11856 30.4155 2.17841 30.416 2.23877C30.4166 2.29912 30.4291 2.35877 30.4529 2.41422C30.4767 2.46968 30.5114 2.51984 30.5548 2.56177L30.8761 2.88318Z" fill="white"/>
<path d="M29.5454 5.90909H29.9999C30.1205 5.90909 30.2361 5.8612 30.3213 5.77596C30.4066 5.69071 30.4545 5.5751 30.4545 5.45455C30.4545 5.33399 30.4066 5.21838 30.3213 5.13313C30.2361 5.04789 30.1205 5 29.9999 5H29.5454C29.4248 5 29.3092 5.04789 29.224 5.13313C29.1387 5.21838 29.0908 5.33399 29.0908 5.45455C29.0908 5.5751 29.1387 5.69071 29.224 5.77596C29.3092 5.8612 29.4248 5.90909 29.5454 5.90909Z" fill="white"/>
<path d="M30.8761 8.02688L30.5548 8.34829C30.5114 8.39022 30.4767 8.44038 30.4529 8.49583C30.4291 8.55129 30.4166 8.61094 30.416 8.67129C30.4155 8.73164 30.427 8.7915 30.4499 8.84736C30.4727 8.90322 30.5065 8.95397 30.5491 8.99665C30.5918 9.03933 30.6426 9.07308 30.6984 9.09594C30.7543 9.11879 30.8142 9.13029 30.8745 9.12977C30.9349 9.12924 30.9945 9.1167 31.05 9.09288C31.1054 9.06906 31.1556 9.03443 31.1975 8.99102L31.5189 8.66965C31.562 8.62765 31.5963 8.5775 31.6199 8.52212C31.6434 8.46675 31.6558 8.40725 31.6561 8.34707C31.6565 8.2869 31.645 8.22725 31.6221 8.17158C31.5992 8.11591 31.5656 8.06533 31.523 8.02278C31.4805 7.98023 31.4299 7.94655 31.3742 7.9237C31.3186 7.90085 31.2589 7.88928 31.1987 7.88966C31.1386 7.89004 31.0791 7.90237 31.0237 7.92592C30.9683 7.94948 30.9182 7.98379 30.8761 8.02688Z" fill="white"/>
<path d="M33.6357 9.54634V10.0009C33.6357 10.1214 33.6836 10.2371 33.7689 10.3223C33.8541 10.4075 33.9697 10.4554 34.0903 10.4554C34.2108 10.4554 34.3265 10.4075 34.4117 10.3223C34.4969 10.2371 34.5448 10.1214 34.5448 10.0009V9.54634C34.5448 9.42579 34.4969 9.31017 34.4117 9.22493C34.3265 9.13969 34.2108 9.0918 34.0903 9.0918C33.9697 9.0918 33.8541 9.13969 33.7689 9.22493C33.6836 9.31017 33.6357 9.42579 33.6357 9.54634Z" fill="white"/>
<path d="M37.3044 8.0259C37.2624 7.98282 37.2123 7.9485 37.1569 7.92494C37.1015 7.90139 37.042 7.88906 36.9818 7.88868C36.9217 7.8883 36.862 7.89987 36.8063 7.92272C36.7507 7.94558 36.7001 7.97925 36.6575 8.02181C36.615 8.06436 36.5813 8.11493 36.5585 8.1706C36.5356 8.22627 36.524 8.28592 36.5244 8.3461C36.5248 8.40627 36.5371 8.46577 36.5607 8.52115C36.5842 8.57652 36.6186 8.62667 36.6616 8.66868L36.9831 8.99004C37.025 9.03345 37.0751 9.06808 37.1306 9.0919C37.1861 9.11573 37.2457 9.12827 37.3061 9.12879C37.3664 9.12932 37.4263 9.11781 37.4821 9.09496C37.538 9.0721 37.5887 9.03835 37.6314 8.99567C37.6741 8.953 37.7078 8.90225 37.7307 8.84638C37.7536 8.79052 37.7651 8.73067 37.7645 8.67031C37.764 8.60996 37.7515 8.55031 37.7276 8.49486C37.7038 8.4394 37.6692 8.38924 37.6258 8.34731L37.3044 8.0259Z" fill="white"/>
<path d="M38.1811 5.90909H38.6357C38.7562 5.90909 38.8718 5.8612 38.9571 5.77596C39.0423 5.69071 39.0902 5.5751 39.0902 5.45455C39.0902 5.33399 39.0423 5.21838 38.9571 5.13313C38.8718 5.04789 38.7562 5 38.6357 5H38.1811C38.0606 5 37.9449 5.04789 37.8597 5.13313C37.7745 5.21838 37.7266 5.33399 37.7266 5.45455C37.7266 5.5751 37.7745 5.69071 37.8597 5.77596C37.9449 5.8612 38.0606 5.90909 38.1811 5.90909Z" fill="white"/>
<path d="M37.3051 2.88415L37.6264 2.56274C37.6698 2.52081 37.7045 2.47066 37.7283 2.4152C37.7521 2.35974 37.7647 2.3001 37.7652 2.23975C37.7657 2.17939 37.7542 2.11954 37.7313 2.06367C37.7085 2.00781 37.6747 1.95706 37.6321 1.91438C37.5894 1.8717 37.5386 1.83795 37.4828 1.8151C37.4269 1.79224 37.3671 1.78074 37.3067 1.78127C37.2463 1.78179 37.1867 1.79433 37.1312 1.81815C37.0758 1.84198 37.0256 1.8766 36.9837 1.92002L36.6623 2.24138C36.5788 2.32698 36.5325 2.44202 36.5332 2.56157C36.534 2.68113 36.5818 2.79557 36.6663 2.88011C36.7509 2.96464 36.8653 3.01247 36.9849 3.01323C37.1044 3.01399 37.2195 2.96761 37.3051 2.88415Z" fill="white"/>
<path d="M3.09042 10.4554H8.70405C9.17701 10.4457 9.62681 10.2489 9.95486 9.90805C10.2829 9.56722 10.4624 9.11023 10.4541 8.63725C10.4585 8.23745 10.3305 7.84742 10.0899 7.52805C9.8494 7.20869 9.50987 6.97796 9.12437 6.87189C9.08025 6.58382 8.9792 6.30742 8.82713 6.05881C8.67506 5.8102 8.47501 5.59436 8.23864 5.42387C8.00228 5.25339 7.73433 5.13168 7.45044 5.06584C7.16654 5 6.87238 4.99135 6.5851 5.04039C6.39105 4.74929 6.12829 4.51047 5.82004 4.34503C5.51179 4.17959 5.16753 4.09261 4.81769 4.0918C4.29851 4.10066 3.799 4.29191 3.40665 4.63204C3.0143 4.97217 2.75412 5.43949 2.67169 5.95216C2.16637 6.06498 1.71528 6.34828 1.39421 6.75448C1.07315 7.16067 0.901671 7.66499 0.9086 8.18271C0.897473 8.77315 1.12088 9.34392 1.52985 9.76994C1.93883 10.196 2.50001 10.4425 3.09042 10.4554ZM3.09042 6.81907C3.21097 6.81907 3.32659 6.77118 3.41183 6.68594C3.49707 6.60069 3.54496 6.48508 3.54496 6.36452C3.53375 6.01515 3.66136 5.67555 3.89987 5.42001C4.13837 5.16446 4.46837 5.01377 4.81769 5.00089C5.06106 5.00495 5.29803 5.07948 5.49991 5.21545C5.70179 5.35143 5.85992 5.54302 5.95515 5.76702C6.00368 5.87288 6.091 5.95608 6.19908 5.99944C6.30716 6.0428 6.42777 6.04303 6.53601 6.00007C6.73487 5.92596 6.9491 5.90279 7.15921 5.93266C7.36931 5.96253 7.5686 6.04449 7.73893 6.17109C7.90925 6.29768 8.0452 6.46487 8.13438 6.65744C8.22355 6.85001 8.26313 7.06184 8.24951 7.27362C8.24951 7.39417 8.2974 7.50978 8.38264 7.59503C8.46789 7.68027 8.5835 7.72816 8.70405 7.72816C8.9329 7.74605 9.14658 7.84958 9.30243 8.0181C9.45829 8.18661 9.54486 8.40771 9.54486 8.63725C9.54486 8.86679 9.45829 9.08789 9.30243 9.2564C9.14658 9.42492 8.9329 9.52846 8.70405 9.54634H3.09042C2.74108 9.53351 2.41106 9.38283 2.17254 9.12727C1.93402 8.87172 1.80643 8.53209 1.81769 8.18271C1.80643 7.83332 1.93402 7.49369 2.17254 7.23814C2.41106 6.98258 2.74108 6.83191 3.09042 6.81907Z" fill="white"/>
</g>
<defs>
<clipPath id="clip0_143_20403">
<rect width="40" height="40" fill="white"/>
</clipPath>
</defs>
</svg>
