<svg width="26" height="26" viewBox="0 0 26 26" fill="none" xmlns="http://www.w3.org/2000/svg">
<path fill-rule="evenodd" clip-rule="evenodd" d="M9.0957 7.3916H20.6835V8.9516H9.0957V7.3916Z" fill="#1F2F40"/>
<path fill-rule="evenodd" clip-rule="evenodd" d="M16.3866 17.3887H4.79883V18.9487H16.3866V17.3887Z" fill="#1F2F40"/>
<path fill-rule="evenodd" clip-rule="evenodd" d="M3.64062 8.10914C3.64062 6.17333 5.21998 4.61328 7.15602 4.61328C9.09208 4.61328 10.6714 6.17333 10.6714 8.10914C10.6714 10.0449 9.09208 11.605 7.15602 11.605C5.21998 11.605 3.64062 10.0449 3.64062 8.10914ZM7.15602 6.17328C6.07097 6.17328 5.20062 7.04543 5.20062 8.10914C5.20062 9.17284 6.07097 10.045 7.15602 10.045C8.24108 10.045 9.11143 9.17284 9.11143 8.10914C9.11143 7.04543 8.24108 6.17328 7.15602 6.17328Z" fill="#1F2F40"/>
<path fill-rule="evenodd" clip-rule="evenodd" d="M21.8414 18.1052C21.8414 16.1695 20.262 14.6094 18.326 14.6094C16.3899 14.6094 14.8105 16.1695 14.8105 18.1052C14.8105 20.0411 16.3899 21.6011 18.326 21.6011C20.262 21.6011 21.8414 20.0411 21.8414 18.1052ZM18.326 16.1694C19.411 16.1694 20.2814 17.0415 20.2814 18.1052C20.2814 19.1689 19.411 20.0411 18.326 20.0411C17.2409 20.0411 16.3705 19.1689 16.3705 18.1052C16.3705 17.0415 17.2409 16.1694 18.326 16.1694Z" fill="#1F2F40"/>
</svg>
