<svg width="38" height="38" viewBox="0 0 38 38" fill="none" xmlns="http://www.w3.org/2000/svg">
<path d="M5 23.3872C5 22.9745 5.08947 22.5618 5.28631 22.1849C5.33999 22.0952 5.39367 22.0055 5.46525 21.9337L8.00623 18.9372L5.46525 15.9945C5.39367 15.9047 5.33999 15.815 5.28631 15.7253C4.94632 15.0255 4.91053 14.236 5.21473 13.5362C5.51893 12.8185 6.10944 12.2802 6.84311 12.029L8.56096 11.4548C9.45567 11.1498 10.583 11.4189 11.263 12.0828L14.1976 15.0794L16.7923 15.0614L14.484 9.66046C14.1082 8.76329 14.144 7.83023 14.6271 7.11249C15.0745 6.4127 15.9155 6 16.8818 6L18.546 6C19.9417 6 21.4269 6.96895 21.9816 8.26087L24.8984 15.0614L28.3162 15.0614C30.0698 15.0614 31.9666 16.2277 32.7182 17.7888C33.0939 18.5604 33.0939 19.4396 32.7182 20.2112C31.9129 21.7722 30.0161 22.9386 28.3162 22.9386L24.8984 22.9386L21.9816 29.7391C21.4448 31.0311 19.9596 32 18.5459 32L16.8818 32C15.9155 32 15.0745 31.5873 14.6092 30.8516C14.144 30.1159 14.0903 29.2008 14.4661 28.3037L16.7744 22.9206L14.144 22.9206L11.2272 25.8454C10.5651 26.5093 9.41988 26.7785 8.52517 26.4734L6.82521 25.8992C6.09155 25.648 5.50104 25.1097 5.21473 24.392C5.07158 24.069 5 23.7281 5 23.3872ZM10.6546 18.9731C10.6546 19.5831 10.4577 20.1753 10.082 20.6597L7.71993 23.441L9.38409 23.9255L12.283 21.0007C12.7303 20.5341 13.4819 20.2291 14.144 20.2291L17.4544 20.2291C18.2596 20.2291 18.9575 20.57 19.3691 21.1801C19.7807 21.7902 19.8343 22.5797 19.5122 23.3333L16.9713 29.2905L18.5459 29.3085C18.8859 29.3085 19.387 28.9855 19.5122 28.6805L22.5543 21.5928C22.8763 20.8212 23.7352 20.2471 24.6121 20.2471L28.3162 20.2471C29.0141 20.2471 29.9982 19.637 30.3203 19.009C29.9982 18.363 29.0319 17.7529 28.3162 17.7529L24.6121 17.7529C23.771 17.7529 22.8942 17.1967 22.5543 16.4072L19.5122 9.33748C19.387 9.03244 18.868 8.69151 18.546 8.69151L16.9713 8.69151L19.4943 14.6308C19.8164 15.3665 19.7807 16.138 19.3691 16.766C18.9575 17.394 18.2596 17.7529 17.4365 17.7529L14.1261 17.7529C13.4819 17.7529 12.7303 17.4479 12.2651 16.9813L9.31252 13.9669L7.73782 14.5411L10.0283 17.2505C10.4399 17.7529 10.6546 18.363 10.6546 18.9731ZM25.0236 22.6515L25.0057 22.6694C25.0236 22.6694 25.0236 22.6515 25.0236 22.6515Z" fill="#2AB26E"/>
</svg>
