<svg width="26" height="26" viewBox="0 0 26 26" fill="none" xmlns="http://www.w3.org/2000/svg">
<path d="M15.6654 21.4827C15.4163 21.4827 15.1671 21.4285 14.9396 21.3094C14.8854 21.2769 14.8313 21.2444 14.7879 21.201L12.9788 19.6627L11.2021 21.201C11.1479 21.2444 11.0938 21.2769 11.0396 21.3094C10.6171 21.5152 10.1405 21.5369 9.71797 21.3527C9.28464 21.1685 8.95964 20.811 8.80797 20.3669L8.4613 19.3269C8.27714 18.7852 8.43964 18.1027 8.84047 17.691L10.6496 15.9144L10.6388 14.3435L7.37797 15.741C6.8363 15.9685 6.27297 15.9469 5.83964 15.6544C5.41714 15.3835 5.16797 14.8744 5.16797 14.2894V13.2819C5.16797 12.4369 5.75297 11.5377 6.53297 11.2019L10.6388 9.43604V7.36688C10.6388 6.30521 11.3429 5.15688 12.2854 4.70188C12.7513 4.47438 13.2821 4.47438 13.7479 4.70188C14.6904 5.18937 15.3946 6.33771 15.3946 7.36688V9.43604L19.5004 11.2019C20.2804 11.5269 20.8654 12.426 20.8654 13.2819V14.2894C20.8654 14.8744 20.6163 15.3835 20.1721 15.6652C19.7279 15.9469 19.1754 15.9794 18.6338 15.7519L15.3838 14.3544V15.9469L17.1496 17.7127C17.5504 18.1135 17.7129 18.8069 17.5288 19.3485L17.1821 20.3777C17.0304 20.8219 16.7054 21.1794 16.2721 21.3527C16.0771 21.4394 15.8713 21.4827 15.6654 21.4827ZM13.0004 18.0594C13.3688 18.0594 13.7263 18.1785 14.0188 18.406L15.6979 19.836L15.9904 18.8285L14.2246 17.0735C13.9429 16.8027 13.7588 16.3477 13.7588 15.9469V13.9427C13.7588 13.4552 13.9646 13.0327 14.3329 12.7835C14.7013 12.5344 15.1779 12.5019 15.6329 12.6969L19.2296 14.2352L19.2404 13.2819C19.2404 13.076 19.0454 12.7727 18.8613 12.6969L14.5821 10.8552C14.1163 10.6602 13.7696 10.1402 13.7696 9.60938V7.36688C13.7696 6.94438 13.4013 6.34854 13.0221 6.15354C12.6321 6.34854 12.2638 6.93354 12.2638 7.36688V9.60938C12.2638 10.1185 11.9279 10.6494 11.4513 10.8552L7.18297 12.6969C6.9988 12.7727 6.79297 13.0869 6.79297 13.2819V14.2352L10.3788 12.7077C10.823 12.5127 11.2888 12.5344 11.6679 12.7835C12.0471 13.0327 12.2638 13.4552 12.2638 13.9535V15.9577C12.2638 16.3477 12.0796 16.8027 11.7979 17.0844L9.97797 18.8719L10.3246 19.8252L11.9604 18.4385C12.2638 18.1894 12.6321 18.0594 13.0004 18.0594ZM15.2213 9.36021L15.2321 9.37104C15.2321 9.36021 15.2213 9.36021 15.2213 9.36021Z" fill="#2AB26E"/>
<path d="M16.2503 24.6462H9.75033C3.86783 24.6462 1.35449 22.1328 1.35449 16.2503V9.75033C1.35449 3.86783 3.86783 1.35449 9.75033 1.35449H16.2503C22.1328 1.35449 24.6462 3.86783 24.6462 9.75033V16.2503C24.6462 22.1328 22.1328 24.6462 16.2503 24.6462ZM9.75033 2.97949C4.75616 2.97949 2.97949 4.75616 2.97949 9.75033V16.2503C2.97949 21.2445 4.75616 23.0212 9.75033 23.0212H16.2503C21.2445 23.0212 23.0212 21.2445 23.0212 16.2503V9.75033C23.0212 4.75616 21.2445 2.97949 16.2503 2.97949H9.75033Z" fill="#2AB26E"/>
</svg>
