<svg width="16" height="13" viewBox="0 0 16 13" fill="none" xmlns="http://www.w3.org/2000/svg">
<path d="M13.8805 2.57141C13.2628 2.57141 12.7605 3.04128 12.7605 3.61903C12.7605 4.00718 12.9901 4.34346 13.3266 4.5247C12.6821 5.95942 11.6914 6.84256 10.7232 6.76033C9.67264 6.6802 8.8164 5.51784 8.34319 3.57452C8.9491 3.43099 9.40046 2.92027 9.40046 2.30953C9.40046 1.58719 8.77213 1 8.00046 1C7.22879 1 6.60046 1.58719 6.60046 2.30953C6.60046 2.9203 7.05182 3.43101 7.65773 3.57452C7.18452 5.51787 6.32828 6.6802 5.27773 6.76033C4.31398 6.83261 3.3194 5.95838 2.67428 4.52419C3.01083 4.34346 3.24043 4.00718 3.24043 3.61905C3.24043 3.0413 2.7381 2.57143 2.12043 2.57143C1.50282 2.57141 1.00049 3.04128 1.00049 3.61903C1.00049 4.15593 1.43673 4.59542 1.99504 4.65511L3.194 10.4904C2.89273 10.6098 2.68049 10.889 2.68049 11.2143C2.68049 11.6475 3.05737 12 3.52049 12H12.4805C12.9436 12 13.3205 11.6475 13.3205 11.2143C13.3205 10.889 13.1082 10.6098 12.807 10.4904L14.0059 4.65514C14.5642 4.59542 15.0005 4.15593 15.0005 3.61903C15.0005 3.04128 14.4982 2.57141 13.8805 2.57141ZM2.12049 4.14284C1.81194 4.14284 1.56049 3.90817 1.56049 3.61903C1.56049 3.32988 1.81194 3.09522 2.12049 3.09522C2.42904 3.09522 2.68049 3.32988 2.68049 3.61903C2.68049 3.90817 2.42906 4.14284 2.12049 4.14284ZM7.16049 2.3095C7.16049 1.87631 7.53737 1.52379 8.00049 1.52379C8.46361 1.52379 8.84049 1.87631 8.84049 2.3095C8.84049 2.74269 8.46361 3.09522 8.00049 3.09522C7.53737 3.09522 7.16049 2.74269 7.16049 2.3095ZM12.4805 11.4762H3.52049C3.36594 11.4762 3.24049 11.3583 3.24049 11.2143C3.24049 11.0702 3.36594 10.9524 3.52049 10.9524H12.4805C12.635 10.9524 12.7605 11.0702 12.7605 11.2143C12.7605 11.3583 12.635 11.4762 12.4805 11.4762ZM12.2492 10.4286H3.75176L2.81434 5.86566C3.52218 6.82527 4.41313 7.35537 5.32313 7.28256C6.47952 7.19404 7.42761 6.16997 8.00049 4.42884C8.57337 6.17 9.52146 7.19404 10.6779 7.28256C10.7316 7.28675 10.7854 7.28885 10.8391 7.28885C11.692 7.28831 12.5208 6.76609 13.1872 5.86302L12.2492 10.4286ZM13.8805 4.14284C13.5719 4.14284 13.3205 3.90817 13.3205 3.61903C13.3205 3.32988 13.5719 3.09522 13.8805 3.09522C14.1891 3.09522 14.4405 3.32988 14.4405 3.61903C14.4405 3.90817 14.189 4.14284 13.8805 4.14284Z" fill="#131B4C" stroke="#131B4C" stroke-width="0.3"/>
</svg>
