<svg width="16" height="16" viewBox="0 0 16 16" fill="none" xmlns="http://www.w3.org/2000/svg">
<path d="M15.2136 2.28325C15.5484 1.94852 15.5484 1.40579 15.2136 1.07107C14.8789 0.736344 14.3362 0.736336 14.0015 1.07107L8.14258 6.92995L2.28369 1.07107C1.94896 0.736336 1.40623 0.736344 1.07151 1.07107C0.736786 1.40579 0.736778 1.94852 1.07151 2.28325L6.93039 8.14214L1.07151 14.001C0.736786 14.3357 0.736787 14.8785 1.07151 15.2132C1.40623 15.5479 1.94897 15.5479 2.28369 15.2132L8.14258 9.35432L14.0015 15.2132C14.3362 15.5479 14.8789 15.5479 15.2136 15.2132C15.5484 14.8785 15.5484 14.3357 15.2136 14.001L9.35476 8.14214L15.2136 2.28325Z" fill="#9095AE"/>
</svg>
