<svg width="30" height="31" viewBox="0 0 30 31" fill="none" xmlns="http://www.w3.org/2000/svg">
<path d="M22.479 30.6866H7.52101C3.52461 30.6866 0.984042 28.3031 0.755677 24.3209L0.0134889 12.5458C-0.100694 10.7617 0.513038 9.04898 1.7405 7.75016C2.9537 6.45133 4.66644 5.70914 6.43627 5.70914C6.893 5.70914 7.33546 5.43796 7.54955 5.00977L8.5772 2.96875C9.4193 1.29883 11.5317 0 13.3729 0H16.6414C18.4826 0 20.5807 1.29883 21.4228 2.95448L22.4504 5.03832C22.6645 5.43796 23.0927 5.70914 23.5637 5.70914C25.3336 5.70914 27.0463 6.45133 28.2595 7.75016C29.487 9.06326 30.1007 10.7617 29.9865 12.5458L29.2443 24.3352C28.9874 28.3744 26.5182 30.6866 22.479 30.6866ZM13.3729 2.14093C12.3167 2.14093 10.975 2.96875 10.4898 3.92503L9.46211 5.98032C8.86265 7.13642 7.70655 7.85007 6.43627 7.85007C5.23735 7.85007 4.12407 8.33534 3.29624 9.20599C2.48269 10.0766 2.06878 11.2185 2.15442 12.4031L2.8966 24.1925C3.06788 27.0756 4.62362 28.5457 7.52101 28.5457H22.479C25.3621 28.5457 26.9178 27.0756 27.1034 24.1925L27.8456 12.4031C27.9169 11.2185 27.5173 10.0766 26.7038 9.20599C25.8759 8.33534 24.7626 7.85007 23.5637 7.85007C22.2934 7.85007 21.1373 7.13642 20.5379 6.00887L19.496 3.92503C19.025 2.98303 17.6833 2.1552 16.6271 2.1552H13.3729V2.14093Z" fill="#3F4B63"/>
<path d="M17.1409 10.7046H12.859C12.2739 10.7046 11.7886 10.2194 11.7886 9.63417C11.7886 9.04898 12.2739 8.56371 12.859 8.56371H17.1409C17.7261 8.56371 18.2114 9.04898 18.2114 9.63417C18.2114 10.2194 17.7261 10.7046 17.1409 10.7046Z" fill="#3F4B63"/>
<path d="M14.9997 24.9775C11.8454 24.9775 9.29053 22.4226 9.29053 19.2683C9.29053 16.114 11.8454 13.5592 14.9997 13.5592C18.154 13.5592 20.7088 16.114 20.7088 19.2683C20.7088 22.4226 18.154 24.9775 14.9997 24.9775ZM14.9997 15.7001C13.03 15.7001 11.4315 17.2987 11.4315 19.2683C11.4315 21.238 13.03 22.8366 14.9997 22.8366C16.9693 22.8366 18.5679 21.238 18.5679 19.2683C18.5679 17.2987 16.9693 15.7001 14.9997 15.7001Z" fill="#3F4B63"/>
</svg>
