<svg width="82" height="82" viewBox="0 0 82 82" fill="none" xmlns="http://www.w3.org/2000/svg">
<path d="M73.9373 59.3128C73.8183 59.1938 73.6771 59.0994 73.5216 59.035C73.3662 58.9706 73.1995 58.9375 73.0313 58.9375C72.863 58.9375 72.6964 58.9706 72.541 59.035C72.3855 59.0994 72.2443 59.1938 72.1253 59.3128L66.625 64.813L61.1248 59.3128C61.0058 59.1938 60.8646 59.0994 60.7091 59.035C60.5537 58.9707 60.387 58.9375 60.2188 58.9375C60.0505 58.9375 59.8839 58.9707 59.7285 59.035C59.573 59.0994 59.4318 59.1938 59.3128 59.3128C59.1938 59.4318 59.0994 59.573 59.035 59.7285C58.9706 59.8839 58.9375 60.0505 58.9375 60.2188C58.9375 60.3871 58.9706 60.5537 59.035 60.7091C59.0994 60.8646 59.1938 61.0058 59.3128 61.1248L64.813 66.625L59.3128 72.1253C59.0725 72.3656 58.9375 72.6915 58.9375 73.0313C58.9375 73.3711 59.0725 73.697 59.3128 73.9373C59.5531 74.1776 59.879 74.3126 60.2188 74.3126C60.5586 74.3126 60.8845 74.1776 61.1248 73.9373L66.625 68.4371L72.1253 73.9373C72.3656 74.1776 72.6915 74.3126 73.0313 74.3126C73.3711 74.3126 73.697 74.1776 73.9373 73.9373C74.1776 73.697 74.3126 73.3711 74.3126 73.0313C74.3126 72.6915 74.1776 72.3656 73.9373 72.1253L68.437 66.625L73.9373 61.1248C74.0563 61.0058 74.1507 60.8646 74.215 60.7091C74.2794 60.5537 74.3126 60.3871 74.3126 60.2188C74.3126 60.0505 74.2794 59.8839 74.215 59.7285C74.1507 59.573 74.0563 59.4318 73.9373 59.3128Z" fill="#CC0E36"/>
<path d="M79.4375 1.28125H2.5625C2.22269 1.28125 1.8968 1.41624 1.65652 1.65652C1.41624 1.8968 1.28125 2.22269 1.28125 2.5625V69.1875C1.28125 69.5273 1.41624 69.8532 1.65652 70.0935C1.8968 70.3338 2.22269 70.4687 2.5625 70.4687H53.0646C53.9917 73.7423 56.0717 76.5701 58.9207 78.4299C61.7697 80.2898 65.1953 81.0563 68.5653 80.5879C71.9352 80.1195 75.022 78.4479 77.2558 75.8815C79.4896 73.3151 80.7196 70.0273 80.7188 66.625V2.5625C80.7188 2.22269 80.5838 1.8968 80.3435 1.65652C80.1032 1.41624 79.7773 1.28125 79.4375 1.28125ZM66.625 78.1562C64.3443 78.1562 62.1149 77.4799 60.2186 76.2129C58.3223 74.9458 56.8443 73.1449 55.9715 71.0378C55.0987 68.9307 54.8704 66.6122 55.3153 64.3754C55.7603 62.1385 56.8585 60.0838 58.4712 58.4712C60.0839 56.8585 62.1385 55.7603 64.3754 55.3153C66.6122 54.8704 68.9308 55.0987 71.0378 55.9715C73.1449 56.8443 74.9458 58.3223 76.2129 60.2186C77.48 62.1149 78.1562 64.3443 78.1562 66.625C78.1527 69.6822 76.9367 72.6132 74.7749 74.7749C72.6132 76.9367 69.6822 78.1527 66.625 78.1562ZM78.1562 58.5307C76.436 56.0779 73.9788 54.2373 71.1413 53.2761C68.3037 52.3149 65.2337 52.2832 62.377 53.1856C59.5202 54.088 57.0255 55.8775 55.255 58.2942C53.4845 60.7109 52.5304 63.6291 52.5312 66.625C52.5312 67.0574 52.5521 67.4834 52.5905 67.9062H3.84375V3.84375H78.1562V58.5307Z" fill="#9095AE"/>
<path d="M74.3125 6.40625H7.6875C7.34769 6.40625 7.0218 6.54124 6.78152 6.78152C6.54124 7.0218 6.40625 7.34769 6.40625 7.6875V48.6875C6.40625 49.0273 6.54124 49.3532 6.78152 49.5935C7.0218 49.8338 7.34769 49.9688 7.6875 49.9688H74.3125C74.6523 49.9688 74.9782 49.8338 75.2185 49.5935C75.4588 49.3532 75.5938 49.0273 75.5938 48.6875V7.6875C75.5938 7.34769 75.4588 7.0218 75.2185 6.78152C74.9782 6.54124 74.6523 6.40625 74.3125 6.40625ZM14.0473 47.4062L24.3966 32.9618L35.8526 47.4062H14.0473ZM39.1246 47.4062L32.6254 39.2127L46.1795 20.0772L67.7221 47.4062H39.1246ZM73.0312 47.4062H70.9861L47.1308 17.1447C47.0076 16.988 46.8495 16.8622 46.6691 16.7774C46.4887 16.6926 46.291 16.6511 46.0917 16.6562C45.8924 16.6614 45.6971 16.713 45.5213 16.807C45.3455 16.901 45.1941 17.0347 45.0792 17.1976L30.9662 37.121L25.3479 30.0389C25.2236 29.8844 25.0656 29.7604 24.886 29.6763C24.7064 29.5922 24.51 29.5502 24.3117 29.5536C24.1136 29.5585 23.9193 29.6093 23.7442 29.7022C23.5691 29.795 23.4179 29.9273 23.3027 30.0886L10.8954 47.4062H8.96875V8.96875H73.0312V47.4062Z" fill="#9095AE"/>
<path d="M25.625 25.625C26.892 25.625 28.1306 25.2493 29.1841 24.5454C30.2376 23.8414 31.0587 22.8409 31.5436 21.6703C32.0285 20.4997 32.1553 19.2116 31.9082 17.969C31.661 16.7263 31.0508 15.5848 30.1549 14.6889C29.259 13.7929 28.1175 13.1828 26.8748 12.9356C25.6321 12.6884 24.344 12.8153 23.1734 13.3001C22.0028 13.785 21.0023 14.6061 20.2984 15.6596C19.5945 16.7131 19.2188 17.9517 19.2188 19.2188C19.2207 20.9172 19.8962 22.5456 21.0972 23.7465C22.2982 24.9475 23.9265 25.6231 25.625 25.625ZM25.625 15.375C26.3852 15.375 27.1284 15.6004 27.7605 16.0228C28.3926 16.4451 28.8852 17.0455 29.1762 17.7478C29.4671 18.4502 29.5432 19.223 29.3949 19.9686C29.2466 20.7142 28.8805 21.3991 28.3429 21.9367C27.8054 22.4743 27.1205 22.8403 26.3749 22.9886C25.6293 23.137 24.8564 23.0608 24.1541 22.7699C23.4517 22.479 22.8514 21.9863 22.429 21.3542C22.0067 20.7221 21.7812 19.979 21.7812 19.2188C21.7824 18.1997 22.1878 17.2227 22.9084 16.5021C23.629 15.7815 24.6059 15.3762 25.625 15.375Z" fill="#9095AE"/>
<path d="M16.6562 52.5312H7.6875C7.34769 52.5312 7.0218 52.6662 6.78152 52.9065C6.54124 53.1468 6.40625 53.4727 6.40625 53.8125V64.0625C6.40625 64.4023 6.54124 64.7282 6.78152 64.9685C7.0218 65.2088 7.34769 65.3438 7.6875 65.3438H16.6562C16.9961 65.3438 17.3219 65.2088 17.5622 64.9685C17.8025 64.7282 17.9375 64.4023 17.9375 64.0625V53.8125C17.9375 53.4727 17.8025 53.1468 17.5622 52.9065C17.3219 52.6662 16.9961 52.5312 16.6562 52.5312ZM15.375 62.7812H8.96875V55.0938H15.375V62.7812Z" fill="#9095AE"/>
<path d="M35.875 52.5312H21.7812C21.4414 52.5312 21.1155 52.6662 20.8753 52.9065C20.635 53.1468 20.5 53.4727 20.5 53.8125C20.5 54.1523 20.635 54.4782 20.8753 54.7185C21.1155 54.9588 21.4414 55.0938 21.7812 55.0938H35.875C36.2148 55.0938 36.5407 54.9588 36.781 54.7185C37.0213 54.4782 37.1562 54.1523 37.1562 53.8125C37.1562 53.4727 37.0213 53.1468 36.781 52.9065C36.5407 52.6662 36.2148 52.5312 35.875 52.5312Z" fill="#9095AE"/>
<path d="M35.875 57.6562H21.7812C21.4414 57.6562 21.1155 57.7912 20.8753 58.0315C20.635 58.2718 20.5 58.5977 20.5 58.9375C20.5 59.2773 20.635 59.6032 20.8753 59.8435C21.1155 60.0838 21.4414 60.2188 21.7812 60.2188H35.875C36.2148 60.2188 36.5407 60.0838 36.781 59.8435C37.0213 59.6032 37.1562 59.2773 37.1562 58.9375C37.1562 58.5977 37.0213 58.2718 36.781 58.0315C36.5407 57.7912 36.2148 57.6562 35.875 57.6562Z" fill="#9095AE"/>
<path d="M28.1875 62.7812H21.7812C21.4414 62.7812 21.1155 62.9162 20.8753 63.1565C20.635 63.3968 20.5 63.7227 20.5 64.0625C20.5 64.4023 20.635 64.7282 20.8753 64.9685C21.1155 65.2088 21.4414 65.3438 21.7812 65.3438H28.1875C28.5273 65.3438 28.8532 65.2088 29.0935 64.9685C29.3338 64.7282 29.4688 64.4023 29.4688 64.0625C29.4688 63.7227 29.3338 63.3968 29.0935 63.1565C28.8532 62.9162 28.5273 62.7812 28.1875 62.7812Z" fill="#9095AE"/>
</svg>
