<svg width="12" height="14" viewBox="0 0 12 14" fill="none" xmlns="http://www.w3.org/2000/svg">
<path d="M11.2656 3.16491C10.3556 3.07825 9.52138 3.02408 8.70888 2.96991L8.62222 2.44991C8.54638 1.92991 8.38388 0.857422 6.74805 0.857422H5.24222C3.62809 0.857422 3.45476 1.88659 3.36809 2.43909L3.28143 2.94824C2.81559 2.98074 2.36059 3.00241 1.89476 3.04574L0.713915 3.16491C0.302249 3.20825 0.00974842 3.56575 0.0530818 3.97741C0.0964151 4.35658 0.410593 4.64909 0.78976 4.64909H0.865582L2.03558 4.52992C2.68558 4.47576 3.34642 4.42158 3.99638 4.38908C5.31805 4.33491 6.63972 4.35658 7.97222 4.42158C8.95805 4.46491 9.98722 4.54076 11.1139 4.64909H11.1789C11.5581 4.64909 11.883 4.35658 11.9155 3.97741C11.9697 3.56575 11.6772 3.19741 11.2656 3.16491Z" fill="#CC0E36"/>
<path d="M10.1492 6.0251C9.96504 5.81927 9.6942 5.71094 9.42337 5.71094H2.5767C2.30587 5.71094 2.03504 5.8301 1.85087 6.0251C1.6667 6.23094 1.5692 6.50177 1.59087 6.7726L1.92671 11.0626C1.99171 11.9834 2.06754 13.1318 4.14754 13.1318H7.85254C9.93254 13.1318 10.0084 11.9834 10.0734 11.0626L10.4092 6.7726C10.4309 6.50177 10.3334 6.23094 10.1492 6.0251Z" fill="#CC0E36"/>
</svg>
