<svg width="30" height="30" viewBox="0 0 30 30" fill="none" xmlns="http://www.w3.org/2000/svg">
<path d="M0.75 14.9999C0.75 9.41697 1.69043 5.93332 3.81187 3.81188C5.93331 1.69044 9.41696 0.75 14.9999 0.75C20.5829 0.75 24.0666 1.69043 26.1881 3.81188C28.3095 5.93332 29.25 9.41697 29.25 14.9999C29.25 20.5829 28.3095 24.0666 26.1881 26.1881C24.0666 28.3095 20.5829 29.25 14.9999 29.25C9.41697 29.25 5.93331 28.3095 3.81187 26.1881C1.69043 24.0666 0.75 20.5829 0.75 14.9999Z" fill="#F7F7F7" stroke="#004120" stroke-width="1.5"/>
<path d="M6.42822 7.5H23.5711" stroke="#2AB26E" stroke-width="1.5" stroke-linecap="round"/>
<path d="M6.42822 15H17.2553" stroke="#2AB26E" stroke-width="1.5" stroke-linecap="round"/>
<path d="M6.42822 22.5H20.8643" stroke="#2AB26E" stroke-width="1.5" stroke-linecap="round"/>
</svg>
