<svg width="26" height="26" viewBox="0 0 26 26" fill="none" xmlns="http://www.w3.org/2000/svg">
<path fill-rule="evenodd" clip-rule="evenodd" d="M2.64355 16.4121C2.64355 15.9633 3.00732 15.5996 3.45605 15.5996H10.0752C10.5239 15.5996 10.8877 15.9633 10.8877 16.4121C10.8877 16.8609 10.5239 17.2246 10.0752 17.2246H3.45605C3.00732 17.2246 2.64355 16.8609 2.64355 16.4121Z" fill="#2AB26E"/>
<path fill-rule="evenodd" clip-rule="evenodd" d="M6.07776 13.4977C6.39506 13.815 6.39507 14.3295 6.07777 14.6468L4.30689 16.4176L6.07777 18.1886C6.39507 18.5058 6.39506 19.0203 6.07776 19.3376C5.76046 19.6549 5.24601 19.6549 4.92871 19.3376L2.75124 17.1601C2.32993 16.7388 2.37552 16.0958 2.71849 15.7099C2.72907 15.698 2.73998 15.6865 2.75123 15.6752L4.92871 13.4977C5.24601 13.1804 5.76046 13.1804 6.07776 13.4977Z" fill="#2AB26E"/>
<path fill-rule="evenodd" clip-rule="evenodd" d="M2.4375 7.15C2.4375 4.55627 4.55628 2.4375 7.15 2.4375H18.85C21.4437 2.4375 23.5625 4.55627 23.5625 7.15V18.85C23.5625 21.4438 21.4437 23.5625 18.85 23.5625H7.15C6.7013 23.5625 6.33751 23.1988 6.33751 22.75C6.33751 22.3012 6.7013 21.9375 7.15 21.9375H18.85C20.5462 21.9375 21.9375 20.5462 21.9375 18.85V7.15C21.9375 5.45373 20.5462 4.0625 18.85 4.0625H7.15C5.45373 4.0625 4.0625 5.45373 4.0625 7.15V10.075C4.0625 10.5238 3.69873 10.8875 3.25 10.8875C2.80127 10.8875 2.4375 10.5238 2.4375 10.075V7.15Z" fill="#2AB26E"/>
<path fill-rule="evenodd" clip-rule="evenodd" d="M14.961 8.64453C14.7183 8.64453 14.441 8.87333 14.441 9.24039C14.441 9.54589 14.5064 9.63208 14.519 9.648C14.5397 9.67439 14.5973 9.73003 14.8098 9.80699L17.5871 10.7725C17.9191 10.892 18.3135 11.0836 18.6102 11.4633C18.9145 11.8528 19.0343 12.333 19.0343 12.8695C19.0343 14.0558 18.116 15.0904 16.8893 15.0904H15.156C13.8298 15.0904 12.8052 13.9785 12.8052 12.6637C12.8052 12.215 13.169 11.8512 13.6177 11.8512C14.0664 11.8512 14.4302 12.215 14.4302 12.6637C14.4302 13.1472 14.7922 13.4654 15.156 13.4654H16.8893C17.136 13.4654 17.4093 13.2432 17.4093 12.8695C17.4093 12.5718 17.345 12.4834 17.3298 12.4639C17.307 12.4348 17.2471 12.3777 17.0405 12.3029L14.2633 11.3374C13.9373 11.22 13.5405 11.0324 13.2418 10.6527C12.9347 10.2624 12.816 9.77989 12.816 9.24039C12.816 8.06902 13.7304 7.01953 14.961 7.01953H16.6943C18.0205 7.01953 19.0452 8.13142 19.0452 9.44618C19.0452 9.89494 18.6814 10.2587 18.2327 10.2587C17.7839 10.2587 17.4202 9.89494 17.4202 9.44618C17.4202 8.96264 17.0582 8.64453 16.6943 8.64453H14.961Z" fill="#2AB26E"/>
<path fill-rule="evenodd" clip-rule="evenodd" d="M15.9248 6.08789C16.3736 6.08789 16.7373 6.45166 16.7373 6.90041V15.1987C16.7373 15.6475 16.3736 16.0112 15.9248 16.0112C15.4761 16.0112 15.1123 15.6475 15.1123 15.1987V6.90041C15.1123 6.45166 15.4761 6.08789 15.9248 6.08789Z" fill="#2AB26E"/>
</svg>
