<svg width="22" height="22" viewBox="0 0 22 22" fill="none" xmlns="http://www.w3.org/2000/svg">
<path fill-rule="evenodd" clip-rule="evenodd" d="M16.2596 3.57354C15.3918 2.6988 13.9968 2.6988 13.129 3.57354L4.69834 12.0501C4.49351 12.2622 4.37322 12.5125 4.33908 12.7685L4.33836 12.7739L3.87612 16.0432L6.53595 15.6652V15.6508L7.13259 15.5712C7.39131 15.5367 7.63067 15.4167 7.81366 15.2223L7.82015 15.2154L16.2602 6.72955L16.2615 6.72823C17.1286 5.8611 17.1314 4.45242 16.2596 3.57354ZM12.1533 2.6047C13.559 1.18825 15.8303 1.18841 17.2357 2.60518C18.6369 4.01772 18.64 6.29351 17.2345 7.6998L17.2338 7.70052L8.80789 16.1722C8.55176 16.4421 8.24508 16.6465 7.91095 16.7789V16.8586L3.77269 17.4467L3.77054 17.447C3.42507 17.495 3.0592 17.4036 2.79059 17.1382C2.52045 16.8713 2.42457 16.5035 2.47215 16.1514L2.47271 16.1473L2.97652 12.5839C3.05274 12.0172 3.31642 11.4996 3.71431 11.0897L3.72015 11.0837L12.1533 2.6047Z" fill="#131B4C"/>
<path fill-rule="evenodd" clip-rule="evenodd" d="M14.9036 4.97542C15.1731 5.24289 15.1747 5.67819 14.9073 5.94769L13.6881 7.17601C13.4207 7.44551 12.9853 7.44716 12.7159 7.17969C12.4464 6.91223 12.4448 6.4769 12.7122 6.2074L13.9313 4.97908C14.1988 4.70958 14.6341 4.70794 14.9036 4.97542Z" fill="#131B4C"/>
<path fill-rule="evenodd" clip-rule="evenodd" d="M11.7886 18.7368C11.7886 18.3571 12.0964 18.0493 12.4761 18.0493H17.8203C18.1999 18.0493 18.5078 18.3571 18.5078 18.7368C18.5078 19.1165 18.1999 19.4243 17.8203 19.4243H12.4761C12.0964 19.4243 11.7886 19.1165 11.7886 18.7368Z" fill="#131B4C"/>
</svg>
