<svg width="30" height="30" viewBox="0 0 30 30" fill="none" xmlns="http://www.w3.org/2000/svg">
<path d="M19.178 29.9873H10.8094C3.23584 29.9873 0 26.7515 0 19.178V10.8094C0 3.23584 3.23584 0 10.8094 0H19.178C26.7515 0 29.9873 3.23584 29.9873 10.8094V19.178C29.9873 26.7515 26.7515 29.9873 19.178 29.9873ZM10.8094 2.09214C4.37955 2.09214 2.09214 4.37955 2.09214 10.8094V19.178C2.09214 25.6078 4.37955 27.8952 10.8094 27.8952H19.178C25.6078 27.8952 27.8952 25.6078 27.8952 19.178V10.8094C27.8952 4.37955 25.6078 2.09214 19.178 2.09214H10.8094Z" fill="#3F4B63"/>
<path d="M10.8112 13.2503C8.69114 13.2503 6.97559 11.5347 6.97559 9.41471C6.97559 7.29467 8.69114 5.57912 10.8112 5.57912C12.9312 5.57912 14.6468 7.29467 14.6468 9.41471C14.6468 11.5347 12.9312 13.2503 10.8112 13.2503ZM10.8112 7.67126C9.84879 7.67126 9.06773 8.45232 9.06773 9.41471C9.06773 10.3771 9.84879 11.1582 10.8112 11.1582C11.7736 11.1582 12.5546 10.3771 12.5546 9.41471C12.5546 8.45232 11.7736 7.67126 10.8112 7.67126Z" fill="#3F4B63"/>
<path d="M1.97927 25.7331C1.64453 25.7331 1.30979 25.5657 1.11452 25.2728C0.793729 24.7986 0.919257 24.143 1.40742 23.8222L8.28359 19.2056C9.78993 18.1874 11.8681 18.3129 13.235 19.4706L13.6953 19.8751C14.3927 20.4748 15.5782 20.4748 16.2617 19.8751L22.0639 14.8958C23.5423 13.6265 25.8716 13.6265 27.3639 14.8958L29.6374 16.8484C30.0698 17.225 30.1256 17.8806 29.749 18.3269C29.3724 18.7593 28.7169 18.815 28.2705 18.4385L25.9971 16.4858C25.2997 15.8861 24.1142 15.8861 23.4168 16.4858L17.6146 21.4651C16.1361 22.7343 13.8069 22.7343 12.3145 21.4651L11.8542 21.0606C11.2126 20.5167 10.1526 20.4609 9.44124 20.949L2.56507 25.5657C2.38375 25.6773 2.17454 25.7331 1.97927 25.7331Z" fill="#3F4B63"/>
</svg>
