<svg width="20" height="20" viewBox="0 0 20 20" fill="none" xmlns="http://www.w3.org/2000/svg">
<path d="M14.0921 19.8439H5.90776C4.98221 19.8783 4.08048 19.5461 3.3985 18.9194C2.71652 18.2927 2.30939 17.4222 2.26557 16.497V12.1095C2.26557 11.9231 2.33965 11.7442 2.47151 11.6124C2.60337 11.4805 2.78222 11.4064 2.9687 11.4064C3.15518 11.4064 3.33402 11.4805 3.46588 11.6124C3.59774 11.7442 3.67182 11.9231 3.67182 12.1095V16.497C3.71504 17.0493 3.97377 17.5624 4.39213 17.9255C4.81049 18.2886 5.3549 18.4726 5.90776 18.4377H14.0921C14.645 18.4726 15.1894 18.2886 15.6078 17.9255C16.0261 17.5624 16.2849 17.0493 16.3281 16.497V12.1095C16.3281 11.9231 16.4022 11.7442 16.534 11.6124C16.6659 11.4805 16.8447 11.4064 17.0312 11.4064C17.2177 11.4064 17.3965 11.4805 17.5284 11.6124C17.6602 11.7442 17.7343 11.9231 17.7343 12.1095V16.497C17.6905 17.4222 17.2834 18.2927 16.6014 18.9194C15.9194 19.5461 15.0177 19.8783 14.0921 19.8439ZM19.6398 10.4994C19.7057 10.434 19.758 10.3563 19.7937 10.2706C19.8294 10.1849 19.8478 10.093 19.8478 10.0002C19.8478 9.90735 19.8294 9.81545 19.7937 9.72977C19.758 9.64408 19.7057 9.56632 19.6398 9.50095L10.4992 0.360327C10.4338 0.294424 10.356 0.242116 10.2704 0.206419C10.1847 0.170722 10.0928 0.152344 9.99995 0.152344C9.90713 0.152344 9.81522 0.170722 9.72954 0.206419C9.64386 0.242116 9.56609 0.294424 9.50073 0.360327L0.360103 9.50095C0.227702 9.63335 0.15332 9.81293 0.15332 10.0002C0.15332 10.1874 0.227702 10.367 0.360103 10.4994C0.492505 10.6318 0.672079 10.7062 0.859322 10.7062C1.04657 10.7062 1.22614 10.6318 1.35854 10.4994L9.99995 1.85095L18.6414 10.4994C18.7067 10.5653 18.7845 10.6176 18.8702 10.6533C18.9558 10.689 19.0478 10.7074 19.1406 10.7074C19.2334 10.7074 19.3253 10.689 19.411 10.6533C19.4967 10.6176 19.5744 10.5653 19.6398 10.4994Z" fill="white"/>
</svg>
