<svg width="36" height="36" viewBox="0 0 36 36" fill="none" xmlns="http://www.w3.org/2000/svg">
<g filter="url(#filter0_d_1869_31964)">
<path fill-rule="evenodd" clip-rule="evenodd" d="M28.9996 6.73311C28.9996 4.67121 27.3284 3 25.2665 3H10.7331C8.67121 3 7 4.67121 7 6.73311V21.2665C7 23.3284 8.67121 24.9996 10.7331 24.9996H25.2665C27.3284 24.9996 28.9996 23.3284 28.9996 21.2665V6.73311Z" fill="#EDF4FE"/>
<path fill-rule="evenodd" clip-rule="evenodd" d="M15.543 21.769C15.4466 21.9021 15.4466 22.0819 15.543 22.2146L17.4512 24.8436C17.5225 24.9418 17.6367 24.9999 17.7585 24.9999H25.2664C27.3283 24.9999 28.9995 23.3287 28.9995 21.2668V20.8025C28.9995 20.7225 28.9741 20.6447 28.9271 20.5798L25.6878 16.1177C24.9853 15.1505 23.8622 14.5781 22.6667 14.5781C21.4715 14.5781 20.3484 15.1505 19.6459 16.1177L15.543 21.769Z" fill="#00912C"/>
<path fill-rule="evenodd" clip-rule="evenodd" d="M16.3186 20.7002L15.543 21.7683C15.4466 21.9014 15.4466 22.0812 15.543 22.214L17.4512 24.843C17.5225 24.9412 17.6367 24.9992 17.7585 24.9992H18.8311C18.9548 24.6491 18.9009 24.2569 18.679 23.9512L16.3186 20.7002Z" fill="#008127"/>
<path fill-rule="evenodd" clip-rule="evenodd" d="M7.07245 20.5799C7.02541 20.6448 7 20.7226 7 20.8026V21.2669C7 23.3288 8.67121 25 10.7331 25H17.7586C17.9012 25 18.0317 24.9199 18.0962 24.7929C18.161 24.6658 18.1493 24.5133 18.0654 24.3976L14.2037 19.079C13.5016 18.1118 12.3785 17.5391 11.183 17.5391C9.9874 17.5391 8.86428 18.1118 8.16181 19.079L7.07245 20.5799Z" fill="#00BF4B"/>
<path d="M13.3482 11.7248C14.6602 11.7248 15.7238 10.6612 15.7238 9.34921C15.7238 8.03722 14.6602 6.97363 13.3482 6.97363C12.0362 6.97363 10.9727 8.03722 10.9727 9.34921C10.9727 10.6612 12.0362 11.7248 13.3482 11.7248Z" fill="#F8BC38"/>
<path fill-rule="evenodd" clip-rule="evenodd" d="M28.9996 6.73311C28.9996 4.67121 27.3284 3 25.2665 3H10.7331C8.67121 3 7 4.67121 7 6.73311V21.2665C7 23.3284 8.67121 24.9996 10.7331 24.9996H25.2665C27.3284 24.9996 28.9996 23.3284 28.9996 21.2665V6.73311ZM28.241 6.73311V21.2665C28.241 22.9093 26.9093 24.241 25.2665 24.241H10.7331C9.09034 24.241 7.75861 22.9093 7.75861 21.2665V6.73311C7.75861 5.09034 9.09034 3.75861 10.7331 3.75861H25.2665C26.9093 3.75861 28.241 5.09034 28.241 6.73311Z" fill="#00013F"/>
<path fill-rule="evenodd" clip-rule="evenodd" d="M26.5739 13.9999V13.2413C26.5739 13.1366 26.4889 13.0517 26.3842 13.0517C26.2795 13.0517 26.1946 13.1366 26.1946 13.2413V13.9999C26.1946 14.1046 26.2795 14.1896 26.3842 14.1896C26.4889 14.1896 26.5739 14.1046 26.5739 13.9999ZM26.5739 12.4827V11.7241C26.5739 11.6194 26.4889 11.5345 26.3842 11.5345C26.2795 11.5345 26.1946 11.6194 26.1946 11.7241V12.4827C26.1946 12.5874 26.2795 12.6724 26.3842 12.6724C26.4889 12.6724 26.5739 12.5874 26.5739 12.4827ZM26.5739 10.9655V10.2069C26.5739 10.1022 26.4889 10.0173 26.3842 10.0173C26.2795 10.0173 26.1946 10.1022 26.1946 10.2069V10.9655C26.1946 11.0702 26.2795 11.1552 26.3842 11.1552C26.4889 11.1552 26.5739 11.0702 26.5739 10.9655ZM26.5739 9.4483V8.68969C26.5739 8.585 26.4889 8.50004 26.3842 8.50004C26.2795 8.50004 26.1946 8.585 26.1946 8.68969V9.4483C26.1946 9.55299 26.2795 9.63795 26.3842 9.63795C26.4889 9.63795 26.5739 9.55299 26.5739 9.4483ZM26.5727 7.92501C26.5633 7.64433 26.5094 7.3754 26.418 7.1243C26.3819 7.02606 26.2731 6.97524 26.1748 7.01127C26.0762 7.0473 26.0258 7.15616 26.0614 7.2544C26.1396 7.46833 26.1855 7.69819 26.1934 7.93715C26.1968 8.04184 26.2845 8.12415 26.3892 8.12073C26.4938 8.11732 26.5761 8.02932 26.5727 7.92501ZM26.0205 6.41235C25.8517 6.19804 25.6495 6.01105 25.4223 5.85933C25.3351 5.80091 25.2171 5.82443 25.1591 5.91167C25.101 5.99853 25.1246 6.11649 25.2114 6.17453C25.406 6.30425 25.5786 6.46394 25.7227 6.64714C25.7876 6.72945 25.9067 6.74348 25.989 6.67862C26.0713 6.61376 26.0853 6.49466 26.0205 6.41235ZM24.6808 5.51947C24.4604 5.4584 24.2283 5.42578 23.9885 5.42578H23.8793C23.7746 5.42578 23.6896 5.51075 23.6896 5.61543C23.6896 5.72012 23.7746 5.80509 23.8793 5.80509H23.9885C24.1934 5.80509 24.3914 5.83277 24.5795 5.88474C24.6804 5.91281 24.7851 5.85364 24.8128 5.75274C24.8408 5.65185 24.7817 5.54754 24.6808 5.51947ZM23.1207 5.42578H22.3621C22.2574 5.42578 22.1724 5.51075 22.1724 5.61543C22.1724 5.72012 22.2574 5.80509 22.3621 5.80509H23.1207C23.2254 5.80509 23.3103 5.72012 23.3103 5.61543C23.3103 5.51075 23.2254 5.42578 23.1207 5.42578ZM21.6035 5.42578H20.8449C20.7402 5.42578 20.6552 5.51075 20.6552 5.61543C20.6552 5.72012 20.7402 5.80509 20.8449 5.80509H21.6035C21.7082 5.80509 21.7931 5.72012 21.7931 5.61543C21.7931 5.51075 21.7082 5.42578 21.6035 5.42578ZM20.0863 5.42578H19.3277C19.223 5.42578 19.138 5.51075 19.138 5.61543C19.138 5.72012 19.223 5.80509 19.3277 5.80509H20.0863C20.1909 5.80509 20.2759 5.72012 20.2759 5.61543C20.2759 5.51075 20.1909 5.42578 20.0863 5.42578ZM18.569 5.42578H17.9997C17.895 5.42578 17.8101 5.51075 17.8101 5.61543C17.8101 5.72012 17.895 5.80509 17.9997 5.80509H18.569C18.6737 5.80509 18.7587 5.72012 18.7587 5.61543C18.7587 5.51075 18.6737 5.42578 18.569 5.42578Z" fill="#ABBFDC"/>
<path fill-rule="evenodd" clip-rule="evenodd" d="M13.3482 6.97363C12.037 6.97363 10.9727 8.03796 10.9727 9.34921C10.9727 10.6605 12.037 11.7248 13.3482 11.7248C14.6595 11.7248 15.7238 10.6605 15.7238 9.34921C15.7238 8.03796 14.6595 6.97363 13.3482 6.97363ZM13.3482 7.73224C14.2407 7.73224 14.9652 8.45671 14.9652 9.34921C14.9652 10.2417 14.2407 10.9662 13.3482 10.9662C12.4557 10.9662 11.7313 10.2417 11.7313 9.34921C11.7313 8.45671 12.4557 7.73224 13.3482 7.73224Z" fill="#00013F"/>
<path fill-rule="evenodd" clip-rule="evenodd" d="M7.07245 20.5799C7.02541 20.6448 7 20.7226 7 20.8026V21.2669C7 23.3288 8.67121 25 10.7331 25H17.7586C17.9012 25 18.0317 24.9199 18.0962 24.7929C18.161 24.6658 18.1493 24.5133 18.0654 24.3976L14.2037 19.079C13.5016 18.1118 12.3785 17.5391 11.183 17.5391C9.9874 17.5391 8.86428 18.1118 8.16181 19.079L7.07245 20.5799ZM7.75861 20.9259L8.7759 19.5247C9.33537 18.754 10.2305 18.2977 11.183 18.2977C12.1354 18.2977 13.0302 18.754 13.59 19.5247L17.0144 24.2414H10.7331C9.09034 24.2414 7.75861 22.9096 7.75861 21.2669V20.9259Z" fill="#00013F"/>
<path fill-rule="evenodd" clip-rule="evenodd" d="M15.543 21.769C15.4466 21.9021 15.4466 22.0819 15.543 22.2146L17.4512 24.8436C17.5225 24.9418 17.6367 24.9999 17.7585 24.9999H25.2664C27.3283 24.9999 28.9995 23.3287 28.9995 21.2668V20.8025C28.9995 20.7225 28.9741 20.6447 28.9271 20.5798L25.6878 16.1177C24.9853 15.1505 23.8622 14.5781 22.6667 14.5781C21.4715 14.5781 20.3484 15.1505 19.6459 16.1177L15.543 21.769ZM16.3186 21.992L20.2596 16.5638C20.8195 15.7927 21.7142 15.3367 22.6667 15.3367C23.6191 15.3367 24.5143 15.7927 25.0737 16.5634C25.0737 16.5638 28.2409 20.9258 28.2409 20.9258V21.2668C28.2409 22.9095 26.9092 24.2413 25.2664 24.2413H17.9515L16.3186 21.992Z" fill="#00013F"/>
</g>
<defs>
<filter id="filter0_d_1869_31964" x="0" y="0" width="36" height="36" filterUnits="userSpaceOnUse" color-interpolation-filters="sRGB">
<feFlood flood-opacity="0" result="BackgroundImageFix"/>
<feColorMatrix in="SourceAlpha" type="matrix" values="0 0 0 0 0 0 0 0 0 0 0 0 0 0 0 0 0 0 127 0" result="hardAlpha"/>
<feOffset dy="4"/>
<feGaussianBlur stdDeviation="2"/>
<feComposite in2="hardAlpha" operator="out"/>
<feColorMatrix type="matrix" values="0 0 0 0 0 0 0 0 0 0 0 0 0 0 0 0 0 0 0.25 0"/>
<feBlend mode="normal" in2="BackgroundImageFix" result="effect1_dropShadow_1869_31964"/>
<feBlend mode="normal" in="SourceGraphic" in2="effect1_dropShadow_1869_31964" result="shape"/>
</filter>
</defs>
</svg>
