<svg width="29" height="58" viewBox="0 0 29 58" fill="none" xmlns="http://www.w3.org/2000/svg">
<g filter="url(#filter0_d_276_4397)">
<path d="M25 25C25 38.8071 13.8071 50 2.25298e-05 50C0 46 1.18448e-07 38.8071 1.18448e-07 25C1.18448e-07 11.1929 1.18447e-07 7.5 2.25298e-05 0C13.8071 0 25 11.1929 25 25Z" fill="#D9D9D9"/>
</g>
<path d="M2.07752 24.411L7.91085 18.5777C8.06802 18.4259 8.27852 18.3419 8.49702 18.3438C8.71552 18.3457 8.92453 18.4333 9.07904 18.5878C9.23354 18.7423 9.32118 18.9513 9.32308 19.1698C9.32498 19.3883 9.24098 19.5988 9.08919 19.756L4.67835 24.1668L19.3334 24.1668C19.5544 24.1668 19.7663 24.2546 19.9226 24.4109C20.0789 24.5672 20.1667 24.7792 20.1667 25.0002C20.1667 25.2212 20.0789 25.4332 19.9226 25.5894C19.7663 25.7457 19.5544 25.8335 19.3334 25.8335L4.67835 25.8335L9.08919 30.2443C9.16878 30.3212 9.23226 30.4132 9.27594 30.5148C9.31961 30.6165 9.3426 30.7259 9.34356 30.8365C9.34452 30.9472 9.32344 31.0569 9.28154 31.1593C9.23964 31.2617 9.17776 31.3548 9.09951 31.433C9.02127 31.5112 8.92823 31.5731 8.82581 31.615C8.7234 31.6569 8.61367 31.678 8.50302 31.6771C8.39237 31.6761 8.28302 31.6531 8.18135 31.6094C8.07968 31.5658 7.98772 31.5023 7.91085 31.4227L2.07752 25.5893C1.92129 25.4331 1.83353 25.2211 1.83353 25.0002C1.83353 24.7792 1.92129 24.5673 2.07752 24.411Z" fill="white"/>
<defs>
<filter id="filter0_d_276_4397" x="-4" y="0" width="33" height="58" filterUnits="userSpaceOnUse" color-interpolation-filters="sRGB">
<feFlood flood-opacity="0" result="BackgroundImageFix"/>
<feColorMatrix in="SourceAlpha" type="matrix" values="0 0 0 0 0 0 0 0 0 0 0 0 0 0 0 0 0 0 127 0" result="hardAlpha"/>
<feOffset dy="4"/>
<feGaussianBlur stdDeviation="2"/>
<feComposite in2="hardAlpha" operator="out"/>
<feColorMatrix type="matrix" values="0 0 0 0 0 0 0 0 0 0 0 0 0 0 0 0 0 0 0.25 0"/>
<feBlend mode="normal" in2="BackgroundImageFix" result="effect1_dropShadow_276_4397"/>
<feBlend mode="normal" in="SourceGraphic" in2="effect1_dropShadow_276_4397" result="shape"/>
</filter>
</defs>
</svg>
