<svg width="26" height="26" viewBox="0 0 26 26" fill="none" xmlns="http://www.w3.org/2000/svg">
<path d="M5.92531 11.6452C5.15614 11.6452 4.37614 11.3635 3.78031 10.7893C1.78698 8.89352 0.98531 6.82435 1.45114 4.79852C2.00364 2.41518 4.09448 1.35352 5.92531 1.35352C7.75614 1.35352 9.85781 2.42602 10.3995 4.79852C10.8653 6.82435 10.0528 8.89352 8.07031 10.7893C7.47448 11.3635 6.70531 11.6452 5.92531 11.6452ZM3.03281 5.16685C2.62114 6.97602 3.82364 8.57935 4.90698 9.60852C5.48114 10.161 6.38031 10.1502 6.95448 9.60852C8.03781 8.57935 9.24031 6.97602 8.81781 5.15602C8.44947 3.55268 7.03031 2.97852 5.93614 2.97852C4.83114 2.97852 3.41198 3.55268 3.03281 5.16685Z" fill="white"/>
<path d="M20.031 24.6462C19.2618 24.6462 18.4818 24.3646 17.8752 23.7904C15.871 21.8946 15.0585 19.8254 15.5352 17.7888C16.0877 15.4163 18.1893 14.3438 20.031 14.3438C21.8727 14.3438 23.9743 15.4163 24.5268 17.7888C24.9927 19.8146 24.1802 21.8946 22.176 23.7796C21.5802 24.3646 20.811 24.6462 20.031 24.6462ZM20.031 15.9796C18.926 15.9796 17.496 16.5538 17.1168 18.1679C16.6943 19.9771 17.9077 21.5912 18.991 22.6204C19.5652 23.1729 20.4752 23.1729 21.0602 22.6204C22.1435 21.5912 23.3568 19.9879 22.9343 18.1787C22.5768 16.5537 21.1468 15.9796 20.031 15.9796Z" fill="white"/>
<path d="M5.97005 6.71745C5.37422 6.71745 4.88672 6.22995 4.88672 5.63411C4.88672 5.03828 5.36339 4.55078 5.97005 4.55078H5.98089C6.57672 4.55078 7.06422 5.03828 7.06422 5.63411C7.06422 6.22995 6.57672 6.71745 5.97005 6.71745Z" fill="white"/>
<path d="M20.0755 19.7174C19.4797 19.7174 18.9922 19.2299 18.9922 18.6341C18.9922 18.0383 19.4689 17.5508 20.0755 17.5508H20.0864C20.6822 17.5508 21.1697 18.0383 21.1697 18.6341C21.1697 19.2299 20.6714 19.7174 20.0755 19.7174Z" fill="white"/>
<path d="M13.0008 21.3962H10.0975C8.84087 21.3962 7.7467 20.6378 7.31337 19.4678C6.8692 18.2978 7.19421 17.0087 8.13671 16.1745L16.7925 8.60199C17.3125 8.14699 17.3233 7.52949 17.1717 7.10699C17.0092 6.68449 16.5975 6.22949 15.9042 6.22949H13.0008C12.5567 6.22949 12.1883 5.86116 12.1883 5.41699C12.1883 4.97283 12.5567 4.60449 13.0008 4.60449H15.9042C17.1608 4.60449 18.255 5.36283 18.6883 6.53283C19.1325 7.70283 18.8075 8.99199 17.865 9.82616L9.2092 17.3987C8.6892 17.8537 8.67837 18.4712 8.83004 18.8937C8.99254 19.3162 9.4042 19.7712 10.0975 19.7712H13.0008C13.445 19.7712 13.8133 20.1395 13.8133 20.5837C13.8133 21.0278 13.445 21.3962 13.0008 21.3962Z" fill="white"/>
<path d="M13.0008 21.3962H10.0975C8.84087 21.3962 7.7467 20.6378 7.31337 19.4678C6.8692 18.2978 7.19421 17.0087 8.13671 16.1745L16.7925 8.60199C17.3125 8.14699 17.3233 7.52949 17.1717 7.10699C17.0092 6.68449 16.5975 6.22949 15.9042 6.22949H13.0008C12.5567 6.22949 12.1883 5.86116 12.1883 5.41699C12.1883 4.97283 12.5567 4.60449 13.0008 4.60449H15.9042C17.1608 4.60449 18.255 5.36283 18.6883 6.53283C19.1325 7.70283 18.8075 8.99199 17.865 9.82616L9.2092 17.3987C8.6892 17.8537 8.67837 18.4712 8.83004 18.8937C8.99254 19.3162 9.4042 19.7712 10.0975 19.7712H13.0008C13.445 19.7712 13.8133 20.1395 13.8133 20.5837C13.8133 21.0278 13.445 21.3962 13.0008 21.3962Z" fill="white"/>
</svg>
