<svg width="82" height="82" viewBox="0 0 82 82" fill="none" xmlns="http://www.w3.org/2000/svg">
<path fill-rule="evenodd" clip-rule="evenodd" d="M32.3516 8.96875C25.0985 8.96875 19.2188 14.8485 19.2188 22.1016V27.8672C19.2188 35.1202 25.0985 41 32.3516 41C39.6046 41 45.4844 35.1202 45.4844 27.8672V22.1016C45.4844 14.8485 39.6046 8.96875 32.3516 8.96875ZM21.7812 22.1016C21.7812 16.2637 26.5137 11.5312 32.3516 11.5312C38.1894 11.5312 42.9219 16.2637 42.9219 22.1016V27.8672C42.9219 33.705 38.1894 38.4375 32.3516 38.4375C26.5137 38.4375 21.7812 33.705 21.7812 27.8672V22.1016Z" fill="#9095AE"/>
<path d="M32.3516 42.9219C24.9999 42.9219 18.2817 44.665 13.3578 47.5499C8.46432 50.4169 5.125 54.5643 5.125 59.4041V66.7993C5.125 67.5065 5.69863 68.0805 6.40625 68.0805C7.11388 68.0805 7.6875 67.5065 7.6875 66.7993V59.4041C7.6875 55.8485 10.1563 52.3955 14.6531 49.7609C19.1195 47.144 25.374 45.4844 32.3516 45.4844C35.2989 45.4844 38.1227 45.7807 40.7402 46.3227C41.4331 46.4662 42.1112 46.0208 42.2547 45.3279C42.3981 44.635 41.9527 43.9569 41.2598 43.8134C38.4672 43.2351 35.4692 42.9219 32.3516 42.9219Z" fill="#9095AE"/>
<path d="M44.2031 42.2812C44.2031 40.866 45.3504 39.7188 46.7656 39.7188H64.0625C65.4776 39.7188 66.625 40.866 66.625 42.2812V51.5703C66.625 52.2779 66.0516 52.8516 65.3438 52.8516C64.6359 52.8516 64.0625 52.2779 64.0625 51.5703V42.2812H46.7656V71.75H64.0625V62.4609C64.0625 61.7533 64.6359 61.1797 65.3438 61.1797C66.0516 61.1797 66.625 61.7533 66.625 62.4609V71.75C66.625 73.1651 65.4776 74.3125 64.0625 74.3125H46.7656C45.3504 74.3125 44.2031 73.1651 44.2031 71.75V42.2812Z" fill="#9095AE"/>
<path d="M70.7807 50.3929C70.3073 49.8669 69.4969 49.8243 68.971 50.2977C68.445 50.771 68.4021 51.5812 68.8755 52.1071L72.7167 56.375H57.9766C57.2689 56.375 56.6953 56.9486 56.6953 57.6563C56.6953 58.3639 57.2689 58.9375 57.9766 58.9375H72.7167L68.8755 63.2054C68.4021 63.7314 68.445 64.5417 68.971 65.0151C69.4969 65.4886 70.3073 65.4456 70.7807 64.9197L76.5464 58.5134C76.9845 58.0261 76.9845 57.2864 76.5464 56.7992L70.7807 50.3929Z" fill="#34BD79"/>
</svg>
