<svg width="26" height="26" viewBox="0 0 26 26" fill="none" xmlns="http://www.w3.org/2000/svg">
<path d="M15.1663 13.0007C15.1663 14.1973 14.1963 15.1673 12.9997 15.1673C11.803 15.1673 10.833 14.1973 10.833 13.0007C10.833 11.804 11.803 10.834 12.9997 10.834C14.1963 10.834 15.1663 11.804 15.1663 13.0007Z" fill="black"/>
<path d="M15.1663 4.33366C15.1663 5.53028 14.1963 6.50033 12.9997 6.50033C11.803 6.50033 10.833 5.53028 10.833 4.33366C10.833 3.13704 11.803 2.16699 12.9997 2.16699C14.1963 2.16699 15.1663 3.13704 15.1663 4.33366Z" fill="black"/>
<path d="M15.1663 21.6667C15.1663 22.8633 14.1963 23.8333 12.9997 23.8333C11.803 23.8333 10.833 22.8633 10.833 21.6667C10.833 20.47 11.803 19.5 12.9997 19.5C14.1963 19.5 15.1663 20.47 15.1663 21.6667Z" fill="black"/>
</svg>
