<svg width="24" height="27" viewBox="0 0 24 27" fill="none" xmlns="http://www.w3.org/2000/svg">
<path d="M23.1143 19.3687L21.5112 17.0625C21.2924 16.749 21.1746 16.3761 21.1737 15.9937V9.375C21.1737 6.8886 20.186 4.50403 18.4278 2.74587C16.6697 0.98772 14.2851 0 11.7987 0C9.3123 0 6.92773 0.98772 5.16958 2.74587C3.41142 4.50403 2.4237 6.8886 2.4237 9.375V15.9937C2.4228 16.3761 2.30504 16.749 2.0862 17.0625L0.483079 19.3687C0.240341 19.6377 0.08072 19.9712 0.0235187 20.329C-0.0336826 20.6867 0.0139856 21.0534 0.160759 21.3846C0.307532 21.7158 0.547124 21.9975 0.850562 22.1954C1.154 22.3933 1.50829 22.4991 1.87058 22.5H7.20495C7.42012 23.5596 7.99501 24.5123 8.83221 25.1966C9.66941 25.8809 10.7174 26.2547 11.7987 26.2547C12.88 26.2547 13.928 25.8809 14.7652 25.1966C15.6024 24.5123 16.1773 23.5596 16.3925 22.5H21.7268C22.0891 22.4991 22.4434 22.3933 22.7468 22.1954C23.0503 21.9975 23.2899 21.7158 23.4366 21.3846C23.5834 21.0534 23.6311 20.6867 23.5739 20.329C23.5167 19.9712 23.3571 19.6377 23.1143 19.3687ZM11.7987 24.375C11.2184 24.3734 10.6529 24.1923 10.1796 23.8566C9.70627 23.5209 9.34837 23.0471 9.15495 22.5H14.4425C14.249 23.0471 13.8911 23.5209 13.4178 23.8566C12.9445 24.1923 12.379 24.3734 11.7987 24.375ZM1.87058 20.625C1.91295 20.5857 1.9507 20.5416 1.98308 20.4938L3.6237 18.1313C4.06137 17.5042 4.29689 16.7584 4.2987 15.9937V9.375C4.2987 7.38588 5.08888 5.47822 6.4954 4.0717C7.90193 2.66518 9.80958 1.875 11.7987 1.875C13.7878 1.875 15.6955 2.66518 17.102 4.0717C18.5085 5.47822 19.2987 7.38588 19.2987 9.375V15.9937C19.3005 16.7584 19.536 17.5042 19.9737 18.1313L21.6143 20.4938C21.6467 20.5416 21.6845 20.5857 21.7268 20.625H1.87058Z" fill="white"/>
</svg>
