<svg width="57" height="43" viewBox="0 0 57 43" fill="none" xmlns="http://www.w3.org/2000/svg">
<path fill-rule="evenodd" clip-rule="evenodd" d="M15.857 9.09215C17.597 8.99215 19.335 9.00015 21.075 9.00015C21.087 9.00015 29.892 9.00015 29.892 9.00015C31.666 9.00015 33.404 8.99215 35.143 9.09215C36.724 9.18215 38.264 9.37415 39.797 9.80315C43.024 10.7052 45.842 12.5892 47.879 15.2602C49.904 17.9142 51 21.1632 51 24.4992C51 27.8392 49.904 31.0862 47.879 33.7402C45.842 36.4102 43.024 38.2952 39.797 39.1972C38.264 39.6262 36.724 39.8172 35.143 39.9082C33.404 40.0082 31.666 39.9992 29.926 39.9992C29.914 39.9992 21.107 40.0002 21.107 40.0002C19.335 39.9992 17.597 40.0082 15.857 39.9082C14.277 39.8172 12.737 39.6262 11.204 39.1972C7.977 38.2952 5.159 36.4102 3.122 33.7402C1.097 31.0862 0 27.8392 0 24.5002C0 21.1632 1.097 17.9142 3.122 15.2602C5.159 12.5892 7.977 10.7052 11.204 9.80315C12.737 9.37415 14.277 9.18215 15.857 9.09215Z" fill="#34C759"/>
<g filter="url(#filter0_dd_3232_20106)">
<path fill-rule="evenodd" clip-rule="evenodd" d="M35.5 38C42.9558 38 49 31.9558 49 24.5C49 17.0442 42.9558 11 35.5 11C28.0442 11 22 17.0442 22 24.5C22 31.9558 28.0442 38 35.5 38Z" fill="white"/>
</g>
<defs>
<filter id="filter0_dd_3232_20106" x="14" y="0" width="43" height="43" filterUnits="userSpaceOnUse" color-interpolation-filters="sRGB">
<feFlood flood-opacity="0" result="BackgroundImageFix"/>
<feColorMatrix in="SourceAlpha" type="matrix" values="0 0 0 0 0 0 0 0 0 0 0 0 0 0 0 0 0 0 127 0" result="hardAlpha"/>
<feOffset dx="-1" dy="4"/>
<feGaussianBlur stdDeviation="0.5"/>
<feColorMatrix type="matrix" values="0 0 0 0 0 0 0 0 0 0 0 0 0 0 0 0 0 0 0.06 0"/>
<feBlend mode="normal" in2="BackgroundImageFix" result="effect1_dropShadow_3232_20106"/>
<feColorMatrix in="SourceAlpha" type="matrix" values="0 0 0 0 0 0 0 0 0 0 0 0 0 0 0 0 0 0 127 0" result="hardAlpha"/>
<feOffset dy="-3"/>
<feGaussianBlur stdDeviation="4"/>
<feColorMatrix type="matrix" values="0 0 0 0 0 0 0 0 0 0 0 0 0 0 0 0 0 0 0.15 0"/>
<feBlend mode="normal" in2="effect1_dropShadow_3232_20106" result="effect2_dropShadow_3232_20106"/>
<feBlend mode="normal" in="SourceGraphic" in2="effect2_dropShadow_3232_20106" result="shape"/>
</filter>
</defs>
</svg>
