<svg width="19" height="21" viewBox="0 0 19 21" fill="none" xmlns="http://www.w3.org/2000/svg">
<path d="M10.0938 0.879486C10.0938 0.393763 9.73696 0 9.29688 0C8.85679 0 8.5 0.393763 8.5 0.879486V9.38118H0.796875C0.356777 9.38118 0 9.77495 0 10.2607C0 10.7464 0.356777 11.1402 0.796875 11.1402H8.5V19.6418C8.5 20.1276 8.85679 20.5213 9.29688 20.5213C9.73696 20.5213 10.0938 20.1276 10.0938 19.6418V11.1402H17.7969C18.237 11.1402 18.5938 10.7464 18.5938 10.2607C18.5938 9.77495 18.237 9.38118 17.7969 9.38118H10.0938V0.879486Z" fill="#2AB26E"/>
</svg>
