<svg width="15" height="15" viewBox="0 0 15 15" fill="none" xmlns="http://www.w3.org/2000/svg">
<path d="M14 7.5C14 8.78302 13.6191 10.0307 12.8987 11.1083C12.8008 11.2548 12.6399 11.334 12.4761 11.334C12.3791 11.334 12.281 11.3063 12.1943 11.2483C11.9611 11.0925 11.8985 10.7771 12.0543 10.5439C12.6628 9.6339 12.9844 8.58138 12.9844 7.5C12.9844 7.03533 12.9262 6.57384 12.8116 6.12851C12.7417 5.85695 12.9052 5.58003 13.1768 5.51011C13.4485 5.44028 13.7253 5.60374 13.7952 5.8753C13.9311 6.40334 14 6.94994 14 7.5ZM10.337 12.1946C9.48403 12.7112 8.50302 12.9844 7.49999 12.9844C4.47593 12.9844 2.01562 10.5241 2.01562 7.5C2.01562 4.47594 4.47593 2.01562 7.49999 2.01562C8.61966 2.01562 9.69628 2.35066 10.6136 2.98454C10.8443 3.14392 11.1606 3.0861 11.3201 2.8554C11.4795 2.6247 11.4218 2.30841 11.191 2.14893C10.1031 1.39732 8.82685 1 7.49999 1C5.76381 1 4.13147 1.67612 2.9038 2.9038C1.67612 4.13148 1 5.76382 1 7.5C1 9.23618 1.67612 10.8685 2.9038 12.0962C4.13147 13.3239 5.76381 14 7.49999 14C8.68859 14 9.8516 13.6761 10.8633 13.0632C11.1032 12.9179 11.1798 12.6057 11.0345 12.3658C10.8891 12.1259 10.5769 12.0493 10.337 12.1946Z" fill="#9095AE" stroke="#9095AE" stroke-width="0.2"/>
<path fill-rule="evenodd" clip-rule="evenodd" d="M13.7416 2.57114C14.0861 2.93162 14.0861 3.51609 13.7416 3.87654L7.85919 10.0304C7.5146 10.3909 6.95601 10.3909 6.61138 10.0304L4.25843 7.56886C3.91386 7.20837 3.91386 6.624 4.25843 6.2635C4.60301 5.90301 5.16169 5.90301 5.50627 6.2635L7.2353 8.07225L12.4938 2.57114C12.8384 2.21066 13.397 2.21066 13.7416 2.57114Z" fill="#2AB26E"/>
</svg>
