<svg width="22" height="22" viewBox="0 0 22 22" fill="none" xmlns="http://www.w3.org/2000/svg">
<path fill-rule="evenodd" clip-rule="evenodd" d="M11.0477 6.2876C9.47883 6.2876 8.20703 7.55941 8.20703 9.12826C8.20703 10.4286 9.08065 11.5247 10.273 11.862V15.3261C10.273 15.7539 10.6198 16.1008 11.0477 16.1008C11.4756 16.1008 11.8225 15.7539 11.8225 15.3261V11.862C13.0147 11.5247 13.8884 10.4286 13.8884 9.12826C13.8884 7.55941 12.6166 6.2876 11.0477 6.2876ZM9.75648 9.12826C9.75648 8.41514 10.3346 7.83705 11.0477 7.83705C11.7608 7.83705 12.3389 8.41514 12.3389 9.12826C12.3389 9.84138 11.7608 10.4195 11.0477 10.4195C10.3346 10.4195 9.75648 9.84138 9.75648 9.12826Z" fill="#131B4C"/>
<path fill-rule="evenodd" clip-rule="evenodd" d="M8.53073 0.0898438C6.9381 0.0898438 5.64702 1.38092 5.64702 2.97355C5.64702 3.71043 5.04966 4.30779 4.31277 4.30779H3.99373C2.36571 4.30779 0.91551 5.5674 1.00384 7.31699C1.10871 9.39429 1.57009 12.6319 3.25294 15.6988C3.72429 16.5577 4.35377 17.4016 5.03425 18.1878L5.08548 18.2469C6.06439 19.378 6.88059 20.3211 7.75808 20.964C8.70188 21.6554 9.70921 21.9998 11.0482 21.9998C12.3873 21.9998 13.3946 21.6554 14.3384 20.964C15.2159 20.3211 16.0321 19.378 17.011 18.2469L17.0623 18.1878C17.7427 17.4016 18.3722 16.5577 18.8435 15.6988C20.5823 12.53 21.016 8.94927 21.1015 6.71697C21.1681 4.97577 19.7283 3.70523 18.0912 3.70523H17.4824C16.912 3.70523 16.4494 3.24275 16.4494 2.67226C16.4494 1.24603 15.2933 0.0898438 13.867 0.0898438H8.53073ZM7.19648 2.97355C7.19648 2.23666 7.79384 1.6393 8.53073 1.6393H13.867C14.4375 1.6393 14.9 2.10178 14.9 2.67226C14.9 4.09849 16.0562 5.25469 17.4824 5.25469H18.0912C18.9564 5.25469 19.5822 5.89833 19.5532 6.65765C19.4715 8.79046 19.0556 12.0915 17.4852 14.9534C17.0834 15.6856 16.5271 16.4384 15.8907 17.1737C14.8473 18.3793 14.1427 19.1866 13.4227 19.7141C12.7539 20.2041 12.0696 20.4504 11.0482 20.4504C10.0268 20.4504 9.34266 20.2041 8.67377 19.7141C7.95381 19.1866 7.24923 18.3793 6.20581 17.1737C5.56942 16.4384 5.01309 15.6856 4.61133 14.9534C3.08411 12.1702 2.64992 9.19194 2.55132 7.23886C2.5138 6.49579 3.12589 5.85725 3.99373 5.85725H4.31277C5.9054 5.85725 7.19648 4.56617 7.19648 2.97355Z" fill="#131B4C"/>
</svg>
