<svg width="29" height="58" viewBox="0 0 29 58" fill="none" xmlns="http://www.w3.org/2000/svg">
<g filter="url(#filter0_d_276_4408)">
<path d="M29 25C29 38.8071 29 44.5 29 50C15.1929 50 4 38.8071 4 25C4 11.1929 15.1929 0 29 0C29 2.5 29 11.1929 29 25Z" fill="#D9D9D9"/>
</g>
<path d="M26.9225 25.589L21.0892 31.4223C20.932 31.5741 20.7215 31.6581 20.503 31.6562C20.2845 31.6543 20.0755 31.5667 19.921 31.4122C19.7665 31.2577 19.6788 31.0487 19.6769 30.8302C19.675 30.6117 19.759 30.4012 19.9108 30.244L24.3217 25.8332H9.66667C9.44566 25.8332 9.23369 25.7454 9.07741 25.5891C8.92113 25.4328 8.83334 25.2208 8.83334 24.9998C8.83334 24.7788 8.92113 24.5668 9.07741 24.4106C9.23369 24.2543 9.44566 24.1665 9.66667 24.1665H24.3217L19.9108 19.7557C19.8312 19.6788 19.7678 19.5868 19.7241 19.4852C19.6804 19.3835 19.6574 19.2741 19.6565 19.1635C19.6555 19.0528 19.6766 18.9431 19.7185 18.8407C19.7604 18.7383 19.8223 18.6452 19.9005 18.567C19.9788 18.4887 20.0718 18.4269 20.1742 18.385C20.2766 18.3431 20.3864 18.322 20.497 18.3229C20.6077 18.3239 20.717 18.3469 20.8187 18.3906C20.9203 18.4342 21.0123 18.4977 21.0892 18.5773L26.9225 24.4107C27.0787 24.5669 27.1665 24.7789 27.1665 24.9998C27.1665 25.2208 27.0787 25.4327 26.9225 25.589Z" fill="white"/>
<defs>
<filter id="filter0_d_276_4408" x="0" y="0" width="33" height="58" filterUnits="userSpaceOnUse" color-interpolation-filters="sRGB">
<feFlood flood-opacity="0" result="BackgroundImageFix"/>
<feColorMatrix in="SourceAlpha" type="matrix" values="0 0 0 0 0 0 0 0 0 0 0 0 0 0 0 0 0 0 127 0" result="hardAlpha"/>
<feOffset dy="4"/>
<feGaussianBlur stdDeviation="2"/>
<feComposite in2="hardAlpha" operator="out"/>
<feColorMatrix type="matrix" values="0 0 0 0 0 0 0 0 0 0 0 0 0 0 0 0 0 0 0.25 0"/>
<feBlend mode="normal" in2="BackgroundImageFix" result="effect1_dropShadow_276_4408"/>
<feBlend mode="normal" in="SourceGraphic" in2="effect1_dropShadow_276_4408" result="shape"/>
</filter>
</defs>
</svg>
