<svg width="13" height="13" viewBox="0 0 13 13" fill="none" xmlns="http://www.w3.org/2000/svg">
<path d="M12 6.5C12 7.58563 11.6777 8.64139 11.0681 9.55322C10.9853 9.67717 10.8492 9.74414 10.7105 9.74414C10.6284 9.74414 10.5454 9.72073 10.4721 9.67163C10.2748 9.53979 10.2218 9.27291 10.3537 9.07561C10.8685 8.30561 11.1406 7.41502 11.1406 6.5C11.1406 6.10682 11.0914 5.71632 10.9944 5.33951C10.9353 5.10973 11.0736 4.87541 11.3034 4.81625C11.5334 4.75716 11.7675 4.89547 11.8267 5.12525C11.9417 5.57206 12 6.03456 12 6.5ZM8.90054 10.4723C8.1788 10.9095 7.34871 11.1406 6.5 11.1406C3.94117 11.1406 1.85937 9.05882 1.85937 6.5C1.85937 3.94118 3.94117 1.85938 6.5 1.85938C7.4474 1.85938 8.35839 2.14287 9.1346 2.67922C9.3298 2.81409 9.59743 2.76516 9.73238 2.56995C9.86725 2.37475 9.81841 2.10712 9.62312 1.97217C8.70264 1.3362 7.62272 1 6.5 1C5.03092 1 3.64971 1.57211 2.61091 2.61091C1.5721 3.64971 1 5.03092 1 6.5C1 7.96908 1.5721 9.35029 2.61091 10.3891C3.64971 11.4279 5.03092 12 6.5 12C7.50573 12 8.48982 11.7259 9.34583 11.2073C9.54884 11.0844 9.61372 10.8202 9.49077 10.6172C9.36774 10.4142 9.10355 10.3494 8.90054 10.4723Z" fill="#9095AE" stroke="#9095AE" stroke-width="0.2"/>
<path fill-rule="evenodd" clip-rule="evenodd" d="M11.7819 2.33033C12.0735 2.63535 12.0735 3.1299 11.7819 3.4349L6.80453 8.64202C6.51295 8.94705 6.0403 8.94705 5.74869 8.64202L3.75774 6.55917C3.46617 6.25414 3.46617 5.75967 3.75774 5.45463C4.0493 5.1496 4.52203 5.1496 4.8136 5.45463L6.27663 6.98511L10.7261 2.33033C11.0177 2.02531 11.4903 2.02531 11.7819 2.33033Z" fill="#2AB26E"/>
</svg>
