<svg width="26" height="26" viewBox="0 0 26 26" fill="none" xmlns="http://www.w3.org/2000/svg">
<path fill-rule="evenodd" clip-rule="evenodd" d="M2.9248 9.1C2.9248 5.42294 5.91024 2.4375 9.58732 2.4375C13.2644 2.4375 16.2498 5.42294 16.2498 9.1C16.2498 12.7771 13.2644 15.7625 9.58732 15.7625C5.91023 15.7625 2.9248 12.7771 2.9248 9.1ZM9.58732 4.0625C6.80773 4.0625 4.5498 6.3204 4.5498 9.1C4.5498 11.8796 6.80773 14.1375 9.58732 14.1375C12.3669 14.1375 14.6248 11.8796 14.6248 9.1C14.6248 6.3204 12.3669 4.0625 9.58732 4.0625Z" fill="#1F2F40"/>
<path fill-rule="evenodd" clip-rule="evenodd" d="M15.1969 23.1162C12.6323 18.886 6.4836 18.9055 3.94837 23.1662C3.71891 23.5519 3.22029 23.6784 2.83466 23.449C2.44903 23.2195 2.32243 22.7209 2.55188 22.3353C5.71471 17.0198 13.3883 16.9955 16.5875 22.2755L16.5894 22.2786L16.6218 22.3327C16.8527 22.7175 16.728 23.2166 16.3432 23.4475C15.9584 23.6783 15.4593 23.5536 15.2284 23.1688L15.1977 23.1176C15.1975 23.1171 15.1972 23.1167 15.1969 23.1162Z" fill="#1F2F40"/>
<path fill-rule="evenodd" clip-rule="evenodd" d="M16.0879 15.9258C16.0879 15.477 16.4516 15.1133 16.9004 15.1133H22.7504C23.1991 15.1133 23.5629 15.477 23.5629 15.9258C23.5629 16.3745 23.1991 16.7383 22.7504 16.7383H16.9004C16.4516 16.7383 16.0879 16.3745 16.0879 15.9258Z" fill="#2AB26E"/>
<path fill-rule="evenodd" clip-rule="evenodd" d="M19.8252 12.1875C20.274 12.1875 20.6377 12.5512 20.6377 13L20.6377 18.85C20.6377 19.2987 20.274 19.6625 19.8252 19.6625C19.3764 19.6625 19.0127 19.2987 19.0127 18.85L19.0127 13C19.0127 12.5512 19.3764 12.1875 19.8252 12.1875Z" fill="#2AB26E"/>
</svg>
