<svg width="34" height="34" viewBox="0 0 34 34" fill="none" xmlns="http://www.w3.org/2000/svg">
<path fill-rule="evenodd" clip-rule="evenodd" d="M0 16.9999C0 4.25092 4.2509 0 16.9999 0C29.749 0 34 4.25092 34 16.9999C34 29.749 29.749 34 16.9999 34C4.2509 34 0 29.749 0 16.9999Z" fill="white"/>
<path d="M17.7969 8.5C17.7969 8.0599 17.4401 7.70312 17 7.70312C16.5599 7.70312 16.2031 8.0599 16.2031 8.5V16.2031H8.5C8.0599 16.2031 7.70312 16.5599 7.70312 17C7.70312 17.4401 8.0599 17.7969 8.5 17.7969H16.2031V25.5C16.2031 25.9401 16.5599 26.2969 17 26.2969C17.4401 26.2969 17.7969 25.9401 17.7969 25.5V17.7969H25.5C25.9401 17.7969 26.2969 17.4401 26.2969 17C26.2969 16.5599 25.9401 16.2031 25.5 16.2031H17.7969V8.5Z" fill="#2AB26E"/>
</svg>
