<svg width="22" height="22" viewBox="0 0 22 22" fill="none" xmlns="http://www.w3.org/2000/svg">
<path d="M6.29932 7.239C6.29932 7.75823 6.72024 8.17917 7.23949 8.17917C7.75872 8.17917 8.17965 7.75823 8.17965 7.239C8.17965 6.71975 7.75872 6.29883 7.23949 6.29883C6.72024 6.29883 6.29932 6.71975 6.29932 7.239Z" fill="#131B4C"/>
<path fill-rule="evenodd" clip-rule="evenodd" d="M11.0002 3.24326C12.9885 3.24326 15.7061 3.42574 17.4031 3.55721C17.9611 3.60044 18.3993 4.03865 18.4426 4.59671C18.5364 5.80794 18.6563 7.53919 18.7171 9.15409C17.5986 8.61116 16.343 8.30663 15.0172 8.30663C10.3323 8.30663 6.53434 12.1045 6.53434 16.7895C6.53434 17.4074 6.60053 18.0106 6.72635 18.5919C5.93958 18.5426 5.20328 18.4891 4.59719 18.4422C4.03913 18.3989 3.60093 17.9607 3.55769 17.4026C3.42622 15.7057 3.24375 12.9881 3.24375 10.9997C3.24375 9.01126 3.42622 6.29365 3.55769 4.59671C3.60093 4.03865 4.03913 3.60044 4.59719 3.55721C6.29412 3.42574 9.01172 3.24326 11.0002 3.24326ZM7.61793 20.0569C6.45635 19.9937 5.33839 19.9141 4.48826 19.8482C3.23728 19.7513 2.24857 18.7626 2.15165 17.5116C2.02013 15.8138 1.8335 13.048 1.8335 10.9997C1.8335 8.95136 2.02013 6.18552 2.15165 4.48778C2.24857 3.2368 3.23728 2.24808 4.48826 2.15116C6.18598 2.01964 8.95182 1.83301 11.0002 1.83301C13.0485 1.83301 15.8143 2.01964 17.512 2.15116C18.763 2.24808 19.7517 3.2368 19.8487 4.48778C19.9659 6.00191 20.127 8.36561 20.1605 10.3122C20.1679 10.3673 20.1688 10.4233 20.1631 10.479C20.1655 10.6567 20.1667 10.8306 20.1667 10.9997C20.1667 13.048 19.9801 15.8138 19.8487 17.5116C19.7517 18.7626 18.763 19.7513 17.512 19.8482C15.8143 19.9797 13.0485 20.1663 11.0002 20.1663C9.98706 20.1663 8.79841 20.1207 7.65031 20.0586C7.63948 20.0583 7.62868 20.0577 7.61793 20.0569ZM8.19845 18.6748C8.03309 18.0752 7.94458 17.4432 7.94458 16.7895C7.94458 12.8834 11.1111 9.71689 15.0172 9.71689C16.3909 9.71689 17.6715 10.1078 18.7558 10.7845C18.7563 10.8571 18.7565 10.9289 18.7565 10.9997C18.7565 12.9881 18.574 15.7057 18.4426 17.4026C18.3993 17.9607 17.9611 18.3989 17.4031 18.4422C15.7061 18.5736 12.9885 18.7561 11.0002 18.7561C10.1534 18.7561 9.17453 18.723 8.19845 18.6748Z" fill="#131B4C"/>
</svg>
