<svg width="14" height="16" viewBox="0 0 14 16" fill="none" xmlns="http://www.w3.org/2000/svg">
<path fill-rule="evenodd" clip-rule="evenodd" d="M7 1.8125C4.00839 1.8125 1.5625 4.29431 1.5625 7.38163C1.5625 8.9384 2.18517 10.6625 3.20406 11.9938C4.22558 13.3287 5.57762 14.1875 7 14.1875C8.42238 14.1875 9.7744 13.3287 10.796 11.9938C11.8148 10.6625 12.4375 8.9384 12.4375 7.38163C12.4375 4.29431 9.9916 1.8125 7 1.8125ZM0.4375 7.38163C0.4375 3.69613 3.36419 0.6875 7 0.6875C10.6358 0.6875 13.5625 3.69613 13.5625 7.38163C13.5625 9.21125 12.8421 11.1714 11.6894 12.6775C10.5393 14.1803 8.89135 15.3125 7 15.3125C5.10866 15.3125 3.46071 14.1803 2.31065 12.6775C1.15797 11.1714 0.4375 9.21125 0.4375 7.38163Z" fill="white"/>
<path fill-rule="evenodd" clip-rule="evenodd" d="M4.5625 6.875C4.5625 5.5288 5.65383 4.4375 7 4.4375C8.34618 4.4375 9.4375 5.5288 9.4375 6.875C9.4375 8.22118 8.34618 9.3125 7 9.3125C5.65383 9.3125 4.5625 8.22118 4.5625 6.875ZM7 5.5625C6.27513 5.5625 5.6875 6.15013 5.6875 6.875C5.6875 7.59988 6.27513 8.1875 7 8.1875C7.72488 8.1875 8.3125 7.59988 8.3125 6.875C8.3125 6.15013 7.72488 5.5625 7 5.5625Z" fill="#2AB26E"/>
</svg>
