<svg width="22" height="22" viewBox="0 0 22 22" fill="none" xmlns="http://www.w3.org/2000/svg">
<path fill-rule="evenodd" clip-rule="evenodd" d="M17.1121 4.8877C15.7847 3.56026 13.8665 3.14047 12.1051 3.64236C11.74 3.7464 11.3595 3.53472 11.2555 3.16956C11.1515 2.8044 11.3631 2.42404 11.7283 2.31998C13.9318 1.69215 16.3771 2.20815 18.0844 3.91542C19.7917 5.62271 20.3077 8.06803 19.6798 10.2715C19.5758 10.6367 19.1954 10.8484 18.8303 10.7443C18.4651 10.6403 18.2534 10.2599 18.3575 9.89476C18.8593 8.13328 18.4396 6.21514 17.1121 4.8877ZM15.3366 6.6632C14.878 6.20451 14.2904 6.04872 13.8265 6.14112C13.4541 6.21529 13.0921 5.97354 13.0179 5.60116C12.9437 5.22878 13.1855 4.86678 13.5579 4.7926C14.5101 4.60293 15.5537 4.93571 16.3089 5.69093C17.0641 6.44613 17.3969 7.48968 17.2072 8.44194C17.1331 8.81432 16.7711 9.05607 16.3986 8.98191C16.0263 8.90773 15.7846 8.54573 15.8587 8.17335C15.9511 7.70945 15.7953 7.12188 15.3366 6.6632Z" fill="#131B4C"/>
<path fill-rule="evenodd" clip-rule="evenodd" d="M5.15159 2.21349C5.47182 2.1135 5.80407 2.0625 6.13856 2.0625C7.74634 2.0625 8.93751 3.47826 8.9375 5.07931V8.67069C8.93751 10.2717 7.74634 11.6875 6.13856 11.6875C5.80406 11.6875 5.47182 11.6365 5.15159 11.5365L4.9068 11.4601C4.82321 11.4339 4.74097 11.405 4.66017 11.3734C5.93552 13.9634 8.03663 16.0645 10.6266 17.3399C10.595 17.259 10.5661 17.1768 10.5399 17.0932L10.4635 16.8484C10.3635 16.5281 10.3125 16.1959 10.3125 15.8615C10.3125 14.2536 11.7283 13.0625 13.3293 13.0625H16.9207C18.5217 13.0625 19.9375 14.2536 19.9375 15.8615C19.9375 16.1959 19.8865 16.5281 19.7865 16.8484L19.7101 17.0932C19.2649 18.5191 17.9912 19.5519 16.4677 19.8203C15.5808 19.9766 14.6692 19.9766 13.7823 19.8203C13.7473 19.8141 13.7125 19.8076 13.678 19.8006C7.86477 18.6822 3.31777 14.1352 2.19937 8.32201C2.19242 8.2874 2.18588 8.25265 2.17973 8.21777C2.02342 7.33076 2.02342 6.41924 2.17973 5.53223C2.44818 4.00878 3.48084 2.73519 4.90679 2.28993L5.15159 2.21349ZM3.54885 8.05833C3.5436 8.03098 3.53844 8.00362 3.53335 7.97622C3.40538 7.24799 3.40556 6.49902 3.53386 5.77085C3.72315 4.69665 4.43447 3.87788 5.31662 3.60244L5.56141 3.526C5.75006 3.46709 5.94417 3.4375 6.13856 3.4375C6.86302 3.4375 7.56251 4.10748 7.5625 5.0793V8.67069C7.5625 9.64251 6.86302 10.3125 6.13856 10.3125C5.94417 10.3125 5.75006 10.2829 5.56141 10.224L5.31662 10.1476C4.45627 9.87892 3.75842 9.09349 3.54885 8.05833ZM14.0237 18.4666C14.752 18.5946 15.5009 18.5945 16.2291 18.4662C17.3034 18.2769 18.1221 17.5655 18.3976 16.6834L18.474 16.4386C18.5329 16.2499 18.5625 16.0559 18.5625 15.8615C18.5625 15.137 17.8925 14.4375 16.9207 14.4375H13.3293C12.3575 14.4375 11.6875 15.137 11.6875 15.8615C11.6875 16.0559 11.7171 16.2499 11.776 16.4386L11.8524 16.6833C12.1211 17.5437 12.9066 18.2416 13.9418 18.4511C13.969 18.4564 13.9964 18.4616 14.0237 18.4666Z" fill="#131B4C"/>
</svg>
