<svg width="24" height="24" viewBox="0 0 24 24" fill="none" xmlns="http://www.w3.org/2000/svg">
<path d="M21.0297 6.50592C20.6011 5.99646 20.0253 5.57289 19.3161 5.2441C19.1573 4.83735 18.9383 4.46683 18.6588 4.13452C17.5412 2.80605 15.4201 2.07448 12.6857 2.07448C11.8671 2.07448 8.63056 2.04024 6.80958 2.00035C6.0709 1.98476 5.41996 2.49606 5.25868 3.21708L2.03816 17.7303C1.93425 18.1942 2.04487 18.6732 2.34166 19.0445C2.63829 19.4157 3.08079 19.6286 3.55534 19.6286H4.5142L4.40922 20.1017C4.30531 20.5656 4.41593 21.0447 4.71272 21.4159C5.00935 21.7871 5.45185 22 5.92655 22H9.82486C10.5638 22 11.205 21.4731 11.3497 20.7473L12.0404 17.2824L15.6897 17.2404L15.7198 17.237C15.9622 17.209 17.2409 17.0226 18.6099 16.094C19.3907 15.5645 20.0537 14.8904 20.5806 14.0903C21.223 13.1153 21.6635 11.95 21.8897 10.6274C22.182 8.91845 21.8927 7.53174 21.0297 6.50592ZM3.25718 18.3102C3.21431 18.2566 3.14763 18.1433 3.18272 17.9862L6.40324 3.47342C6.44306 3.29656 6.60328 3.17031 6.7841 3.17504C8.61179 3.21494 11.863 3.24933 12.6857 3.24933C15.0337 3.24933 16.884 3.84791 17.7619 4.89161C18.3917 5.64045 18.5939 6.70571 18.3628 8.05741C18.0023 10.1635 17.0667 11.7422 15.5812 12.7496C14.4795 13.4969 13.4249 13.6697 13.2411 13.6949L9.61566 13.7366C9.06284 13.7366 8.64277 14.0552 8.54587 14.5471L7.82856 18.1459C7.793 18.3243 7.63538 18.4537 7.4538 18.4537H3.55534C3.39573 18.4537 3.29991 18.3637 3.25718 18.3102ZM20.7337 10.4288C20.3734 12.5349 19.4377 14.1136 17.9523 15.121C16.8506 15.8683 15.7959 16.0411 15.6122 16.0663L11.9867 16.108C11.4339 16.108 11.0138 16.4266 10.9169 16.9185L10.1996 20.5173C10.1641 20.6957 10.0064 20.8251 9.82486 20.8251H5.92655C5.76679 20.8251 5.67112 20.7353 5.62824 20.6816C5.58537 20.628 5.51869 20.5147 5.55378 20.3576L5.71568 19.6286H7.45395C8.19278 19.6286 8.83411 19.1017 8.97876 18.3759L9.66938 14.9109L13.3187 14.869L13.3487 14.8656C13.5912 14.8376 14.8699 14.6512 16.2389 13.7226C17.0197 13.1929 17.6827 12.5188 18.2097 11.7189C18.8519 10.7437 19.2925 9.57863 19.5186 8.25582C19.6077 7.73488 19.6425 7.24406 19.6237 6.78412C19.8181 6.93147 19.9884 7.09121 20.1329 7.26287C20.7628 8.01186 20.965 9.07711 20.7337 10.4288Z" fill="#B1BBC5"/>
</svg>
