<svg width="24" height="24" viewBox="0 0 24 24" fill="none" xmlns="http://www.w3.org/2000/svg">
<path d="M14.209 3.79458C14.986 3.9951 15.72 4.30294 16.3939 4.70152C16.3939 4.70152 16.7186 4.37672 17.0833 4.01202C17.3481 3.74694 17.7075 3.59827 18.0821 3.59827C18.4562 3.59827 18.8156 3.74694 19.0804 4.01202C19.4016 4.3333 19.7575 4.68913 20.0788 5.01041C20.3439 5.27518 20.4925 5.63457 20.4925 6.00876C20.4925 6.38335 20.3439 6.74269 20.0788 7.00746C19.7141 7.37216 19.3893 7.69692 19.3893 7.69692C19.7878 8.37087 20.0957 9.1048 20.2962 9.88184H21.2695C22.0494 9.88184 22.6816 10.5141 22.6816 11.2939V12.7061C22.6816 13.4859 22.0494 14.1182 21.2695 14.1182H20.2962C20.0957 14.8952 19.7878 15.6291 19.3893 16.303C19.3893 16.303 19.7141 16.6278 20.0788 16.9925C20.3439 17.2573 20.4925 17.6167 20.4925 17.9912C20.4925 18.3654 20.3439 18.7248 20.0788 18.9896C19.7575 19.3108 19.4016 19.6667 19.0804 19.9879C18.8156 20.2531 18.4562 20.4017 18.0821 20.4017C17.7075 20.4017 17.3481 20.2531 17.0833 19.9879C16.7186 19.6232 16.3939 19.2985 16.3939 19.2985C15.72 19.697 14.986 20.0049 14.209 20.2054V21.1787C14.209 21.9585 13.5767 22.5908 12.7968 22.5908H11.3848C10.6049 22.5908 9.97266 21.9585 9.97266 21.1787V20.2054C9.19566 20.0049 8.46168 19.697 7.78774 19.2985C7.78774 19.2985 7.46298 19.6232 7.09828 19.9879C6.83351 20.2531 6.47413 20.4017 6.09958 20.4017C5.72539 20.4017 5.36596 20.2531 5.10123 19.9879C4.77999 19.6667 4.42412 19.3108 4.10284 18.9896C3.83776 18.7248 3.68909 18.3654 3.68909 17.9912C3.68909 17.6167 3.83776 17.2573 4.10284 16.9925C4.46754 16.6278 4.79234 16.303 4.79234 16.303C4.39375 15.6291 4.08596 14.8952 3.8854 14.1182H2.91214C2.13229 14.1182 1.5 13.4859 1.5 12.7061V11.2939C1.5 10.5141 2.13229 9.88184 2.91214 9.88184H3.8854C4.08596 9.1048 4.39375 8.37087 4.79234 7.69692C4.79234 7.69692 4.46754 7.37216 4.10284 7.00746C3.83776 6.74269 3.68909 6.38335 3.68909 6.00876C3.68909 5.63457 3.83776 5.27518 4.10284 5.01041C4.42412 4.68913 4.77999 4.3333 5.10123 4.01202C5.36596 3.74694 5.72539 3.59827 6.09958 3.59827C6.47413 3.59827 6.83351 3.74694 7.09828 4.01202C7.46298 4.37672 7.78774 4.70152 7.78774 4.70152C8.46168 4.30294 9.19566 3.9951 9.97266 3.79458V2.82128C9.97266 2.04142 10.6049 1.40918 11.3848 1.40918H12.7968C13.5767 1.40918 14.209 2.04142 14.209 2.82128V3.79458Z" stroke="#131B4C" stroke-width="1.1" stroke-miterlimit="10" stroke-linecap="round" stroke-linejoin="round"/>
<path d="M12.001 7.76367C14.3391 7.76367 16.2373 9.66189 16.2373 12C16.2373 14.3381 14.3391 16.2363 12.001 16.2363C9.66287 16.2363 7.76465 14.3381 7.76465 12C7.76465 9.66189 9.66287 7.76367 12.001 7.76367Z" stroke="#131B4C" stroke-width="1.1" stroke-miterlimit="10" stroke-linecap="round" stroke-linejoin="round"/>
</svg>
