<svg width="22" height="22" viewBox="0 0 22 22" fill="none" xmlns="http://www.w3.org/2000/svg">
<path d="M13.7502 20.8538H8.25016C3.27266 20.8538 1.146 18.7272 1.146 13.7497V8.24967C1.146 3.27217 3.27266 1.14551 8.25016 1.14551H12.8335C13.2093 1.14551 13.521 1.45717 13.521 1.83301C13.521 2.20884 13.2093 2.52051 12.8335 2.52051H8.25016C4.02433 2.52051 2.521 4.02384 2.521 8.24967V13.7497C2.521 17.9755 4.02433 19.4788 8.25016 19.4788H13.7502C17.976 19.4788 19.4793 17.9755 19.4793 13.7497V9.16634C19.4793 8.79051 19.791 8.47884 20.1668 8.47884C20.5427 8.47884 20.8543 8.79051 20.8543 9.16634V13.7497C20.8543 18.7272 18.7277 20.8538 13.7502 20.8538Z" fill="#131B4C"/>
<path d="M20.1668 9.85347H16.5002C13.3652 9.85347 12.146 8.6343 12.146 5.4993V1.83263C12.146 1.55763 12.311 1.30096 12.5677 1.20013C12.8243 1.09013 13.1177 1.1543 13.3193 1.3468L20.6527 8.68013C20.8452 8.87263 20.9093 9.17514 20.7993 9.43181C20.6893 9.68847 20.4418 9.85347 20.1668 9.85347ZM13.521 3.4918V5.4993C13.521 7.8643 14.1352 8.47847 16.5002 8.47847H18.5077L13.521 3.4918Z" fill="#131B4C"/>
<path d="M8.63557 17.3705C7.83807 17.3705 5.98641 16.3988 5.41807 14.6205C5.02391 13.3922 5.48224 11.788 6.90307 11.3297C7.49891 11.1372 8.13141 11.2197 8.63557 11.5313C9.13057 11.2197 9.77228 11.1372 10.3773 11.3297C11.7981 11.788 12.2564 13.3922 11.8623 14.6205C11.2848 16.4355 9.34144 17.3705 8.63557 17.3705ZM6.71974 14.208C7.10474 15.4088 8.40641 15.9772 8.64474 15.9955C8.90141 15.968 10.1848 15.3355 10.5423 14.208C10.7348 13.603 10.5423 12.833 9.94644 12.6405C9.69894 12.558 9.35978 12.6038 9.20394 12.8422C9.07557 13.0347 8.87391 13.1447 8.64474 13.1538C8.39724 13.1538 8.20474 13.053 8.07641 12.8697C7.88391 12.6038 7.55391 12.5672 7.31557 12.6497C6.72891 12.833 6.52724 13.603 6.71974 14.208Z" fill="#131B4C"/>
</svg>
