<svg width="23" height="24" viewBox="0 0 23 24" fill="none" xmlns="http://www.w3.org/2000/svg">
<path d="M19.7371 16.6828L18.5348 14.9531C18.3706 14.718 18.2823 14.4383 18.2816 14.1516V9.1875C18.2816 7.3227 17.5409 5.53427 16.2222 4.21566C14.9036 2.89704 13.1152 2.15625 11.2504 2.15625C9.38559 2.15625 7.59717 2.89704 6.27855 4.21566C4.95994 5.53427 4.21914 7.3227 4.21914 9.1875V14.1516C4.21847 14.4383 4.13014 14.718 3.96602 14.9531L2.76368 16.6828C2.58162 16.8845 2.46191 17.1347 2.41901 17.403C2.37611 17.6713 2.41186 17.9463 2.52194 18.1947C2.63202 18.4431 2.81171 18.6543 3.03929 18.8028C3.26687 18.9513 3.53258 19.0306 3.8043 19.0312H7.80508C7.96646 19.826 8.39763 20.5405 9.02553 21.0537C9.65343 21.5669 10.4394 21.8473 11.2504 21.8473C12.0613 21.8473 12.8474 21.5669 13.4753 21.0537C14.1032 20.5405 14.5343 19.826 14.6957 19.0312H18.6965C18.9682 19.0306 19.2339 18.9513 19.4615 18.8028C19.6891 18.6543 19.8688 18.4431 19.9789 18.1947C20.0889 17.9463 20.1247 17.6713 20.0818 17.403C20.0389 17.1347 19.9192 16.8845 19.7371 16.6828ZM11.2504 20.4375C10.8152 20.4363 10.391 20.3005 10.0361 20.0487C9.68107 19.797 9.41265 19.4416 9.26758 19.0312H13.2332C13.0881 19.4416 12.8197 19.797 12.4647 20.0487C12.1098 20.3005 11.6856 20.4363 11.2504 20.4375ZM3.8043 17.625C3.83608 17.5955 3.86439 17.5625 3.88868 17.5266L5.11915 15.7547C5.44739 15.2844 5.62404 14.7251 5.62539 14.1516V9.1875C5.62539 7.69566 6.21803 6.26492 7.27292 5.21002C8.32781 4.15513 9.75855 3.5625 11.2504 3.5625C12.7422 3.5625 14.173 4.15513 15.2279 5.21002C16.2828 6.26492 16.8754 7.69566 16.8754 9.1875V14.1516C16.8768 14.7251 17.0534 15.2844 17.3816 15.7547L18.6121 17.5266C18.6364 17.5625 18.6647 17.5955 18.6965 17.625H3.8043Z" fill="#131B4C"/>
</svg>
