<svg width="22" height="22" viewBox="0 0 22 22" fill="none" xmlns="http://www.w3.org/2000/svg">
<path d="M7.3335 20.4596C7.07683 20.4596 6.81098 20.3955 6.57264 20.2671C6.05014 19.9921 5.72933 19.4421 5.72933 18.8555V17.5539C2.961 17.2697 1.146 15.2346 1.146 12.3196V6.81966C1.146 3.66633 3.2635 1.54883 6.41683 1.54883H15.5835C18.7368 1.54883 20.8543 3.66633 20.8543 6.81966V12.3196C20.8543 15.473 18.7368 17.5905 15.5835 17.5905H12.1277L8.22264 20.1939C7.9568 20.368 7.64516 20.4596 7.3335 20.4596ZM6.41683 2.91465C4.05183 2.91465 2.521 4.44549 2.521 6.81049V12.3105C2.521 14.6755 4.05183 16.2064 6.41683 16.2064C6.79266 16.2064 7.10433 16.5181 7.10433 16.8939V18.8464C7.10433 18.9655 7.17766 19.0205 7.2235 19.048C7.26933 19.0756 7.36101 19.1031 7.46184 19.0389L11.541 16.3255C11.651 16.2522 11.7885 16.2064 11.926 16.2064H15.5927C17.9577 16.2064 19.4885 14.6755 19.4885 12.3105V6.81049C19.4885 4.44549 17.9577 2.91465 15.5927 2.91465H6.41683Z" fill="#131B4C"/>
<path d="M11.0001 11.1006C10.6243 11.1006 10.3126 10.7889 10.3126 10.4131V10.2206C10.3126 9.15728 11.0918 8.63477 11.3851 8.4331C11.7243 8.20394 11.8343 8.04811 11.8343 7.80978C11.8343 7.35145 11.4585 6.97559 11.0001 6.97559C10.5418 6.97559 10.166 7.35145 10.166 7.80978C10.166 8.18561 9.85431 8.49728 9.47848 8.49728C9.10268 8.49728 8.79102 8.18561 8.79102 7.80978C8.79102 6.59061 9.78098 5.60059 11.0001 5.60059C12.2193 5.60059 13.2093 6.59061 13.2093 7.80978C13.2093 8.85478 12.4393 9.37726 12.1551 9.56976C11.7976 9.80809 11.6876 9.96393 11.6876 10.2206V10.4131C11.6876 10.7981 11.376 11.1006 11.0001 11.1006Z" fill="#131B4C"/>
<path d="M11 13.3828C10.615 13.3828 10.3125 13.0711 10.3125 12.6953C10.3125 12.3195 10.6242 12.0078 11 12.0078C11.3758 12.0078 11.6875 12.3195 11.6875 12.6953C11.6875 13.0711 11.385 13.3828 11 13.3828Z" fill="#131B4C"/>
</svg>
