<svg width="26" height="12" viewBox="0 0 26 12" fill="none" xmlns="http://www.w3.org/2000/svg">
<path d="M0.838237 11.8099C0.707017 11.8099 0.461174 11.7904 0.285509 11.6604C0.164648 11.5708 0.0671798 11.4191 0.0186128 11.2446C-0.00778716 11.1493 -0.00589349 11.0466 0.0229571 10.9415C0.0401115 10.8789 0.066957 10.8155 0.102937 10.7525C0.127889 10.7088 0.157296 10.6652 0.190937 10.6222C0.250643 10.55 0.30478 10.494 0.360253 10.445C0.445022 10.3699 0.533022 10.311 0.64887 10.2354C0.762713 10.1614 0.9337 10.0679 1.09789 9.98102C1.15515 9.95072 1.21151 9.92119 1.26454 9.89367L1.2759 9.88766L1.2935 9.87841L1.3854 9.83061L1.43998 9.80198C1.47384 9.78415 1.5008 9.76967 1.51572 9.76087C1.51695 9.7602 1.51806 9.75909 1.51973 9.75853C1.72681 9.00893 2.12482 7.74258 2.70205 5.99359C2.85622 5.51283 2.97296 5.14672 3.06564 4.85504C3.16455 4.54352 3.23596 4.31713 3.29577 4.12705L3.29923 4.11625C3.3596 3.9235 3.40639 3.77565 3.45607 3.62056C3.52959 3.34726 3.62371 3.05981 3.70636 2.80589C3.73689 2.71253 3.76897 2.61404 3.79793 2.52179L3.81865 2.45516C3.8377 2.39288 3.85463 2.33516 3.86777 2.2857C3.39558 2.37071 2.35258 2.80589 2.29202 2.97257C2.19678 3.14482 2.03136 3.22637 1.84946 3.18983C1.57398 3.13513 1.31845 2.81737 1.28024 2.48134C1.23802 2.11 1.44956 1.79113 1.86026 1.60684C2.23721 1.42713 2.33646 1.38379 2.87081 1.18191C3.02598 1.12486 3.68754 0.929775 3.94764 0.859584C4.01782 0.842426 4.63827 0.69079 5.3005 0.58294C5.31476 0.5806 6.73935 0.345069 7.36738 0.411807C7.61724 0.433198 7.7567 0.480995 7.84203 0.521216C7.87255 0.535589 7.89616 0.54907 7.91543 0.5601L7.93771 0.573247C8.2006 0.751734 8.35911 0.999967 8.39965 1.29366C8.41848 1.41632 8.41269 1.55437 8.3825 1.70266L8.36713 1.76717C8.22911 2.17963 7.96957 2.30107 7.7763 2.33082C7.72495 2.33929 7.62681 2.34218 7.6052 2.34218C7.58348 2.3433 7.36616 2.34386 7.18024 2.08314C7.16164 2.06153 7.15017 2.03947 7.14226 2.02443L7.13925 2.01875C7.1329 2.00749 7.12666 1.9949 7.12031 1.98187L7.10494 1.94967C7.0537 1.8436 7.04735 1.8299 6.94075 1.82711H6.93689H6.93329C6.69546 1.82711 5.9136 1.948 5.7043 2.00905L5.69516 2.01128L5.68748 2.01362C5.5401 2.05629 5.49466 2.06944 5.44475 2.10431L5.43729 2.12715C5.42537 2.16537 5.41111 2.20871 5.39451 2.25606C5.366 2.34218 5.34038 2.44034 5.29816 2.6029C5.27688 2.6849 5.25104 2.78316 5.21863 2.90416C5.19033 3.00945 5.15691 3.13189 5.11681 3.27595C4.83967 4.20582 4.76325 4.44993 4.5955 4.98506L4.46584 5.3993C4.39978 5.61099 4.32002 5.86725 4.2191 6.19269C4.14692 6.40037 4.07752 6.60181 4.0108 6.79667L3.95444 6.96179L3.85441 7.25603C3.69177 7.73657 3.54763 8.16975 3.42153 8.54878L3.27851 8.97784C3.24052 9.0916 3.20521 9.197 3.17257 9.29359C3.16221 9.32713 3.15475 9.36178 3.14974 9.39175C3.14417 9.42451 3.14172 9.45158 3.14172 9.46528C3.44114 9.44712 3.69044 9.46072 3.9032 9.50807C3.9619 9.52355 4.01436 9.54116 4.06917 9.56511L4.07485 9.56745C4.29663 9.67408 4.43921 9.78816 4.51396 10.0563C4.56297 10.2195 4.53512 10.4653 4.38742 10.5977C4.21231 10.7522 3.96535 10.8144 3.77253 10.7522C3.4554 10.653 3.17825 10.597 2.49731 10.7859C1.99204 10.9257 1.75934 11.0768 1.55393 11.2097L1.50893 11.2388C1.42984 11.2899 1.37637 11.3426 1.33672 11.3945C1.29539 11.4486 1.26899 11.5017 1.24426 11.5514C1.23357 11.5731 1.22165 11.5973 1.2075 11.6218C1.19347 11.6462 1.17732 11.671 1.15804 11.694C1.10703 11.7551 1.03451 11.8048 0.922672 11.8064L0.905964 11.8077L0.889143 11.8083C0.875331 11.8089 0.858288 11.8092 0.838794 11.8092L0.838237 11.8099Z" fill="#131B4C"/>
<path d="M9.06071 10.4484C8.69046 10.6774 8.31433 10.8242 7.92057 10.877C7.48567 10.9416 7.12129 10.9064 6.83331 10.7772C6.54534 10.6481 6.32789 10.4367 6.17509 10.149C6.02228 9.86129 5.94001 9.51487 5.9165 9.098C5.89887 8.687 5.94001 8.22315 6.03992 7.72408C6.1457 7.21914 6.30438 6.6907 6.52771 6.12117C6.74516 5.55752 7.02138 4.98211 7.35049 4.40671C7.63259 3.90177 7.92057 3.42618 8.22029 2.97995C8.5259 2.52785 8.83738 2.12859 9.16062 1.78805C9.48386 1.4475 9.81885 1.16567 10.1656 0.948429C10.5123 0.731186 10.8708 0.607885 11.2528 0.578528C11.3998 0.566785 11.5526 0.596142 11.7171 0.678343C11.8817 0.760543 12.0227 0.877972 12.1579 1.0365C12.2931 1.19503 12.3989 1.39466 12.4811 1.62952C12.5634 1.86437 12.5987 2.13446 12.5811 2.43391C12.5693 2.70399 12.5047 3.00344 12.393 3.32637C12.2813 3.64929 12.1403 3.96635 11.9816 4.28341C11.8229 4.5946 11.6584 4.88817 11.4762 5.15239C11.2999 5.4166 11.1412 5.62797 11.0001 5.78063C10.9355 5.85109 10.8473 5.89806 10.7357 5.93329C10.624 5.96265 10.5065 5.98613 10.3772 5.99787C10.2479 6.00962 10.1186 6.00375 9.98928 5.99787C9.85999 5.98613 9.74832 5.96265 9.65429 5.92742C9.56026 5.89806 9.48973 5.85696 9.44859 5.81586C9.40745 5.76889 9.40158 5.72192 9.44272 5.67494C9.55438 5.58687 9.6778 5.4577 9.81297 5.28156C9.94814 5.10541 10.0892 4.90578 10.2361 4.68854C10.383 4.4713 10.53 4.23644 10.671 3.99571C10.8179 3.75498 10.9472 3.52599 11.0707 3.30875C11.1882 3.09738 11.294 2.90362 11.3763 2.73922C11.4585 2.57482 11.5173 2.45739 11.5467 2.38693C11.6525 2.12272 11.6701 1.93483 11.6055 1.81153C11.5408 1.68823 11.3998 1.6941 11.1823 1.82915C10.8062 2.064 10.4359 2.43391 10.0539 2.93298C9.67192 3.43205 9.28404 4.02507 8.8844 4.70028C8.74335 4.9234 8.58467 5.22871 8.39661 5.61036C8.20854 5.99787 8.03223 6.40888 7.85592 6.84336C7.67961 7.28372 7.5268 7.72408 7.39163 8.16444C6.88621 10.0668 7.75013 10.102 8.22029 9.92C8.23205 9.91413 8.56116 9.78496 8.57292 9.77909C10.0304 9.10974 9.42509 10.2194 9.06071 10.4484ZM7.52093 11.0532C7.23883 11.0532 6.98612 11.0062 6.77454 10.9064C6.45718 10.7655 6.21623 10.5306 6.04579 10.2136C5.88711 9.90826 5.79308 9.53836 5.76957 9.098C5.75194 8.67525 5.79308 8.19967 5.89887 7.68885C6.01053 7.16629 6.17509 6.62025 6.39254 6.06246C6.61586 5.49293 6.89209 4.90578 7.2212 4.32451C7.51505 3.79608 7.80302 3.32637 8.09688 2.88601C8.39661 2.43391 8.71984 2.02878 9.04896 1.67649C9.37219 1.33007 9.71894 1.04237 10.0774 0.813386C10.4418 0.584399 10.8297 0.455228 11.2293 0.419999C11.3998 0.402385 11.582 0.443485 11.77 0.537428C11.9463 0.6255 12.1109 0.754671 12.2578 0.930815C12.4047 1.10109 12.5164 1.31246 12.6046 1.56493C12.6927 1.8174 12.728 2.11098 12.7162 2.42803C12.7045 2.71573 12.6398 3.02692 12.5223 3.36159C12.4106 3.68452 12.2696 4.00745 12.105 4.33625C11.9346 4.6768 11.7641 4.9645 11.5937 5.22284C11.4115 5.49293 11.2528 5.7043 11.1059 5.8687C11.0178 5.96265 10.9061 6.02723 10.7709 6.06246C10.6475 6.09769 10.5182 6.12117 10.383 6.13292C10.2537 6.14466 10.1186 6.14466 9.97165 6.13292C9.82472 6.1153 9.70718 6.09182 9.6014 6.05659C9.47798 6.01549 9.38982 5.96265 9.33105 5.90393C9.23702 5.80412 9.23114 5.68082 9.3193 5.56926L9.33105 5.55164L9.34868 5.5399C9.44859 5.46357 9.56026 5.34614 9.69543 5.17587C9.8306 5.0056 9.96577 4.81184 10.1127 4.5946C10.2537 4.38323 10.3948 4.16011 10.5476 3.90764C10.7004 3.65517 10.8415 3.40857 10.9472 3.22655C11.0765 2.99169 11.1764 2.81555 11.2528 2.66289L11.2881 2.59243C11.3469 2.46913 11.3998 2.37519 11.4174 2.32235C11.5349 2.03465 11.5056 1.91722 11.482 1.87025C11.4762 1.86438 11.4762 1.8585 11.4762 1.8585C11.4762 1.8585 11.4233 1.84676 11.2705 1.9407C10.912 2.16382 10.5476 2.52198 10.1832 3.00344C9.81297 3.48489 9.42509 4.07791 9.02545 4.759C8.89028 4.97624 8.72572 5.28156 8.54353 5.6632C8.36134 6.0331 8.18503 6.43823 8.00284 6.88446C7.83241 7.31308 7.67373 7.75344 7.54444 8.1938C7.26234 9.25066 7.44453 9.61469 7.5797 9.73211C7.77364 9.90826 8.08512 9.80844 8.17916 9.77321C8.19679 9.76734 8.49651 9.64404 8.52002 9.6323C8.74335 9.53249 9.41921 9.21543 9.61315 9.57359C9.77183 9.87303 9.3957 10.3956 9.14299 10.56C8.76098 10.8007 8.35547 10.9534 7.94407 11.0062C7.79127 11.0414 7.65022 11.0532 7.52093 11.0532ZM11.3116 0.713571C11.294 0.713571 11.2764 0.713571 11.2646 0.713571C10.9061 0.742929 10.5711 0.860357 10.242 1.05999C9.907 1.27136 9.57789 1.54732 9.26641 1.87612C8.94317 2.21666 8.63169 2.61005 8.34371 3.05041C8.04986 3.48489 7.76776 3.94874 7.47979 4.4713C7.15655 5.04083 6.88621 5.61036 6.66876 6.16815C6.45719 6.70832 6.29263 7.23675 6.18684 7.74757C6.08693 8.24077 6.04579 8.687 6.06342 9.08626C6.08106 9.47964 6.16333 9.81431 6.30438 10.0785C6.43955 10.3369 6.63937 10.5248 6.89796 10.6422C7.15655 10.7596 7.49742 10.789 7.90293 10.7303C8.27319 10.6774 8.63756 10.5424 8.99019 10.3251C9.12536 10.2429 9.32518 9.97284 9.36044 9.7967C9.36632 9.74973 9.36044 9.73211 9.36044 9.72624C9.36044 9.72624 9.2429 9.63817 8.64932 9.90826C8.63169 9.91413 8.2967 10.055 8.29082 10.055C7.94407 10.1901 7.60321 10.1549 7.39163 9.9611C7.06252 9.66753 7.02138 9.05103 7.26822 8.12334C7.40339 7.67124 7.56207 7.21913 7.73838 6.78465C7.92644 6.32667 8.10275 5.92155 8.28494 5.54577C8.47888 5.15239 8.63756 4.84707 8.77861 4.61808C9.18413 3.93112 9.57789 3.33224 9.95402 2.83904C10.3478 2.32235 10.7298 1.95245 11.1177 1.69997C11.294 1.58842 11.4409 1.55319 11.5584 1.58255C11.6407 1.60603 11.7054 1.65887 11.7465 1.7352C11.8347 1.89373 11.8229 2.12859 11.6936 2.43391C11.6642 2.49849 11.6172 2.59831 11.5526 2.72748L11.5173 2.79793C11.435 2.95646 11.341 3.13848 11.2058 3.37334C11.1 3.56122 10.959 3.80195 10.8062 4.0603C10.6534 4.31277 10.5065 4.54175 10.3654 4.75313C10.2126 4.98211 10.0774 5.17587 9.93639 5.35789C9.81297 5.51642 9.70131 5.63972 9.59552 5.72779C9.61903 5.73953 9.65429 5.75714 9.70718 5.77476C9.78946 5.80412 9.89525 5.82173 10.0128 5.83934C10.1421 5.85109 10.2655 5.85109 10.3713 5.83934C10.483 5.8276 10.5946 5.80999 10.7063 5.78063C10.7886 5.75714 10.8532 5.72192 10.9002 5.66907C11.0354 5.52229 11.1882 5.31679 11.3586 5.05844C11.5232 4.81184 11.6877 4.53001 11.8523 4.20121C12.011 3.88415 12.1462 3.57297 12.2578 3.26178C12.3695 2.95646 12.4282 2.66876 12.44 2.41042C12.4518 2.12859 12.4224 1.87612 12.346 1.65887C12.2696 1.43576 12.1697 1.25962 12.0521 1.11283C11.9287 0.966044 11.7994 0.860357 11.6525 0.7899C11.5291 0.742929 11.4174 0.713571 11.3116 0.713571Z" fill="#131B4C"/>
<path d="M9.95829 7.98977C9.75677 8.04159 9.63585 8.03007 9.5207 7.96098C9.40554 7.89188 9.38827 7.88037 9.30766 7.77673C9.22129 7.67309 9.19826 7.60399 9.16372 7.4946C9.13493 7.39671 9.13493 7.33338 9.16372 7.28732C9.19251 7.24125 9.23281 7.22398 9.24432 7.21822C9.37675 7.14913 10.2059 6.97064 10.4822 6.88427C11.0753 6.72305 11.392 6.60214 11.6799 6.50426C11.8987 6.42365 12.175 6.32001 12.342 6.25667C12.3938 6.23364 12.4457 6.25092 12.509 6.30849C12.5666 6.36607 12.5781 6.47547 12.5378 6.62517C12.4284 7.05701 12.2959 7.51187 12.1405 7.98401C11.985 8.45615 11.8526 8.91101 11.749 9.3486C11.6453 9.78619 11.582 10.1892 11.5762 10.5577C11.5705 10.9262 11.6568 11.2199 11.8353 11.4444C11.7777 11.5826 11.6856 11.669 11.5532 11.7035C11.4208 11.7381 11.2826 11.7323 11.1386 11.6747C10.9947 11.6172 10.8565 11.525 10.7356 11.3811C10.6089 11.2429 10.5226 11.0644 10.4765 10.8399C10.4535 10.4886 10.4822 10.172 10.5744 9.88408C10.6723 9.59619 10.7932 9.31405 10.9486 9.03768C11.1041 8.76131 11.2711 8.47342 11.4438 8.18553C11.6223 7.89188 11.7777 7.56369 11.9102 7.18943L11.7605 7.48308C11.559 7.83431 11.3229 8.19705 11.058 8.56554C10.7932 8.93404 10.4995 9.27375 10.1828 9.59043C9.86617 9.90711 9.52646 10.1777 9.16947 10.4023C8.80673 10.6268 8.43824 10.7708 8.05246 10.8226C7.62639 10.8859 7.64366 10.2756 7.90852 10.028C8.66279 9.84377 9.45161 9.22193 9.59555 9.07799C10.4362 8.27766 10.5571 8.00128 10.7817 7.73067C10.5686 7.85734 9.95829 7.98977 9.95829 7.98977ZM11.3805 11.8648C11.2826 11.8648 11.1789 11.8475 11.0753 11.8072C10.9026 11.7438 10.7471 11.6287 10.6147 11.479C10.5226 11.3753 10.4362 11.2659 10.3786 11.1393C10.3268 11.0299 10.2865 10.9205 10.2692 10.7996C10.2404 10.598 10.2404 10.3159 10.3901 9.90135C10.4707 9.67679 11.2616 8.34895 11.797 7.57741C11.2334 8.43908 10.4419 9.52134 10.275 9.69983C9.95829 10.0338 9.60131 10.3044 9.23281 10.5347C8.8528 10.7708 8.46127 10.9205 8.05822 10.9781C7.8567 11.0068 7.69548 10.9262 7.61487 10.7593C7.49972 10.5174 7.58033 10.1374 7.79912 9.9359L7.82791 9.90711L7.86246 9.89559C8.59945 9.7171 9.37675 9.0895 9.48615 8.98586C9.95253 8.54251 10.1944 8.26038 10.3556 8.0531C10.1828 8.10492 10.0331 8.13947 9.99284 8.14523C9.75677 8.2028 9.60131 8.19129 9.44585 8.09916C9.31342 8.02431 9.28463 7.99552 9.19251 7.88037C9.08887 7.7537 9.06008 7.66733 9.02553 7.55217C9.0025 7.46581 8.97371 7.33914 9.03704 7.22974C9.08886 7.14337 9.15796 7.11458 9.18099 7.10307C9.26736 7.06276 9.50342 6.99943 9.8892 6.9073C10.1022 6.85548 10.3268 6.79791 10.4362 6.76336H10.4419C10.9544 6.62517 11.2538 6.51577 11.5186 6.42365L11.6971 6.36031C11.9044 6.28546 12.1347 6.1991 12.2787 6.14152C12.342 6.11273 12.4629 6.08394 12.6011 6.21637C12.699 6.31425 12.722 6.46971 12.6702 6.67123C12.5493 7.13186 12.4169 7.59248 12.2672 8.03583C12.1175 8.48493 11.985 8.9398 11.8814 9.38891C11.7777 9.82074 11.7202 10.218 11.7144 10.5693C11.7087 10.9032 11.7835 11.1623 11.9447 11.3581L11.9965 11.4272L11.962 11.5078C11.8871 11.6863 11.7547 11.8072 11.582 11.8475C11.5129 11.859 11.4496 11.8648 11.3805 11.8648ZM10.6032 10.8168C10.6435 11.0068 10.7183 11.1623 10.8277 11.2832C10.9314 11.4041 11.0523 11.4847 11.1789 11.5366C11.2941 11.5826 11.4035 11.5884 11.5071 11.5596C11.5705 11.5423 11.6223 11.5078 11.6568 11.4559C11.4899 11.2141 11.415 10.9147 11.4208 10.552C11.4265 10.1835 11.4899 9.76316 11.5993 9.31406C11.7087 8.85919 11.8411 8.39281 11.9965 7.93795C12.1405 7.50035 12.2729 7.04549 12.3938 6.59063C12.4226 6.46971 12.4111 6.41789 12.3996 6.41213C12.3938 6.40638 12.3881 6.40062 12.3823 6.39486C12.2326 6.4582 12.0023 6.53881 11.795 6.61941L11.6108 6.68275C11.3459 6.77487 11.0408 6.88427 10.5168 7.02822C10.3959 7.06852 10.1771 7.12034 9.95253 7.17792C9.70495 7.24125 9.36524 7.32186 9.3019 7.35641L9.29039 7.36217C9.28463 7.36793 9.27887 7.36793 9.27887 7.36793C9.27887 7.36217 9.27311 7.39096 9.29614 7.46005C9.32493 7.55793 9.34221 7.60399 9.4113 7.69036C9.48615 7.78249 9.48615 7.78249 9.58403 7.84006C9.65888 7.88613 9.73374 7.9034 9.91799 7.85734H9.92374C10.1483 7.80552 10.5571 7.69612 10.6838 7.61551L11.4611 7.11458L10.8795 7.81703C10.8277 7.88037 10.7817 7.9437 10.7298 8.0128C10.5629 8.24311 10.3325 8.55979 9.68192 9.17587C9.55525 9.29678 8.76067 9.94165 7.9661 10.1489C7.85094 10.2814 7.8164 10.5002 7.86822 10.6096C7.88549 10.6499 7.92004 10.6844 8.01216 10.6729C8.3749 10.6211 8.73188 10.4886 9.07735 10.2756C9.42282 10.0568 9.75677 9.78619 10.0677 9.48103C10.3728 9.18163 10.6607 8.84192 10.9256 8.47342C11.1905 8.11068 11.4208 7.7537 11.6165 7.40823L11.7662 7.12034L12.0311 7.2355C11.8929 7.61551 11.7317 7.96098 11.5532 8.26038C11.3574 8.57706 11.1962 8.85919 11.058 9.10678C10.9141 9.37163 10.7932 9.64225 10.6953 9.92438C10.6147 10.195 10.5801 10.4944 10.6032 10.8168Z" fill="#131B4C"/>
<path d="M16.7786 10.9613C16.7728 11.0937 16.721 11.2089 16.6231 11.301C16.5252 11.3931 16.4158 11.4737 16.2949 11.5313C16.174 11.5946 16.0473 11.6407 15.9207 11.6752C15.794 11.7098 15.6961 11.7271 15.627 11.7213C15.5522 11.7213 15.4946 11.6983 15.4543 11.658C15.414 11.6177 15.3852 11.5658 15.3622 11.5025C15.3391 11.4334 15.3161 11.3586 15.3103 11.278C15.3161 10.777 15.3391 10.2358 15.3794 9.65426C15.4197 9.15334 15.4888 8.57756 15.5752 7.91541C15.6616 7.25327 15.794 6.55082 15.9667 5.79655L15.9783 5.77928L16.1337 5.11138C16.2258 4.69682 16.318 4.32256 16.4216 3.98861C16.5195 3.65466 16.6231 3.33222 16.698 3.08464C16.5483 3.0904 16.3064 3.08464 16.007 3.09615C15.7134 3.10191 15.2528 3.12494 15.0109 3.14222C14.7749 3.15373 14.6309 3.171 14.5906 3.19404C14.4467 3.26313 14.343 3.33798 14.297 3.42435C14.2394 3.52223 14.2624 3.63738 14.3315 3.72375C14.343 3.74102 14.3603 3.75254 14.3891 3.76406L14.5273 3.81588C14.5791 3.83315 14.6021 3.85618 14.6079 3.89073C14.6079 3.92527 14.6079 3.9483 14.6021 3.97134C14.5388 4.17286 14.4524 4.32256 14.343 4.41468C14.2394 4.50681 14.1415 4.57014 14.0552 4.61045C13.94 4.65651 13.8479 4.65651 13.773 4.62196C13.6924 4.60469 13.606 4.57014 13.5139 4.51832C13.4218 4.4665 13.3297 4.40317 13.2491 4.31104C13.1627 4.22468 13.0878 4.12104 13.036 4.00012C12.9784 3.87921 12.9497 3.74678 12.9554 3.59708C12.9612 3.42435 12.9842 3.29192 13.013 3.18828C13.0303 3.13646 13.0821 3.03858 13.1742 2.88312C13.2663 2.73341 13.4333 2.58947 13.6751 2.45704C14.0379 2.26703 14.4064 2.19218 14.9303 2.10582C15.4601 2.01945 15.3507 2.03672 15.9207 1.99642C16.4907 1.95611 17.0607 1.91581 17.6307 1.89854C20.239 1.81793 20.1642 1.78338 20.6248 1.44367C21.1948 1.02335 21.1084 0.482122 21.2754 0.292115C21.3042 0.257568 21.333 0.234537 21.379 0.211506C21.4481 0.176959 21.5172 0.165444 21.5978 0.182717C21.6785 0.194233 21.7475 0.246053 21.8166 0.332419C21.8857 0.436059 21.9376 0.545457 21.9721 0.649097C22.0009 0.752737 22.0239 0.850619 22.0354 0.942744C22.047 1.04063 22.0527 1.14427 22.0527 1.24791C22.0066 1.64519 21.8166 1.97339 21.4827 2.22673C21.1487 2.48007 20.7399 2.68735 20.2505 2.8313C19.7611 2.981 18.7938 3.04433 18.2353 3.07312C18.2123 3.171 18.1662 3.29192 18.0914 3.42435C18.0223 3.55678 17.9359 3.73527 17.8438 3.95406C17.7516 4.17286 17.648 4.45499 17.5501 4.80046C17.458 5.11138 17.2507 5.92898 17.1759 6.39536C17.1644 6.48173 17.1586 6.56234 17.1413 6.6487C16.8765 8.163 16.7843 10.9095 16.7786 10.9613ZM15.6443 11.8422C15.6385 11.8422 15.6328 11.8422 15.6213 11.8422C15.5176 11.8422 15.4313 11.8077 15.3679 11.7386C15.3219 11.6868 15.2816 11.6234 15.2528 11.5486C15.224 11.468 15.201 11.3816 15.1894 11.2952V11.2895V11.2837C15.1952 10.777 15.2182 10.23 15.2585 9.65426C15.3046 9.14182 15.3679 8.55453 15.4543 7.90966C15.5407 7.25327 15.6731 6.5393 15.8458 5.77928L15.8516 5.762L15.8631 5.74473L16.0128 5.0941C16.0992 4.67954 16.197 4.29953 16.3007 3.95982C16.3755 3.71224 16.4504 3.46465 16.5137 3.25161L16.5252 3.20555C16.4849 3.20555 16.4446 3.20555 16.4043 3.20555C16.2834 3.20555 16.1452 3.20555 15.9955 3.21131C15.6961 3.21707 15.2413 3.2401 15.0052 3.25737C14.6885 3.27464 14.6309 3.29768 14.6252 3.29768C14.5043 3.35525 14.4179 3.41283 14.3833 3.47617C14.3488 3.53374 14.3718 3.60284 14.4064 3.64314C14.4064 3.6489 14.4121 3.6489 14.4179 3.65466L14.5503 3.70072C14.677 3.74102 14.7058 3.82163 14.7058 3.8677C14.7115 3.91376 14.7058 3.95406 14.7 3.98861V3.99437C14.6252 4.21892 14.533 4.38014 14.4064 4.48954C14.2912 4.58742 14.1876 4.65651 14.0897 4.70257C13.9458 4.76015 13.8248 4.76591 13.7212 4.71409C13.6348 4.69106 13.5427 4.65651 13.4506 4.60469C13.3469 4.54711 13.2491 4.47226 13.1569 4.38014C13.0591 4.28226 12.9784 4.1671 12.9209 4.04043C12.8575 3.908 12.823 3.75254 12.8287 3.58556C12.8345 3.40132 12.8575 3.25737 12.8921 3.14222C12.9036 3.10191 12.9381 3.02706 13.0648 2.81402C13.1685 2.64129 13.3469 2.48583 13.6118 2.34188C13.9745 2.15188 14.3315 2.07127 14.9073 1.97339L14.9361 1.96763C15.3564 1.89854 15.3564 1.89854 15.6904 1.8755C15.7479 1.86975 15.8228 1.86399 15.9092 1.85823L16.0416 1.84672C16.5598 1.81217 17.101 1.77186 17.625 1.75459C20.0778 1.67974 20.1181 1.65095 20.4924 1.36882L20.5499 1.32276C20.8954 1.06366 20.976 0.764253 21.0393 0.522426C21.0739 0.384239 21.1084 0.269084 21.1833 0.182717C21.2121 0.14817 21.2581 0.102108 21.3215 0.0733192C21.4078 0.027257 21.5057 0.0157414 21.6094 0.0330148C21.7188 0.0502881 21.8166 0.119381 21.903 0.228779L21.9088 0.234537C21.9894 0.349693 22.0412 0.464848 22.0757 0.585762C22.1103 0.700917 22.1276 0.804557 22.1448 0.896682C22.1621 1.00608 22.1679 1.11548 22.1621 1.22487V1.23639C22.1103 1.66247 21.903 2.01945 21.5518 2.29582C21.2121 2.56068 20.786 2.76796 20.2851 2.92342C19.8244 3.06161 18.9838 3.1307 18.3274 3.16525C18.2986 3.25161 18.2583 3.3495 18.195 3.45889C18.1259 3.59132 18.0395 3.76406 17.9474 3.98285C17.8553 4.19589 17.7574 4.47226 17.6538 4.81773C17.5559 5.15168 17.3544 5.95201 17.2795 6.39536C17.2738 6.43566 17.268 6.47597 17.2622 6.51627C17.2565 6.56234 17.2507 6.60264 17.245 6.6487C17.0953 7.52389 16.9686 9.01515 16.8937 10.8461L16.888 10.967C16.8822 11.1283 16.8189 11.2664 16.698 11.3816C16.5943 11.4852 16.4734 11.5658 16.341 11.6349C16.2086 11.6983 16.0761 11.7501 15.9437 11.7904C15.8228 11.8249 15.7249 11.8422 15.6443 11.8422ZM15.4255 11.2722C15.437 11.3413 15.4485 11.4046 15.4716 11.468C15.4888 11.514 15.5119 11.5543 15.5407 11.5831C15.5464 11.5889 15.5637 11.6119 15.627 11.6119C15.6673 11.6119 15.7422 11.6062 15.8861 11.5658C16.007 11.5313 16.1222 11.4852 16.2431 11.4277C16.3525 11.3701 16.4561 11.301 16.5425 11.2146C16.6001 11.157 16.6404 11.0937 16.6519 11.0131L16.6577 10.944C16.6577 10.9382 16.6577 10.9037 16.6634 10.8519C16.7383 9.00363 16.8649 7.4951 17.0204 6.60264C17.0262 6.56234 17.0319 6.52203 17.0377 6.48173C17.0434 6.43566 17.0492 6.39536 17.055 6.3493C17.1298 5.89443 17.3313 5.08259 17.435 4.74288C17.5386 4.3859 17.6422 4.10952 17.7344 3.88497C17.8323 3.66617 17.9129 3.48192 17.9877 3.34374C18.0568 3.21707 18.1029 3.10767 18.1201 3.0213L18.1374 2.93494L18.2238 2.92918C18.7593 2.90039 19.7323 2.83705 20.2102 2.68735C20.6824 2.54341 21.0854 2.34764 21.4021 2.10006C21.7072 1.86399 21.88 1.57034 21.926 1.20184C21.9318 1.10972 21.926 1.01184 21.9088 0.919713C21.8972 0.833346 21.88 0.746979 21.8512 0.637582C21.8224 0.545457 21.7821 0.453333 21.713 0.35545C21.6612 0.292115 21.6151 0.257568 21.5633 0.246053C21.5057 0.234537 21.4597 0.240295 21.4194 0.263326C21.3963 0.274841 21.3733 0.292115 21.3503 0.315146C21.31 0.35545 21.2869 0.453333 21.2581 0.56273C21.189 0.82183 21.0912 1.17881 20.6824 1.48398L20.6248 1.53004C20.1526 1.88702 19.9108 1.89278 17.625 1.96187C17.101 1.97914 16.5713 2.01369 16.0531 2.054L15.9207 2.06551C15.8343 2.07127 15.7652 2.07703 15.7019 2.08278C15.3794 2.10582 15.3794 2.10582 14.9706 2.16915L14.9419 2.17491C14.3949 2.26703 14.0552 2.34188 13.7212 2.51462C13.5024 2.63553 13.3469 2.7622 13.2663 2.90039C13.1512 3.0904 13.1224 3.15949 13.1166 3.18252C13.0878 3.27464 13.0706 3.40132 13.0648 3.56253C13.0648 3.6892 13.0878 3.81012 13.1339 3.91376C13.1857 4.0174 13.2491 4.11528 13.3239 4.19013C13.3988 4.27074 13.4794 4.32832 13.5657 4.37438C13.6464 4.42044 13.727 4.44923 13.7961 4.4665L13.8076 4.47226L13.8191 4.47802C13.8651 4.50105 13.9227 4.49529 14.0033 4.4665C14.0724 4.43772 14.1588 4.37438 14.2567 4.29377C14.343 4.21892 14.4179 4.09225 14.4755 3.91376C14.4755 3.91376 14.4755 3.908 14.4755 3.90224H14.4697L14.32 3.84466C14.2797 3.82739 14.2509 3.7986 14.2221 3.76981C14.1185 3.64314 14.1012 3.47041 14.1761 3.33798C14.2394 3.23434 14.3546 3.14222 14.5215 3.06161C14.5676 3.04433 14.654 3.0213 14.9822 3.00403C15.2182 2.99251 15.6788 2.96948 15.9783 2.95797C16.1337 2.95221 16.2719 2.95221 16.3928 2.95221C16.5022 2.95221 16.5943 2.95221 16.6692 2.94645L16.8304 2.94069L16.721 3.29192C16.6577 3.4992 16.5828 3.74678 16.508 3.99437C16.4101 4.32832 16.3122 4.70257 16.2258 5.11138L16.0704 5.80231L16.0589 5.81958C15.8919 6.56809 15.7595 7.27054 15.6731 7.91541C15.5867 8.56029 15.5176 9.14182 15.4773 9.64851C15.4543 10.2358 15.4313 10.777 15.4255 11.2722Z" fill="#131B4C"/>
<path d="M20.7855 11.4495C20.6727 11.3555 20.5788 11.2427 20.5036 11.1112C20.4284 10.9796 20.3846 10.823 20.3658 10.6413C20.347 10.4596 20.372 10.2968 20.4221 10.1464C20.4848 9.99605 20.56 9.87076 20.6602 9.77679C20.8356 9.60764 21.0236 9.51367 21.2303 9.49488C21.4433 9.47608 21.6187 9.47608 21.7691 9.48861C21.9194 9.5074 22.0635 9.53873 22.1951 9.58885C22.5146 9.71414 22.6837 9.92714 22.7088 10.2153C22.7401 10.5787 22.6524 10.8982 22.4394 11.1926C22.2389 11.462 22.0196 11.6186 21.7816 11.6625C21.5498 11.7063 21.3556 11.7063 21.199 11.6562C21.0424 11.6186 20.9045 11.5497 20.7855 11.4495ZM21.4746 11.794C21.3619 11.794 21.2616 11.7815 21.1676 11.7502C21.0048 11.7001 20.8544 11.6249 20.7291 11.5246C20.6038 11.4244 20.5036 11.2991 20.4221 11.1613C20.3407 11.0172 20.2906 10.8481 20.2718 10.6538C20.253 10.4596 20.2781 10.278 20.3344 10.1213C20.3971 9.95846 20.4848 9.82064 20.5913 9.7204C20.7792 9.53246 20.9922 9.43223 21.2178 9.41343C21.437 9.39464 21.6187 9.39464 21.7753 9.40717C21.9319 9.42596 22.0823 9.45729 22.2201 9.51367C22.5709 9.65776 22.7651 9.88955 22.7902 10.2153C22.8215 10.5975 22.7276 10.9483 22.502 11.2553C22.289 11.5434 22.051 11.7126 21.7879 11.7627C21.6814 11.7815 21.5686 11.794 21.4746 11.794ZM20.8419 11.3806C20.9484 11.4683 21.0799 11.5309 21.2178 11.5748C21.3619 11.6186 21.5373 11.6186 21.7565 11.581C21.9695 11.5434 22.17 11.3931 22.3579 11.1488C22.5521 10.8794 22.6399 10.5724 22.6085 10.2404C22.5835 9.98979 22.4394 9.80811 22.1575 9.69535C22.0384 9.64523 21.9006 9.6139 21.7628 9.60137C21.625 9.58885 21.4496 9.58885 21.2428 9.60764C21.0549 9.62643 20.8857 9.70788 20.7291 9.86449C20.6414 9.9522 20.5662 10.065 20.5161 10.2028C20.466 10.3343 20.4472 10.4847 20.466 10.6538C20.4785 10.8167 20.5224 10.9608 20.5913 11.0861C20.6477 11.1863 20.7354 11.2866 20.8419 11.3806Z" fill="#131B4C"/>
<path d="M21.7296 9.0638C21.6099 9.0638 21.4216 9.01246 21.2915 8.72496C21.2094 8.54355 21.1546 8.28 21.1204 7.92062C21.0383 6.9828 21.1786 5.75062 21.5414 4.25148C21.8631 2.9132 22.2739 1.82135 22.7633 1.00675C23.0508 0.530994 23.3486 0.240063 23.6772 0.116846C23.8449 0.0586599 24.0023 0.0244328 24.1461 0.010742C24.2898 -0.00294887 24.4233 -0.00294887 24.5363 0.00731925C24.6526 0.0175874 24.7622 0.044969 24.858 0.0826188C25.166 0.192145 25.2448 0.376972 25.255 0.51388C25.2687 0.671325 25.2242 0.84246 25.1181 1.02044C25.036 1.16077 24.9025 1.40378 24.7211 1.74263C24.5431 2.08148 24.3309 2.52986 24.0982 3.07407C23.5334 4.38496 22.9995 5.94572 22.5066 7.71183C22.4553 7.88639 22.4108 8.05068 22.3765 8.19444C22.3457 8.34161 22.3081 8.4751 22.2636 8.58805C22.1267 8.95085 21.9145 9.04327 21.757 9.05696C21.7536 9.06038 21.7433 9.0638 21.7296 9.0638ZM24.3651 0.376972C24.3069 0.376972 24.2453 0.380394 24.1803 0.38724C24.0674 0.397508 23.9407 0.42489 23.8072 0.472807C23.5676 0.561798 23.3246 0.808233 23.085 1.20527C22.6161 1.98564 22.2191 3.04326 21.9076 4.34389C21.5551 5.80196 21.4182 6.99649 21.4969 7.89324C21.5243 8.2047 21.5688 8.43403 21.6338 8.57436C21.6475 8.60174 21.692 8.69415 21.7331 8.69073C21.8186 8.68388 21.8837 8.56409 21.9213 8.46141C21.9555 8.36557 21.9898 8.2492 22.0206 8.11571C22.0582 7.96169 22.1027 7.79398 22.1541 7.61258C22.6504 5.83277 23.1911 4.2549 23.7627 2.92689C23.9989 2.37241 24.2145 1.91719 24.3994 1.56807C24.5842 1.21896 24.7177 0.975946 24.8032 0.828769C24.8683 0.722665 24.8957 0.626829 24.8888 0.548107C24.8854 0.493344 24.7793 0.452271 24.7348 0.435158L24.7279 0.431735C24.6629 0.407776 24.5876 0.390663 24.5055 0.380394C24.461 0.376972 24.4165 0.376972 24.3651 0.376972ZM21.7502 8.87555C21.514 8.89609 21.3668 8.57436 21.3087 7.90693C21.2265 6.98622 21.3668 5.78143 21.7262 4.29597C22.0445 2.96796 22.445 1.9035 22.9242 1.10259C23.1843 0.667902 23.4581 0.397508 23.7456 0.291404C23.8962 0.240063 24.0366 0.209259 24.1666 0.195568C24.3001 0.1853 24.4199 0.181877 24.5226 0.192145C24.6253 0.202414 24.7177 0.22295 24.7964 0.253754C24.971 0.315363 25.0634 0.407776 25.0736 0.527571C25.0839 0.647366 25.0462 0.777428 24.9641 0.921182C24.8785 1.06494 24.7451 1.30795 24.5636 1.65364C24.3822 1.99934 24.17 2.44771 23.9339 2.99877C23.3623 4.32678 22.8283 5.88069 22.332 7.66392C22.2807 7.8419 22.2362 8.00619 22.202 8.15336C22.1712 8.29712 22.1369 8.42033 22.0959 8.52644C22.0137 8.74549 21.8974 8.86186 21.7502 8.87555Z" fill="#131B4C"/>
</svg>
