<svg width="30" height="30" viewBox="0 0 30 30" fill="none" xmlns="http://www.w3.org/2000/svg">
<g opacity="0.5">
<path fill-rule="evenodd" clip-rule="evenodd" d="M15 25C20.5229 25 25 20.5229 25 15C25 9.47715 20.5229 5 15 5C9.47715 5 5 9.47715 5 15C5 20.5229 9.47715 25 15 25ZM26.25 15C26.25 21.2132 21.2132 26.25 15 26.25C8.7868 26.25 3.75 21.2132 3.75 15C3.75 8.7868 8.7868 3.75 15 3.75C21.2132 3.75 26.25 8.7868 26.25 15Z" fill="black"/>
<path fill-rule="evenodd" clip-rule="evenodd" d="M14.375 20.0011V12.5H15.625V20.0011H14.375Z" fill="black"/>
<path fill-rule="evenodd" clip-rule="evenodd" d="M14.375 11.2511V10H15.625V11.2511H14.375Z" fill="black"/>
</g>
</svg>
