<svg width="36" height="36" viewBox="0 0 36 36" fill="none" xmlns="http://www.w3.org/2000/svg">
<path fill-rule="evenodd" clip-rule="evenodd" d="M18 5.625C12.0168 5.625 7.125 10.5886 7.125 16.7633C7.125 19.8768 8.37034 23.325 10.4081 25.9876C12.4512 28.6574 15.1552 30.375 18 30.375C20.8448 30.375 23.5488 28.6574 25.5919 25.9876C27.6297 23.325 28.875 19.8768 28.875 16.7633C28.875 10.5886 23.9832 5.625 18 5.625ZM4.875 16.7633C4.875 9.39225 10.7284 3.375 18 3.375C25.2715 3.375 31.125 9.39225 31.125 16.7633C31.125 20.4225 29.6841 24.3428 27.3787 27.355C25.0787 30.3606 21.7827 32.625 18 32.625C14.2173 32.625 10.9214 30.3606 8.62131 27.355C6.31594 24.3428 4.875 20.4225 4.875 16.7633Z" fill="#1F2F40"/>
<path fill-rule="evenodd" clip-rule="evenodd" d="M13.125 15.75C13.125 13.0576 15.3077 10.875 18 10.875C20.6924 10.875 22.875 13.0576 22.875 15.75C22.875 18.4424 20.6924 20.625 18 20.625C15.3077 20.625 13.125 18.4424 13.125 15.75ZM18 13.125C16.5503 13.125 15.375 14.3003 15.375 15.75C15.375 17.1998 16.5503 18.375 18 18.375C19.4498 18.375 20.625 17.1998 20.625 15.75C20.625 14.3003 19.4498 13.125 18 13.125Z" fill="#2AB26E"/>
</svg>
