<svg width="24" height="24" viewBox="0 0 24 24" fill="none" xmlns="http://www.w3.org/2000/svg">
<path fill-rule="evenodd" clip-rule="evenodd" d="M12 3.75C8.01119 3.75 4.75 7.05908 4.75 11.1755C4.75 13.2512 5.58023 15.55 6.93875 17.3251C8.30078 19.1049 10.1035 20.25 12 20.25C13.8965 20.25 15.6992 19.1049 17.0613 17.3251C18.4198 15.55 19.25 13.2512 19.25 11.1755C19.25 7.05908 15.9888 3.75 12 3.75ZM3.25 11.1755C3.25 6.2615 7.15225 2.25 12 2.25C16.8477 2.25 20.75 6.2615 20.75 11.1755C20.75 13.615 19.7894 16.2285 18.2525 18.2367C16.7191 20.2404 14.5218 21.75 12 21.75C9.47822 21.75 7.28094 20.2404 5.74754 18.2367C4.21063 16.2285 3.25 13.615 3.25 11.1755Z" fill="white"/>
<path fill-rule="evenodd" clip-rule="evenodd" d="M8.75 10.5C8.75 8.70507 10.2051 7.25 12 7.25C13.7949 7.25 15.25 8.70507 15.25 10.5C15.25 12.2949 13.7949 13.75 12 13.75C10.2051 13.75 8.75 12.2949 8.75 10.5ZM12 8.75C11.0335 8.75 10.25 9.5335 10.25 10.5C10.25 11.4665 11.0335 12.25 12 12.25C12.9665 12.25 13.75 11.4665 13.75 10.5C13.75 9.5335 12.9665 8.75 12 8.75Z" fill="#2AB26E"/>
</svg>
