<svg width="24" height="24" viewBox="0 0 24 24" fill="none" xmlns="http://www.w3.org/2000/svg">
<path fill-rule="evenodd" clip-rule="evenodd" d="M12.84 3.84681C12.291 3.71512 11.716 3.71783 11.1685 3.85464L11.1001 3.87172C9.48655 4.27491 8.39355 5.66025 8.39355 7.20939V7.44547C8.39355 7.85968 8.05777 8.19547 7.64355 8.19547C7.22934 8.19547 6.89355 7.85968 6.89355 7.44547V7.20939C6.89355 4.93383 8.49273 2.97712 10.7365 2.41646L10.8048 2.39938C11.5865 2.20406 12.4063 2.20023 13.1899 2.38819C14.038 2.59164 14.8161 3.01323 15.4396 3.61147L15.695 3.8566C15.9939 4.14339 16.0037 4.61816 15.717 4.91704C15.4302 5.21592 14.9554 5.22572 14.6565 4.93894L14.401 4.69381C13.9733 4.28335 13.4342 3.98934 12.84 3.84681Z" fill="#B1BBC5"/>
<path fill-rule="evenodd" clip-rule="evenodd" d="M15.1945 8.35217C13.0883 7.92428 10.9117 7.92428 8.80551 8.35217L8.5294 8.40826C6.80831 8.7579 5.46296 10.0056 5.03001 11.6041C4.56861 13.3077 4.67942 15.1073 5.3477 16.7482L5.44059 16.9762C6.08337 18.5545 7.55582 19.7071 9.33056 19.9844L10.0793 20.1013C11.3513 20.3001 12.6486 20.3001 13.9207 20.1013L14.6694 19.9844C16.4442 19.7071 17.9166 18.5545 18.5594 16.9762L18.6523 16.7481C19.3206 15.1073 19.4314 13.3077 18.97 11.6041C18.5371 10.0056 17.1917 8.7579 15.4706 8.40826L15.1945 8.35217ZM8.50688 6.88219C10.8102 6.41427 13.1898 6.41427 15.4931 6.88219L15.7692 6.93829C18.02 7.39553 19.8296 9.04011 20.4178 11.212C20.9654 13.2337 20.8333 15.3698 20.0415 17.3139L19.9486 17.542C19.0989 19.6282 17.1732 21.1114 14.901 21.4664L14.1522 21.5834C12.7267 21.8061 11.2732 21.8061 9.84775 21.5834L9.09902 21.4664C6.8268 21.1114 4.90105 19.6282 4.05139 17.542L3.9585 17.3139C3.16669 15.3698 3.03461 13.2337 3.58218 11.212C4.1704 9.04012 5.98003 7.39553 8.23078 6.93829L8.50688 6.88219Z" fill="#B1BBC5"/>
<path fill-rule="evenodd" clip-rule="evenodd" d="M12 12.75C12.4142 12.75 12.75 13.0858 12.75 13.5V15.5C12.75 15.9142 12.4142 16.25 12 16.25C11.5858 16.25 11.25 15.9142 11.25 15.5V13.5C11.25 13.0858 11.5858 12.75 12 12.75Z" fill="#B1BBC5"/>
</svg>
