<svg width="82" height="82" viewBox="0 0 82 82" fill="none" xmlns="http://www.w3.org/2000/svg">
<path d="M29.4688 79.4375C30.1764 79.4375 30.75 78.8639 30.75 78.1562C30.75 77.4486 30.1764 76.875 29.4688 76.875C28.7611 76.875 28.1875 77.4486 28.1875 78.1562C28.1875 78.8639 28.7611 79.4375 29.4688 79.4375Z" fill="#9095AE"/>
<path d="M67.7525 56.0547H63.7025C63.3983 55.3859 62.9081 54.8188 62.2903 54.4212C61.6726 54.0235 60.9534 53.812 60.2188 53.812C59.4841 53.812 58.7649 54.0235 58.1472 54.4212C57.5294 54.8188 57.0392 55.3859 56.735 56.0547H54.3007C51.7946 56.0547 49.3911 55.0591 47.6191 53.2871C45.847 51.515 44.8514 49.1116 44.8514 46.6055C44.8514 44.0994 45.847 41.6959 47.6191 39.9239C49.3911 38.1518 51.7946 37.1562 54.3007 37.1562H56.375C56.7148 37.1562 57.0407 37.0213 57.281 36.781C57.5213 36.5407 57.6562 36.2148 57.6562 35.875C57.6562 35.5352 57.5213 35.2093 57.281 34.969C57.0407 34.7287 56.7148 34.5938 56.375 34.5938H54.2994C52.722 34.5937 51.16 34.9044 49.7027 35.5081C48.2454 36.1117 46.9212 36.9965 45.8058 38.1119C44.6904 39.2273 43.8056 40.5515 43.202 42.0088C42.5983 43.4661 42.2877 45.0281 42.2877 46.6055C42.2877 48.1829 42.5983 49.7448 43.202 51.2022C43.8056 52.6595 44.6904 53.9836 45.8058 55.099C46.9212 56.2144 48.2454 57.0992 49.7027 57.7028C51.16 58.3065 52.722 58.6172 54.2994 58.6172H56.5121C56.7216 59.4413 57.1998 60.1721 57.871 60.6941C58.5423 61.2161 59.3684 61.4995 60.2188 61.4995C61.0691 61.4995 61.8952 61.2161 62.5665 60.6941C63.2377 60.1721 63.7159 59.4413 63.9254 58.6172H67.7525C70.1736 58.6172 72.4956 59.579 74.2076 61.291C75.9196 63.003 76.8814 65.325 76.8814 67.7461C76.8814 70.1672 75.9196 72.4892 74.2076 74.2012C72.4956 75.9132 70.1736 76.875 67.7525 76.875H34.5938C34.2539 76.875 33.928 77.01 33.6878 77.2503C33.4475 77.4905 33.3125 77.8164 33.3125 78.1562C33.3125 78.4961 33.4475 78.822 33.6878 79.0622C33.928 79.3025 34.2539 79.4375 34.5938 79.4375H67.7525C70.8533 79.4375 73.827 78.2057 76.0196 76.0132C78.2121 73.8206 79.4439 70.8468 79.4439 67.7461C79.4439 64.6453 78.2121 61.6716 76.0196 59.479C73.827 57.2865 70.8533 56.0547 67.7525 56.0547ZM60.2188 58.9375C59.9653 58.9375 59.7176 58.8624 59.5069 58.7216C59.2962 58.5808 59.132 58.3807 59.035 58.1466C58.9381 57.9124 58.9127 57.6548 58.9621 57.4063C59.0116 57.1578 59.1336 56.9295 59.3128 56.7503C59.492 56.5711 59.7203 56.4491 59.9688 56.3996C60.2173 56.3502 60.4749 56.3756 60.7091 56.4725C60.9432 56.5695 61.1433 56.7337 61.2841 56.9444C61.4249 57.1551 61.5 57.4028 61.5 57.6562C61.5 57.9961 61.365 58.322 61.1247 58.5622C60.8845 58.8025 60.5586 58.9375 60.2188 58.9375Z" fill="#9095AE"/>
<path d="M39.7188 54.4622C39.7192 51.1237 38.82 47.8468 37.1157 44.9761C35.4115 42.1054 32.9652 39.7469 30.0341 38.1488C27.1029 36.5507 23.7954 35.7719 20.4591 35.8943C17.1229 36.0168 13.8813 37.036 11.0753 38.8447C8.26922 40.6535 6.00241 43.1849 4.51323 46.1729C3.02404 49.1608 2.3675 52.4948 2.61267 55.8243C2.85783 59.1537 3.99563 62.3556 5.90642 65.0932C7.8172 67.8308 10.4304 70.0029 13.4711 71.3811L18.0003 77.8014C18.3586 78.2991 18.8301 78.7044 19.3759 78.984C19.9217 79.2635 20.5261 79.4093 21.1394 79.4093C21.7526 79.4093 22.357 79.2635 22.9028 78.984C23.4486 78.7044 23.9201 78.2991 24.2784 77.8014L28.8076 71.3811C32.0608 69.9089 34.8204 67.5299 36.7556 64.529C38.6909 61.5282 39.7197 58.0329 39.7188 54.4622ZM27.4623 69.1748C27.245 69.2685 27.0578 69.4206 26.9216 69.6142L22.181 76.3241C22.0583 76.4851 21.9002 76.6155 21.7188 76.7053C21.5375 76.7951 21.3379 76.8418 21.1355 76.8418C20.9331 76.8418 20.7335 76.7951 20.5522 76.7053C20.3708 76.6155 20.2127 76.4851 20.09 76.3241L15.3494 69.6142C15.2132 69.4206 15.0261 69.2685 14.8087 69.1748C11.4208 67.7193 8.63882 65.1394 6.93257 61.8706C5.22631 58.6017 4.70026 54.8443 5.44324 51.2326C6.18621 47.6209 8.15269 44.3761 11.0107 42.0462C13.8686 39.7163 17.443 38.444 21.1304 38.444C24.8177 38.444 28.3921 39.7163 31.2501 42.0462C34.1081 44.3761 36.0746 47.6209 36.8175 51.2326C37.5605 54.8443 37.0344 58.6017 35.3282 61.8706C33.6219 65.1394 30.84 67.7193 27.4521 69.1748H27.4623Z" fill="#9095AE"/>
<path d="M21.1406 42.9219C18.86 42.9219 16.6305 43.5982 14.7342 44.8652C12.8379 46.1323 11.3599 47.9332 10.4871 50.0403C9.61437 52.1474 9.38601 54.4659 9.83095 56.7028C10.2759 58.9396 11.3741 60.9943 12.9868 62.6069C14.5995 64.2196 16.6542 65.3179 18.891 65.7628C21.1278 66.2077 23.4464 65.9794 25.5534 65.1066C27.6605 64.2338 29.4614 62.7559 30.7285 60.8595C31.9956 58.9632 32.6719 56.7338 32.6719 54.4531C32.6685 51.3959 31.4525 48.4648 29.2907 46.303C27.1289 44.1413 24.1979 42.9253 21.1406 42.9219ZM21.1406 63.4219C19.3668 63.4219 17.6328 62.8959 16.1579 61.9104C14.683 60.9249 13.5334 59.5241 12.8546 57.8853C12.1758 56.2465 11.9982 54.4432 12.3442 52.7034C12.6903 50.9636 13.5445 49.3656 14.7988 48.1113C16.0531 46.857 17.6511 46.0028 19.3909 45.6567C21.1307 45.3106 22.934 45.4883 24.5728 46.1671C26.2116 46.8459 27.6124 47.9955 28.5979 49.4704C29.5834 50.9453 30.1094 52.6793 30.1094 54.4531C30.1063 56.8308 29.1604 59.1103 27.4791 60.7916C25.7978 62.4729 23.5184 63.4188 21.1406 63.4219Z" fill="#34BD79"/>
<path d="M64.0628 2.5625C60.4631 2.56929 56.9799 3.83893 54.2201 6.15017C51.4604 8.46141 49.5991 11.6677 48.9606 15.2104C48.3221 18.753 48.9469 22.4074 50.7261 25.5367C52.5053 28.666 55.3261 31.0718 58.697 32.3349L60.9648 35.5508C61.3185 36.0419 61.7839 36.4418 62.3225 36.7177C62.8612 36.9935 63.4577 37.1374 64.0628 37.1374C64.668 37.1374 65.2645 36.9935 65.8032 36.7177C66.3418 36.4418 66.8072 36.0419 67.1609 35.5508L69.4287 32.3349C72.7996 31.0718 75.6204 28.666 77.3996 25.5367C79.1788 22.4074 79.8036 18.753 79.1651 15.2104C78.5266 11.6677 76.6653 8.46141 73.9055 6.15017C71.1458 3.83893 67.6626 2.56929 64.0628 2.5625ZM68.2013 30.053C67.9456 30.1403 67.7241 30.3063 67.5683 30.5271L65.0661 34.0813C64.948 34.2351 64.7961 34.3598 64.6221 34.4455C64.4482 34.5313 64.2568 34.5759 64.0628 34.5759C63.8689 34.5759 63.6775 34.5313 63.5036 34.4455C63.3296 34.3598 63.1777 34.2351 63.0596 34.0813L60.5573 30.5335C60.4016 30.3127 60.1801 30.1467 59.9244 30.0594C57.0526 29.0793 54.6219 27.1117 53.0651 24.507C51.5082 21.9023 50.9264 18.8297 51.4232 15.8362C51.92 12.8426 53.4631 10.1226 55.7777 8.16037C58.0924 6.19817 61.0284 5.12117 64.0628 5.12117C67.0973 5.12117 70.0333 6.19817 72.3479 8.16037C74.6626 10.1226 76.2057 12.8426 76.7025 15.8362C77.1992 18.8297 76.6174 21.9023 75.0606 24.507C73.5038 27.1117 71.0731 29.0793 68.2013 30.0594V30.053Z" fill="#9095AE"/>
<path d="M64.0625 8.96875C62.2887 8.96875 60.5546 9.49476 59.0797 10.4803C57.6048 11.4658 56.4553 12.8665 55.7765 14.5053C55.0976 16.1441 54.92 17.9474 55.2661 19.6872C55.6121 21.427 56.4663 23.0251 57.7206 24.2794C58.9749 25.5337 60.573 26.3879 62.3128 26.7339C64.0526 27.08 65.8559 26.9024 67.4947 26.2235C69.1335 25.5447 70.5342 24.3952 71.5197 22.9203C72.5052 21.4454 73.0313 19.7114 73.0313 17.9375C73.0282 15.5598 72.0823 13.2803 70.401 11.599C68.7197 9.9177 66.4402 8.9718 64.0625 8.96875ZM64.0625 24.3438C62.7955 24.3438 61.5569 23.968 60.5034 23.2641C59.4499 22.5602 58.6288 21.5597 58.1439 20.3891C57.659 19.2185 57.5322 17.9304 57.7793 16.6877C58.0265 15.445 58.6367 14.3035 59.5326 13.4076C60.4285 12.5117 61.57 11.9015 62.8127 11.6543C64.0554 11.4072 65.3435 11.534 66.5141 12.0189C67.6847 12.5038 68.6852 13.3249 69.3891 14.3784C70.093 15.4319 70.4688 16.6705 70.4688 17.9375C70.4667 19.6359 69.7911 21.2642 68.5902 22.4652C67.3892 23.6661 65.7609 24.3417 64.0625 24.3438Z" fill="#34BD79"/>
<path d="M24.9155 52.2818V51.0492C24.8147 49.1841 23.2209 47.7538 21.3558 47.8546C19.6316 47.9478 18.2544 49.325 18.1612 51.0492V52.2719C17.5451 52.5773 17.1609 53.2113 17.1752 53.8988V58.3557C17.1642 59.3358 17.9499 60.1393 18.9301 60.1503C18.9433 60.1504 18.9566 60.1504 18.9698 60.1503H24.2056C25.1944 60.1448 25.9947 59.3445 26.0002 58.3557V53.9186C25.9956 53.206 25.5699 52.5637 24.9155 52.2818ZM19.1472 51.0492C19.1526 49.7298 20.2238 48.663 21.5433 48.663C22.8627 48.663 23.9339 49.7298 23.9393 51.0492V52.1043H19.1472V51.0492ZM24.1759 59.1642H18.9303C18.4838 59.1642 18.1218 58.8022 18.1218 58.3557V53.9186C18.1107 53.4831 18.4548 53.1211 18.8904 53.1101C18.9037 53.1097 18.917 53.1097 18.9303 53.1101H24.1661C24.6126 53.1101 24.9746 53.4721 24.9746 53.9186L24.9845 58.3557C24.9845 58.8022 24.6225 59.1642 24.1759 59.1642Z" fill="#9095AE"/>
<path d="M21.5429 54.6778C21.1023 54.683 20.745 55.036 20.7344 55.4765C20.739 55.7209 20.8552 55.9498 21.0499 56.0977V57.0837C21.0499 57.356 21.2707 57.5767 21.5429 57.5767C21.8152 57.5767 22.036 57.356 22.036 57.0837V56.0977C22.2383 55.9508 22.3591 55.7166 22.3614 55.4666C22.3506 55.0239 21.9857 54.6723 21.5429 54.6778Z" fill="#9095AE"/>
</svg>
