<svg width="26" height="26" viewBox="0 0 26 26" fill="none" xmlns="http://www.w3.org/2000/svg">
<path d="M9.87985 14.4191C9.19735 14.4191 8.51484 14.1699 7.97317 13.6608C6.25067 12.0249 5.55737 10.2266 5.96904 8.47164C6.3807 6.6733 7.95152 5.45996 9.87985 5.45996C11.8081 5.45996 13.3791 6.6733 13.7907 8.47164C14.1916 10.2375 13.4981 12.0249 11.7756 13.6608C11.2448 14.1591 10.5623 14.4191 9.87985 14.4191ZM7.55069 8.82913C7.20403 10.3025 8.20068 11.6242 9.09985 12.48C9.54402 12.9024 10.2265 12.9024 10.6598 12.48C11.5481 11.635 12.5448 10.3133 12.209 8.82913C11.9165 7.53996 10.7682 7.07413 9.87985 7.07413C8.99152 7.07413 7.85403 7.53996 7.55069 8.82913Z" fill="#2AB26E"/>
<path d="M9.91243 10.2809C9.3166 10.2809 8.8291 9.79342 8.8291 9.19759C8.8291 8.60176 9.30577 8.11426 9.91243 8.11426H9.92328C10.5191 8.11426 11.0066 8.60176 11.0066 9.19759C11.0066 9.79342 10.5083 10.2809 9.91243 10.2809Z" fill="#2AB26E"/>
<path d="M22.0789 22.8895C21.8622 22.8895 21.6564 22.8029 21.5047 22.6512L14.593 15.7395C14.2789 15.4254 14.2789 14.9054 14.593 14.5912L22.9673 6.21704C23.1732 6.01121 23.4872 5.93537 23.7689 6.01121C24.0505 6.09787 24.2672 6.32537 24.3322 6.60704C24.538 7.52787 24.6464 8.55704 24.6464 9.74871V16.2487C24.6464 19.2495 24.018 21.2754 22.653 22.6512C22.5014 22.8029 22.2739 22.8354 22.0789 22.8895ZM16.3155 15.1654L22.0139 20.8637C22.6964 19.8129 23.0214 18.3179 23.0214 16.2487V9.74871C23.0214 9.30454 23.0105 8.89287 22.978 8.50287L16.3155 15.1654Z" fill="#2AB26E"/>
<path d="M6.79281 24.3527C6.72781 24.3527 6.67367 24.3418 6.60867 24.331C3.02284 23.5077 1.35449 20.9402 1.35449 16.2493V9.74935C1.35449 3.86685 3.86783 1.35352 9.75033 1.35352H16.2503C20.9412 1.35352 23.5087 3.02186 24.332 6.60769C24.397 6.87853 24.3103 7.17102 24.1153 7.36602L7.36698 24.1143C7.21531 24.266 7.00948 24.3527 6.79281 24.3527ZM9.75033 2.97852C4.75616 2.97852 2.97949 4.75518 2.97949 9.74935V16.2493C2.97949 20.0085 4.0195 21.8935 6.54367 22.641L22.6312 6.55352C21.8945 4.02935 19.9987 2.98934 16.2395 2.98934H9.75033V2.97852Z" fill="#2AB26E"/>
<path d="M16.2504 24.6454H9.75041C8.55875 24.6454 7.54041 24.5479 6.60875 24.3312C6.31625 24.2662 6.08872 24.0496 6.01289 23.7679C5.92622 23.4862 6.0129 23.1829 6.21873 22.9662L14.5929 14.5921C14.9071 14.2779 15.4271 14.2779 15.7413 14.5921L22.6529 21.5037C22.8046 21.6554 22.8913 21.8612 22.8913 22.0779C22.8913 22.2946 22.8046 22.5004 22.6529 22.6521C21.2771 24.0171 19.2513 24.6454 16.2504 24.6454ZM8.50458 22.9771C8.89458 23.0096 9.30625 23.0204 9.75041 23.0204H16.2504C18.3304 23.0204 19.8146 22.6954 20.8654 22.0129L15.1671 16.3146L8.50458 22.9771Z" fill="#2AB26E"/>
</svg>
