<svg width="36" height="36" viewBox="0 0 36 36" fill="none" xmlns="http://www.w3.org/2000/svg">
<path fill-rule="evenodd" clip-rule="evenodd" d="M12.2181 4.90616C11.7611 4.87499 11.2046 4.87499 10.5379 4.875H10.4621C9.79544 4.87499 9.23888 4.87499 8.78196 4.90616C8.30631 4.93862 7.85702 5.00858 7.42143 5.189C6.41069 5.60766 5.60766 6.41069 5.189 7.42143C5.00858 7.85702 4.93862 8.30631 4.90616 8.78196C4.87499 9.23888 4.87499 9.79542 4.875 10.4621V10.5379C4.87499 11.2046 4.87499 11.7611 4.90616 12.2181C4.93862 12.6937 5.00858 13.143 5.189 13.5786C5.60766 14.5893 6.41069 15.3924 7.42143 15.8111C7.85702 15.9915 8.30631 16.0614 8.78196 16.0938C9.23888 16.125 9.79542 16.125 10.4621 16.125H10.5379C11.2046 16.125 11.7611 16.125 12.2181 16.0938C12.6937 16.0614 13.143 15.9915 13.5786 15.8111C14.5893 15.3924 15.3924 14.5893 15.8111 13.5786C15.9915 13.143 16.0614 12.6937 16.0938 12.2181C16.125 11.7611 16.125 11.2046 16.125 10.5379V10.4621C16.125 9.79542 16.125 9.23888 16.0938 8.78196C16.0614 8.30631 15.9915 7.85702 15.8111 7.42143C15.3924 6.41069 14.5893 5.60766 13.5786 5.189C13.143 5.00858 12.6937 4.93862 12.2181 4.90616ZM8.28248 7.26773C8.3982 7.21979 8.57403 7.17558 8.93511 7.15094C9.30632 7.12562 9.7857 7.125 10.5 7.125C11.2143 7.125 11.6937 7.12562 12.0649 7.15094C12.426 7.17558 12.6018 7.21979 12.7175 7.26773C13.177 7.45803 13.542 7.82304 13.7323 8.28248C13.7802 8.3982 13.8244 8.57403 13.8491 8.93511C13.8744 9.30632 13.875 9.7857 13.875 10.5C13.875 11.2143 13.8744 11.6937 13.8491 12.0649C13.8244 12.426 13.7802 12.6018 13.7323 12.7175C13.542 13.177 13.177 13.542 12.7175 13.7323C12.6018 13.7802 12.426 13.8244 12.0649 13.8491C11.6937 13.8744 11.2143 13.875 10.5 13.875C9.7857 13.875 9.30632 13.8744 8.93511 13.8491C8.57403 13.8244 8.3982 13.7802 8.28248 13.7323C7.82304 13.542 7.45803 13.177 7.26773 12.7175C7.21979 12.6018 7.17558 12.426 7.15094 12.0649C7.12562 11.6937 7.125 11.2143 7.125 10.5C7.125 9.7857 7.12562 9.30632 7.15094 8.93511C7.17558 8.57403 7.21979 8.3982 7.26773 8.28248C7.45803 7.82304 7.82304 7.45803 8.28248 7.26773Z" fill="#1F2F40"/>
<path d="M26.625 6C26.625 5.37868 26.1213 4.875 25.5 4.875C24.8787 4.875 24.375 5.37868 24.375 6V9.375H21C20.3787 9.375 19.875 9.87868 19.875 10.5C19.875 11.1213 20.3787 11.625 21 11.625H24.375V15C24.375 15.6213 24.8787 16.125 25.5 16.125C26.1213 16.125 26.625 15.6213 26.625 15V11.625H30C30.6213 11.625 31.125 11.1213 31.125 10.5C31.125 9.87868 30.6213 9.375 30 9.375H26.625V6Z" fill="#2AB26E"/>
<path fill-rule="evenodd" clip-rule="evenodd" d="M12.2181 19.9062C11.7611 19.875 11.2046 19.875 10.5379 19.875H10.4621C9.79542 19.875 9.23888 19.875 8.78196 19.9062C8.30631 19.9386 7.85702 20.0085 7.42143 20.189C6.41069 20.6076 5.60766 21.4107 5.189 22.4214C5.00858 22.857 4.93862 23.3062 4.90616 23.7819C4.87499 24.2388 4.87499 24.7955 4.875 25.4621V25.5379C4.87499 26.2045 4.87499 26.7612 4.90616 27.2181C4.93862 27.6937 5.00858 28.143 5.189 28.5786C5.60766 29.5893 6.41069 30.3924 7.42143 30.8111C7.85702 30.9915 8.30631 31.0614 8.78196 31.0938C9.23888 31.125 9.79542 31.125 10.4621 31.125H10.5379C11.2046 31.125 11.7611 31.125 12.2181 31.0938C12.6937 31.0614 13.143 30.9915 13.5786 30.8111C14.5893 30.3924 15.3924 29.5893 15.8111 28.5786C15.9915 28.143 16.0614 27.6937 16.0938 27.2181C16.125 26.7612 16.125 26.2045 16.125 25.5379V25.4621C16.125 24.7955 16.125 24.2388 16.0938 23.7819C16.0614 23.3062 15.9915 22.857 15.8111 22.4214C15.3924 21.4107 14.5893 20.6076 13.5786 20.189C13.143 20.0085 12.6937 19.9386 12.2181 19.9062ZM8.28248 22.2678C8.3982 22.2198 8.57403 22.1755 8.93511 22.1509C9.30632 22.1256 9.7857 22.125 10.5 22.125C11.2143 22.125 11.6937 22.1256 12.0649 22.1509C12.426 22.1755 12.6018 22.2198 12.7175 22.2678C13.177 22.458 13.542 22.8231 13.7323 23.2824C13.7802 23.3982 13.8244 23.574 13.8491 23.9351C13.8744 24.3063 13.875 24.7857 13.875 25.5C13.875 26.2143 13.8744 26.6937 13.8491 27.065C13.8244 27.426 13.7802 27.6018 13.7323 27.7176C13.542 28.1769 13.177 28.542 12.7175 28.7323C12.6018 28.7802 12.426 28.8245 12.0649 28.8491C11.6937 28.8744 11.2143 28.875 10.5 28.875C9.7857 28.875 9.30632 28.8744 8.93511 28.8491C8.57403 28.8245 8.3982 28.7802 8.28248 28.7323C7.82304 28.542 7.45803 28.1769 7.26773 27.7176C7.21979 27.6018 7.17558 27.426 7.15094 27.065C7.12562 26.6937 7.125 26.2143 7.125 25.5C7.125 24.7857 7.12562 24.3063 7.15094 23.9351C7.17558 23.574 7.21979 23.3982 7.26773 23.2824C7.45803 22.8231 7.82304 22.458 8.28248 22.2678Z" fill="#1F2F40"/>
<path fill-rule="evenodd" clip-rule="evenodd" d="M27.2181 19.9062C26.7612 19.875 26.2045 19.875 25.5379 19.875H25.4621C24.7955 19.875 24.2388 19.875 23.7819 19.9062C23.3062 19.9386 22.857 20.0085 22.4214 20.189C21.4107 20.6076 20.6076 21.4107 20.189 22.4214C20.0085 22.857 19.9386 23.3062 19.9062 23.7819C19.875 24.2388 19.875 24.7955 19.875 25.4621V25.5379C19.875 26.2045 19.875 26.7612 19.9062 27.2181C19.9386 27.6937 20.0085 28.143 20.189 28.5786C20.6076 29.5893 21.4107 30.3924 22.4214 30.8111C22.857 30.9915 23.3062 31.0614 23.7819 31.0938C24.2388 31.125 24.7955 31.125 25.4621 31.125H25.5379C26.2045 31.125 26.7612 31.125 27.2181 31.0938C27.6937 31.0614 28.143 30.9915 28.5786 30.8111C29.5893 30.3924 30.3924 29.5893 30.8111 28.5786C30.9915 28.143 31.0614 27.6937 31.0938 27.2181C31.125 26.7612 31.125 26.2045 31.125 25.5379V25.4621C31.125 24.7955 31.125 24.2388 31.0938 23.7819C31.0614 23.3062 30.9915 22.857 30.8111 22.4214C30.3924 21.4107 29.5893 20.6076 28.5786 20.189C28.143 20.0085 27.6937 19.9386 27.2181 19.9062ZM23.2824 22.2678C23.3982 22.2198 23.574 22.1755 23.9351 22.1509C24.3063 22.1256 24.7857 22.125 25.5 22.125C26.2143 22.125 26.6937 22.1256 27.065 22.1509C27.426 22.1755 27.6018 22.2198 27.7176 22.2678C28.1769 22.458 28.542 22.8231 28.7323 23.2824C28.7802 23.3982 28.8245 23.574 28.8491 23.9351C28.8744 24.3063 28.875 24.7857 28.875 25.5C28.875 26.2143 28.8744 26.6937 28.8491 27.065C28.8245 27.426 28.7802 27.6018 28.7323 27.7176C28.542 28.1769 28.1769 28.542 27.7176 28.7323C27.6018 28.7802 27.426 28.8245 27.065 28.8491C26.6937 28.8744 26.2143 28.875 25.5 28.875C24.7857 28.875 24.3063 28.8744 23.9351 28.8491C23.574 28.8245 23.3982 28.7802 23.2824 28.7323C22.8231 28.542 22.458 28.1769 22.2678 27.7176C22.2198 27.6018 22.1755 27.426 22.1509 27.065C22.1256 26.6937 22.125 26.2143 22.125 25.5C22.125 24.7857 22.1256 24.3063 22.1509 23.9351C22.1755 23.574 22.2198 23.3982 22.2678 23.2824C22.458 22.8231 22.8231 22.458 23.2824 22.2678Z" fill="#1F2F40"/>
</svg>
