<svg width="26" height="26" viewBox="0 0 26 26" fill="none" xmlns="http://www.w3.org/2000/svg">
<path fill-rule="evenodd" clip-rule="evenodd" d="M14.357 9.48814C14.519 9.43419 14.7937 9.36887 15.0983 9.42977C15.2844 9.46702 15.5568 9.55464 15.7857 9.77304C15.9971 9.96531 16.1064 10.1881 16.17 10.3472L16.1834 10.3809L16.1938 10.4156C16.2701 10.6697 16.272 10.9335 16.1995 11.1882C16.036 11.8309 16.0099 12.508 16.1275 13.1535C16.304 14.0692 16.748 14.9166 17.3985 15.567C17.9537 16.1222 18.6226 16.5144 19.3593 16.7245L19.7978 16.8048C20.4474 16.9238 21.1311 16.8972 21.7918 16.7297L21.8035 16.7268L21.8152 16.7241C21.9604 16.6919 22.258 16.6457 22.56 16.7421C22.7766 16.8087 23.0143 16.9325 23.2096 17.1557L23.2151 17.1619C23.3708 17.3436 23.4867 17.5791 23.5357 17.8238C23.59 18.0955 23.5593 18.3639 23.4608 18.61L23.4574 18.6185C22.8482 20.093 21.773 21.3297 20.3742 22.115C18.9849 22.8949 17.3872 23.1782 15.8249 22.9266C14.2787 22.75 12.859 22.0477 11.7612 20.9378C10.6685 19.8328 9.96977 18.3737 9.79804 16.8155C9.62657 15.2605 9.98108 13.6806 10.8035 12.3548C11.6247 11.0312 12.8762 10.0107 14.3436 9.49282L14.357 9.48814ZM20.464 18.5013V18.5993L19.5061 18.4251C18.2708 18.2005 17.1462 17.6128 16.2494 16.7161C15.3624 15.829 14.7667 14.6843 14.531 13.4563L14.5297 13.4496C14.3912 12.6929 14.3983 11.9125 14.5418 11.1603C13.5769 11.5822 12.7491 12.3011 12.1844 13.2115C11.5552 14.2257 11.2813 15.4409 11.4132 16.6375C11.5448 17.831 12.0811 18.9502 12.9167 19.7951C13.764 20.6519 14.8496 21.1833 16.0254 21.314L16.0464 21.3163L16.0672 21.3197C17.2716 21.5173 18.5041 21.3013 19.5787 20.698C20.5232 20.1678 21.2815 19.3653 21.7725 18.3965C21.3407 18.4761 20.9018 18.5117 20.464 18.5013Z" fill="#2AB26E"/>
<path fill-rule="evenodd" clip-rule="evenodd" d="M6.527 8.51353C6.69548 8.92947 6.49486 9.40319 6.07896 9.57167C5.39832 9.84733 4.83473 10.3478 4.46783 11.003C4.10647 11.6483 3.98292 12.4028 4.10537 13.1375L4.10562 13.139C4.22739 13.8783 4.59181 14.5467 5.12746 15.0411C5.68201 15.5331 6.36615 15.8235 7.08828 15.8711H7.51812C7.96682 15.8711 8.33062 16.2349 8.33062 16.6836C8.33062 17.1323 7.96682 17.4961 7.51812 17.4961H7.0392L7.01535 17.4947C5.90624 17.4295 4.86739 16.9855 4.04188 16.2503L4.03229 16.2418C3.22717 15.5016 2.68344 14.5033 2.50223 13.4031C2.32177 12.3182 2.50163 11.1883 3.05001 10.2091C3.59311 9.23919 4.43786 8.48311 5.46889 8.06549C5.88479 7.89707 6.35852 8.0976 6.527 8.51353Z" fill="#2AB26E"/>
<path fill-rule="evenodd" clip-rule="evenodd" d="M12.0359 4.61523C10.7701 4.61523 9.54191 5.04988 8.55976 5.84313C7.90995 6.368 7.38651 7.03504 7.02407 7.78995C7.04799 7.78956 7.07197 7.78937 7.09589 7.78937C8.21675 7.78937 9.29731 8.18034 10.1563 8.88306C10.5036 9.16724 10.5547 9.67911 10.2706 10.0264C9.98644 10.3737 9.47457 10.4249 9.12727 10.1407C8.55618 9.67352 7.83845 9.41437 7.09589 9.41437C6.74522 9.41437 6.40715 9.4741 6.08764 9.59182L4.68262 10.1095L5.01446 8.64938C5.3792 7.04447 6.26751 5.60573 7.53874 4.57898C8.80994 3.55224 10.3985 2.99023 12.0359 2.99023C13.6734 2.99023 15.2619 3.55224 16.5331 4.57898C17.8043 5.60573 18.6926 7.04447 19.0574 8.64938C19.1568 9.0869 18.8827 9.52227 18.4452 9.62172C18.0076 9.72117 17.5723 9.44706 17.4728 9.00948C17.1875 7.7544 16.4942 6.6364 15.5121 5.84313C14.5299 5.04988 13.3018 4.61523 12.0359 4.61523Z" fill="#2AB26E"/>
</svg>
