<svg width="200" height="200" viewBox="0 0 200 200" fill="none" xmlns="http://www.w3.org/2000/svg">
<path d="M102.733 179.999C143.86 179.999 177.201 146.658 177.201 105.531C177.201 64.4041 143.86 31.0586 102.733 31.0586C61.606 31.0586 28.2646 64.3999 28.2646 105.527C28.2646 146.654 61.606 179.995 102.733 179.995V179.999Z" fill="url(#paint0_linear_1477_5728)"/>
<path fill-rule="evenodd" clip-rule="evenodd" d="M3.77601 69.3421C16.8255 61.5065 31.613 60.0133 45.7658 60.482C47.79 60.5484 49.3746 62.2449 49.3082 64.2649C49.2418 66.2891 47.5495 67.8737 45.5252 67.8073C31.9407 67.3552 18.829 68.8526 7.55066 75.6262C5.81681 76.6674 3.56446 76.1074 2.52333 74.3694C1.48219 72.6355 2.04216 70.3832 3.78016 69.3421H3.77601Z" fill="url(#paint1_linear_1477_5728)"/>
<path fill-rule="evenodd" clip-rule="evenodd" d="M198.117 128.888C199.159 130.621 198.599 132.874 196.861 133.915C183.811 141.75 169.019 143.244 154.867 142.775C152.842 142.709 151.258 141.012 151.324 138.992C151.391 136.968 153.083 135.383 155.107 135.45C168.692 135.898 181.808 134.404 193.086 127.631C194.82 126.59 197.072 127.15 198.113 128.888H198.117Z" fill="url(#paint2_linear_1477_5728)"/>
<path d="M97.4951 170.939H134.715C147.196 170.939 157.313 157.425 157.313 140.746C157.313 124.067 147.196 110.549 134.715 110.549H97.4951C105.214 110.549 112.034 115.721 116.103 123.636C118.724 128.966 120.085 134.823 120.085 140.763C120.085 146.702 118.72 152.559 116.103 157.89C112.03 165.783 105.214 170.939 97.4951 170.939Z" fill="url(#paint3_linear_1477_5728)"/>
<path d="M124.254 121.633C119.712 112.823 112.104 107.053 103.493 107.053H95.1764C81.2517 107.053 69.9609 122.139 69.9609 140.742C69.9609 159.346 81.2517 174.428 95.1764 174.432H103.522C112.133 174.432 119.749 168.675 124.283 159.852C127.207 153.908 128.725 147.371 128.725 140.747C128.725 134.122 127.207 127.585 124.283 121.641L124.258 121.629L124.254 121.633Z" fill="url(#paint4_linear_1477_5728)"/>
<path d="M115.84 121.633C111.307 112.839 103.716 107.073 95.1212 107.053C81.209 107.053 69.9307 122.147 69.9307 140.742C69.9307 159.338 81.2048 174.411 95.1212 174.432C103.716 174.432 111.307 168.675 115.84 159.852C118.765 153.908 120.287 147.371 120.287 140.747C120.287 134.122 118.765 127.585 115.84 121.641V121.629V121.633Z" fill="#ABEECC"/>
<path d="M98.4402 134.531C97.1834 136.738 95.0845 138.181 92.7077 138.181H90.4097C86.5646 138.181 83.4453 134.402 83.4453 129.74C83.4453 125.078 86.5646 121.303 90.4097 121.299H92.716C95.0928 121.299 97.2 122.742 98.4485 124.953C99.2573 126.442 99.6763 128.081 99.6763 129.74C99.6763 131.399 99.2573 133.038 98.4485 134.527H98.4402V134.531Z" fill="url(#paint5_linear_1477_5728)"/>
<path d="M98.4402 157.255C97.1834 159.462 95.0845 160.906 92.7077 160.906H90.4097C86.5646 160.906 83.4453 157.127 83.4453 152.465C83.4453 147.802 86.5646 144.028 90.4097 144.023H92.716C95.0928 144.023 97.2 145.467 98.4485 147.678C99.2573 149.167 99.6763 150.805 99.6763 152.465C99.6763 154.124 99.2573 155.762 98.4485 157.251H98.4402V157.255Z" fill="url(#paint6_linear_1477_5728)"/>
<path d="M95.8765 134.531C94.6487 136.733 92.5955 138.177 90.2685 138.181C86.5021 138.181 83.4492 134.398 83.4492 129.74C83.4492 125.082 86.5021 121.303 90.2685 121.299C92.5955 121.299 94.6529 122.742 95.8765 124.953C96.6688 126.442 97.0794 128.081 97.0794 129.74C97.0794 131.399 96.6688 133.038 95.8765 134.527V134.531Z" fill="url(#paint7_linear_1477_5728)"/>
<path d="M95.8765 157.255C94.6487 159.458 92.5955 160.902 90.2685 160.906C86.5021 160.906 83.4492 157.123 83.4492 152.465C83.4492 147.806 86.5021 144.028 90.2685 144.023C92.5955 144.023 94.6529 145.467 95.8765 147.678C96.6688 149.167 97.0794 150.805 97.0794 152.465C97.0794 154.124 96.6688 155.762 95.8765 157.251V157.255Z" fill="url(#paint8_linear_1477_5728)"/>
<path d="M103.142 96.8687H65.9226C53.4413 96.8687 43.3203 83.3546 43.3203 66.6757C43.3203 49.9967 53.4455 36.4785 65.9226 36.4785H103.142C95.4187 36.4785 88.6036 41.651 84.5345 49.5653C81.8632 54.8789 80.4943 60.7524 80.5441 66.7006C80.4943 72.6446 81.8632 78.5181 84.5345 83.8275C88.6078 91.7003 95.4229 96.8728 103.142 96.8728V96.8687Z" fill="url(#paint9_linear_1477_5728)"/>
<path d="M76.3774 47.584C80.9278 38.7737 88.531 33.0039 97.1421 33.0039H105.488C119.413 33.0039 130.703 48.09 130.703 66.6937C130.703 85.2973 119.413 100.379 105.488 100.383H97.1421C88.531 100.383 80.9153 94.626 76.3774 85.8033C73.4034 79.8759 71.8811 73.3221 71.935 66.6895C71.8811 60.0569 73.4034 53.5073 76.3774 47.5798V47.584Z" fill="url(#paint10_linear_1477_5728)"/>
<path d="M84.7925 47.584C89.3304 38.7903 96.917 33.0246 105.516 33.0039C119.428 33.0039 130.706 48.1025 130.706 66.6937C130.706 85.2848 119.432 100.363 105.516 100.379C96.917 100.379 89.3304 94.6219 84.7925 85.8075C81.8184 79.88 80.2961 73.3262 80.35 66.6937C80.2961 60.0611 81.8184 53.5114 84.7925 47.584Z" fill="#ABEECC"/>
<path d="M107.679 60.9256C110.4 60.9256 112.607 57.8644 112.607 54.0897C112.607 50.3151 110.4 47.2539 107.679 47.2539C104.958 47.2539 102.751 50.3151 102.751 54.0897C102.751 57.8644 104.958 60.9256 107.679 60.9256Z" fill="url(#paint11_linear_1477_5728)"/>
<path d="M107.795 62.2215C111.2 62.2215 113.963 58.5878 113.963 54.1039C113.963 49.6199 111.2 45.9863 107.795 45.9863C104.389 45.9863 101.627 49.6199 101.627 54.1039C101.627 58.5878 104.389 62.2215 107.795 62.2215Z" fill="url(#paint12_linear_1477_5728)"/>
<path d="M107.795 88.1922C111.2 88.1922 113.963 84.5585 113.963 80.0746C113.963 75.5906 111.2 71.957 107.795 71.957C104.389 71.957 101.627 75.5906 101.627 80.0746C101.627 84.5585 104.389 88.1922 107.795 88.1922Z" fill="url(#paint13_linear_1477_5728)"/>
<path d="M107.679 60.9256C110.4 60.9256 112.607 57.8644 112.607 54.0897C112.607 50.3151 110.4 47.2539 107.679 47.2539C104.958 47.2539 102.751 50.3151 102.751 54.0897C102.751 57.8644 104.958 60.9256 107.679 60.9256Z" fill="url(#paint14_linear_1477_5728)"/>
<path d="M107.679 86.8982C110.4 86.8982 112.607 83.837 112.607 80.0624C112.607 76.2878 110.4 73.2266 107.679 73.2266C104.958 73.2266 102.751 76.2878 102.751 80.0624C102.751 83.837 104.958 86.8982 107.679 86.8982Z" fill="url(#paint15_linear_1477_5728)"/>
<path d="M146.749 22.1628L146.749 22.1625C146.962 21.2792 148.215 21.2792 148.428 22.1625L148.428 22.1628L149.56 26.8458C149.724 27.525 150.256 28.0574 150.932 28.2221L150.932 28.2223L155.615 29.3547L155.616 29.3548C156.499 29.5677 156.499 30.8202 155.616 31.0332L155.615 31.0332L150.933 32.1656C150.251 32.3303 149.725 32.8635 149.56 33.537L149.56 33.5379L148.428 38.221L148.428 38.2213C148.215 39.1046 146.962 39.1046 146.749 38.2213L146.749 38.221L145.617 33.538C145.617 33.538 145.617 33.5379 145.617 33.5379C145.453 32.8592 144.921 32.3253 144.239 32.1652L139.557 31.0332L139.557 31.0332C138.674 30.8202 138.674 29.5677 139.557 29.3548L139.557 29.3547L144.24 28.2223C144.24 28.2223 144.24 28.2223 144.24 28.2223C144.92 28.0579 145.452 27.5258 145.617 26.8459C145.617 26.8458 145.617 26.8458 145.617 26.8458L146.749 22.1628Z" stroke="#9095AE"/>
<path d="M167.311 159.694C167.311 161.145 166.134 162.322 164.683 162.322C163.232 162.322 162.056 161.145 162.056 159.694C162.056 158.243 163.232 157.066 164.683 157.066C166.134 157.066 167.311 158.243 167.311 159.694Z" stroke="#ABB9C8"/>
<path d="M181.968 76.2907C181.424 80.3972 179.844 84.2962 177.384 87.6271C174.924 90.9579 171.656 93.6084 167.894 95.334C164.127 97.0595 159.988 97.802 155.856 97.4909C151.729 97.1798 147.743 95.8317 144.279 93.5628L134.855 96.7733C134.569 96.8687 134.262 96.8812 133.972 96.8065C133.677 96.7318 133.416 96.5742 133.208 96.3544C133.001 96.1345 132.864 95.8566 132.814 95.5621C132.765 95.2676 132.794 94.9607 132.91 94.6827L136.701 85.636C134.698 82.2803 133.524 78.4932 133.283 74.5942C133.042 70.6951 133.735 66.7918 135.311 63.2121C136.888 59.6366 139.293 56.4883 142.334 54.0286C145.374 51.573 148.958 49.8806 152.787 49.0925C156.615 48.3044 160.577 48.4454 164.339 49.499C168.101 50.5526 171.556 52.4938 174.418 55.161C177.276 57.8239 179.458 61.134 180.777 64.8133C182.096 68.4925 182.515 72.4331 182.001 76.3073L181.976 76.2907H181.968Z" fill="#131B4C"/>
<path d="M68.5134 123.902H89.2906C92.5177 123.902 95.135 126.52 95.135 129.747C95.135 132.974 92.5177 135.591 89.2906 135.591H68.5134C65.2863 135.591 62.6689 132.974 62.6689 129.747C62.6689 126.52 65.2863 123.902 68.5134 123.902Z" fill="url(#paint16_linear_1477_5728)"/>
<path d="M68.5134 146.625H89.2906C92.5177 146.625 95.135 149.242 95.135 152.469C95.135 155.697 92.5177 158.314 89.2906 158.314H68.5134C65.2863 158.314 62.6689 155.697 62.6689 152.469C62.6689 149.242 65.2863 146.625 68.5134 146.625Z" fill="url(#paint17_linear_1477_5728)"/>
<path d="M25.476 125.03V127.181C25.476 127.235 25.5201 127.279 25.5741 127.279H26.3864C26.6563 127.279 26.8814 127.459 26.9506 127.709C27.1095 128.265 27.3447 128.788 27.6471 129.267L27.7965 129.503L27.5988 129.701L26.9172 130.383C26.8795 130.421 26.8795 130.486 26.9172 130.523L28.4422 132.049C28.4798 132.087 28.5444 132.087 28.582 132.049L29.2854 131.345L29.4781 131.152L29.7123 131.292C30.2447 131.61 30.8297 131.848 31.4527 131.989L31.7253 132.051V132.331V133.293C31.7253 133.349 31.7711 133.394 31.8266 133.394H33.9834C34.0374 133.394 34.0816 133.35 34.0816 133.296V132.303V132.03L34.3459 131.963C34.963 131.808 35.5451 131.555 36.0716 131.222L36.3082 131.073L36.506 131.271L37.1845 131.949C37.222 131.987 37.2867 131.987 37.3243 131.949L38.8493 130.424C38.8869 130.386 38.8869 130.321 38.8493 130.283L39.0968 130.036L38.8493 130.283L38.2735 129.707C38.086 129.52 38.0503 129.23 38.1783 129.003M25.476 125.03L39.0564 124.26L38.7187 124.353C38.7188 124.353 38.719 124.354 38.7192 124.354C38.7882 124.605 39.0134 124.785 39.2836 124.785H40.0959C40.1499 124.785 40.194 124.829 40.194 124.883V127.041C40.194 127.095 40.1498 127.139 40.0959 127.139H39.3178C39.0432 127.139 38.816 127.328 38.7491 127.58L38.7486 127.582C38.6195 128.081 38.4257 128.558 38.1783 129.003M25.476 125.03L25.4791 125.03C25.4791 124.975 25.5233 124.931 25.5773 124.931H26.3522C26.6268 124.931 26.854 124.743 26.9209 124.49L26.9209 124.49L26.9215 124.488C27.0505 123.986 27.2443 123.51 27.4916 123.065C27.6197 122.837 27.584 122.547 27.3965 122.36L26.8207 121.784C26.783 121.746 26.783 121.681 26.8207 121.644L28.3457 120.118C28.3833 120.08 28.4479 120.08 28.4855 120.118L29.0333 120.666L29.2733 120.426L29.0333 120.666C29.2275 120.86 29.5217 120.889 29.7482 120.754C30.187 120.498 30.66 120.292 31.1581 120.152C31.4084 120.082 31.5884 119.857 31.5884 119.587V118.775C31.5884 118.72 31.6326 118.676 31.6866 118.676H33.8434C33.8974 118.676 33.9415 118.72 33.9415 118.775V119.55C33.9415 119.824 34.1297 120.052 34.3824 120.119L34.3824 120.119L34.385 120.119C34.9458 120.263 35.4722 120.487 35.9583 120.775L36.1922 120.914L36.3846 120.722L37.088 120.018C37.1256 119.981 37.1902 119.981 37.2278 120.018L38.7528 121.544C38.7905 121.582 38.7905 121.646 38.7528 121.684L25.476 125.03ZM38.1783 129.003C38.1786 129.002 38.1789 129.002 38.1792 129.001L38.4837 129.174L38.1778 129.004C38.178 129.003 38.1781 129.003 38.1783 129.003ZM29.4346 123.964L29.3945 124.04V124.045C27.5304 127.721 31.2466 131.383 34.9191 129.436L34.9195 129.436C35.4791 129.139 35.9435 128.674 36.2408 128.114C38.2145 124.402 34.4525 120.657 30.7494 122.641C30.1936 122.939 29.729 123.403 29.4346 123.964Z" stroke="#9095AE" stroke-width="0.7"/>
<path d="M27.4238 50.7051C27.6089 51.2927 28.2309 51.6192 28.8135 51.4356C29.4011 51.2505 29.7276 50.6284 29.544 50.0459C29.3589 49.4583 28.7369 49.1318 28.1543 49.3153C27.5667 49.5005 27.2402 50.1225 27.4238 50.7051Z" stroke="#9095AE" stroke-width="0.7"/>
<path d="M27.5195 47.2979C27.971 47.1587 28.233 46.6878 28.1115 46.2245L25.3237 35.6108C25.3237 35.6107 25.3236 35.6107 25.3236 35.6106C25.1216 34.8448 24.3219 34.4022 23.5631 34.6383C22.8063 34.8738 22.4012 35.6942 22.671 36.4406C22.671 36.4406 22.671 36.4407 22.671 36.4407L26.4178 46.7537C26.5801 47.199 27.0638 47.4384 27.5195 47.2979Z" stroke="#9095AE" stroke-width="0.7"/>
<path d="M151.465 82.4452C152.353 83.1367 153.633 82.9778 154.325 82.0901C155.016 81.2025 154.857 79.9222 153.97 79.2307C153.082 78.5391 151.802 78.6981 151.11 79.5858C150.419 80.4734 150.578 81.7536 151.465 82.4452Z" fill="#FF4040"/>
<path d="M149.808 63.1573C149.911 63.9002 150.598 64.4168 151.341 64.3147C155.619 63.7145 159.819 64.822 163.168 67.4301C164.218 68.2475 165.133 69.1894 165.923 70.2213L162.618 71.3199C162.176 70.8422 161.709 70.3841 161.186 69.9763C158.465 67.8567 155.059 66.9575 151.596 67.4419C150.853 67.5459 150.334 68.2332 150.439 68.9759C150.543 69.7173 151.228 70.2361 151.972 70.1333C154.702 69.7509 157.381 70.4559 159.516 72.1194C159.583 72.1715 159.637 72.2356 159.702 72.2896L155.608 73.6505C154.544 73.2528 153.397 73.0975 152.226 73.2614C151.483 73.3655 150.964 74.0528 151.069 74.7954C151.086 74.9133 151.124 75.0217 151.168 75.1265L143.887 77.5469C143.353 77.7242 143.064 78.3012 143.242 78.8349C143.308 79.0327 143.429 79.1974 143.582 79.3167C143.841 79.5189 144.194 79.5918 144.53 79.4802L172.414 70.2107C172.948 70.0333 173.237 69.4563 173.059 68.9227C172.881 68.3908 172.307 68.0993 171.771 68.2774L168.61 69.3282C167.572 67.8162 166.323 66.4439 164.838 65.2873C160.903 62.2235 155.976 60.9223 150.965 61.6236C150.222 61.7275 149.703 62.4147 149.808 63.1573Z" fill="white"/>
<path d="M169.596 79.06C169.865 79.2696 170.213 79.3786 170.577 79.3385C171.323 79.2587 171.863 78.5877 171.782 77.8421C171.567 75.8578 171.033 73.9733 170.247 72.2181L167.65 73.0814C168.386 74.6499 168.886 76.3438 169.08 78.1351C169.122 78.5154 169.316 78.8419 169.596 79.06Z" fill="white" fill-opacity="0.89"/>
<path d="M163.802 79.8737C164.071 80.0832 164.418 80.1922 164.783 80.1521C165.529 80.0723 166.068 79.4013 165.988 78.6557C165.811 77.0279 165.332 75.4929 164.605 74.0967L161.976 74.9705C162.671 76.1698 163.13 77.511 163.286 78.9487C163.328 79.3291 163.522 79.6556 163.802 79.8737Z" fill="white" fill-opacity="0.89"/>
<path d="M158.003 80.6866C158.272 80.8961 158.62 81.0051 158.984 80.965C159.73 80.8852 160.27 80.2142 160.189 79.4686C160.05 78.1857 159.558 77.0164 158.814 76.0215L155.96 76.9703C156.781 77.6636 157.366 78.638 157.487 79.7617C157.529 80.1421 157.723 80.4685 158.003 80.6866Z" fill="white" fill-opacity="0.89"/>
<defs>
<linearGradient id="paint0_linear_1477_5728" x1="109.95" y1="-42.1306" x2="102.545" y2="316.394" gradientUnits="userSpaceOnUse">
<stop stop-color="white" stop-opacity="0"/>
<stop offset="1" stop-color="#9095AE"/>
</linearGradient>
<linearGradient id="paint1_linear_1477_5728" x1="38.8719" y1="81.3089" x2="7.79124" y2="50.7633" gradientUnits="userSpaceOnUse">
<stop stop-color="#1DA25F"/>
<stop offset="1" stop-color="#9EDBBC"/>
</linearGradient>
<linearGradient id="paint2_linear_1477_5728" x1="198.411" y1="134.793" x2="157.493" y2="131.279" gradientUnits="userSpaceOnUse">
<stop stop-color="#9EDBBC"/>
<stop offset="1" stop-color="#1DA15F"/>
</linearGradient>
<linearGradient id="paint3_linear_1477_5728" x1="128.839" y1="173.22" x2="126.019" y2="80.2169" gradientUnits="userSpaceOnUse">
<stop stop-color="#179355"/>
<stop offset="1" stop-color="#9EDBBC"/>
</linearGradient>
<linearGradient id="paint4_linear_1477_5728" x1="102.293" y1="160.159" x2="89.6319" y2="77.0924" gradientUnits="userSpaceOnUse">
<stop stop-color="#18854E"/>
<stop offset="1" stop-color="#9EDBBC"/>
</linearGradient>
<linearGradient id="paint5_linear_1477_5728" x1="85.6766" y1="121.251" x2="92.9481" y2="139.653" gradientUnits="userSpaceOnUse">
<stop stop-color="#85E1B3"/>
<stop offset="1" stop-color="#17864E"/>
</linearGradient>
<linearGradient id="paint6_linear_1477_5728" x1="85.6766" y1="143.976" x2="92.9481" y2="162.377" gradientUnits="userSpaceOnUse">
<stop stop-color="#85E1B3"/>
<stop offset="1" stop-color="#17864E"/>
</linearGradient>
<linearGradient id="paint7_linear_1477_5728" x1="83.8359" y1="127.268" x2="132.44" y2="143.494" gradientUnits="userSpaceOnUse">
<stop stop-color="#0D5C35"/>
<stop offset="0.309975" stop-color="#4CDA93"/>
</linearGradient>
<linearGradient id="paint8_linear_1477_5728" x1="83.8359" y1="149.992" x2="132.44" y2="166.219" gradientUnits="userSpaceOnUse">
<stop stop-color="#0D5C35"/>
<stop offset="0.309975" stop-color="#4CDA93"/>
</linearGradient>
<linearGradient id="paint9_linear_1477_5728" x1="74.6665" y1="99.1542" x2="71.8458" y2="6.14447" gradientUnits="userSpaceOnUse">
<stop stop-color="#1C9559"/>
<stop offset="1" stop-color="#9EDBBC"/>
</linearGradient>
<linearGradient id="paint10_linear_1477_5728" x1="104.268" y1="86.1103" x2="91.6088" y2="3.04318" gradientUnits="userSpaceOnUse">
<stop stop-color="#18854E"/>
<stop offset="1" stop-color="#9EDBBC"/>
</linearGradient>
<linearGradient id="paint11_linear_1477_5728" x1="97.5743" y1="54.853" x2="136.013" y2="51.9494" gradientUnits="userSpaceOnUse">
<stop stop-color="#5149F2"/>
<stop offset="1" stop-color="#F7F7FF"/>
</linearGradient>
<linearGradient id="paint12_linear_1477_5728" x1="103.323" y1="45.9407" x2="111.506" y2="62.3081" gradientUnits="userSpaceOnUse">
<stop stop-color="#6CC899"/>
<stop offset="1" stop-color="#219C5E"/>
</linearGradient>
<linearGradient id="paint13_linear_1477_5728" x1="103.323" y1="71.9114" x2="111.506" y2="88.2788" gradientUnits="userSpaceOnUse">
<stop stop-color="#6CC899"/>
<stop offset="1" stop-color="#219C5E"/>
</linearGradient>
<linearGradient id="paint14_linear_1477_5728" x1="103.124" y1="52.8039" x2="138.871" y2="62.8917" gradientUnits="userSpaceOnUse">
<stop stop-color="#0D5C35"/>
<stop offset="0.345576" stop-color="#4CDA93"/>
</linearGradient>
<linearGradient id="paint15_linear_1477_5728" x1="103.124" y1="78.7765" x2="138.871" y2="88.8644" gradientUnits="userSpaceOnUse">
<stop stop-color="#0D5C35"/>
<stop offset="0.345576" stop-color="#4CDA93"/>
</linearGradient>
<linearGradient id="paint16_linear_1477_5728" x1="79.7129" y1="134.048" x2="76.4651" y2="116.847" gradientUnits="userSpaceOnUse">
<stop stop-color="#1F8E57"/>
<stop offset="1" stop-color="#B0EDCE"/>
</linearGradient>
<linearGradient id="paint17_linear_1477_5728" x1="79.7129" y1="156.771" x2="76.4651" y2="139.569" gradientUnits="userSpaceOnUse">
<stop stop-color="#1F8E57"/>
<stop offset="1" stop-color="#B0EDCE"/>
</linearGradient>
</defs>
</svg>
