<svg width="200" height="200" viewBox="0 0 200 200" fill="none" xmlns="http://www.w3.org/2000/svg">
<mask id="mask0_1477_5774" style="mask-type:luminance" maskUnits="userSpaceOnUse" x="0" y="0" width="200" height="200">
<path d="M200 0H0V200H200V0Z" fill="white"/>
</mask>
<g mask="url(#mask0_1477_5774)">
<path d="M100 179.332C144.18 179.332 180 143.512 180 99.332C180 55.152 144.18 19.332 100 19.332C55.82 19.332 20 55.152 20 99.332C20 143.512 55.82 179.332 100 179.332Z" fill="url(#paint0_linear_1477_5774)"/>
<path d="M131.693 29.041H69.9997C64.1086 29.041 59.333 33.8166 59.333 39.7077V135.061C59.333 140.952 64.1086 145.728 69.9997 145.728H131.693C137.584 145.728 142.36 140.952 142.36 135.061V39.7077C142.36 33.8166 137.584 29.041 131.693 29.041Z" fill="url(#paint1_linear_1477_5774)"/>
<path d="M96.7346 55.707H69.9346C68.1305 55.707 66.668 57.1696 66.668 58.9737C66.668 60.7778 68.1305 62.2404 69.9346 62.2404H96.7346C98.5388 62.2404 100.001 60.7778 100.001 58.9737C100.001 57.1696 98.5388 55.707 96.7346 55.707Z" fill="white"/>
<path d="M130.068 74.2383H69.9346C68.1305 74.2383 66.668 75.7008 66.668 77.5049C66.668 79.3091 68.1305 80.7716 69.9346 80.7716H130.068C131.872 80.7716 133.335 79.3091 133.335 77.5049C133.335 75.7008 131.872 74.2383 130.068 74.2383Z" fill="white"/>
<path d="M130.068 92.7715H69.9346C68.1305 92.7715 66.668 94.234 66.668 96.0381C66.668 97.8423 68.1305 99.3048 69.9346 99.3048H130.068C131.872 99.3048 133.335 97.8423 133.335 96.0381C133.335 94.234 131.872 92.7715 130.068 92.7715Z" fill="white"/>
<path d="M130.068 111.307H69.9346C68.1305 111.307 66.668 112.769 66.668 114.573C66.668 116.377 68.1305 117.84 69.9346 117.84H130.068C131.872 117.84 133.335 116.377 133.335 114.573C133.335 112.769 131.872 111.307 130.068 111.307Z" fill="white"/>
<path d="M69.9346 129.838H130.068C131.875 129.838 133.335 131.298 133.335 133.105C133.335 134.911 131.875 136.371 130.068 136.371H69.9346C68.128 136.371 66.668 134.911 66.668 133.105C66.668 131.298 68.128 129.838 69.9346 129.838Z" fill="white"/>
<path d="M192.631 34.666H152.703C150.843 34.666 149.334 36.0073 149.334 37.6572V54.3359C149.334 55.9914 150.843 57.3327 152.703 57.3327H192.631C194.492 57.3327 196.001 55.9914 196.001 54.3359V37.6572C196.001 36.0017 194.492 34.666 192.631 34.666Z" fill="url(#paint2_linear_1477_5774)"/>
<path d="M158.001 47.998C159.104 47.998 160.001 47.1014 160.001 45.998C160.001 44.8947 159.104 43.998 158.001 43.998C156.898 43.998 156.001 44.8947 156.001 45.998C156.001 47.1014 156.898 47.998 158.001 47.998Z" fill="#1F2F40" fill-opacity="0.45"/>
<path d="M165.333 45.998C165.333 44.8935 166.228 43.998 167.333 43.998H187.333C188.438 43.998 189.333 44.8935 189.333 45.998C189.333 47.1026 188.438 47.998 187.333 47.998H167.333C166.228 47.998 165.333 47.1026 165.333 45.998Z" fill="#8D949C"/>
<path fill-rule="evenodd" clip-rule="evenodd" d="M123.407 150.374C131.994 150.374 139.974 147.774 146.607 143.328L173.74 169.228L183.58 157.808L157.4 132.814C162.234 126.008 165.08 117.688 165.08 108.708C165.08 85.6943 146.427 67.041 123.414 67.041C100.4 67.041 81.7471 85.6943 81.7471 108.708C81.7471 131.721 100.4 150.374 123.414 150.374H123.407ZM158.947 108.708C158.947 128.188 143.154 143.981 123.674 143.981C104.194 143.981 88.4004 128.188 88.4004 108.708C88.4004 89.2277 104.194 73.4344 123.674 73.4344C143.154 73.4344 158.947 89.2277 158.947 108.708Z" fill="#131B4C"/>
<path d="M123.5 146C144.211 146 161 129.432 161 109C161 88.5678 144.211 72 123.5 72C102.789 72 86 88.5678 86 109C86 129.432 102.789 146 123.5 146Z" fill="white" fill-opacity="0.5"/>
<path d="M129.949 108.665L138.742 99.905C139.569 99.0383 140.016 97.885 140.002 96.6917C139.989 95.4983 139.502 94.365 138.656 93.5183C137.809 92.6783 136.662 92.1917 135.462 92.1783C134.262 92.165 133.102 92.6117 132.229 93.4317L123.416 102.192L114.622 93.4317C114.202 92.985 113.689 92.6317 113.129 92.385C112.562 92.1383 111.956 92.005 111.342 91.9983C110.729 91.9917 110.116 92.105 109.542 92.3317C108.969 92.565 108.456 92.905 108.016 93.3383C107.582 93.7717 107.236 94.285 107.002 94.8517C106.769 95.4183 106.656 96.025 106.662 96.6383C106.669 97.2517 106.802 97.8517 107.049 98.4183C107.296 98.9783 107.656 99.485 108.102 99.905L116.909 108.665L108.102 117.425C107.656 117.845 107.296 118.352 107.049 118.912C106.802 119.472 106.669 120.078 106.662 120.692C106.656 121.305 106.769 121.912 107.002 122.478C107.236 123.045 107.576 123.558 108.016 123.992C108.449 124.425 108.969 124.765 109.542 124.998C110.116 125.232 110.722 125.345 111.342 125.332C111.962 125.318 112.569 125.192 113.129 124.945C113.696 124.698 114.202 124.345 114.622 123.898L123.436 115.138L132.249 123.898C133.129 124.665 134.269 125.078 135.442 125.038C136.616 124.998 137.729 124.518 138.556 123.698C139.382 122.872 139.862 121.765 139.896 120.598C139.929 119.432 139.516 118.298 138.736 117.425L129.942 108.665H129.949Z" fill="#FF4040"/>
<path d="M173.733 169.227L183.573 157.807L185.053 159.22C186.493 160.593 187.353 162.507 187.447 164.553C187.54 166.593 186.86 168.593 185.56 170.107C184.253 171.62 182.433 172.527 180.493 172.627C178.553 172.727 176.653 172.013 175.22 170.64L173.74 169.227H173.733Z" fill="#131B4C"/>
<path fill-rule="evenodd" clip-rule="evenodd" d="M37.5408 60.7772C37.5275 59.8238 37.4075 58.8705 37.1741 57.9039C36.3341 54.5172 32.6075 52.3439 28.6341 51.8305C24.6608 51.3172 20.5341 52.4839 18.9408 55.4305C18.0275 57.1172 17.9075 58.5705 18.2741 59.7905C18.6475 61.0105 19.5208 62.0172 20.7141 62.8038C24.0408 64.9972 29.8608 65.4438 32.5208 64.5238C33.7475 64.0972 34.9475 63.5905 36.1208 63.0039C35.4541 66.8372 32.9608 70.4638 29.6408 73.7305C22.4141 80.8372 11.2075 86.2305 5.10081 88.2172C4.77415 88.3239 4.58748 88.6839 4.69415 89.0305C4.79415 89.3705 5.14748 89.5639 5.47415 89.4572C11.7008 87.4372 23.1275 81.9238 30.4941 74.6772C34.3008 70.9305 37.0141 66.7172 37.4741 62.2905C46.0741 57.4905 53.1408 48.7772 59.1808 41.4505C59.4075 41.1838 59.3741 40.7705 59.1141 40.5372C58.8541 40.3039 58.4608 40.3305 58.2341 40.6038C52.4408 47.6372 45.7141 55.9972 37.5408 60.7772ZM36.2875 61.4705C36.3341 60.4039 36.2341 59.3172 35.9608 58.2238C35.2341 55.2905 31.9141 53.5572 28.4741 53.1172C26.3675 52.8439 24.2008 53.0705 22.5008 53.8639C21.4341 54.3639 20.5541 55.0839 20.0208 56.0705C19.3275 57.3572 19.1741 58.4639 19.4608 59.3972C19.7475 60.3372 20.4541 61.0972 21.3808 61.7038C24.4141 63.7038 29.7141 64.1239 32.1341 63.2905C33.5608 62.7972 34.9475 62.1838 36.2941 61.4705H36.2875Z" fill="#696F8E"/>
<path d="M190 126.664C192.209 126.664 194 124.873 194 122.664C194 120.455 192.209 118.664 190 118.664C187.791 118.664 186 120.455 186 122.664C186 124.873 187.791 126.664 190 126.664Z" fill="#BFD6EF"/>
<path d="M36.2327 134.849L36.2331 134.848C36.5518 133.493 38.4579 133.493 38.7766 134.848L38.777 134.849L40.2607 141.059L40.2606 141.059L40.2619 141.064C40.4715 141.903 41.106 142.537 41.9445 142.747L41.9445 142.747L41.9496 142.748L48.1592 144.232L48.1608 144.232C49.5152 144.551 49.5152 146.457 48.1608 146.776L48.1592 146.776L41.9496 148.26L41.9496 148.26L41.9445 148.261C41.106 148.471 40.4715 149.105 40.2619 149.944L40.2619 149.944L40.2607 149.949L38.777 156.158L38.7766 156.16C38.4579 157.514 36.5518 157.514 36.2331 156.16L36.2327 156.158L34.749 149.949L34.749 149.949L34.7477 149.944C34.5381 149.105 33.9037 148.471 33.0651 148.261L33.0651 148.261L33.06 148.26L26.8505 146.776L26.8488 146.776C25.4944 146.457 25.4944 144.551 26.8488 144.232L26.8505 144.232L33.06 142.748L33.06 142.748L33.0651 142.747C33.9037 142.537 34.5381 141.903 34.7477 141.064L34.7478 141.064L34.749 141.059L36.2327 134.849Z" stroke="#9095AE"/>
</g>
<defs>
<linearGradient id="paint0_linear_1477_5774" x1="100" y1="-2.0013" x2="100" y2="343.999" gradientUnits="userSpaceOnUse">
<stop stop-color="white" stop-opacity="0"/>
<stop offset="1" stop-color="#9095AE"/>
</linearGradient>
<linearGradient id="paint1_linear_1477_5774" x1="102.838" y1="150.135" x2="95.2584" y2="-29.4121" gradientUnits="userSpaceOnUse">
<stop stop-color="#61B78C"/>
<stop offset="1" stop-color="#C8FBE1"/>
</linearGradient>
<linearGradient id="paint2_linear_1477_5774" x1="149.999" y1="45.6532" x2="215.126" y2="45.4245" gradientUnits="userSpaceOnUse">
<stop stop-color="white"/>
<stop offset="1" stop-color="#C6C6C6"/>
</linearGradient>
</defs>
</svg>
