<svg width="25" height="25" viewBox="0 0 25 25" fill="none" xmlns="http://www.w3.org/2000/svg">
<g clip-path="url(#clip0_2494_19236)">
<path d="M20.4097 5.64889C20.2599 5.56072 20.0757 5.55458 19.9205 5.63253C19.7655 5.71067 19.6607 5.86212 19.6421 6.03472C19.6237 6.20257 19.5951 6.37037 19.5592 6.54643C18.5573 11.0933 16.5453 13.3048 13.4066 13.3048H8.80142C8.55859 13.3053 8.34953 13.4763 8.30099 13.7142L6.76591 20.9096L6.49166 22.7415C6.33398 23.5745 6.88143 24.3776 7.7144 24.5353C7.80626 24.5527 7.89947 24.5616 7.99297 24.5621H11.0733C11.7794 24.5642 12.3949 24.0823 12.5624 23.3964L13.8068 18.4218H16.4768C19.6278 18.4218 21.8056 15.9094 22.6089 11.3471C23.1392 9.17471 22.2619 6.90175 20.4097 5.64889Z" fill="#03A9F4"/>
<path d="M19.4446 1.82371C18.4334 0.676765 16.9824 0.013709 15.4534 3.72653e-05H6.97976C5.71164 -0.00677463 4.63201 0.921034 4.44794 2.17572L1.81682 19.7278C1.6908 20.5662 2.26823 21.3479 3.10662 21.474C3.18271 21.4855 3.2596 21.4911 3.33655 21.4911H7.26634C7.50917 21.4906 7.71823 21.3196 7.76677 21.0817L9.21488 14.3274H13.4108C17.052 14.3274 19.4579 11.7823 20.5632 6.75436C20.6076 6.55394 20.6418 6.35141 20.6655 6.14748C20.9221 4.59634 20.4746 3.01152 19.4446 1.82371Z" fill="#283593"/>
</g>
<defs>
<clipPath id="clip0_2494_19236">
<rect width="24.5612" height="24.5612" fill="white"/>
</clipPath>
</defs>
</svg>
