<svg width="28" height="28" viewBox="0 0 28 28" fill="none" xmlns="http://www.w3.org/2000/svg">
<path d="M22.8413 9.29L22.8413 22.8265C22.8413 23.2194 22.7617 23.6084 22.607 23.9713C22.4524 24.3342 22.2257 24.664 21.94 24.9418C21.6543 25.2196 21.315 25.4399 20.9417 25.5903C20.5684 25.7406 20.1682 25.818 19.7642 25.818H8.23531C7.83122 25.818 7.43108 25.7406 7.05775 25.5903C6.68442 25.4399 6.3452 25.2196 6.05947 24.9418C5.77373 24.664 5.54707 24.3342 5.39243 23.9713C5.23779 23.6084 5.1582 23.2194 5.1582 22.8265V5.1721C5.1582 4.77925 5.2378 4.39026 5.39243 4.02732C5.54707 3.66438 5.77373 3.33461 6.05947 3.05683C6.3452 2.77905 6.68442 2.5587 7.05775 2.40837C7.43109 2.25804 7.83122 2.18066 8.23531 2.18066L15.5647 2.18069L22.8413 9.29Z" fill="#FF7070"/>
<path d="M15.8843 2.49316C15.2942 4.01206 13.9286 6.34069 15.3056 8.29803C15.6634 8.84092 17.8425 9.68015 19.2102 10.1644C20.0832 10.4735 20.8013 11.4479 20.8013 12.3758L20.9158 21.4112C20.9158 23.0634 19.539 24.402 17.8396 24.402H6.31079C6.05439 24.402 5.80552 24.3705 5.56738 24.3131C6.11497 25.2433 7.13263 25.8177 8.23511 25.8187H19.7639C21.4641 25.8191 22.8424 24.4791 22.8418 22.8263V9.28942L15.8843 2.49316Z" fill="#DF5F5F"/>
<path d="M6.74917 4.01856C6.86469 4.0181 6.9757 4.06334 7.05798 4.14441C7.14026 4.22549 7.18715 4.33581 7.1884 4.45132V5.67856C7.18862 5.7363 7.17742 5.79352 7.15543 5.84691C7.13343 5.90031 7.10109 5.94882 7.06026 5.98965C7.01943 6.03048 6.97092 6.06282 6.91753 6.08481C6.86413 6.10681 6.80692 6.11801 6.74917 6.11778C6.63366 6.11653 6.52334 6.06965 6.44226 5.98737C6.36119 5.90508 6.31595 5.79408 6.31641 5.67856V4.45132C6.31764 4.33693 6.36363 4.22757 6.44452 4.14667C6.52542 4.06578 6.63478 4.01979 6.74917 4.01856Z" fill="white"/>
<path d="M6.74917 6.40918C6.80692 6.40895 6.86413 6.42016 6.91753 6.44215C6.97092 6.46414 7.01943 6.49649 7.06026 6.53732C7.10109 6.57815 7.13343 6.62666 7.15543 6.68005C7.17742 6.73344 7.18862 6.79066 7.1884 6.84841V7.02926C7.18715 7.14477 7.14027 7.2551 7.05798 7.33617C6.9757 7.41725 6.86469 7.46249 6.74917 7.46202C6.63478 7.46079 6.52542 7.4148 6.44452 7.33391C6.36363 7.25302 6.31764 7.14366 6.31641 7.02926V6.84841C6.31595 6.73289 6.36119 6.62188 6.44226 6.5396C6.52334 6.45731 6.63366 6.41043 6.74917 6.40918Z" fill="white"/>
<path d="M15.5647 2.18164L14.6085 5.91857C14.5449 6.16715 14.5346 6.4259 14.5784 6.67853C14.6222 6.93116 14.719 7.1722 14.8628 7.38648C15.0066 7.60075 15.1942 7.78362 15.4139 7.92357C15.6336 8.06351 15.8805 8.15751 16.1392 8.19963L22.8412 9.29096L15.5647 2.18164Z" fill="#FF8080"/>
<path d="M8.23437 1.75C6.30597 1.74999 4.72754 3.28545 4.72754 5.17993V22.8201C4.72754 24.7145 6.30597 26.25 8.23437 26.25H19.7581C21.6865 26.25 23.2717 24.7145 23.2717 22.8201V9.29517C23.2731 9.17653 23.2262 9.06242 23.1418 8.97901L15.8684 1.87305C15.7872 1.79453 15.6788 1.75044 15.5659 1.75L8.23437 1.75ZM8.23437 2.62158H14.9985L14.1833 5.80713C13.8514 7.10423 14.7343 8.41143 16.0684 8.62866L22.3984 9.66431V22.8201C22.3984 24.2281 21.2267 25.3784 19.7581 25.3784H8.23437C6.76569 25.3784 5.59912 24.2281 5.59912 22.8201V5.17993C5.59912 3.77188 6.76569 2.62158 8.23437 2.62158ZM15.7983 3.0249L21.5371 8.6355L16.2119 7.77075C15.3582 7.63174 14.8233 6.83101 15.0293 6.02588L15.7983 3.0249ZM14.0176 11.5869C13.5083 11.5942 13.1539 11.9181 12.9819 12.1116C12.5831 12.5601 12.5649 13.175 12.6982 13.771C12.8316 14.367 13.1172 15.0014 13.4656 15.644C13.5047 15.7162 13.548 15.7649 13.5886 15.8372C12.888 17.1122 11.9243 18.5002 11.0833 19.6072C9.99126 19.8668 8.94609 19.9941 8.31811 20.7009C7.79231 21.2935 7.75576 22.1938 8.31811 22.7175C8.56275 22.9323 8.90498 23.041 9.20338 23.0457C9.4836 23.0424 9.72276 22.9627 9.91432 22.8457C10.6485 22.3975 11.1265 21.4457 11.6558 20.3455L15.947 19.3457C16.5908 20.1438 17.2608 20.926 18.0593 21.1726C18.4296 21.287 18.8205 21.2734 19.1702 21.147C19.5198 21.0205 19.8466 20.7704 19.9956 20.3848C20.2556 19.6842 19.9689 18.9081 19.2983 18.5577C18.7778 18.2768 18.129 18.229 17.4065 18.2603C17.0373 18.2763 16.6472 18.3158 16.2512 18.3731C15.7832 17.6599 15.1532 16.7173 14.6038 15.7994C14.9261 15.1597 15.206 14.53 15.3267 13.952C15.4613 13.3067 15.4344 12.6711 15.0686 12.1815C14.8062 11.7667 14.4058 11.5896 14.0176 11.5869ZM14.3696 12.6926C14.5288 12.898 14.5829 13.2487 14.4739 13.771C14.4133 14.0612 14.2082 14.4508 14.0603 14.8049C13.8481 14.3678 13.6258 13.9196 13.5493 13.5779C13.4467 13.1193 13.5172 12.865 13.6348 12.6926C13.7173 12.5577 13.8293 12.4751 13.9898 12.4658C14.1589 12.4564 14.271 12.5654 14.3696 12.6926ZM14.1047 16.6455C14.516 17.3007 14.9537 17.9823 15.3113 18.5356L12.4402 19.2329C13.0193 18.3544 13.6269 17.458 14.1047 16.6455ZM18.8796 19.3252C19.1953 19.4955 19.2902 19.7654 19.1753 20.0686C19.0672 20.348 18.5468 20.4232 18.3174 20.3403C18.0058 20.2441 17.5036 19.6665 17.0442 19.1902C17.1712 19.1587 17.3257 19.1373 17.4458 19.1321C17.9078 19.1117 18.4486 19.1226 18.8796 19.3252ZM10.3005 20.8171C9.9967 21.3111 9.6545 21.982 9.45459 22.104C9.25692 22.24 9.02872 22.1893 8.91284 22.0715C8.75267 21.9171 8.72508 21.5685 8.97778 21.2837C9.23531 21.0359 9.60324 20.9323 10.3005 20.8171Z" fill="black"/>
</svg>
