<svg width="24" height="24" viewBox="0 0 24 24" fill="none" xmlns="http://www.w3.org/2000/svg">
<path fill-rule="evenodd" clip-rule="evenodd" d="M12 16C12.5523 16 13 16.4477 13 17V17.0226C13 17.5749 12.5523 18.0226 12 18.0226C11.4477 18.0226 11 17.5749 11 17.0226V17C11 16.4477 11.4477 16 12 16Z" fill="#B1BBC5"/>
<path fill-rule="evenodd" clip-rule="evenodd" d="M14 7C14 7.41421 13.6642 7.75 13.25 7.75H10.75C10.3358 7.75 10 7.41421 10 7C10 6.58579 10.3358 6.25 10.75 6.25H13.25C13.6642 6.25 14 6.58579 14 7Z" fill="#B1BBC5"/>
<path fill-rule="evenodd" clip-rule="evenodd" d="M14.7246 4.10365C12.9388 3.63212 11.0612 3.63212 9.27541 4.10365C7.1957 4.65277 5.60432 6.33063 5.16519 8.43794L5.07021 8.89372C4.76525 10.3571 4.67812 11.8543 4.80881 13.337H19.1912C19.3219 11.8543 19.2347 10.3571 18.9298 8.89372L18.8348 8.43794L19.569 8.28494L18.8348 8.43794C18.3957 6.33062 16.8043 4.65277 14.7246 4.10365ZM18.9834 14.837H5.01662C5.03367 14.9269 5.05153 15.0166 5.07021 15.1063L5.16519 15.5621C5.60432 17.6694 7.1957 19.3472 9.2754 19.8964C11.0612 20.3679 12.9388 20.3679 14.7246 19.8964C16.8043 19.3472 18.3957 17.6694 18.8348 15.5621L18.9298 15.1063C18.9485 15.0166 18.9663 14.9269 18.9834 14.837ZM8.89247 2.65335C10.9293 2.11555 13.0707 2.11555 15.1075 2.65335C17.7369 3.34762 19.7483 5.46874 20.3033 8.13193L20.3982 8.58772C20.8673 10.8384 20.8673 13.1616 20.3982 15.4123L20.3033 15.8681C19.7483 18.5313 17.737 20.6524 15.1075 21.3466C13.0707 21.8844 10.9293 21.8844 8.89246 21.3466C6.26305 20.6524 4.25171 18.5313 3.69673 15.8681L3.60175 15.4123C3.13275 13.1616 3.13275 10.8384 3.60175 8.58771L3.69673 8.13194C4.2517 5.46874 6.26305 3.34762 8.89247 2.65335Z" fill="#B1BBC5"/>
</svg>
