<svg width="40" height="40" viewBox="0 0 40 40" fill="none" xmlns="http://www.w3.org/2000/svg">
<mask id="mask0_143_20173" style="mask-type:luminance" maskUnits="userSpaceOnUse" x="0" y="0" width="40" height="40">
<path d="M0 3.8147e-06H40V40H0V3.8147e-06Z" fill="white"/>
</mask>
<g mask="url(#mask0_143_20173)">
<path d="M17.1658 15.4824L13.3265 11.1685C13.1331 10.9513 13.2337 10.6065 13.5135 10.5272L17.1005 9.51156C17.202 9.48289 17.3108 9.49602 17.4026 9.54813L23.8869 13.232" stroke="white" stroke-miterlimit="10" stroke-linecap="round" stroke-linejoin="round"/>
<path d="M19.6993 23.0547L18.5414 29.5884C18.4906 29.8748 18.757 30.1157 19.0369 30.0365L22.6238 29.0208C22.7252 28.9921 22.811 28.9238 22.8618 28.8313L27.2017 20.9304L19.6993 23.0547Z" stroke="white" stroke-miterlimit="10" stroke-linecap="round" stroke-linejoin="round"/>
<path d="M7.46467 18.6764L5.03858 14.7628C4.4846 13.8692 3.40569 13.4507 2.39405 13.7371L1.64249 13.95C1.28249 14.0519 1.07327 14.4264 1.17522 14.7864L2.7396 20.3115" stroke="white" stroke-miterlimit="10" stroke-linecap="round" stroke-linejoin="round"/>
<path d="M36.3506 13.4584L32.3675 14.5863C31.9043 14.7174 31.4262 14.4178 31.35 13.9425C31.0832 12.2774 31.4224 10.9597 31.4835 10.743C33.3054 10.4382 35.1575 11.2787 36.1039 12.9034C36.1692 13.0159 36.2539 13.2101 36.3506 13.4584Z" stroke="white" stroke-miterlimit="10" stroke-linecap="round" stroke-linejoin="round"/>
<path d="M4.41668 23.289C3.65176 22.4709 3.06543 21.4633 2.73926 20.3115L30.9957 10.8533C31.1576 10.8074 31.3208 10.7711 31.4837 10.7439C33.3056 10.439 35.1577 11.2795 36.104 12.9042C36.1693 13.0168 36.254 13.211 36.3507 13.4593L36.5214 13.411C37.7016 13.0768 38.9294 13.7626 39.2636 14.943L39.3328 15.1875C39.6671 16.3677 38.9811 17.5955 37.8008 17.9297L11.703 25.3192C9.95598 25.8139 8.17715 25.6248 6.65215 24.9117" stroke="white" stroke-miterlimit="10" stroke-linecap="round" stroke-linejoin="round"/>
<path d="M13.8085 20.2844C13.925 20.6962 13.6858 21.1244 13.2741 21.241C12.8624 21.3576 12.4342 21.1183 12.3176 20.7066C12.201 20.2949 12.4403 19.8666 12.8519 19.7501C13.2636 19.6335 13.6919 19.8727 13.8085 20.2844Z" fill="white"/>
<path d="M16.8622 19.4203C16.9787 19.832 16.7395 20.2602 16.3278 20.3767C15.9161 20.4933 15.4879 20.2541 15.3713 19.8424C15.2547 19.4307 15.494 19.0025 15.9056 18.8859C16.3173 18.7693 16.7456 19.0085 16.8622 19.4203Z" fill="white"/>
<path d="M19.9168 18.555C20.0334 18.9667 19.7942 19.395 19.3825 19.5115C18.9708 19.6281 18.5425 19.3889 18.426 18.9771C18.3094 18.5655 18.5486 18.1372 18.9604 18.0207C19.372 17.9041 19.8003 18.1433 19.9168 18.555Z" fill="white"/>
<path d="M22.9706 17.6907C23.0871 18.1025 22.8479 18.5307 22.4362 18.6473C22.0245 18.7638 21.5963 18.5246 21.4797 18.1128C21.3631 17.7012 21.6024 17.2729 22.0141 17.1563C22.4257 17.0398 22.854 17.279 22.9706 17.6907Z" fill="white"/>
<path d="M26.0243 16.8255C26.1408 17.2373 25.9016 17.6655 25.4899 17.782C25.0783 17.8986 24.65 17.6594 24.5334 17.2476C24.4168 16.836 24.6561 16.4077 25.0678 16.2912C25.4794 16.1746 25.9077 16.4138 26.0243 16.8255Z" fill="white"/>
<path d="M29.079 15.9613C29.1956 16.373 28.9563 16.8012 28.5446 16.9178C28.133 17.0343 27.7046 16.7951 27.5881 16.3834C27.4716 15.9717 27.7107 15.5434 28.1225 15.4269C28.5342 15.3103 28.9624 15.5495 29.079 15.9613Z" fill="white"/>
<path d="M2.36621 25.9883H4.50645" stroke="white" stroke-miterlimit="10" stroke-linecap="round" stroke-linejoin="round"/>
<path d="M31.0469 22.2344H33.1871" stroke="white" stroke-miterlimit="10" stroke-linecap="round" stroke-linejoin="round"/>
<path d="M28.1846 24.4014H32.3007" stroke="white" stroke-miterlimit="10" stroke-linecap="round" stroke-linejoin="round"/>
<path d="M0.582031 28.2168H5.8182" stroke="white" stroke-miterlimit="10" stroke-linecap="round" stroke-linejoin="round"/>
</g>
</svg>
