<svg width="16" height="14" viewBox="0 0 16 14" fill="none" xmlns="http://www.w3.org/2000/svg">
<path d="M14.5877 2.71426C13.9361 2.71426 13.4062 3.22685 13.4062 3.85712C13.4062 4.28056 13.6484 4.64741 14.0034 4.84513C13.3235 6.41028 12.2784 7.3737 11.2569 7.284C10.1486 7.19658 9.24536 5.92856 8.74614 3.80857C9.38535 3.65199 9.86151 3.09484 9.86151 2.42857C9.86151 1.64057 9.19865 1 8.38459 1C7.57052 1 6.90766 1.64057 6.90766 2.42857C6.90766 3.09487 7.38383 3.65201 8.02303 3.80857C7.52382 5.92858 6.62053 7.19658 5.51226 7.284C4.49555 7.36285 3.44633 6.40914 2.76576 4.84457C3.1208 4.64741 3.36302 4.28056 3.36302 3.85715C3.36302 3.22687 2.83309 2.71429 2.18148 2.71429C1.52993 2.71426 1 3.22685 1 3.85712C1 4.44284 1.46021 4.92227 2.04919 4.9874L3.31404 11.3531C2.99621 11.4834 2.77231 11.788 2.77231 12.1429C2.77231 12.6154 3.16989 13 3.65846 13H13.1108C13.5993 13 13.9969 12.6154 13.9969 12.1429C13.9969 11.788 13.773 11.4834 13.4552 11.3531L14.72 4.98743C15.309 4.92227 15.7692 4.44284 15.7692 3.85712C15.7692 3.22685 15.2393 2.71426 14.5877 2.71426ZM2.18154 4.42855C1.85604 4.42855 1.59077 4.17255 1.59077 3.85712C1.59077 3.54169 1.85604 3.28569 2.18154 3.28569C2.50704 3.28569 2.77231 3.54169 2.77231 3.85712C2.77231 4.17255 2.50707 4.42855 2.18154 4.42855ZM7.49846 2.42855C7.49846 1.95597 7.89605 1.5714 8.38462 1.5714C8.87318 1.5714 9.27077 1.95597 9.27077 2.42855C9.27077 2.90112 8.87318 3.28569 8.38462 3.28569C7.89605 3.28569 7.49846 2.90112 7.49846 2.42855ZM13.1108 12.4286H3.65846C3.49542 12.4286 3.36308 12.3 3.36308 12.1429C3.36308 11.9857 3.49542 11.8571 3.65846 11.8571H13.1108C13.2738 11.8571 13.4062 11.9857 13.4062 12.1429C13.4062 12.3 13.2738 12.4286 13.1108 12.4286ZM12.8668 11.2857H3.90244L2.91351 6.30799C3.66025 7.35484 4.60014 7.93314 5.56014 7.8537C6.78008 7.75713 7.78026 6.63997 8.38462 4.74055C8.98897 6.64 9.98915 7.75713 11.2091 7.8537C11.2658 7.85827 11.3225 7.86056 11.3792 7.86056C12.279 7.85998 13.1533 7.29028 13.8563 6.30512L12.8668 11.2857ZM14.5877 4.42855C14.2622 4.42855 13.9969 4.17255 13.9969 3.85712C13.9969 3.54169 14.2622 3.28569 14.5877 3.28569C14.9132 3.28569 15.1785 3.54169 15.1785 3.85712C15.1785 4.17255 14.9132 4.42855 14.5877 4.42855Z" fill="white" stroke="white" stroke-width="0.3"/>
</svg>
