<svg width="36" height="36" viewBox="0 0 36 36" fill="none" xmlns="http://www.w3.org/2000/svg">
<path d="M21.3449 24.1641H18.3749C17.6849 24.1641 16.6799 23.9541 16.0949 23.3691L13.7849 21.5843L15.1649 19.7991L17.5799 21.6741C17.7599 21.8091 18.0899 21.8991 18.3749 21.8991H21.3449C21.7949 21.8991 22.3349 21.5091 22.4399 21.1191L24.3299 15.3441C24.3749 15.2241 24.4199 15.0591 24.3449 14.9392C24.2849 14.8492 24.1199 14.7892 23.9249 14.7892H20.8049C20.2499 14.7892 19.7249 14.5493 19.3499 14.1293C18.9899 13.7093 18.8249 13.1392 18.8999 12.5692L19.2899 10.0642C19.3349 9.86915 19.1999 9.64423 19.0349 9.58423C18.8999 9.53923 18.6749 9.61415 18.6149 9.68915L15.4199 14.4442L13.5449 13.1843L16.7399 8.4292C17.3699 7.4842 18.7049 7.04917 19.7849 7.45417C20.9999 7.85917 21.7799 9.20918 21.5099 10.4692L21.1949 12.5242H23.9249C24.8699 12.5242 25.6949 12.9292 26.1899 13.6342C26.6699 14.3242 26.7749 15.2091 26.4749 16.0641L24.6149 21.7341C24.2699 23.0691 22.8299 24.1641 21.3449 24.1641Z" fill="#2AB26E"/>
<path d="M12.84 23.3092H12.06C9.71999 23.3092 9.375 21.6742 9.375 20.6992V13.0641C9.375 12.0891 9.71999 10.4541 12.06 10.4541H12.84C15.18 10.4541 15.525 12.0891 15.525 13.0641V20.6992C15.525 21.6742 15.18 23.3092 12.84 23.3092ZM11.67 21.0442C11.715 21.0442 11.835 21.0592 12.06 21.0592H12.84C13.08 21.0592 13.215 21.0292 13.26 21.0142C13.26 20.9842 13.275 20.8942 13.275 20.6992V13.0641C13.275 12.8691 13.26 12.7641 13.245 12.7341C13.215 12.7341 13.095 12.7191 12.84 12.7191H12.06C11.82 12.7191 11.685 12.7492 11.64 12.7642C11.64 12.7942 11.625 12.8841 11.625 13.0791V20.7142C11.625 20.9092 11.64 21.0142 11.655 21.0592C11.655 21.0442 11.67 21.0442 11.67 21.0442Z" fill="#2AB26E"/>
<path d="M18 34.1247C16.95 34.1247 15.885 33.7195 15.09 32.9245L12.525 30.3897C11.88 29.7597 11.04 29.4145 10.14 29.4145H9C5.895 29.4145 3.375 26.9097 3.375 23.8347V7.4696C3.375 4.3946 5.895 1.88965 9 1.88965H27C30.105 1.88965 32.625 4.3946 32.625 7.4696V23.8347C32.625 26.9097 30.105 29.4145 27 29.4145H25.86C24.96 29.4145 24.105 29.7597 23.475 30.3897L20.91 32.9245C20.115 33.7195 19.05 34.1247 18 34.1247ZM9 4.12463C7.14 4.12463 5.625 5.62459 5.625 7.45459V23.8197C5.625 25.6647 7.14 27.1495 9 27.1495H10.14C11.64 27.1495 13.05 27.7345 14.115 28.7845L16.68 31.3197C17.415 32.0397 18.6 32.0397 19.335 31.3197L21.9 28.7845C22.965 27.7345 24.375 27.1495 25.875 27.1495H27C28.86 27.1495 30.375 25.6497 30.375 23.8197V7.45459C30.375 5.60959 28.86 4.12463 27 4.12463H9Z" fill="#1F2F40"/>
</svg>
