<svg width="26" height="26" viewBox="0 0 26 26" fill="none" xmlns="http://www.w3.org/2000/svg">
<path d="M20.0413 13.8132C19.5972 13.8132 19.2288 13.4448 19.2288 13.0007C19.2288 9.56648 16.4338 6.77148 12.9997 6.77148C9.56551 6.77148 6.77051 9.56648 6.77051 13.0007C6.77051 13.4448 6.40217 13.8132 5.95801 13.8132C5.51384 13.8132 5.14551 13.4448 5.14551 13.0007C5.14551 8.66732 8.66634 5.14648 12.9997 5.14648C17.333 5.14648 20.8538 8.66732 20.8538 13.0007C20.8538 13.4448 20.4855 13.8132 20.0413 13.8132Z" fill="#2AB26E"/>
<path d="M23.833 14.084H23.7463C23.1505 14.084 22.663 13.5965 22.663 13.0007C22.663 12.4048 23.1505 11.9173 23.7463 11.9173C24.3422 11.9173 24.873 12.4048 24.873 13.0007C24.873 13.5965 24.4288 14.084 23.833 14.084ZM2.25303 14.084H2.16634C1.57051 14.084 1.08301 13.5965 1.08301 13.0007C1.08301 12.4048 1.57051 11.9173 2.16634 11.9173C2.76217 11.9173 3.29299 12.4048 3.29299 13.0007C3.29299 13.5965 2.84886 14.084 2.25303 14.084ZM20.5938 6.48981C20.3122 6.48981 20.0413 6.38149 19.8247 6.17566C19.4022 5.75316 19.4022 5.07066 19.8247 4.64816L19.9655 4.50732C20.388 4.08482 21.0705 4.08482 21.493 4.50732C21.9155 4.92982 21.9155 5.61233 21.493 6.03483L21.3522 6.17566C21.1463 6.38149 20.8755 6.48981 20.5938 6.48981ZM5.4055 6.48981C5.12383 6.48981 4.85304 6.38149 4.63637 6.17566L4.49553 6.03483C4.07303 5.61233 4.07303 4.92982 4.49553 4.50732C4.91803 4.08482 5.60051 4.08482 6.02301 4.50732L6.16384 4.64816C6.58634 5.07066 6.58634 5.75316 6.16384 6.17566C5.95801 6.38149 5.67633 6.48981 5.4055 6.48981ZM12.9997 3.294C12.4038 3.294 11.9163 2.84981 11.9163 2.25397V2.16732C11.9163 1.57148 12.4038 1.08398 12.9997 1.08398C13.5955 1.08398 14.083 1.57148 14.083 2.16732C14.083 2.76315 13.5955 3.294 12.9997 3.294Z" fill="#2AB26E"/>
<path d="M21.6663 17.0635H4.33301C3.88884 17.0635 3.52051 16.6951 3.52051 16.251C3.52051 15.8068 3.88884 15.4385 4.33301 15.4385H21.6663C22.1105 15.4385 22.4788 15.8068 22.4788 16.251C22.4788 16.6951 22.1105 17.0635 21.6663 17.0635Z" fill="#2AB26E"/>
<path d="M19.5 20.3125H6.5C6.05583 20.3125 5.6875 19.9442 5.6875 19.5C5.6875 19.0558 6.05583 18.6875 6.5 18.6875H19.5C19.9442 18.6875 20.3125 19.0558 20.3125 19.5C20.3125 19.9442 19.9442 20.3125 19.5 20.3125Z" fill="#2AB26E"/>
<path d="M16.25 23.5625H9.75C9.30583 23.5625 8.9375 23.1942 8.9375 22.75C8.9375 22.3058 9.30583 21.9375 9.75 21.9375H16.25C16.6942 21.9375 17.0625 22.3058 17.0625 22.75C17.0625 23.1942 16.6942 23.5625 16.25 23.5625Z" fill="#2AB26E"/>
</svg>
