<svg width="26" height="26" viewBox="0 0 26 26" fill="none" xmlns="http://www.w3.org/2000/svg">
<path d="M17.333 10.5625H21.6663C22.1151 10.5625 22.4788 10.1987 22.4788 9.75C22.4788 9.30127 22.1151 8.9375 21.6663 8.9375H17.333C16.8843 8.9375 16.5205 9.30127 16.5205 9.75C16.5205 10.1987 16.8843 10.5625 17.333 10.5625Z" fill="#2AB26E"/>
<path d="M8.66602 15.4375C8.21729 15.4375 7.85352 15.8013 7.85352 16.25C7.85352 16.6987 8.21729 17.0625 8.66602 17.0625H17.3327C17.7814 17.0625 18.1452 16.6987 18.1452 16.25C18.1452 15.8013 17.7814 15.4375 17.3327 15.4375H8.66602Z" fill="#2AB26E"/>
<path fill-rule="evenodd" clip-rule="evenodd" d="M19.8735 3.597C18.9371 3.5205 17.7721 3.52051 16.2861 3.52051H9.71332C8.22729 3.52051 7.06224 3.5205 6.12586 3.597C5.17236 3.6749 4.38467 3.83617 3.67169 4.19944C2.4996 4.79665 1.54665 5.7496 0.949447 6.92169C0.586168 7.63467 0.424907 8.42237 0.347004 9.37586C0.270499 10.3122 0.270502 11.4773 0.270508 12.9633V13.0361C0.270502 14.5221 0.270499 15.6871 0.347004 16.6235C0.424907 17.577 0.586168 18.3647 0.949447 19.0776C1.54665 20.2498 2.4996 21.2027 3.67169 21.7999C4.38467 22.1632 5.17236 22.3245 6.12586 22.4024C7.06222 22.4788 8.22726 22.4788 9.71324 22.4788H16.2861C17.7721 22.4788 18.9371 22.4788 19.8735 22.4024C20.827 22.3245 21.6147 22.1632 22.3276 21.7999C23.4998 21.2027 24.4527 20.2498 25.0499 19.0776C25.4132 18.3647 25.5745 17.577 25.6524 16.6235C25.7288 15.6871 25.7288 14.5221 25.7288 13.0361V12.9633C25.7288 11.4773 25.7288 10.3122 25.6524 9.37586C25.5745 8.42236 25.4132 7.63467 25.0499 6.92169C24.4527 5.7496 23.4998 4.79665 22.3276 4.19944C21.6147 3.83617 20.827 3.6749 19.8735 3.597ZM4.40943 5.64733C4.85514 5.42023 5.40518 5.2863 6.25818 5.21661C7.12066 5.14614 8.21946 5.14551 9.74967 5.14551H16.2497C17.7799 5.14551 18.8787 5.14614 19.7411 5.21661C20.5942 5.2863 21.1442 5.42023 21.59 5.64733C22.4562 6.08874 23.1606 6.7931 23.602 7.65943C23.8291 8.10514 23.963 8.65518 24.0328 9.50818C24.1032 10.3707 24.1038 11.4695 24.1038 12.9997C24.1038 14.5299 24.1032 15.6287 24.0328 16.4911C23.963 17.3442 23.8291 17.8942 23.602 18.34C23.1606 19.2062 22.4562 19.9106 21.59 20.352C21.1442 20.5791 20.5942 20.713 19.7411 20.7828C18.8787 20.8532 17.7799 20.8538 16.2497 20.8538H9.74967C8.21946 20.8538 7.12066 20.8532 6.25818 20.7828C5.40518 20.713 4.85514 20.5791 4.40943 20.352C3.5431 19.9106 2.83874 19.2062 2.39733 18.34C2.17023 17.8942 2.0363 17.3442 1.96661 16.4911C1.89614 15.6287 1.89551 14.5299 1.89551 12.9997C1.89551 11.4695 1.89614 10.3707 1.96661 9.50818C2.0363 8.65518 2.17023 8.10514 2.39733 7.65943C2.83874 6.7931 3.5431 6.08874 4.40943 5.64733Z" fill="#2AB26E"/>
<path d="M6.49967 16.2493C6.49967 16.8477 6.01466 17.3327 5.41634 17.3327C4.81804 17.3327 4.33301 16.8477 4.33301 16.2493C4.33301 15.651 4.81804 15.166 5.41634 15.166C6.01466 15.166 6.49967 15.651 6.49967 16.2493Z" fill="#2AB26E"/>
<path d="M21.6667 16.2493C21.6667 16.8477 21.1817 17.3327 20.5833 17.3327C19.985 17.3327 19.5 16.8477 19.5 16.2493C19.5 15.651 19.985 15.166 20.5833 15.166C21.1817 15.166 21.6667 15.651 21.6667 16.2493Z" fill="#2AB26E"/>
<path d="M10.8327 9.74935C10.8327 10.3477 10.3477 10.8327 9.74935 10.8327C9.15105 10.8327 8.66602 10.3477 8.66602 9.74935C8.66602 9.15105 9.15105 8.66602 9.74935 8.66602C10.3477 8.66602 10.8327 9.15105 10.8327 9.74935Z" fill="#2AB26E"/>
<path d="M15.1667 9.74935C15.1667 10.3477 14.6817 10.8327 14.0833 10.8327C13.485 10.8327 13 10.3477 13 9.74935C13 9.15105 13.485 8.66602 14.0833 8.66602C14.6817 8.66602 15.1667 9.15105 15.1667 9.74935Z" fill="#2AB26E"/>
<path d="M6.49967 9.74935C6.49967 10.3477 6.01466 10.8327 5.41634 10.8327C4.81804 10.8327 4.33301 10.3477 4.33301 9.74935C4.33301 9.15105 4.81804 8.66602 5.41634 8.66602C6.01466 8.66602 6.49967 9.15105 6.49967 9.74935Z" fill="#2AB26E"/>
</svg>
