<svg width="26" height="26" viewBox="0 0 26 26" fill="none" xmlns="http://www.w3.org/2000/svg">
<circle cx="13" cy="13" r="13" fill="#09AD8A"/>
<path d="M11.6689 14.6899C11.5352 14.6899 11.4014 14.6406 11.2957 14.535C11.0915 14.3307 11.0915 13.9927 11.2957 13.7885L13.8166 11.2606C14.0208 11.0564 14.3588 11.0564 14.563 11.2606C14.7672 11.4648 14.7672 11.8028 14.563 12.007L12.0421 14.535C11.9435 14.6406 11.8027 14.6899 11.6689 14.6899Z" fill="white"/>
<path d="M14.5629 19.781C13.732 19.781 12.5561 19.1965 11.6266 16.401L11.1195 14.88L9.59854 14.373C6.81004 13.4435 6.22559 12.2675 6.22559 11.4366C6.22559 10.6128 6.81004 9.42975 9.59854 8.49321L15.5769 6.50042C17.0698 6.00046 18.3161 6.14833 19.0837 6.90883C19.8512 7.66933 19.9991 8.92275 19.4991 10.4156L17.5064 16.3939C16.5698 19.1965 15.3939 19.781 14.5629 19.781ZM9.9295 9.50017C7.97192 10.155 7.27479 10.9296 7.27479 11.4366C7.27479 11.9436 7.97192 12.7182 9.9295 13.366L11.704 13.9575C11.8589 14.0068 11.9857 14.1335 12.035 14.2885L12.6265 16.063C13.2743 18.0205 14.0559 18.7177 14.5629 18.7177C15.0699 18.7177 15.8445 18.0205 16.4994 16.063L18.4922 10.0846C18.8513 9.00021 18.7879 8.11296 18.3302 7.65525C17.8725 7.19754 16.9853 7.14121 15.9079 7.50033L9.9295 9.50017Z" fill="white"/>
</svg>
