<svg width="26" height="26" viewBox="0 0 26 26" fill="none" xmlns="http://www.w3.org/2000/svg">
<path d="M10.9523 15.6003C10.7465 15.6003 10.5407 15.5245 10.3782 15.362C10.064 15.0478 10.064 14.5278 10.3782 14.2137L14.2565 10.3245C14.5706 10.0103 15.0906 10.0103 15.4048 10.3245C15.719 10.6387 15.719 11.1587 15.4048 11.4728L11.5265 15.362C11.3748 15.5245 11.1581 15.6003 10.9523 15.6003Z" fill="white"/>
<path d="M15.4048 23.4327C14.1265 23.4327 12.3173 22.5335 10.8873 18.2327L10.1073 15.8927L7.76729 15.1127C3.47729 13.6827 2.57812 11.8735 2.57812 10.5953C2.57812 9.32776 3.47729 7.50776 7.76729 6.06693L16.9648 3.00109C19.2615 2.23193 21.179 2.45943 22.3598 3.62943C23.5406 4.79943 23.7681 6.72776 22.999 9.02443L19.9331 18.2219C18.4923 22.5335 16.6831 23.4327 15.4048 23.4327ZM8.27646 7.61609C5.26479 8.62359 4.19229 9.81526 4.19229 10.5953C4.19229 11.3752 5.26479 12.5669 8.27646 13.5635L11.0065 14.4735C11.2448 14.5494 11.4398 14.7444 11.5156 14.9827L12.4256 17.7127C13.4223 20.7244 14.6248 21.7969 15.4048 21.7969C16.1848 21.7969 17.3765 20.7244 18.384 17.7127L21.4498 8.51526C22.0023 6.84693 21.9048 5.48193 21.2006 4.77776C20.4965 4.07359 19.1315 3.98693 17.474 4.53943L8.27646 7.61609Z" fill="white"/>
</svg>
