<svg width="26" height="26" viewBox="0 0 26 26" fill="none" xmlns="http://www.w3.org/2000/svg">
<path fill-rule="evenodd" clip-rule="evenodd" d="M13.1309 16.2495C12.6821 16.2495 12.3184 15.8857 12.3184 15.437V2.39258C12.3184 1.94385 12.6821 1.58008 13.1309 1.58008C13.5796 1.58008 13.9434 1.94385 13.9434 2.39258V15.437C13.9434 15.8857 13.5796 16.2495 13.1309 16.2495Z" fill="#2AB26E"/>
<path fill-rule="evenodd" clip-rule="evenodd" d="M9.39834 6.13931C9.08039 5.82266 9.07933 5.30822 9.39597 4.99026L12.555 1.81826C12.7074 1.66516 12.9146 1.5791 13.1307 1.5791C13.3467 1.5791 13.5539 1.66516 13.7064 1.81826L16.8654 4.99026C17.182 5.30822 17.1809 5.82266 16.863 6.13931C16.545 6.45595 16.0307 6.4549 15.714 6.13695L13.1307 3.54302L10.5474 6.13695C10.2307 6.4549 9.71628 6.45595 9.39834 6.13931Z" fill="#2AB26E"/>
<path fill-rule="evenodd" clip-rule="evenodd" d="M4.82126 10.5206C5.44477 9.67913 6.46409 9.25848 8.34074 9.08549C8.78758 9.0443 9.11641 8.64868 9.07522 8.20184C9.03404 7.75501 8.63841 7.42616 8.19158 7.46735C6.1899 7.65186 4.56588 8.1358 3.51564 9.5531C2.50874 10.912 2.16699 12.9593 2.16699 15.8598C2.16699 19.7054 2.76991 22.0699 4.74526 23.2832C5.68674 23.8616 6.85273 24.1172 8.1875 24.2413C9.51703 24.365 11.1142 24.365 12.9661 24.365H13.0346C14.8864 24.365 16.4837 24.365 17.8131 24.2413C19.1479 24.1172 20.3139 23.8616 21.2554 23.2832C23.2308 22.0699 23.8337 19.7054 23.8337 15.8598C23.8337 12.9593 23.4919 10.912 22.485 9.5531C21.4347 8.1358 19.8108 7.65186 17.809 7.46735C17.3623 7.42616 16.9666 7.75501 16.9255 8.20184C16.8842 8.64868 17.2131 9.0443 17.66 9.08549C19.5365 9.25848 20.5559 9.67913 21.1794 10.5206C21.8463 11.4205 22.2087 12.9861 22.2087 15.8598C22.2087 19.7069 21.5603 21.1888 20.4048 21.8986C19.7809 22.2819 18.9115 22.5071 17.6626 22.6233C16.4166 22.7393 14.8931 22.74 13.0003 22.74C11.1075 22.74 9.58408 22.7393 8.33805 22.6233C7.08906 22.5071 6.21974 22.2819 5.59581 21.8986C4.44032 21.1888 3.79199 19.7069 3.79199 15.8598C3.79199 12.9861 4.15441 11.4205 4.82126 10.5206Z" fill="#1F2F40"/>
</svg>
