<svg width="26" height="26" viewBox="0 0 26 26" fill="none" xmlns="http://www.w3.org/2000/svg">
<path fill-rule="evenodd" clip-rule="evenodd" d="M9.07197 13.949C9.31915 13.5745 9.82314 13.4713 10.1977 13.7184L15.9616 17.5227C16.3362 17.7698 16.4394 18.2738 16.1923 18.6484C15.945 19.0229 15.4411 19.1261 15.0666 18.879L9.30253 15.0747C8.92801 14.8275 8.82479 14.3235 9.07197 13.949Z" fill="#1F2F40"/>
<path fill-rule="evenodd" clip-rule="evenodd" d="M16.3007 6.96268C16.5478 7.3372 16.4446 7.84118 16.07 8.08836L10.306 11.8927C9.93154 12.1398 9.42755 12.0366 9.18036 11.6621C8.93319 11.2875 9.03641 10.7836 9.41093 10.5364L15.175 6.73213C15.5495 6.48494 16.0534 6.58817 16.3007 6.96268Z" fill="#1F2F40"/>
<path fill-rule="evenodd" clip-rule="evenodd" d="M7.04183 10.5625C5.99479 10.5625 5.146 11.4113 5.146 12.4583C5.146 13.5054 5.99479 14.3542 7.04183 14.3542C8.08887 14.3542 8.93766 13.5054 8.93766 12.4583C8.93766 11.4113 8.08887 10.5625 7.04183 10.5625ZM3.521 12.4583C3.521 10.5138 5.09732 8.9375 7.04183 8.9375C8.98634 8.9375 10.5627 10.5138 10.5627 12.4583C10.5627 14.4028 8.98634 15.9792 7.04183 15.9792C5.09732 15.9792 3.521 14.4028 3.521 12.4583Z" fill="#1F2F40"/>
<path fill-rule="evenodd" clip-rule="evenodd" d="M17.8753 18.1465C16.8283 18.1465 15.9795 18.9953 15.9795 20.0423C15.9795 21.0894 16.8283 21.9382 17.8753 21.9382C18.9224 21.9382 19.7712 21.0894 19.7712 20.0423C19.7712 18.9953 18.9224 18.1465 17.8753 18.1465ZM14.3545 20.0423C14.3545 18.0978 15.9309 16.5215 17.8753 16.5215C19.8198 16.5215 21.3962 18.0978 21.3962 20.0423C21.3962 21.9868 19.8198 23.5632 17.8753 23.5632C15.9309 23.5632 14.3545 21.9868 14.3545 20.0423Z" fill="#1F2F40"/>
<path fill-rule="evenodd" clip-rule="evenodd" d="M17.8753 4.0625C16.8283 4.0625 15.9795 4.91129 15.9795 5.95833C15.9795 7.00537 16.8283 7.85417 17.8753 7.85417C18.9224 7.85417 19.7712 7.00537 19.7712 5.95833C19.7712 4.91129 18.9224 4.0625 17.8753 4.0625ZM14.3545 5.95833C14.3545 4.01383 15.9309 2.4375 17.8753 2.4375C19.8198 2.4375 21.3962 4.01383 21.3962 5.95833C21.3962 7.90284 19.8198 9.47917 17.8753 9.47917C15.9309 9.47917 14.3545 7.90284 14.3545 5.95833Z" fill="#1F2F40"/>
</svg>
