<svg width="26" height="26" viewBox="0 0 26 26" fill="none" xmlns="http://www.w3.org/2000/svg">
<path d="M12.9999 19.8466C11.2882 19.8466 9.58731 19.2291 8.28731 18.005C7.96231 17.6908 7.95148 17.1816 8.25481 16.8566C8.56898 16.5316 9.07815 16.5208 9.40315 16.8241C11.3856 18.6983 14.614 18.6983 16.5965 16.8241C16.9215 16.5208 17.4415 16.5316 17.7449 16.8566C18.0482 17.1816 18.0374 17.7016 17.7124 18.005C16.4124 19.2291 14.7115 19.8466 12.9999 19.8466Z" fill="#9095AE"/>
<path d="M13.0005 24.6132C10.108 24.6132 7.20463 23.5732 5.00546 21.4824C2.69796 19.294 1.39797 16.3474 1.35464 13.184C1.3113 10.0098 2.52463 7.03067 4.76713 4.78817C9.30629 0.248996 16.6947 0.248996 21.2338 4.78817C23.4763 7.03067 24.6897 10.0098 24.6463 13.184C24.603 16.3582 23.303 19.3049 20.9955 21.4824C18.7963 23.5732 15.893 24.6132 13.0005 24.6132ZM13.0005 3.01154C10.433 3.01154 7.86546 3.98649 5.91546 5.93649C3.98713 7.86482 2.94714 10.4324 2.97964 13.1624C3.01214 15.8924 4.12796 18.4274 6.12129 20.3015C9.91296 23.8982 16.088 23.8874 19.8797 20.3015C21.8622 18.4274 22.978 15.8815 23.0213 13.1624C23.0647 10.4432 22.0138 7.86482 20.0855 5.93649C18.1355 3.98649 15.568 3.01154 13.0005 3.01154Z" fill="#9095AE"/>
</svg>
