<svg width="26" height="26" viewBox="0 0 26 26" fill="none" xmlns="http://www.w3.org/2000/svg">
<path d="M10.1239 17.5339L12.5403 21.4605C12.8262 21.925 13.3325 22.208 13.8779 22.208C14.8405 22.208 15.5766 21.35 15.4302 20.3986L15.1669 18.6872C14.8821 16.8359 16.3145 15.1663 18.1875 15.1663H18.9347C21.6832 15.1663 23.4708 12.2739 22.2416 9.81571L20.9974 7.32728C20.0798 5.49219 18.2043 4.33301 16.1525 4.33301H13.0002C11.54 4.33301 10.2485 5.05526 9.46343 6.162C9.474 6.27313 9.47941 6.38577 9.47941 6.49967V15.1663C9.47941 15.5249 9.42581 15.8709 9.32617 16.1969C9.51816 16.5496 9.77378 16.965 10.1239 17.5339Z" fill="#CC0E36"/>
<path d="M7.85417 6.49935C7.85417 5.45231 7.00538 4.60352 5.95833 4.60352C4.91129 4.60352 4.0625 5.45231 4.0625 6.49935V15.166C4.0625 16.2131 4.91129 17.0618 5.95833 17.0618C7.00538 17.0618 7.85417 16.2131 7.85417 15.166V6.49935Z" fill="#CC0E36"/>
</svg>
