<svg width="26" height="26" viewBox="0 0 26 26" fill="none" xmlns="http://www.w3.org/2000/svg">
<path d="M10.5497 17.2718L10.5497 17.2718C10.2555 16.7937 10.0346 16.4346 9.86251 16.1322C9.93895 15.8224 9.97941 15.4988 9.97941 15.1663V6.49967C9.97941 6.4367 9.97796 6.37403 9.97508 6.31169C10.6773 5.4109 11.7713 4.83301 13.0002 4.83301H16.1525C18.0149 4.83301 19.7173 5.88518 20.5502 7.55089L21.7944 10.0393L21.7944 10.0393C22.8573 12.1651 21.3115 14.6663 18.9347 14.6663H18.1875C16.008 14.6663 14.3413 16.609 14.6727 18.7632L14.936 20.4746L14.936 20.4747C15.0358 21.1231 14.5341 21.708 13.8779 21.708C13.5062 21.708 13.161 21.5152 12.9661 21.1985C12.9661 21.1985 12.9661 21.1984 12.9661 21.1984L10.5497 17.2718Z" stroke="#9095AE"/>
<path d="M5.95833 5.10352C6.72923 5.10352 7.35417 5.72845 7.35417 6.49935V15.166C7.35417 15.9369 6.72923 16.5618 5.95833 16.5618C5.18743 16.5618 4.5625 15.9369 4.5625 15.166V6.49935C4.5625 5.72845 5.18743 5.10352 5.95833 5.10352Z" stroke="#9095AE"/>
</svg>
