<svg width="26" height="26" viewBox="0 0 26 26" fill="none" xmlns="http://www.w3.org/2000/svg">
<path d="M10.1239 8.46614L12.5403 4.53949C12.8262 4.07496 13.3325 3.79199 13.8779 3.79199C14.8405 3.79199 15.5766 4.64999 15.4302 5.60138L15.1669 7.31283C14.8821 9.16413 16.3145 10.8337 18.1875 10.8337H18.9347C21.6832 10.8337 23.4708 13.7261 22.2416 16.1843L20.9974 18.6727C20.0798 20.5078 18.2043 21.667 16.1525 21.667H13.0002C11.54 21.667 10.2485 20.9447 9.46343 19.838C9.474 19.7269 9.47941 19.6142 9.47941 19.5003V10.8337C9.47941 10.4751 9.42581 10.1291 9.32617 9.80308C9.51816 9.45035 9.77378 9.035 10.1239 8.46614Z" fill="#2AB26E"/>
<path d="M7.85417 19.5007C7.85417 20.5477 7.00538 21.3965 5.95833 21.3965C4.91129 21.3965 4.0625 20.5477 4.0625 19.5007V10.834C4.0625 9.78694 4.91129 8.93815 5.95833 8.93815C7.00538 8.93815 7.85417 9.78694 7.85417 10.834V19.5007Z" fill="#2AB26E"/>
</svg>
