<svg width="26" height="26" viewBox="0 0 26 26" fill="none" xmlns="http://www.w3.org/2000/svg">
<path d="M10.5497 8.72819L10.5497 8.7282C10.2555 9.20627 10.0346 9.56543 9.86251 9.86776C9.93895 10.1776 9.97941 10.5012 9.97941 10.8337V19.5003C9.97941 19.5633 9.97796 19.626 9.97508 19.6883C10.6773 20.5891 11.7713 21.167 13.0002 21.167H16.1525C18.0149 21.167 19.7173 20.1148 20.5502 18.4491L21.7944 15.9607L21.7944 15.9607C22.8573 13.8349 21.3115 11.3337 18.9347 11.3337H18.1875C16.008 11.3337 14.3413 9.39099 14.6727 7.2368L14.936 5.52536L14.936 5.5253C15.0358 4.87687 14.5341 4.29199 13.8779 4.29199C13.5062 4.29199 13.161 4.48485 12.9661 4.80154C12.9661 4.80155 12.9661 4.80155 12.9661 4.80156L10.5497 8.72819Z" fill="white" stroke="#9095AE"/>
<path d="M5.95833 20.8965C6.72923 20.8965 7.35417 20.2716 7.35417 19.5007V10.834C7.35417 10.0631 6.72923 9.43815 5.95833 9.43815C5.18743 9.43815 4.5625 10.0631 4.5625 10.834V19.5007C4.5625 20.2716 5.18743 20.8965 5.95833 20.8965Z" fill="white" stroke="#9095AE"/>
</svg>
