<svg width="26" height="26" viewBox="0 0 26 26" fill="none" xmlns="http://www.w3.org/2000/svg">
<path fill-rule="evenodd" clip-rule="evenodd" d="M16.1182 4.42331C14.0672 3.94223 11.9328 3.94223 9.88185 4.42331C7.17341 5.05862 5.05862 7.1734 4.42331 9.88185C3.94223 11.9328 3.94223 14.0672 4.42331 16.1182C5.05862 18.8266 7.17341 20.9414 9.88185 21.5766C11.9328 22.0577 14.0672 22.0577 16.1182 21.5766C18.8266 20.9414 20.9414 18.8266 21.5766 16.1182C22.0577 14.0672 22.0577 11.9328 21.5766 9.88185C20.9414 7.17341 18.8266 5.05862 16.1182 4.42331ZM9.51075 2.84126C11.8057 2.30291 14.1943 2.30291 16.4892 2.84126C19.7986 3.61751 22.3825 6.20144 23.1587 9.51075C23.697 11.8057 23.697 14.1943 23.1587 16.4892C22.3825 19.7986 19.7986 22.3825 16.4892 23.1587C14.1943 23.697 11.8057 23.697 9.51075 23.1587C6.20145 22.3825 3.61751 19.7986 2.84126 16.4893C2.30291 14.1943 2.30291 11.8057 2.84126 9.51074C3.61751 6.20144 6.20144 3.61751 9.51075 2.84126Z" fill="#2AB26E"/>
<path fill-rule="evenodd" clip-rule="evenodd" d="M12.6328 8.9375C13.0815 8.9375 13.4453 9.30127 13.4453 9.75V13.3057L16.1441 15.0228C16.5227 15.2637 16.6343 15.7659 16.3935 16.1445C16.1526 16.5231 15.6504 16.6347 15.2718 16.3939L12.1967 14.4373C11.9622 14.2881 11.8203 14.0295 11.8203 13.7517V9.75C11.8203 9.30127 12.1841 8.9375 12.6328 8.9375Z" fill="#2AB26E"/>
</svg>
