<svg width="26" height="26" viewBox="0 0 26 26" fill="none" xmlns="http://www.w3.org/2000/svg">
<path fill-rule="evenodd" clip-rule="evenodd" d="M2.44824 13.0108C2.44824 7.17786 7.17784 2.44824 13.0107 2.44824C18.8436 2.44824 23.5732 7.17786 23.5732 13.0108C23.5732 18.8437 18.8436 23.5733 13.0107 23.5733C7.17784 23.5733 2.44824 18.8437 2.44824 13.0108ZM13.0107 4.07324C8.07529 4.07324 4.07324 8.07532 4.07324 13.0108C4.07324 17.9462 8.07529 21.9483 13.0107 21.9483C17.9462 21.9483 21.9482 17.9462 21.9482 13.0108C21.9482 8.07532 17.9462 4.07324 13.0107 4.07324Z" fill="#2AB26E"/>
<path fill-rule="evenodd" clip-rule="evenodd" d="M11.8951 10.1611C11.5192 10.1611 11.1368 10.5017 11.1368 11.0061C11.1368 11.3881 11.2188 11.5259 11.2599 11.5782C11.3086 11.6403 11.4062 11.7176 11.667 11.8107L14.9301 12.949C15.3118 13.0849 15.7481 13.2982 16.074 13.7155C16.407 14.142 16.5427 14.674 16.5427 15.2853C16.5427 16.6153 15.5133 17.7553 14.1593 17.7553H12.1226C10.6436 17.7553 9.50098 16.5122 9.50098 15.047C9.50098 14.5982 9.86478 14.2345 10.3135 14.2345C10.7622 14.2345 11.126 14.5982 11.126 15.047C11.126 15.6835 11.6084 16.1303 12.1226 16.1303H14.1593C14.5387 16.1303 14.9177 15.797 14.9177 15.2853C14.9177 14.9109 14.8366 14.7712 14.7932 14.7156C14.7428 14.651 14.6432 14.572 14.3875 14.4808L11.1244 13.3424C10.7477 13.2084 10.3094 12.999 9.98185 12.5818C9.64651 12.1548 9.51183 11.6209 9.51183 11.0061C9.51183 9.69053 10.5378 8.53613 11.8951 8.53613H13.9318C15.4109 8.53613 16.5535 9.77932 16.5535 11.2445C16.5535 11.6932 16.1897 12.057 15.741 12.057C15.2923 12.057 14.9285 11.6932 14.9285 11.2445C14.9285 10.6079 14.4461 10.1611 13.9318 10.1611H11.8951Z" fill="#2AB26E"/>
<path fill-rule="evenodd" clip-rule="evenodd" d="M13.0215 7.45312C13.4702 7.45312 13.834 7.81686 13.834 8.26562V18.0264C13.834 18.4752 13.4702 18.8389 13.0215 18.8389C12.5727 18.8389 12.209 18.4752 12.209 18.0264V8.26562C12.209 7.81686 12.5727 7.45312 13.0215 7.45312Z" fill="#2AB26E"/>
</svg>
