<svg width="36" height="36" viewBox="0 0 36 36" fill="none" xmlns="http://www.w3.org/2000/svg">
<path fill-rule="evenodd" clip-rule="evenodd" d="M17.9496 1.875H21.0504C23.108 1.875 24.7211 1.87499 26.0177 1.98092C27.3378 2.08878 28.4284 2.31207 29.4156 2.81507C31.0386 3.64197 32.358 4.96143 33.185 6.58434C33.6879 7.57154 33.9113 8.66219 34.0191 9.98241C34.125 11.2789 34.125 12.8921 34.125 14.9496V21.3424C34.125 25.0884 31.0884 28.125 27.3424 28.125H26.4399C26.0672 28.125 25.8123 28.5015 25.9508 28.8476C26.9807 31.4226 24.0152 33.7504 21.7584 32.1385L18.9735 30.1493C18.35 30.3708 17.6861 30.5052 16.9965 30.5382C16.8312 30.5462 16.6247 30.5462 16.299 30.5462H16.2588L16.1727 30.5463C15.2156 30.5525 14.2817 30.8553 13.4965 31.416L10.3947 33.6618C8.38716 35.1153 5.88324 32.9874 6.74875 30.7941C6.77389 30.7305 6.76532 30.67 6.7307 30.6181C6.69653 30.567 6.6529 30.5462 6.60231 30.5462H5.90027C2.83443 30.5462 0.375 28.0311 0.375 24.9609V19.9118C0.374993 18.2973 0.374985 17.018 0.458112 15.9867C0.543098 14.9323 0.720417 14.0393 1.13064 13.2232C1.79568 11.9002 2.85833 10.8217 4.16882 10.1449C4.43537 10.0072 4.71012 9.89529 4.99625 9.80394C5.10967 8.56083 5.3364 7.52378 5.81506 6.58433C6.64198 4.96143 7.96143 3.64197 9.58433 2.81507C10.5715 2.31207 11.6622 2.08878 12.9824 1.98092C14.2789 1.87499 15.892 1.875 17.9496 1.875ZM7.30223 9.43186C8.24771 9.3749 9.36516 9.37494 10.7078 9.375H13.2167C14.8078 9.37499 16.0716 9.37499 17.0909 9.45939C18.1344 9.54582 19.0209 9.72642 19.8312 10.1449C21.1418 10.8217 22.2043 11.9002 22.8693 13.2232C23.2795 14.0393 23.4569 14.9323 23.5419 15.9867C23.625 17.018 23.625 18.2974 23.625 19.9118V23.1861C23.625 23.4843 23.625 23.6741 23.6172 23.8404C23.5221 25.8789 22.573 27.6915 21.1191 28.9169L23.0661 30.3076C23.4944 30.6135 24.057 30.1717 23.8615 29.6832C23.1319 27.8592 24.4753 25.875 26.4399 25.875H27.3424C29.8458 25.875 31.875 23.8458 31.875 21.3424V15C31.875 12.8812 31.8741 11.3598 31.7766 10.1656C31.68 8.98455 31.4946 8.22295 31.1802 7.60581C30.569 6.40627 29.5937 5.43102 28.3943 4.81983C27.777 4.50538 27.0155 4.31994 25.8344 4.22344C24.6402 4.12587 23.1187 4.125 21 4.125H18C15.8813 4.125 14.3598 4.12587 13.1656 4.22344C11.9845 4.31994 11.223 4.50538 10.6058 4.81983C9.40627 5.43102 8.43102 6.40627 7.81983 7.60581C7.57484 8.08665 7.40924 8.65227 7.30223 9.43186ZM10.8333 11.625C8.57677 11.625 7.23809 11.6295 6.26097 11.8063C5.81826 11.8864 5.48519 11.9974 5.20129 12.144C4.31657 12.601 3.59444 13.3316 3.14096 14.2337C2.91539 14.6825 2.77481 15.2498 2.70084 16.1674C2.62586 17.0978 2.625 18.2865 2.625 19.9607V24.9609C2.625 26.8173 4.1057 28.2962 5.90027 28.2962H6.60231C8.32778 28.2962 9.46215 30.0477 8.84169 31.6201C8.81547 31.6864 8.82237 31.7221 8.82817 31.7415C8.83661 31.7697 8.85791 31.8051 8.89527 31.8348C8.93268 31.8646 8.96729 31.8738 8.9868 31.8749C8.99638 31.8755 9.0232 31.8769 9.07513 31.8393L12.121 29.634L12.1887 29.5851C13.3496 28.7561 14.7347 28.3056 16.158 28.2963L16.2588 28.2962C16.6376 28.2962 16.7848 28.2958 16.8886 28.2909C17.5145 28.2607 18.1063 28.1077 18.6429 27.855C20.1885 27.1275 21.284 25.5711 21.3698 23.7354C21.3747 23.6286 21.375 23.4956 21.375 23.1522V19.9607C21.375 18.2865 21.3741 17.0978 21.2991 16.1674C21.2251 15.2498 21.0846 14.6825 20.859 14.2337C20.4056 13.3316 19.6835 12.601 18.7987 12.144C18.3612 11.918 17.8071 11.7764 16.9051 11.7017C15.9895 11.6259 14.819 11.625 13.1667 11.625H10.8333Z" fill="white"/>
<path d="M9 21C9 21.8285 8.32844 22.5 7.5 22.5C6.67158 22.5 6 21.8285 6 21C6 20.1716 6.67158 19.5 7.5 19.5C8.32844 19.5 9 20.1716 9 21Z" fill="white"/>
<path d="M13.5 21C13.5 21.8285 12.8284 22.5 12 22.5C11.1716 22.5 10.5 21.8285 10.5 21C10.5 20.1716 11.1716 19.5 12 19.5C12.8284 19.5 13.5 20.1716 13.5 21Z" fill="white"/>
<path d="M18 21C18 21.8285 17.3285 22.5 16.5 22.5C15.6716 22.5 15 21.8285 15 21C15 20.1716 15.6716 19.5 16.5 19.5C17.3285 19.5 18 20.1716 18 21Z" fill="white"/>
<circle cx="29.5" cy="8.5" r="6" fill="#D93A5B" stroke="white"/>
</svg>
