<svg width="26" height="26" viewBox="0 0 26 26" fill="none" xmlns="http://www.w3.org/2000/svg">
<path d="M9.74977 23.5625H8.66643C8.22227 23.5625 7.85393 23.1942 7.85393 22.75C7.85393 22.3058 8.2006 21.9483 8.64477 21.9375C6.94393 16.1308 6.94393 9.86917 8.64477 4.0625C8.2006 4.05167 7.85393 3.69417 7.85393 3.25C7.85393 2.80583 8.22227 2.4375 8.66643 2.4375H9.74977C10.0098 2.4375 10.2589 2.5675 10.4106 2.77333C10.5623 2.99 10.6056 3.26083 10.5189 3.51C8.48227 9.63083 8.48227 16.3692 10.5189 22.5008C10.6056 22.75 10.5623 23.0208 10.4106 23.2375C10.2589 23.4325 10.0098 23.5625 9.74977 23.5625Z" fill="#2AB26E"/>
<path d="M16.2496 23.5629C16.1629 23.5629 16.0763 23.5521 15.9896 23.5196C15.5671 23.3788 15.3288 22.9129 15.4804 22.4904C17.5171 16.3696 17.5171 9.63123 15.4804 3.49956C15.3396 3.07706 15.5671 2.61123 15.9896 2.4704C16.4229 2.32956 16.8779 2.55706 17.0188 2.97956C19.1746 9.43623 19.1746 16.5429 17.0188 22.9888C16.9104 23.3463 16.5854 23.5629 16.2496 23.5629Z" fill="#2AB26E"/>
<path d="M13 18.6332C9.9775 18.6332 6.96583 18.2107 4.0625 17.3549C4.05167 17.7882 3.69417 18.1457 3.25 18.1457C2.80583 18.1457 2.4375 17.7774 2.4375 17.3332V16.2499C2.4375 15.9899 2.5675 15.7407 2.77333 15.589C2.99 15.4374 3.26083 15.394 3.51 15.4807C9.63083 17.5174 16.38 17.5174 22.5008 15.4807C22.75 15.394 23.0208 15.4374 23.2375 15.589C23.4542 15.7407 23.5733 15.9899 23.5733 16.2499V17.3332C23.5733 17.7774 23.205 18.1457 22.7608 18.1457C22.3167 18.1457 21.9592 17.799 21.9483 17.3549C19.0342 18.2107 16.0225 18.6332 13 18.6332Z" fill="#2AB26E"/>
<path d="M22.7501 10.5628C22.6634 10.5628 22.5767 10.552 22.4901 10.5195C16.3692 8.4828 9.62009 8.4828 3.49926 10.5195C3.06592 10.6603 2.61092 10.4328 2.47009 10.0103C2.34009 9.57697 2.56759 9.12197 2.99009 8.98113C9.44676 6.8253 16.5534 6.8253 22.9992 8.98113C23.4217 9.12197 23.6601 9.5878 23.5084 10.0103C23.4109 10.3461 23.0859 10.5628 22.7501 10.5628Z" fill="#2AB26E"/>
<path d="M13.0003 24.6462C6.57616 24.6462 1.35449 19.4245 1.35449 13.0003C1.35449 6.57616 6.57616 1.35449 13.0003 1.35449C19.4245 1.35449 24.6462 6.57616 24.6462 13.0003C24.6462 19.4245 19.4245 24.6462 13.0003 24.6462ZM13.0003 2.97949C7.47533 2.97949 2.97949 7.47533 2.97949 13.0003C2.97949 18.5253 7.47533 23.0212 13.0003 23.0212C18.5253 23.0212 23.0212 18.5253 23.0212 13.0003C23.0212 7.47533 18.5253 2.97949 13.0003 2.97949Z" fill="#2AB26E"/>
</svg>
