<svg width="36" height="36" viewBox="0 0 36 36" fill="none" xmlns="http://www.w3.org/2000/svg">
<path fill-rule="evenodd" clip-rule="evenodd" d="M13.5 7.125C11.2218 7.125 9.375 8.97183 9.375 11.25C9.375 13.5282 11.2218 15.375 13.5 15.375C15.7782 15.375 17.625 13.5282 17.625 11.25C17.625 8.97183 15.7782 7.125 13.5 7.125ZM7.125 11.25C7.125 7.72919 9.97919 4.875 13.5 4.875C17.0208 4.875 19.875 7.72919 19.875 11.25C19.875 14.7708 17.0208 17.625 13.5 17.625C9.97919 17.625 7.125 14.7708 7.125 11.25ZM10.0925 22.683L9.82536 22.7257C7.40555 23.1119 5.625 25.1991 5.625 27.6495C5.625 28.3263 6.17365 28.875 6.85045 28.875H20.1495C20.8263 28.875 21.375 28.3263 21.375 27.6495C21.375 25.1991 19.5945 23.1119 17.1747 22.7257L16.9075 22.683C14.6501 22.3228 12.3499 22.3228 10.0925 22.683ZM9.7379 20.4612C12.2302 20.0634 14.7698 20.0634 17.2621 20.4612L17.5293 20.5038C21.041 21.0642 23.625 24.0933 23.625 27.6495C23.625 29.5691 22.069 31.125 20.1495 31.125H6.85045C4.93101 31.125 3.375 29.5691 3.375 27.6495C3.375 24.0933 5.959 21.0642 9.47075 20.5038L9.7379 20.4612Z" fill="#1F2F40"/>
<path fill-rule="evenodd" clip-rule="evenodd" d="M21.375 6C21.375 5.37868 21.8787 4.875 22.5 4.875C26.0208 4.875 28.875 7.72919 28.875 11.25C28.875 14.7708 26.0208 17.625 22.5 17.625C21.8787 17.625 21.375 17.1213 21.375 16.5C21.375 15.8787 21.8787 15.375 22.5 15.375C24.7782 15.375 26.625 13.5282 26.625 11.25C26.625 8.97183 24.7782 7.125 22.5 7.125C21.8787 7.125 21.375 6.62132 21.375 6ZM23.2368 21.5721C23.2368 20.9508 23.7405 20.4471 24.3618 20.4471H25.8139C26.0533 20.4471 26.2927 20.466 26.5293 20.5038C30.0409 21.0642 32.625 24.0933 32.625 27.6495C32.625 29.5691 31.0691 31.125 29.1495 31.125H26.0849C25.4636 31.125 24.9599 30.6213 24.9599 30C24.9599 29.3787 25.4636 28.875 26.0849 28.875H29.1495C29.8263 28.875 30.375 28.3263 30.375 27.6495C30.375 25.1991 28.5945 23.1119 26.1747 22.7257C26.0556 22.7067 25.9347 22.6971 25.8139 22.6971H24.3618C23.7405 22.6971 23.2368 22.1934 23.2368 21.5721Z" fill="#2AB26E"/>
</svg>
