<svg width="50" height="50" viewBox="0 0 50 50" fill="none" xmlns="http://www.w3.org/2000/svg">
<path fill-rule="evenodd" clip-rule="evenodd" d="M11.896 17.5C11.896 10.3917 17.7997 4.6875 25.0002 4.6875C32.2007 4.6875 38.1044 10.3917 38.1044 17.5C38.1044 24.6082 32.2007 30.3125 25.0002 30.3125C17.7997 30.3125 11.896 24.6082 11.896 17.5ZM25.0002 7.8125C19.4507 7.8125 15.021 12.1916 15.021 17.5C15.021 22.8084 19.4507 27.1875 25.0002 27.1875C30.5497 27.1875 34.9794 22.8084 34.9794 17.5C34.9794 12.1916 30.5497 7.8125 25.0002 7.8125Z" fill="white"/>
<path fill-rule="evenodd" clip-rule="evenodd" d="M36.1045 44.4607C31.0258 36.3103 18.8295 36.3554 13.835 44.5623C13.3863 45.2994 12.4251 45.5333 11.6879 45.0847C10.9508 44.6361 10.7169 43.6748 11.1655 42.9376C17.3772 32.7312 32.4644 32.6896 38.7645 42.8207L38.7778 42.8418L38.84 42.9461C39.284 43.6861 39.044 44.6458 38.3042 45.0898C37.5642 45.5338 36.6044 45.2938 36.1604 44.5538L36.1045 44.4607Z" fill="white"/>
</svg>
