<svg width="26" height="26" viewBox="0 0 26 26" fill="none" xmlns="http://www.w3.org/2000/svg">
<path fill-rule="evenodd" clip-rule="evenodd" d="M10.1435 3.83366C8.23677 3.83366 6.69108 5.37935 6.69108 7.28605C6.69108 9.19273 8.23677 10.7384 10.1435 10.7384C12.0502 10.7384 13.5958 9.19273 13.5958 7.28605C13.5958 5.37935 12.0502 3.83366 10.1435 3.83366ZM5.02441 7.28605C5.02441 4.45887 7.31629 2.16699 10.1435 2.16699C12.9706 2.16699 15.2625 4.45887 15.2625 7.28605C15.2625 10.1132 12.9706 12.4051 10.1435 12.4051C7.31629 12.4051 5.02441 10.1132 5.02441 7.28605Z" fill="#2AB26E"/>
<path fill-rule="evenodd" clip-rule="evenodd" d="M8.02948 16.6911C5.71219 16.6911 3.83366 18.5696 3.83366 20.887C3.83366 21.0022 3.85355 21.0819 3.87352 21.127C3.88961 21.1633 3.90147 21.1703 3.90673 21.1733C4.47832 21.5092 6.1226 22.1673 10.1432 22.1673C14.1637 22.1673 15.8076 21.5095 16.3791 21.1736C16.3844 21.1705 16.3968 21.1633 16.4128 21.127C16.4329 21.0819 16.4527 21.0022 16.4527 20.887C16.4527 18.5696 14.5742 16.6911 12.2568 16.6911H8.02948ZM2.16699 20.887C2.16699 17.6492 4.79171 15.0244 8.02948 15.0244H12.2568C15.4946 15.0244 18.1194 17.6492 18.1194 20.887C18.1194 21.4446 17.9309 22.1948 17.2236 22.6105C16.2916 23.1583 14.31 23.834 10.1432 23.834C5.97642 23.834 3.99481 23.1583 3.06272 22.6105C2.35547 22.1948 2.16699 21.4446 2.16699 20.887Z" fill="#2AB26E"/>
<path fill-rule="evenodd" clip-rule="evenodd" d="M16.8382 4.21182C16.9584 3.76752 17.4159 3.5047 17.8601 3.62477C19.6983 4.12159 20.976 5.93679 20.976 8.00067C20.976 10.1814 19.4813 12.1477 17.385 12.3995C16.928 12.4544 16.5131 12.1285 16.4582 11.6715C16.4033 11.2146 16.7292 10.7996 17.1862 10.7447C18.3041 10.6104 19.3094 9.48787 19.3094 8.00067C19.3094 6.58965 18.4443 5.5091 17.4253 5.23372C16.981 5.11364 16.7182 4.65612 16.8382 4.21182Z" fill="#2AB26E"/>
<path fill-rule="evenodd" clip-rule="evenodd" d="M19.3251 15.6983C19.4132 15.2466 19.8509 14.9518 20.3026 15.04C22.3534 15.44 23.8335 17.2366 23.8335 19.3261V19.9054C23.8335 20.4182 23.6797 21.1487 23.0106 21.5763C22.5602 21.8642 21.8616 22.1711 20.7845 22.3889C20.3334 22.4802 19.8938 22.1885 19.8024 21.7374C19.7112 21.2863 20.0029 20.8467 20.454 20.7553C21.373 20.5694 21.8696 20.3276 22.113 20.1721L22.1149 20.1701C22.1168 20.1679 22.1233 20.1591 22.1313 20.1395C22.1491 20.0964 22.1668 20.019 22.1668 19.9054V19.3261C22.1668 18.0341 21.2516 16.9232 19.9836 16.6758C19.5318 16.5877 19.2371 16.1501 19.3251 15.6983Z" fill="#2AB26E"/>
</svg>
