<svg width="26" height="26" viewBox="0 0 26 26" fill="none" xmlns="http://www.w3.org/2000/svg">
<path fill-rule="evenodd" clip-rule="evenodd" d="M6.18604 9.1C6.18604 5.40371 9.25598 2.4375 13.0002 2.4375C16.7445 2.4375 19.8144 5.40371 19.8144 9.1C19.8144 12.7963 16.7445 15.7625 13.0002 15.7625C9.25598 15.7625 6.18604 12.7963 6.18604 9.1ZM13.0002 4.0625C10.1145 4.0625 7.81103 6.33962 7.81103 9.1C7.81103 11.8604 10.1145 14.1375 13.0002 14.1375C15.886 14.1375 18.1894 11.8604 18.1894 9.1C18.1894 6.33962 15.886 4.0625 13.0002 4.0625Z" fill="#2AB26E"/>
<path fill-rule="evenodd" clip-rule="evenodd" d="M18.7744 23.1193C16.1334 18.8811 9.79135 18.9046 7.19421 23.1722C6.96086 23.5555 6.46103 23.6771 6.07771 23.4438C5.69439 23.2105 5.57276 22.7107 5.80605 22.3273C9.03612 17.02 16.8815 16.9984 20.1576 22.2665L20.1644 22.2775L20.1968 22.3317C20.4277 22.7165 20.3029 23.2156 19.9182 23.4465C19.5334 23.6774 19.0343 23.5526 18.8034 23.1678L18.7744 23.1193Z" fill="#2AB26E"/>
</svg>
