<svg width="24" height="24" viewBox="0 0 24 24" fill="none" xmlns="http://www.w3.org/2000/svg">
<path fill-rule="evenodd" clip-rule="evenodd" d="M11.9999 0.286133C9.00175 0.286133 6.57129 2.71659 6.57129 5.7147C6.57129 8.71282 9.00175 11.1433 11.9999 11.1433C14.998 11.1433 17.4284 8.71282 17.4284 5.7147C17.4284 2.71659 14.998 0.286133 11.9999 0.286133ZM8.28557 5.7147C8.28557 3.66336 9.94851 2.00042 11.9999 2.00042C14.0512 2.00042 15.7141 3.66336 15.7141 5.7147C15.7141 7.76605 14.0512 9.42899 11.9999 9.42899C9.94851 9.42899 8.28557 7.76605 8.28557 5.7147Z" fill="#B1BBC5"/>
<path fill-rule="evenodd" clip-rule="evenodd" d="M8.57115 12.8574C5.57304 12.8574 3.14258 15.2878 3.14258 18.286C3.14258 21.2842 5.57304 23.7146 8.57115 23.7146H15.4283C18.4265 23.7146 20.8569 21.2842 20.8569 18.286C20.8569 15.2878 18.4265 12.8574 15.4283 12.8574H8.57115ZM4.85686 18.286C4.85686 16.2347 6.5198 14.5717 8.57115 14.5717H15.4283C17.4796 14.5717 19.1426 16.2347 19.1426 18.286C19.1426 20.3373 17.4796 22.0003 15.4283 22.0003H8.57115C6.5198 22.0003 4.85686 20.3373 4.85686 18.286Z" fill="#B1BBC5"/>
</svg>
