<svg width="36" height="36" viewBox="0 0 36 36" fill="none" xmlns="http://www.w3.org/2000/svg">
<path fill-rule="evenodd" clip-rule="evenodd" d="M28.5 13.875C29.1213 13.875 29.625 14.3787 29.625 15V16.875H31.5C32.1213 16.875 32.625 17.3787 32.625 18C32.625 18.6213 32.1213 19.125 31.5 19.125H29.625V21C29.625 21.6213 29.1213 22.125 28.5 22.125C27.8787 22.125 27.375 21.6213 27.375 21V19.125H25.5C24.8787 19.125 24.375 18.6213 24.375 18C24.375 17.3787 24.8787 16.875 25.5 16.875H27.375V15C27.375 14.3787 27.8787 13.875 28.5 13.875Z" fill="#2AB26E"/>
<path fill-rule="evenodd" clip-rule="evenodd" d="M11.0007 22.4526L10.6891 22.5041C7.79824 22.9806 5.625 25.5716 5.625 28.6673C5.625 29.6451 6.38323 30.375 7.24219 30.375H22.7579C23.6167 30.375 24.375 29.6451 24.375 28.6673C24.375 25.5716 22.2018 22.9806 19.311 22.5041L18.9993 22.4526C16.3498 22.0158 13.6502 22.0158 11.0007 22.4526ZM19.3653 20.2326L19.677 20.2839C23.7063 20.9483 26.625 24.5235 26.625 28.6673C26.625 30.8183 24.9277 32.625 22.7579 32.625H7.24219C5.0722 32.625 3.375 30.8183 3.375 28.6673C3.375 24.5235 6.29375 20.9483 10.323 20.2839L10.6347 20.2326C13.5265 19.7558 16.4735 19.7558 19.3653 20.2326Z" fill="#1F2F40"/>
<path fill-rule="evenodd" clip-rule="evenodd" d="M15 5.625C12.1997 5.625 10 7.80385 10 10.4062C10 13.0086 12.1997 15.1875 15 15.1875C17.8004 15.1875 20 13.0086 20 10.4062C20 7.80385 17.8004 5.625 15 5.625ZM7.75 10.4062C7.75 6.48479 11.0349 3.375 15 3.375C18.9651 3.375 22.25 6.48479 22.25 10.4062C22.25 14.3277 18.9651 17.4375 15 17.4375C11.0349 17.4375 7.75 14.3277 7.75 10.4062Z" fill="#2AB26E"/>
</svg>
