<svg width="25" height="25" viewBox="0 0 25 25" fill="none" xmlns="http://www.w3.org/2000/svg">
<g clip-path="url(#clip0_2494_19227)">
<path d="M20.877 0H3.68418C1.64946 0 0 1.64946 0 3.68418V20.877C0 22.9117 1.64946 24.5612 3.68418 24.5612H20.877C22.9117 24.5612 24.5612 22.9117 24.5612 20.877V3.68418C24.5612 1.64946 22.9117 0 20.877 0Z" fill="#3396CD"/>
<path d="M18.2961 5.05078C18.8238 5.91906 19.0588 6.81132 19.0588 7.94344C19.0588 11.5461 15.9839 16.228 13.4846 19.5141H7.78562L5.5022 5.8423L10.496 5.36739L11.7097 15.0959C12.837 13.2538 14.2329 10.3612 14.2329 8.39437C14.2329 7.31502 14.0458 6.58106 13.758 5.97662L18.2961 5.05078Z" fill="white"/>
</g>
<defs>
<clipPath id="clip0_2494_19227">
<rect width="24.5612" height="24.5612" fill="white"/>
</clipPath>
</defs>
</svg>
