<svg width="36" height="36" viewBox="0 0 36 36" fill="none" xmlns="http://www.w3.org/2000/svg">
<path d="M23.4551 18.1709C22.8338 18.1709 22.3301 18.6744 22.3301 19.2959C22.3301 19.9172 22.8338 20.4209 23.4551 20.4209H27.546C28.1673 20.4209 28.671 19.9172 28.671 19.2959C28.671 18.6744 28.1673 18.1709 27.546 18.1709H23.4551Z" fill="#2AB26E"/>
<path fill-rule="evenodd" clip-rule="evenodd" d="M29.4708 5.06621C29.5869 5.73215 29.6151 6.52353 29.6229 7.42896C29.753 7.49684 29.8808 7.56909 30.0062 7.64598C31.1667 8.35716 32.1425 9.33291 32.8536 10.4935C33.6368 11.7712 33.9215 13.2522 34.0391 15.1344C34.1247 16.5038 34.1247 18.1692 34.1247 20.2148V20.2572C34.1247 21.4302 34.1247 22.4751 34.1093 23.4051C34.0613 26.297 33.8739 28.3416 32.8536 30.0066C32.1425 31.1672 31.1667 32.1429 30.0062 32.8541C28.898 33.5331 27.6408 33.8358 26.1054 33.9818C24.5993 34.125 22.7138 34.125 20.3088 34.125H15.6906C13.2856 34.125 11.4001 34.125 9.89382 33.9818C8.3585 33.8358 7.10135 33.5331 5.9931 32.8541C4.83257 32.1429 3.85682 31.1672 3.14564 30.0066C2.46651 28.8984 2.16384 27.6411 2.01786 26.1059C1.87464 24.5996 1.87464 22.7141 1.87466 20.3091L1.87478 19.5204C1.85501 18.7793 1.86108 17.9505 1.86762 17.057C1.87107 16.5861 1.87466 16.0971 1.87466 15.5934V15.5285C1.87464 12.9601 1.87464 10.9443 2.04089 9.34452C2.21046 7.71282 2.56308 6.38193 3.35835 5.24079C3.83883 4.55133 4.42175 3.9431 5.08673 3.43941C6.19419 2.60057 7.49015 2.22765 9.07058 2.04914C10.6125 1.87499 12.5522 1.87499 15.0093 1.875H23.2115C24.4092 1.87496 25.4246 1.87491 26.234 1.98836C27.0984 2.10954 27.8919 2.37911 28.5267 3.04092C29.0777 3.61539 29.3388 4.30842 29.4708 5.06621ZM23.1323 4.125C24.4308 4.125 25.2869 4.1276 25.9217 4.21658C26.5191 4.30032 26.7515 4.44059 26.903 4.59845C27.0429 4.74443 27.1692 4.96482 27.2543 5.45259C27.3111 5.77874 27.3422 6.17736 27.3585 6.68729C26.7395 6.57398 26.0714 6.50414 25.3434 6.45923C23.9784 6.375 22.3196 6.375 20.2844 6.375H15.6906C13.2855 6.375 11.4001 6.37499 9.89382 6.51821C8.3585 6.66419 7.10135 6.96686 5.9931 7.64598C5.39568 8.01209 4.84724 8.4483 4.35863 8.94374C4.52327 7.85274 4.79289 7.11758 5.2043 6.52724C5.55168 6.02879 5.9708 5.59236 6.44526 5.23298C7.10184 4.73564 7.94612 4.44045 9.32312 4.28492C10.724 4.12668 12.5368 4.125 15.0792 4.125H23.1323ZM7.16873 9.56442C7.86402 9.13836 8.73617 8.88843 10.1068 8.75811C11.4942 8.6262 13.2728 8.625 15.7497 8.625H20.2497C22.3266 8.625 23.9171 8.6255 25.205 8.70497C26.4915 8.78436 27.3911 8.93913 28.1003 9.20843C28.3658 9.3093 28.6062 9.42692 28.8306 9.56442C29.6883 10.0901 30.4095 10.8113 30.9353 11.6691C31.3052 12.2727 31.5408 13.0065 31.6821 14.0796H23.4542C20.5736 14.0796 18.2382 16.4148 18.2382 19.2956C18.2382 22.1762 20.5736 24.5114 23.4542 24.5114H31.8287C31.742 26.702 31.503 27.9045 30.9353 28.8309C30.4095 29.6888 29.6883 30.41 28.8306 30.9356C28.1352 31.3617 27.2631 31.6116 25.8926 31.742C24.5052 31.8738 22.7265 31.875 20.2497 31.875H15.7497C13.2728 31.875 11.4942 31.8738 10.1068 31.742C8.73617 31.6116 7.86402 31.3617 7.16873 30.9356C6.31094 30.41 5.58974 29.6888 5.06408 28.8309C4.638 28.1357 4.38807 27.2636 4.25775 25.8929C4.12584 24.5055 4.12466 22.7268 4.12466 20.25C4.12466 17.7732 4.12584 15.9945 4.25775 14.6071C4.38807 13.2365 4.638 12.3644 5.06408 11.6691C5.58974 10.8113 6.31094 10.0901 7.16873 9.56442ZM20.4882 19.2956C20.4882 17.6574 21.8162 16.3296 23.4542 16.3296H31.841C31.8744 17.4155 31.8747 18.6966 31.8747 20.25C31.8747 20.9759 31.8746 21.6435 31.8711 22.2614H23.4542C21.8162 22.2614 20.4882 20.9336 20.4882 19.2956Z" fill="#1F2F40"/>
<path fill-rule="evenodd" clip-rule="evenodd" d="M11.0003 13C11.5101 13 11.9235 13.4088 11.9235 13.913V14.66H12.0256C13.7423 14.66 15 16.1362 15 17.7865C15 18.2907 14.5867 18.6995 14.0769 18.6995C13.5671 18.6995 13.1539 18.2907 13.1539 17.7865C13.1539 16.9919 12.5748 16.4861 12.0256 16.4861H11.9235V19.3605L13.1697 19.8088C14.3023 20.2162 15 21.324 15 22.4973C15 23.9908 13.8601 25.3399 12.2888 25.3399H11.9235V26.0869C11.9235 26.5912 11.5101 27 11.0003 27C10.4905 27 10.0772 26.5912 10.0772 26.0869V25.3399H9.9744C8.25771 25.3399 7 23.8637 7 22.2134C7 21.7091 7.41328 21.3003 7.92308 21.3003C8.43293 21.3003 8.84613 21.7091 8.84613 22.2134C8.84613 23.008 9.4252 23.5137 9.9744 23.5137H10.0772V20.6395L8.83027 20.1911C7.69773 19.7837 7 18.6759 7 17.5025C7 16.0091 8.13988 14.66 9.7112 14.66H10.0772V13.913C10.0772 13.4088 10.4905 13 11.0003 13ZM10.0772 16.4861H9.7112C9.30747 16.4861 8.84613 16.8648 8.84613 17.5025C8.84613 17.9903 9.13347 18.3571 9.4612 18.475L10.0772 18.6965V16.4861ZM11.9235 21.3037V23.5137H12.2888C12.6925 23.5137 13.1539 23.1352 13.1539 22.4973C13.1539 22.0097 12.8665 21.6429 12.5388 21.525L11.9235 21.3037Z" fill="#2AB26E"/>
</svg>
