<svg width="34" height="34" viewBox="0 0 34 34" fill="none" xmlns="http://www.w3.org/2000/svg">
<path d="M22.4551 17.1719C21.8338 17.1719 21.3301 17.6754 21.3301 18.2969C21.3301 18.9182 21.8338 19.4219 22.4551 19.4219H26.546C27.1673 19.4219 27.671 18.9182 27.671 18.2969C27.671 17.6754 27.1673 17.1719 26.546 17.1719H22.4551Z" fill="#E59B0B"/>
<path fill-rule="evenodd" clip-rule="evenodd" d="M28.4708 4.06621C28.5869 4.73215 28.6151 5.52353 28.6229 6.42896C28.753 6.49684 28.8808 6.56909 29.0062 6.64598C30.1667 7.35716 31.1425 8.33291 31.8536 9.49346C32.6368 10.7712 32.9215 12.2522 33.0391 14.1344C33.1247 15.5038 33.1247 17.1692 33.1247 19.2148V19.2572C33.1247 20.4302 33.1247 21.4751 33.1093 22.4051C33.0613 25.297 32.8739 27.3416 31.8536 29.0066C31.1425 30.1672 30.1667 31.1429 29.0062 31.8541C27.898 32.5331 26.6408 32.8358 25.1054 32.9818C23.5993 33.125 21.7138 33.125 19.3088 33.125H14.6906C12.2856 33.125 10.4001 33.125 8.89382 32.9818C7.3585 32.8358 6.10135 32.5331 4.9931 31.8541C3.83257 31.1429 2.85682 30.1672 2.14564 29.0066C1.46651 27.8984 1.16384 26.6411 1.01786 25.1059C0.874641 23.5996 0.874641 21.7141 0.874656 19.3091L0.874776 18.5204C0.855006 17.7793 0.861081 16.9505 0.867621 16.057C0.871071 15.5861 0.874656 15.0971 0.874656 14.5934V14.5285C0.874641 11.9601 0.874641 9.94433 1.04089 8.34452C1.21046 6.71282 1.56308 5.38193 2.35835 4.24079C2.83883 3.55133 3.42175 2.9431 4.08673 2.43941C5.19419 1.60057 6.49015 1.22765 8.07058 1.04914C9.61247 0.874987 11.5522 0.874987 14.0093 0.875002H22.2115C23.4092 0.874957 24.4246 0.874912 25.234 0.988357C26.0984 1.10954 26.8919 1.37911 27.5267 2.04092C28.0777 2.61539 28.3388 3.30842 28.4708 4.06621ZM22.1323 3.125C23.4308 3.125 24.2869 3.1276 24.9217 3.21658C25.5191 3.30032 25.7515 3.44059 25.903 3.59845C26.0429 3.74443 26.1692 3.96482 26.2543 4.45259C26.3111 4.77874 26.3422 5.17736 26.3585 5.68729C25.7395 5.57398 25.0714 5.50414 24.3434 5.45923C22.9784 5.375 21.3196 5.375 19.2844 5.375H14.6906C12.2855 5.375 10.4001 5.37499 8.89382 5.51821C7.3585 5.66419 6.10135 5.96686 4.9931 6.64598C4.39568 7.01209 3.84724 7.4483 3.35863 7.94374C3.52327 6.85274 3.79289 6.11758 4.2043 5.52724C4.55168 5.02879 4.9708 4.59236 5.44526 4.23298C6.10184 3.73564 6.94612 3.44045 8.32312 3.28492C9.72404 3.12668 11.5368 3.125 14.0792 3.125H22.1323ZM6.16873 8.56442C6.86402 8.13836 7.73617 7.88843 9.10679 7.75811C10.4942 7.6262 12.2728 7.625 14.7497 7.625H19.2497C21.3266 7.625 22.9171 7.6255 24.205 7.70497C25.4915 7.78436 26.3911 7.93913 27.1003 8.20843C27.3658 8.3093 27.6062 8.42692 27.8306 8.56442C28.6883 9.09008 29.4095 9.81128 29.9353 10.6691C30.3052 11.2727 30.5408 12.0065 30.6821 13.0796H22.4542C19.5736 13.0796 17.2382 15.4148 17.2382 18.2956C17.2382 21.1762 19.5736 23.5114 22.4542 23.5114H30.8287C30.742 25.702 30.503 26.9045 29.9353 27.8309C29.4095 28.6888 28.6883 29.41 27.8306 29.9356C27.1352 30.3617 26.2631 30.6116 24.8926 30.742C23.5052 30.8738 21.7265 30.875 19.2497 30.875H14.7497C12.2728 30.875 10.4942 30.8738 9.10679 30.742C7.73617 30.6116 6.86402 30.3617 6.16873 29.9356C5.31094 29.41 4.58974 28.6888 4.06408 27.8309C3.638 27.1357 3.38807 26.2636 3.25775 24.8929C3.12584 23.5055 3.12466 21.7268 3.12466 19.25C3.12466 16.7732 3.12584 14.9945 3.25775 13.6071C3.38807 12.2365 3.638 11.3644 4.06408 10.6691C4.58974 9.81128 5.31094 9.09008 6.16873 8.56442ZM19.4882 18.2956C19.4882 16.6574 20.8162 15.3296 22.4542 15.3296H30.841C30.8744 16.4155 30.8747 17.6966 30.8747 19.25C30.8747 19.9759 30.8746 20.6435 30.8711 21.2614H22.4542C20.8162 21.2614 19.4882 19.9336 19.4882 18.2956Z" fill="#1F2F40"/>
<path fill-rule="evenodd" clip-rule="evenodd" d="M10.0003 12C10.5101 12 10.9235 12.4088 10.9235 12.913V13.66H11.0256C12.7423 13.66 14 15.1362 14 16.7865C14 17.2907 13.5867 17.6995 13.0769 17.6995C12.5671 17.6995 12.1539 17.2907 12.1539 16.7865C12.1539 15.9919 11.5748 15.4861 11.0256 15.4861H10.9235V18.3605L12.1697 18.8088C13.3023 19.2162 14 20.324 14 21.4973C14 22.9908 12.8601 24.3399 11.2888 24.3399H10.9235V25.0869C10.9235 25.5912 10.5101 26 10.0003 26C9.49053 26 9.0772 25.5912 9.0772 25.0869V24.3399H8.9744C7.25771 24.3399 6 22.8637 6 21.2134C6 20.7091 6.41328 20.3003 6.92308 20.3003C7.43293 20.3003 7.84613 20.7091 7.84613 21.2134C7.84613 22.008 8.4252 22.5137 8.9744 22.5137H9.0772V19.6395L7.83027 19.1911C6.69773 18.7837 6 17.6759 6 16.5025C6 15.0091 7.13988 13.66 8.7112 13.66H9.0772V12.913C9.0772 12.4088 9.49053 12 10.0003 12ZM9.0772 15.4861H8.7112C8.30747 15.4861 7.84613 15.8648 7.84613 16.5025C7.84613 16.9903 8.13347 17.3571 8.4612 17.475L9.0772 17.6965V15.4861ZM10.9235 20.3037V22.5137H11.2888C11.6925 22.5137 12.1539 22.1352 12.1539 21.4973C12.1539 21.0097 11.8665 20.6429 11.5388 20.525L10.9235 20.3037Z" fill="#E59B0B"/>
</svg>
