<svg width="25" height="25" viewBox="0 0 25 25" fill="none" xmlns="http://www.w3.org/2000/svg">
<path d="M12.2806 24.5612C19.063 24.5612 24.5612 19.063 24.5612 12.2806C24.5612 5.49821 19.063 0 12.2806 0C5.49821 0 0 5.49821 0 12.2806C0 19.063 5.49821 24.5612 12.2806 24.5612Z" fill="#6D1ED4"/>
<path fill-rule="evenodd" clip-rule="evenodd" d="M13.3934 20.8631H11.3616C11.1712 20.8631 11.0164 20.7082 11.0164 20.5178V18.5405H7.72916C7.46629 18.5405 7.25244 18.3266 7.25244 18.0637V16.4661C7.25244 16.3599 7.2885 16.2555 7.35396 16.172L13.1746 8.74651H7.98957C7.72671 8.74651 7.51281 8.53266 7.51281 8.26979V6.49858C7.51281 6.23571 7.72671 6.02184 7.98957 6.02184H11.0145V4.04447C11.0145 3.85411 11.1694 3.69922 11.3598 3.69922H13.3916C13.5819 3.69922 13.7368 3.85411 13.7368 4.04447V6.02184H16.8284C17.0913 6.02184 17.3051 6.23571 17.3051 6.49858V8.02669C17.3051 8.13258 17.2692 8.23685 17.204 8.32029L11.3463 15.8157L16.8284 15.8152C17.0913 15.8152 17.3051 16.0291 17.3051 16.292V18.0632C17.3051 18.326 17.0913 18.5399 16.8284 18.5399L13.7387 18.5404V20.5178C13.7387 20.7082 13.5838 20.8631 13.3934 20.8631Z" fill="white"/>
</svg>
